<svg id="Layer_1" data-name="Layer 1" xmlns="http://www.w3.org/2000/svg" viewBox="0 0 417.18 365.17"><title>English Export</title><path d="M138.65,56H108.91l-6.85,20H88L116.29,0h15l28.24,76h-14ZM135,45.47l-8.88-25.68a54.83,54.83,0,0,1-2.24-8.13h-.22a53.57,53.57,0,0,1-2.25,8.13l-8.88,25.68Z"/><path d="M199.25,21.07V34.55h-4.93a17.6,17.6,0,0,0-8.82,2,6.67,6.67,0,0,0-3.59,6.2V73.5h-15.3V21.07h14.77v6.42a14.09,14.09,0,0,1,6.68-5.19,22.83,22.83,0,0,1,7.23-1.23h4m2.5-2.5h-6.46a25.48,25.48,0,0,0-8,1.36,13.77,13.77,0,0,0-3.39,1.69V18.57H164.11V76h20.3V42.79a4.2,4.2,0,0,1,2.32-4,15.33,15.33,0,0,1,7.59-1.71h7.43V18.57Z"/><path d="M230.78,8.23V21.07h14V34.44h-14V52.85q0,4.17,1.76,5.72a7.8,7.8,0,0,0,5.3,1.56H245V73.5h-9.1q-10.69,0-15.62-4.6t-4.92-15.73V34.44h-7.92V21.07h7.92V8.23h15.41m2.5-2.5H212.87V18.57H205V36.94h7.92V53.17c0,8.11,1.92,14,5.71,17.56S228.16,76,235.91,76h11.6V57.63h-9.67a5.72,5.72,0,0,1-3.65-.93c-.27-.25-.91-1.11-.91-3.85V36.94h14V18.57h-14V5.73Z"/><path d="M140.37,120a19,19,0,0,1,8.56,1.87,15.64,15.64,0,0,1,5.88,4.87v-5.67h14.45v50.5a28,28,0,0,1-1.93,11,18.25,18.25,0,0,1-5.4,7.33,22.77,22.77,0,0,1-8.4,4.12,40.77,40.77,0,0,1-10.7,1.34q-10.07,0-16.59-4.39a18.19,18.19,0,0,1-7.91-12.73l14.44-1.93a7.44,7.44,0,0,0,3.59,5.08,12.52,12.52,0,0,0,6.47,1.66,13.79,13.79,0,0,0,8.51-2.46q3.25-2.46,3.26-9v-5.45a13.57,13.57,0,0,1-6,4.76,23.16,23.16,0,0,1-9.14,1.66,24.6,24.6,0,0,1-8.89-1.61,19.53,19.53,0,0,1-7.22-4.81,22.76,22.76,0,0,1-4.81-8.08,32.63,32.63,0,0,1-1.77-11.18,35.18,35.18,0,0,1,1.77-11.67,23.33,23.33,0,0,1,4.92-8.4,20.36,20.36,0,0,1,7.54-5.08,25.71,25.71,0,0,1,9.42-1.71m3,40.13a11.1,11.1,0,0,0,7.87-2.84q3-2.83,3.05-8.19V143a9.82,9.82,0,0,0-3-7.65,11.19,11.19,0,0,0-7.81-2.72,10.19,10.19,0,0,0-8.29,3.69q-3,3.69-3.05,10.32,0,6.42,3,10a10.2,10.2,0,0,0,8.23,3.54m-3-42.63A28.32,28.32,0,0,0,130,119.38a23,23,0,0,0-8.46,5.71,26.09,26.09,0,0,0-5.45,9.28,37.64,37.64,0,0,0-1.91,12.49,35.31,35.31,0,0,0,1.92,12,25.44,25.44,0,0,0,5.35,9,22.07,22.07,0,0,0,8.14,5.43c.63.24,1.27.46,1.93.65L118,175.73l-2.56.34.42,2.55a20.72,20.72,0,0,0,9,14.4c4.75,3.19,10.8,4.81,18,4.81a43.18,43.18,0,0,0,11.35-1.43,25.52,25.52,0,0,0,9.31-4.58,20.83,20.83,0,0,0,6.14-8.3,30.67,30.67,0,0,0,2.13-12v-53H152.31V121a20.52,20.52,0,0,0-11.94-3.45Zm3,40.13A7.78,7.78,0,0,1,137,155c-1.59-1.88-2.4-4.69-2.4-8.34s.83-6.74,2.48-8.73a7.73,7.73,0,0,1,6.36-2.78,8.72,8.72,0,0,1,6.13,2.07,7.39,7.39,0,0,1,2.18,5.8v6.1c0,2.87-.74,5-2.25,6.36a8.63,8.63,0,0,1-6.17,2.17Zm-4,17.41a25.88,25.88,0,0,0,10.12-1.86,18.29,18.29,0,0,0,2.57-1.33c0,3.35-.8,5.61-2.27,6.72a11.47,11.47,0,0,1-7,2,10.08,10.08,0,0,1-5.21-1.31,5,5,0,0,1-2.41-3.46L135,174.7a29.42,29.42,0,0,0,4.43.34Z"/><path d="M203.39,120a40,40,0,0,1,9,1,20,20,0,0,1,7.22,3.16,15,15,0,0,1,4.82,5.94,21.6,21.6,0,0,1,1.76,9.2V173.5H212v-5.88a15.48,15.48,0,0,1-6.42,5.18,21.24,21.24,0,0,1-8.77,1.77,19.67,19.67,0,0,1-12.63-4.07Q179,166.44,179,159q0-8.23,5.29-11.93t14.29-4.34q3.53-.21,6.79-.21t5.94.11v-3.75a6.16,6.16,0,0,0-2.14-5.19,9.61,9.61,0,0,0-6-1.66,9.08,9.08,0,0,0-5.62,1.66,8.5,8.5,0,0,0-2.94,5.3l-13.91-2.14a19.19,19.19,0,0,1,6.95-12q5.78-4.81,15.73-4.82m-2.24,43.34a11.79,11.79,0,0,0,7.38-2.15,6.8,6.8,0,0,0,2.78-5.67v-3.31c-1.36-.07-2.93-.11-4.71-.11s-3.49,0-5.13.11a11.36,11.36,0,0,0-5.35,1.55,4.41,4.41,0,0,0-2.14,4,4.77,4.77,0,0,0,2,4.12,8.6,8.6,0,0,0,5.19,1.45m2.24-45.84c-7.2,0-13,1.82-17.33,5.39a21.79,21.79,0,0,0-7.82,13.5l-.41,2.5,2.5.38,11.8,1.82a26,26,0,0,0-9.27,3.88c-4.22,2.94-6.36,7.65-6.36,14,0,5.77,2,10.32,6.08,13.51a22.21,22.21,0,0,0,14.18,4.61,24,24,0,0,0,9.79-2,18.91,18.91,0,0,0,2.9-1.61V176h19.23V139.26a24.05,24.05,0,0,0-2-10.27,17.69,17.69,0,0,0-5.62-6.9,22.37,22.37,0,0,0-8.12-3.56,42.62,42.62,0,0,0-9.55-1Zm-6.5,22.82.18-.88a6.11,6.11,0,0,1,2-3.8,6.56,6.56,0,0,1,4.11-1.16,7.28,7.28,0,0,1,4.46,1.14c.29.22,1.17.91,1.17,3.21V140c-1.1,0-2.25,0-3.44,0-2.21,0-4.54.07-6.94.22l-1.54.13Zm4.71,14.38c1.61-.07,3.3-.1,5-.1l2.21,0v.9a4.31,4.31,0,0,1-1.81,3.69,9.42,9.42,0,0,1-5.85,1.63,6.26,6.26,0,0,1-3.72-1,2.29,2.29,0,0,1-1-2.1,1.92,1.92,0,0,1,1-1.89,9.05,9.05,0,0,1,4.16-1.18Z"/><path d="M253.32,100.42V113.9H237.59V100.42h15.73m-.21,20.65V173.5h-15.3V121.07h15.3m2.71-23.15H235.09V116.4h20.73V97.92Zm-.21,20.65h-20.3V176h20.3V118.57Z"/><path d="M296.73,120A19.12,19.12,0,0,1,310,124.71q5.24,4.71,5.24,13.69v35.1h-15.3V141.83q0-4.61-2.52-6.69a10.47,10.47,0,0,0-6.9-2.09,11.77,11.77,0,0,0-6.95,2.2,7.3,7.3,0,0,0-3.11,6.36V173.5h-15.3V121.07H280v6.85a20.34,20.34,0,0,1,6.74-5.67,20.68,20.68,0,0,1,10-2.25m0-2.5a23.28,23.28,0,0,0-11.14,2.55,24.67,24.67,0,0,0-3,1.93v-3.41H262.66V176H283V141.61a4.84,4.84,0,0,1,2.05-4.32,9.23,9.23,0,0,1,5.51-1.74,8.2,8.2,0,0,1,5.31,1.51c1.07.89,1.61,2.49,1.61,4.77V176h20.3V138.4c0-6.7-2-11.93-6.07-15.55a21.63,21.63,0,0,0-14.94-5.35Z"/><path d="M347.84,120q9.09,0,15.19,4.07a16.19,16.19,0,0,1,7.28,11.34l-13.38,2.67a8.27,8.27,0,0,0-2.83-4.7c-1.47-1.22-3.66-1.82-6.58-1.82a11.93,11.93,0,0,0-5.94,1.17,3.61,3.61,0,0,0-2,3.21,3.13,3.13,0,0,0,1.6,2.95,19.21,19.21,0,0,0,5.25,1.65l6.74,1.29q7.92,1.5,12.57,5t4.65,10.48a15.23,15.23,0,0,1-5.93,12.47q-5.94,4.75-17.18,4.76-9.94,0-16.05-4.23a17.57,17.57,0,0,1-7.38-12.25l13.91-1.71a7.8,7.8,0,0,0,3.16,4.87,11.6,11.6,0,0,0,6.68,1.66q4.5,0,6.48-1.13a3.48,3.48,0,0,0,2-3.15,3.78,3.78,0,0,0-1.45-3.16c-1-.75-3-1.41-6-2l-7.17-1.28q-7.71-1.4-11.83-5t-4.12-10.32q0-8.25,6.26-12.58T347.84,120m0-2.5c-7,0-12.95,1.61-17.53,4.78-4.87,3.37-7.34,8.29-7.34,14.63,0,5.23,1.68,9.33,5,12.21a23.9,23.9,0,0,0,9.57,4.77h0l-13.91,1.71-2.57.32.41,2.56a20,20,0,0,0,8.43,13.91c4.47,3.1,10.35,4.67,17.47,4.67,8,0,14.35-1.79,18.74-5.31a17.68,17.68,0,0,0,6.87-14.42c0-5.44-1.89-9.63-5.64-12.47a28.35,28.35,0,0,0-9.25-4.45l12.78-2.56,2.36-.47-.38-2.38a18.68,18.68,0,0,0-8.36-13c-4.47-3-10.05-4.49-16.58-4.49Zm6.86,22.08-1.05-.21-6.74-1.28a16.36,16.36,0,0,1-4.47-1.38c-.19-.1-.34-.19-.34-.77,0-.25,0-.61.76-1.06s1.95-.82,4.66-.82c2.28,0,4,.43,5,1.24a5.78,5.78,0,0,1,2,3.33l.21,1Zm-7.08,20.83a9.31,9.31,0,0,1-5.26-1.22,5.35,5.35,0,0,1-2.15-3.38l-.31-1.35,1.07.21,7.18,1.28c3.79.71,4.79,1.37,5,1.49a1.29,1.29,0,0,1,.48,1.19c0,.25,0,.57-.72,1-.52.3-1.9.8-5.24.8Z"/><path d="M400,108.23v12.84h14v13.37H400v18.41q0,4.17,1.77,5.72a7.77,7.77,0,0,0,5.29,1.56h7.17V173.5h-9.09q-10.71,0-15.63-4.6t-4.92-15.73V134.44h-7.92V121.07h7.92V108.23H400m2.5-2.5H382.11v12.84h-7.92v18.37h7.92v16.23c0,8.11,1.92,14,5.72,17.56S397.4,176,405.16,176h11.59V157.63h-9.67a5.69,5.69,0,0,1-3.64-.93c-.28-.25-.92-1.11-.92-3.85V136.94h14V118.57h-14V105.73Z"/><path d="M88.13,202.42V215.9H72.4V202.42H88.13m-.22,20.65V275.5H72.61V223.07h15.3m2.72-23.15H69.9V218.4H90.63V199.92Zm-.22,20.65H70.11V278h20.3V220.57Z"/><path d="M121.94,222q9.09,0,15.19,4.07a16.19,16.19,0,0,1,7.28,11.34L131,240.08a8.27,8.27,0,0,0-2.83-4.7c-1.47-1.22-3.66-1.82-6.58-1.82a11.93,11.93,0,0,0-5.94,1.17,3.61,3.61,0,0,0-2,3.21,3.13,3.13,0,0,0,1.6,2.95,19.21,19.21,0,0,0,5.25,1.65l6.74,1.29q7.92,1.5,12.57,5t4.65,10.48a15.2,15.2,0,0,1-5.93,12.47q-5.94,4.76-17.18,4.76-9.95,0-16.05-4.23A17.57,17.57,0,0,1,98,260.09l13.91-1.71a7.8,7.8,0,0,0,3.16,4.87,11.6,11.6,0,0,0,6.68,1.66q4.5,0,6.48-1.13a3.48,3.48,0,0,0,2-3.15,3.78,3.78,0,0,0-1.45-3.16c-1-.75-3-1.41-6-2l-7.17-1.28q-7.71-1.4-11.83-5t-4.12-10.32q0-8.25,6.26-12.58T121.94,222m0-2.5c-7,0-13,1.61-17.53,4.78-4.87,3.37-7.34,8.29-7.34,14.63,0,5.23,1.68,9.33,5,12.21a23.9,23.9,0,0,0,9.57,4.77h-.05l-13.91,1.71-2.57.32.41,2.56a20.08,20.08,0,0,0,8.43,13.91c4.47,3.1,10.35,4.67,17.47,4.67,8,0,14.35-1.79,18.74-5.31A17.68,17.68,0,0,0,147,259.34c0-5.44-1.89-9.63-5.64-12.47a28.35,28.35,0,0,0-9.25-4.45l12.78-2.56,2.36-.47-.38-2.38a18.68,18.68,0,0,0-8.36-13c-4.47-3-10.05-4.49-16.58-4.49Zm6.87,22.08-1.06-.21L121,240.09a16.36,16.36,0,0,1-4.47-1.38c-.19-.1-.34-.19-.34-.77,0-.25,0-.61.76-1.06s2-.82,4.66-.82c2.28,0,4,.43,5,1.24a5.78,5.78,0,0,1,2,3.33l.22,1Zm-7.09,20.83a9.31,9.31,0,0,1-5.26-1.22,5.35,5.35,0,0,1-2.15-3.38l-.31-1.35,1.07.21,7.18,1.28c3.79.71,4.79,1.37,5,1.49a1.29,1.29,0,0,1,.48,1.19c0,.25,0,.57-.72,1-.52.3-1.9.8-5.24.8Z"/><path d="M185.28,222a22,22,0,0,1,8.72,1.71,19.18,19.18,0,0,1,7,5.08,24.77,24.77,0,0,1,4.65,8.4,40.67,40.67,0,0,1-.11,23.7,24.46,24.46,0,0,1-5,8.67,20.67,20.67,0,0,1-7.59,5.24,25,25,0,0,1-9.42,1.77,23.18,23.18,0,0,1-7.76-1.23,16.12,16.12,0,0,1-5.83-3.48v24.4h-15.3V223.07h15v6.21A17.52,17.52,0,0,1,176,224a20.6,20.6,0,0,1,9.31-2m-4.39,41.73a9.66,9.66,0,0,0,8.08-3.8q2.94-3.8,2.94-10.75,0-6.75-2.94-10.54a9.66,9.66,0,0,0-8.08-3.8,10.89,10.89,0,0,0-8,3,10.58,10.58,0,0,0-3,7.91v7.71a9.8,9.8,0,0,0,3,7.38,11,11,0,0,0,8,2.89m4.39-44.23a23,23,0,0,0-10.43,2.3,24,24,0,0,0-2.8,1.65v-2.88h-20v78.19h20.3V276.63a21.6,21.6,0,0,0,2.5,1.07,25.8,25.8,0,0,0,8.59,1.37,27.42,27.42,0,0,0,10.35-1.95,23.29,23.29,0,0,0,8.5-5.86,27.19,27.19,0,0,0,5.55-9.54,43.17,43.17,0,0,0,.12-25.33,27.19,27.19,0,0,0-5.14-9.24,21.74,21.74,0,0,0-7.86-5.74,24.58,24.58,0,0,0-9.7-1.91Zm-4.39,41.73A8.63,8.63,0,0,1,174.6,259a7.35,7.35,0,0,1-2.23-5.58v-7.71a8.17,8.17,0,0,1,2.3-6.13,8.45,8.45,0,0,1,6.22-2.28,7.15,7.15,0,0,1,6.11,2.83c1.6,2.07,2.41,5.1,2.41,9s-.81,7.15-2.41,9.22a7.15,7.15,0,0,1-6.11,2.83Z"/><path d="M232.57,202.74V275.5h-15.3V202.74h15.3m2.5-2.5h-20.3V278h20.3V200.24Z"/><path d="M266.78,222a40.11,40.11,0,0,1,9,1,20.11,20.11,0,0,1,7.22,3.16,15,15,0,0,1,4.81,5.94,21.44,21.44,0,0,1,1.77,9.2V275.5H275.34v-5.88a15.48,15.48,0,0,1-6.42,5.18,21.29,21.29,0,0,1-8.78,1.77,19.64,19.64,0,0,1-12.62-4.07q-5.15-4.06-5.14-11.55,0-8.23,5.3-11.93T262,244.68c2.36-.14,4.62-.21,6.8-.21s4.15,0,5.94.11v-3.75a6.18,6.18,0,0,0-2.14-5.19,9.64,9.64,0,0,0-6-1.66,9.07,9.07,0,0,0-5.61,1.66,8.46,8.46,0,0,0-2.95,5.3l-13.91-2.14a19.25,19.25,0,0,1,7-12q5.77-4.81,15.73-4.82m-2.25,43.34a11.75,11.75,0,0,0,7.38-2.15,6.78,6.78,0,0,0,2.79-5.67v-3.31c-1.36-.07-2.93-.11-4.71-.11s-3.5,0-5.14.11a11.39,11.39,0,0,0-5.35,1.55,4.41,4.41,0,0,0-2.14,4,4.79,4.79,0,0,0,2,4.12,8.62,8.62,0,0,0,5.19,1.45m2.25-45.84c-7.21,0-13,1.82-17.33,5.39a21.79,21.79,0,0,0-7.82,13.5l-.41,2.5,2.49.38,11.81,1.82a25.8,25.8,0,0,0-9.27,3.88c-4.23,2.94-6.37,7.65-6.37,14,0,5.77,2.05,10.32,6.09,13.51a22.16,22.16,0,0,0,14.17,4.61,24,24,0,0,0,9.8-2,19.4,19.4,0,0,0,2.9-1.61V278h19.23V241.26a24.05,24.05,0,0,0-2-10.27,17.58,17.58,0,0,0-5.61-6.9,22.44,22.44,0,0,0-8.12-3.56,42.69,42.69,0,0,0-9.55-1Zm-6.51,22.82.18-.88a6.16,6.16,0,0,1,2-3.8,6.58,6.58,0,0,1,4.11-1.16,7.33,7.33,0,0,1,4.47,1.14c.28.22,1.17.91,1.17,3.21V242c-1.1,0-2.25,0-3.44,0-2.21,0-4.55.07-6.95.22l-1.54.13ZM265,256.7c1.61-.07,3.29-.1,5-.1l2.21,0v.9a4.33,4.33,0,0,1-1.81,3.69,9.43,9.43,0,0,1-5.86,1.63,6.26,6.26,0,0,1-3.72-1,2.29,2.29,0,0,1-.95-2.1,1.92,1.92,0,0,1,1-1.89A9.05,9.05,0,0,1,265,256.7Z"/><path d="M325,222a28.77,28.77,0,0,1,9.74,1.5,22.46,22.46,0,0,1,7.06,4,18.61,18.61,0,0,1,4.6,5.83,24.79,24.79,0,0,1,2.36,7L335,242.87a12.94,12.94,0,0,0-3-5.84c-1.5-1.67-3.79-2.51-6.85-2.51a9.79,9.79,0,0,0-8.13,3.8q-3,3.8-3,10.86t2.84,11a9.42,9.42,0,0,0,8.07,3.85q4.61,0,6.91-2.35a11.79,11.79,0,0,0,3.05-6l13.91,1.81a23.23,23.23,0,0,1-7.65,13.86q-6.06,5.19-16.32,5.19-11.78,0-18.83-6.95T299,249.39a33.51,33.51,0,0,1,1.93-11.77,23.72,23.72,0,0,1,5.35-8.56,22.93,22.93,0,0,1,8.24-5.24A29.47,29.47,0,0,1,325,222m0-2.5a32.13,32.13,0,0,0-11.36,2,25.58,25.58,0,0,0-9.13,5.81,26.32,26.32,0,0,0-5.92,9.45,36.12,36.12,0,0,0-2.09,12.65c0,9.5,2.63,16.9,7.81,22s12.1,7.67,20.59,7.67c7.43,0,13.47-1.95,17.94-5.79A25.69,25.69,0,0,0,351.3,258l.48-2.59-2.61-.34-13.91-1.82-2.3-.3-.47,2.27A9.26,9.26,0,0,1,330.1,260c-1,1.06-2.76,1.6-5.12,1.6a6.92,6.92,0,0,1-6.06-2.83c-1.56-2.12-2.35-5.33-2.35-9.54s.83-7.25,2.46-9.31A7.36,7.36,0,0,1,325.2,237c2.34,0,4,.55,5,1.68a10.25,10.25,0,0,1,2.42,4.72l.54,2.35,2.36-.45,13.7-2.57,2.43-.45-.43-2.44a27.65,27.65,0,0,0-2.59-7.7,21.26,21.26,0,0,0-5.2-6.61,25.18,25.18,0,0,0-7.84-4.4A31.27,31.27,0,0,0,325,219.5Z"/><path d="M381.52,222q12,0,18.13,7.49t6.16,19.58v3.53H370.5q.42,6.11,3.42,9.1a10.74,10.74,0,0,0,7.92,3c3.14,0,5.47-.73,7-2.19a11.2,11.2,0,0,0,3-4.44l13.58,2.57a20.86,20.86,0,0,1-2.51,5.88,18.47,18.47,0,0,1-4.65,5.08,24.44,24.44,0,0,1-7,3.59,29.9,29.9,0,0,1-9.58,1.39q-12.19,0-19.1-7.28t-6.9-20a32.21,32.21,0,0,1,2-11.88,24.41,24.41,0,0,1,5.51-8.56,22.5,22.5,0,0,1,8.19-5.14A29.24,29.24,0,0,1,381.52,222m-10.7,21.19h20.54c-.29-3.07-1.28-5.39-3-7a9.72,9.72,0,0,0-6.84-2.35,10.83,10.83,0,0,0-6.74,2.19c-1.93,1.46-3.25,3.84-4,7.12m10.7-23.69a32.07,32.07,0,0,0-10.92,1.86,25,25,0,0,0-9.08,5.71,26.93,26.93,0,0,0-6.08,9.42,34.61,34.61,0,0,0-2.21,12.8c0,9.11,2.55,16.42,7.59,21.72s12.1,8.06,20.91,8.06a32.64,32.64,0,0,0,10.38-1.52,27.09,27.09,0,0,0,7.72-4,21.16,21.16,0,0,0,5.27-5.77,23.59,23.59,0,0,0,2.81-6.59l.64-2.57-2.6-.49-13.59-2.57-2.15-.4-.69,2.07a8.7,8.7,0,0,1-2.4,3.42c-1.05,1-2.82,1.5-5.28,1.5a8.24,8.24,0,0,1-6.15-2.26,9.34,9.34,0,0,1-2.34-4.83h35v-6c0-8.61-2.27-15.74-6.73-21.17s-11.33-8.4-20.06-8.4Zm-7.26,21.19a7.08,7.08,0,0,1,2-2.63,8.33,8.33,0,0,1,5.23-1.68,7.31,7.31,0,0,1,5.16,1.69,6.34,6.34,0,0,1,1.63,2.62Z"/><path d="M220,308q8,0,13.11,4.76t5.08,13.75v35H222.73V329.72c0-2.85-.79-5-2.35-6.53s-3.82-2.24-6.74-2.24A10.41,10.41,0,0,0,207,323.3a7.68,7.68,0,0,0-2.94,6.31V361.5H188.6V329.72a8.46,8.46,0,0,0-2.36-6.42,9.21,9.21,0,0,0-6.63-2.25,10.72,10.72,0,0,0-6.8,2.31,7.51,7.51,0,0,0-2.94,6.25V361.5h-15.3V309.07h14.87v6.63a19.71,19.71,0,0,1,6.48-5.51,20.18,20.18,0,0,1,9.79-2.19,18.14,18.14,0,0,1,10.11,2.57,15.45,15.45,0,0,1,5.72,6.53,18.58,18.58,0,0,1,7.82-6.85A24.7,24.7,0,0,1,220,308m0-2.5A27.29,27.29,0,0,0,208.3,308a20.76,20.76,0,0,0-6.5,4.73,18.55,18.55,0,0,0-4.61-4.23,20.55,20.55,0,0,0-11.48-3,22.7,22.7,0,0,0-11,2.5,26.78,26.78,0,0,0-2.78,1.76v-3.19H152.07V364h20.3V329.61a5,5,0,0,1,2-4.29,8.25,8.25,0,0,1,5.26-1.77,6.81,6.81,0,0,1,4.91,1.56,6,6,0,0,1,1.58,4.61V364h20.41V329.61a5.18,5.18,0,0,1,2-4.36,8,8,0,0,1,5.13-1.8,7.07,7.07,0,0,1,5,1.55,6.23,6.23,0,0,1,1.58,4.72V364h20.41V326.51c0-6.68-2-11.92-5.87-15.57s-8.84-5.44-14.82-5.44Z"/><path d="M273.13,308q12,0,18.13,7.49t6.16,19.58v3.53H262.11q.42,6.11,3.42,9.1a10.74,10.74,0,0,0,7.92,3c3.14,0,5.47-.73,7-2.19a11.2,11.2,0,0,0,3.05-4.44l13.58,2.57a21,21,0,0,1-2.51,5.88,18.65,18.65,0,0,1-4.65,5.09,24.68,24.68,0,0,1-7,3.58,29.9,29.9,0,0,1-9.58,1.39q-12.19,0-19.1-7.28t-6.9-20a32.19,32.19,0,0,1,2-11.87,24.41,24.41,0,0,1,5.51-8.56,22.5,22.5,0,0,1,8.19-5.14A29.24,29.24,0,0,1,273.13,308m-10.7,21.19H283c-.29-3.07-1.28-5.39-3-7a9.72,9.72,0,0,0-6.84-2.35,10.83,10.83,0,0,0-6.74,2.19c-1.93,1.46-3.25,3.84-4,7.12m10.7-23.69a32.07,32.07,0,0,0-10.92,1.86,25,25,0,0,0-9.08,5.71,26.93,26.93,0,0,0-6.08,9.42,34.59,34.59,0,0,0-2.21,12.79c0,9.12,2.55,16.43,7.59,21.74s12.1,8.05,20.91,8.05a32.64,32.64,0,0,0,10.38-1.52,27.09,27.09,0,0,0,7.72-4,21.16,21.16,0,0,0,5.27-5.77,23.59,23.59,0,0,0,2.81-6.59l.64-2.57-2.6-.49L284,341.6l-2.14-.4-.7,2.07a8.7,8.7,0,0,1-2.4,3.42c-1.05,1-2.82,1.5-5.28,1.5a8.24,8.24,0,0,1-6.15-2.26A9.34,9.34,0,0,1,265,341.1h35v-6c0-8.61-2.27-15.74-6.72-21.17s-11.34-8.4-20.07-8.4Zm-7.26,21.19a7.08,7.08,0,0,1,2-2.63,8.33,8.33,0,0,1,5.23-1.68,7.31,7.31,0,0,1,5.16,1.69,6.34,6.34,0,0,1,1.63,2.62Z"/><path d="M338.93,308a19.12,19.12,0,0,1,13.27,4.71q5.24,4.71,5.24,13.69v35.1h-15.3V329.83q0-4.6-2.51-6.69a10.51,10.51,0,0,0-6.9-2.09,11.8,11.8,0,0,0-7,2.2,7.29,7.29,0,0,0-3.1,6.36V361.5h-15.3V309.07h14.87v6.85a20.34,20.34,0,0,1,6.74-5.67,20.68,20.68,0,0,1,9.95-2.25m0-2.5a23.21,23.21,0,0,0-11.13,2.55,24.79,24.79,0,0,0-3.06,1.93v-3.41H304.87V364h20.3V329.61a4.86,4.86,0,0,1,2-4.32,9.26,9.26,0,0,1,5.52-1.74,8.17,8.17,0,0,1,5.3,1.51c1.07.89,1.61,2.49,1.61,4.77V364h20.3V326.4c0-6.7-2-11.93-6.07-15.55a21.61,21.61,0,0,0-14.94-5.35Z"/><path d="M388.15,296.23v12.84h14v13.37h-14v18.41q0,4.17,1.77,5.72a7.77,7.77,0,0,0,5.29,1.55h7.17V361.5h-9.09q-10.71,0-15.62-4.6t-4.93-15.73V322.44h-7.91V309.07h7.91V296.23h15.41m2.5-2.5H370.24v12.84h-7.91v18.37h7.91v16.23c0,8.11,1.93,14,5.72,17.56s9.57,5.27,17.33,5.27h11.59V345.62h-9.67a5.69,5.69,0,0,1-3.64-.92c-.28-.25-.92-1.1-.92-3.85V324.94h14V306.57h-14V293.73Z"/><path d="M92,155.89H62.23l-6.85,20h-14l28.24-76h15l28.25,76h-14ZM88.34,145.4l-8.88-25.68a53.57,53.57,0,0,1-2.25-8.13H77a53.57,53.57,0,0,1-2.25,8.13L65.87,145.4Z"/><path d="M0,201.84H27.39c22.26,0,36.81,15.19,36.81,37.66s-14.45,38.3-37,38.3H0ZM26.75,267c14.76,0,22.9-12.42,22.9-27.5,0-15.41-7.82-26.86-22.69-26.86H13.8V267Z"/></svg>