<svg id="Layer_1" data-name="Layer 1" xmlns="http://www.w3.org/2000/svg" viewBox="0 0 427.31 384.77"><defs><style>.cls-1{fill:none;stroke:#000;stroke-width:2.5px;}</style></defs><title>Artboard 2</title><path class="cls-1" d="M168.55,78.43V24h17.93v6.16a14.89,14.89,0,0,1,6.71-4.95A22.46,22.46,0,0,1,200.34,24h3.85V39.82h-5.5c-3.59,0-6.43.69-8.52,2.09A6.92,6.92,0,0,0,187,48.07V78.43Z"/><path class="cls-1" d="M252.37,78.43h-9.79q-11.22,0-16.83-4.79t-5.61-17.1V39.82h-7.7V24h7.7V11h18.48V24h13.75V39.82H238.62V56.1q0,3.74,1.65,5.11a7.57,7.57,0,0,0,4.95,1.38h7.15Z"/><path class="cls-1" d="M153.27,124h17.38V175.9a28.89,28.89,0,0,1-2,11.38,19.61,19.61,0,0,1-5.72,7.76,24.35,24.35,0,0,1-8.85,4.4,42.6,42.6,0,0,1-11.33,1.43q-11.11,0-17.88-4.73a19.43,19.43,0,0,1-8.19-13.31l17.27-2.2a6.21,6.21,0,0,0,2.91,4.23,10.89,10.89,0,0,0,5.89,1.49,12.36,12.36,0,0,0,7.59-2.15c1.9-1.43,2.86-4.16,2.86-8.19v-4.95a13.55,13.55,0,0,1-6,4.45,24.39,24.39,0,0,1-9.13,1.6,23.25,23.25,0,0,1-8.91-1.71,20.28,20.28,0,0,1-7.26-5,23.86,23.86,0,0,1-4.9-8.31,33.63,33.63,0,0,1-1.81-11.49A36.43,36.43,0,0,1,117,138.39,24.32,24.32,0,0,1,122,129.7a20.17,20.17,0,0,1,7.59-5.12,25.84,25.84,0,0,1,9.46-1.7,19.13,19.13,0,0,1,8.47,1.76,15.47,15.47,0,0,1,5.72,4.51Zm-.55,29.26v-6.93a8.34,8.34,0,0,0-2.42-6.16,9.21,9.21,0,0,0-6.82-2.42,8.84,8.84,0,0,0-7.21,3.3c-1.8,2.2-2.69,5.28-2.69,9.24s.91,7,2.75,9.07a9.05,9.05,0,0,0,7.15,3.14,10,10,0,0,0,6.49-2.26Q152.72,158,152.72,153.24Z"/><path class="cls-1" d="M210.57,178.43v-5.94a14.28,14.28,0,0,1-6.6,5.39,23.89,23.89,0,0,1-15.73.6,16.69,16.69,0,0,1-5.77-3.13,15.13,15.13,0,0,1-3.91-5.12,16.21,16.21,0,0,1-1.43-7q0-8.58,5.45-12.43t14.9-4.62q3.42-.22,6.66-.28c2.16,0,4.09,0,5.77.06v-3.52a5,5,0,0,0-1.81-4.24,8.73,8.73,0,0,0-5.34-1.37,8.13,8.13,0,0,0-4.62,1.32q-2,1.32-2.53,5L179,140.81a19.51,19.51,0,0,1,7.15-12.76q6.16-5.18,17-5.17a47.83,47.83,0,0,1,9.68.93,21.35,21.35,0,0,1,7.81,3.19,15.13,15.13,0,0,1,5.17,6.22,23.1,23.1,0,0,1,1.87,9.9v35.31ZM209.91,157q-1.53-.12-4-.06c-1.61,0-3.11.09-4.51.17a9.81,9.81,0,0,0-4.34,1.15,3.56,3.56,0,0,0-1.93,3.36,4.13,4.13,0,0,0,1.76,3.63,8.08,8.08,0,0,0,4.62,1.21,9.41,9.41,0,0,0,6.16-1.82,5.88,5.88,0,0,0,2.2-4.78Z"/><path class="cls-1" d="M237.3,117.6V102.53h18.59V117.6Zm0,60.83V124h18.48v54.45Z"/><path class="cls-1" d="M265.68,178.43V124h18v6.71a23.88,23.88,0,0,1,6.71-5.5,20.77,20.77,0,0,1,10.34-2.31,19.39,19.39,0,0,1,13.37,4.84q5.44,4.83,5.44,14.08v36.63H301.1V146.2c0-2.94-.8-5-2.42-6.11a10.22,10.22,0,0,0-6.05-1.7,10.84,10.84,0,0,0-5.77,1.65,5.51,5.51,0,0,0-2.7,5.06v33.33Z"/><path class="cls-1" d="M326.07,162.15l16.5-1.87a6.43,6.43,0,0,0,2.7,4.12,10.19,10.19,0,0,0,5.88,1.49,14,14,0,0,0,5.72-.83,2.64,2.64,0,0,0,1.65-2.47,3,3,0,0,0-1.21-2.48q-1.21-.93-5.5-1.7L344.22,157q-8-1.44-12.37-5.17t-4.35-10.89a16.59,16.59,0,0,1,1.82-7.92,16,16,0,0,1,5-5.67A22.46,22.46,0,0,1,342,124a39.68,39.68,0,0,1,9.62-1.1,30.1,30.1,0,0,1,16,4.07,16.56,16.56,0,0,1,8,12l-16.06,3.19a6.55,6.55,0,0,0-2.42-4.13,9.15,9.15,0,0,0-5.83-1.59,11.77,11.77,0,0,0-5.28.88,2.67,2.67,0,0,0-1.65,2.42,2.44,2.44,0,0,0,1.27,2.2,15.94,15.94,0,0,0,4.78,1.43l6.93,1.32a33.88,33.88,0,0,1,13.15,5.11q5.12,3.57,5.11,11.17a16.43,16.43,0,0,1-6.38,13.47q-6.37,5.11-18.48,5.12-10.56,0-17-4.51A17.73,17.73,0,0,1,326.07,162.15Z"/><path class="cls-1" d="M421.22,178.43h-9.79q-11.22,0-16.83-4.79T389,156.54V139.82h-7.7V124H389V111h18.48v13h13.75v15.84H407.47V156.1q0,3.74,1.65,5.11a7.57,7.57,0,0,0,4.95,1.38h7.15Z"/><path class="cls-1" d="M74.62,223.6V208.53H93.21V223.6Zm0,60.83V230H93.1v54.45Z"/><path class="cls-1" d="M102.12,268.15l16.5-1.87a6.37,6.37,0,0,0,2.69,4.12,10.2,10.2,0,0,0,5.89,1.49,14,14,0,0,0,5.72-.83,2.64,2.64,0,0,0,1.65-2.47,3,3,0,0,0-1.21-2.48q-1.22-.93-5.5-1.7L120.27,263q-8-1.44-12.38-5.17t-4.34-10.89a16.59,16.59,0,0,1,1.81-7.92,16.05,16.05,0,0,1,5-5.67A22.32,22.32,0,0,1,118,230a39.77,39.77,0,0,1,9.63-1.1,30.12,30.12,0,0,1,16,4.07,16.56,16.56,0,0,1,8,12l-16.06,3.19a6.6,6.6,0,0,0-2.42-4.13,9.17,9.17,0,0,0-5.83-1.59,11.77,11.77,0,0,0-5.28.88,2.67,2.67,0,0,0-1.65,2.42,2.45,2.45,0,0,0,1.26,2.2,16,16,0,0,0,4.79,1.43l6.93,1.32a33.83,33.83,0,0,1,13.14,5.11q5.12,3.57,5.12,11.17a16.43,16.43,0,0,1-6.38,13.47q-6.39,5.11-18.48,5.12-10.56,0-17.05-4.51A17.73,17.73,0,0,1,102.12,268.15Z"/><path class="cls-1" d="M160.64,305.76V230h18v5.72a21.66,21.66,0,0,1,6.27-4.79,19.46,19.46,0,0,1,9.24-2,21.73,21.73,0,0,1,8.85,1.81,19.69,19.69,0,0,1,7.1,5.28,25.26,25.26,0,0,1,4.67,8.69,38.73,38.73,0,0,1,1.71,12,38.15,38.15,0,0,1-1.93,12.7,26.22,26.22,0,0,1-5.17,9,20.43,20.43,0,0,1-7.75,5.34,26.18,26.18,0,0,1-9.57,1.76,23.28,23.28,0,0,1-7.37-1.1,16.66,16.66,0,0,1-5.61-3.08v24.41Zm18.48-44.32a8.82,8.82,0,0,0,2.36,6.27c1.58,1.68,3.91,2.53,7,2.53a8.34,8.34,0,0,0,7-3.36q2.58-3.36,2.59-9.73t-2.59-9.74a8.33,8.33,0,0,0-7-3.35q-4.62,0-7,2.53a8.79,8.79,0,0,0-2.36,6.27Z"/><path class="cls-1" d="M225.53,284.43v-74.8H244v74.8Z"/><path class="cls-1" d="M287.25,284.43v-5.94a14.38,14.38,0,0,1-6.6,5.39,23.89,23.89,0,0,1-15.73.6,16.65,16.65,0,0,1-5.78-3.13,15.13,15.13,0,0,1-3.91-5.12,16.21,16.21,0,0,1-1.42-7q0-8.58,5.44-12.43t14.9-4.62q3.42-.22,6.66-.28c2.16,0,4.09,0,5.77.06v-3.52a5,5,0,0,0-1.81-4.24,8.72,8.72,0,0,0-5.33-1.37,8.14,8.14,0,0,0-4.63,1.32c-1.31.88-2.16,2.53-2.52,5l-16.62-2.31a19.51,19.51,0,0,1,7.15-12.76q6.17-5.18,17.06-5.17a48,48,0,0,1,9.68.93,21.3,21.3,0,0,1,7.8,3.19,15.23,15.23,0,0,1,5.18,6.22,23.26,23.26,0,0,1,1.86,9.9v35.31ZM286.58,263q-1.53-.12-4-.06c-1.61,0-3.11.09-4.51.17a9.81,9.81,0,0,0-4.34,1.15,3.56,3.56,0,0,0-1.93,3.36,4.13,4.13,0,0,0,1.76,3.63,8.1,8.1,0,0,0,4.63,1.21,9.4,9.4,0,0,0,6.15-1.82,5.88,5.88,0,0,0,2.2-4.78Z"/><path class="cls-1" d="M349.17,262.87l16.61,2Q364,274.52,357.59,280t-17.22,5.5q-12.64,0-20.07-7.26t-7.43-21a33.05,33.05,0,0,1,2-12,25.75,25.75,0,0,1,5.61-8.91,23.69,23.69,0,0,1,8.69-5.56,34.21,34.21,0,0,1,21.61-.33,22.32,22.32,0,0,1,7.54,4.29A21.19,21.19,0,0,1,363.2,241a26,26,0,0,1,2.47,7.54l-16.39,3.08a12.91,12.91,0,0,0-2.69-5.67c-1.28-1.5-3.25-2.25-5.89-2.25a8.5,8.5,0,0,0-7,3.35Q331,250.44,331,257q0,6.93,2.53,10.28a8.21,8.21,0,0,0,6.93,3.36,7.91,7.91,0,0,0,5.94-2.15A10.68,10.68,0,0,0,349.17,262.87Z"/><path class="cls-1" d="M426.06,261.33H390.53c.37,3.44,1.41,6,3.14,7.7a9.57,9.57,0,0,0,7,2.53q4.39,0,6.33-2a11.35,11.35,0,0,0,2.58-3.74l16.06,3.08a23.17,23.17,0,0,1-2.53,5.83,19.58,19.58,0,0,1-4.73,5.33A25,25,0,0,1,411,284a31.84,31.84,0,0,1-10.45,1.54q-13.08,0-20.29-7.48T373,257.15a33,33,0,0,1,2.15-12.38,24.71,24.71,0,0,1,5.83-8.85,23.8,23.8,0,0,1,8.63-5.28,31.13,31.13,0,0,1,10.56-1.76A28.72,28.72,0,0,1,411.6,231a21.19,21.19,0,0,1,8.08,5.88,25.09,25.09,0,0,1,4.79,9.13,40.91,40.91,0,0,1,1.59,11.72Zm-25.85-18.48a9.81,9.81,0,0,0-5.61,1.7c-1.68,1.14-2.89,3.17-3.63,6.11h17.82a8.52,8.52,0,0,0-2.75-5.89A8.81,8.81,0,0,0,400.21,242.85Z"/><path class="cls-1" d="M161.83,382.42V328h17.93v6.71a22.74,22.74,0,0,1,6.55-5.5c2.67-1.54,6.18-2.3,10.5-2.3s7.56.87,10.12,2.63a15.55,15.55,0,0,1,5.61,6.61,22,22,0,0,1,8.25-6.94,25.26,25.26,0,0,1,11-2.3,18.47,18.47,0,0,1,13.26,4.95q5.22,4.94,5.22,14.18v36.41H231.79V350q0-4-2.25-5.83a9.14,9.14,0,0,0-6-1.87,9.49,9.49,0,0,0-5.66,1.87,5.82,5.82,0,0,0-2.59,4.95v33.33H196.81V350.08q0-4-2.2-5.83a8.88,8.88,0,0,0-5.94-1.87A9.91,9.91,0,0,0,183,344.2a5.65,5.65,0,0,0-2.64,4.89v33.33Z"/><path class="cls-1" d="M311.76,359.33H276.23c.37,3.44,1.41,6,3.14,7.69a9.53,9.53,0,0,0,7,2.53q4.39,0,6.33-2a11.38,11.38,0,0,0,2.58-3.75l16.06,3.09a23.7,23.7,0,0,1-2.53,5.83,19.73,19.73,0,0,1-4.73,5.33,24.78,24.78,0,0,1-7.37,3.9,31.62,31.62,0,0,1-10.45,1.54q-13.1,0-20.29-7.48t-7.21-20.9a33,33,0,0,1,2.15-12.37,24.71,24.71,0,0,1,5.83-8.85,24,24,0,0,1,8.63-5.29,31.37,31.37,0,0,1,10.56-1.75A28.9,28.9,0,0,1,297.3,329a21.4,21.4,0,0,1,8.08,5.89,25.25,25.25,0,0,1,4.79,9.13,40.89,40.89,0,0,1,1.59,11.71Zm-25.85-18.49a9.82,9.82,0,0,0-5.61,1.71c-1.69,1.14-2.9,3.17-3.63,6.11h17.82a8.5,8.5,0,0,0-2.75-5.89A8.81,8.81,0,0,0,285.91,340.84Z"/><path class="cls-1" d="M320.78,382.42V328h18v6.71a24.05,24.05,0,0,1,6.71-5.5,20.74,20.74,0,0,1,10.34-2.3,19.43,19.43,0,0,1,13.37,4.83q5.44,4.85,5.44,14.08v36.63H356.2V350.19q0-4.4-2.42-6.1a10.22,10.22,0,0,0-6-1.71A10.77,10.77,0,0,0,342,344a5.5,5.5,0,0,0-2.7,5v33.33Z"/><path class="cls-1" d="M421.43,382.42h-9.79q-11.22,0-16.83-4.78t-5.61-17.1V343.81h-7.7V328h7.7V315h18.48v13h13.75v15.84H407.68v16.28c0,2.5.55,4.2,1.65,5.12a7.57,7.57,0,0,0,4.95,1.37h7.15Z"/><path d="M139.57,58.76H101.83L93.92,79.1H82.39L113.69,0h14.47l31.07,79.1H147.48ZM120.7,10.4,105.78,48.59h29.84Z"/><path d="M90.57,157.34H52.83l-7.91,20.34H33.39l31.3-79.11H79.16l31.07,79.11H98.48ZM71.7,109l-14.92,38.2H86.62Z"/><path d="M0,205H28.25c22,0,36.73,14.69,36.73,39.55S50.29,284.1,28.25,284.1H0Zm27.12,68.93c17,0,26.56-10.17,26.56-29.38s-9.61-29.38-26.56-29.38H11.3v58.76Z"/></svg>