<svg id="Layer_1" data-name="Layer 1" xmlns="http://www.w3.org/2000/svg" viewBox="0 0 466.42 370.03"><title>Spanish Export</title><path d="M141,56H111.26l-6.85,20h-14L118.64,0h15l28.24,76h-14Zm-3.64-10.49-8.88-25.68a56,56,0,0,1-2.25-8.13H126a53.57,53.57,0,0,1-2.25,8.13l-8.88,25.68Z"/><path d="M200.87,21.4V34.88H196a17.74,17.74,0,0,0-8.83,2,6.67,6.67,0,0,0-3.58,6.21V73.83h-15.3V21.4H183v6.42a14.09,14.09,0,0,1,6.68-5.19,22.78,22.78,0,0,1,7.23-1.23h4m2.5-2.5h-6.45a25.47,25.47,0,0,0-8,1.35,14.13,14.13,0,0,0-3.39,1.69v-3H165.74V76.33H186V43.12a4.19,4.19,0,0,1,2.32-4A15.22,15.22,0,0,1,196,37.38h7.42V18.9Z"/><path d="M231.4,8.56V21.4h14V34.77h-14V53.18q0,4.17,1.77,5.72a7.85,7.85,0,0,0,5.3,1.55h7.17V73.83h-9.1q-10.69,0-15.62-4.6T216,53.5V34.77h-7.92V21.4H216V8.56h15.4m2.51-2.5H213.5V18.9h-7.92V37.27h7.92V53.5c0,8.1,1.92,14,5.71,17.55s9.57,5.28,17.33,5.28h11.6V58h-9.67a5.64,5.64,0,0,1-3.65-.93c-.27-.24-.91-1.1-.91-3.84V37.27h14V18.9h-14V6.06Z"/><path d="M277.17,20.33q12,0,18.13,7.49t6.16,19.58v3.53H266.15c.28,4.06,1.42,7.1,3.42,9.09a10.71,10.71,0,0,0,7.92,3c3.14,0,5.47-.73,7-2.19a11.34,11.34,0,0,0,3.05-4.44L301.14,59a21.07,21.07,0,0,1-2.52,5.89A18.61,18.61,0,0,1,294,69.92a24.69,24.69,0,0,1-7,3.59,30.18,30.18,0,0,1-9.58,1.39q-12.19,0-19.1-7.28t-6.9-20a32.28,32.28,0,0,1,2-11.88,24.59,24.59,0,0,1,5.51-8.56A22.48,22.48,0,0,1,267.11,22a29.24,29.24,0,0,1,10.06-1.71m-10.7,21.18H287a10.33,10.33,0,0,0-3-6.95,9.76,9.76,0,0,0-6.85-2.36,10.84,10.84,0,0,0-6.74,2.2q-2.9,2.19-4,7.11m10.7-23.68a31.73,31.73,0,0,0-10.91,1.86,25,25,0,0,0-9.09,5.7,26.93,26.93,0,0,0-6.08,9.42,34.65,34.65,0,0,0-2.21,12.8c0,9.11,2.55,16.42,7.59,21.73s12.1,8.06,20.91,8.06a32.63,32.63,0,0,0,10.38-1.53,27,27,0,0,0,7.72-4,20.87,20.87,0,0,0,5.27-5.77,23.53,23.53,0,0,0,2.81-6.58L304.2,57l-2.6-.49L288,53.93l-2.14-.41-.7,2.07a8.73,8.73,0,0,1-2.4,3.43c-1,1-2.82,1.5-5.28,1.5a8.24,8.24,0,0,1-6.15-2.26A9.41,9.41,0,0,1,269,53.43h35v-6c0-8.62-2.26-15.74-6.72-21.17-4.59-5.58-11.34-8.4-20.07-8.4ZM269.91,39a7,7,0,0,1,2-2.62,8.28,8.28,0,0,1,5.23-1.69,7.32,7.32,0,0,1,5.16,1.7A6.3,6.3,0,0,1,284,39Z"/><path d="M145.57,122.28q12.41,0,19.47,7.22t7.06,20q0,12.73-7.06,20.06t-19.47,7.33q-12.21,0-19.37-7.33T119,149.46q0-12.74,7.17-20t19.37-7.22m0,41.94a10.26,10.26,0,0,0,8.34-3.74q3.1-3.75,3.1-11t-3.1-10.92a10.42,10.42,0,0,0-8.34-3.63,10.53,10.53,0,0,0-8.3,3.58q-3.15,3.58-3.15,11t3.15,11a10.32,10.32,0,0,0,8.3,3.74m0-44.44c-8.79,0-15.9,2.68-21.15,8s-7.89,12.58-7.89,21.72,2.65,16.46,7.88,21.81,12.36,8.08,21.16,8.08,16.09-2.72,21.27-8.1,7.76-12.67,7.76-21.79S172,133,166.83,127.75s-12.33-8-21.26-8Zm0,41.94a7.84,7.84,0,0,1-6.38-2.85c-1.71-2-2.57-5.19-2.57-9.41s.85-7.41,2.53-9.32a8.06,8.06,0,0,1,6.42-2.73,8,8,0,0,1,6.44,2.76c1.66,2,2.5,5.07,2.5,9.29s-.85,7.4-2.52,9.42a7.85,7.85,0,0,1-6.42,2.84Z"/><path d="M211.23,122.28A19.12,19.12,0,0,1,224.5,127q5.24,4.71,5.24,13.69v35.1h-15.3V144.11q0-4.61-2.51-6.69a10.52,10.52,0,0,0-6.91-2.09,11.79,11.79,0,0,0-7,2.2,7.29,7.29,0,0,0-3.1,6.36v31.89h-15.3V123.35h14.87v6.85a20.11,20.11,0,0,1,6.74-5.67,20.68,20.68,0,0,1,9.95-2.25m0-2.5a23.28,23.28,0,0,0-11.14,2.55,25.44,25.44,0,0,0-3.05,1.93v-3.41H177.17v57.43h20.3V143.89a4.86,4.86,0,0,1,2-4.32,9.23,9.23,0,0,1,5.51-1.74,8.18,8.18,0,0,1,5.31,1.51c1.07.89,1.61,2.49,1.61,4.77v34.17h20.3v-37.6c0-6.7-2-11.93-6.07-15.55a21.63,21.63,0,0,0-14.94-5.35Z"/><path d="M259.31,110.51v12.84h14v13.37h-14v18.41q0,4.17,1.77,5.72a7.77,7.77,0,0,0,5.29,1.55h7.17v13.38h-9.09q-10.71,0-15.63-4.6t-4.92-15.73V136.72H236V123.35h7.92V110.51h15.41m2.5-2.5H241.4v12.84h-7.92v18.37h7.92v16.23c0,8.11,1.92,14,5.72,17.56s9.57,5.27,17.33,5.27H276V159.9h-9.67a5.69,5.69,0,0,1-3.64-.92c-.28-.25-.92-1.11-.92-3.85V139.22h14V120.85h-14V108Z"/><path d="M313.77,123.35v13.48h-4.92a17.71,17.71,0,0,0-8.83,2,6.68,6.68,0,0,0-3.58,6.21v30.71h-15.3V123.35H295.9v6.42a14.16,14.16,0,0,1,6.69-5.19,22.77,22.77,0,0,1,7.22-1.23h4m2.5-2.5h-6.46a25.42,25.42,0,0,0-8,1.36,14,14,0,0,0-3.4,1.69v-3.05H278.64v57.43h20.3V145.07a4.19,4.19,0,0,1,2.32-4,15.33,15.33,0,0,1,7.59-1.71h7.42V120.85Z"/><path d="M342.66,122.28a40,40,0,0,1,9,1,19.86,19.86,0,0,1,7.22,3.16,15.07,15.07,0,0,1,4.82,5.94,21.57,21.57,0,0,1,1.76,9.2v34.24H351.22v-5.89a15.43,15.43,0,0,1-6.42,5.19,21.24,21.24,0,0,1-8.77,1.77,19.7,19.7,0,0,1-12.63-4.07q-5.13-4.07-5.14-11.55,0-8.23,5.3-11.93T337.85,145q3.52-.21,6.79-.21t5.94.11v-3.75a6.18,6.18,0,0,0-2.14-5.19,9.63,9.63,0,0,0-6-1.66,9.08,9.08,0,0,0-5.62,1.66,8.5,8.5,0,0,0-2.94,5.3L320,139.08a19.24,19.24,0,0,1,6.95-12q5.77-4.82,15.73-4.81m-2.25,43.33a11.8,11.8,0,0,0,7.39-2.14,6.8,6.8,0,0,0,2.78-5.67v-3.31c-1.36-.07-2.93-.11-4.71-.11s-3.49,0-5.13.11a11.32,11.32,0,0,0-5.35,1.55,4.42,4.42,0,0,0-2.15,4,4.79,4.79,0,0,0,2,4.12,8.62,8.62,0,0,0,5.19,1.44m2.25-45.83c-7.2,0-13,1.81-17.33,5.39a21.79,21.79,0,0,0-7.82,13.5l-.41,2.49,2.5.39,11.8,1.82a26,26,0,0,0-9.27,3.88c-4.22,2.94-6.37,7.64-6.37,14,0,5.77,2.05,10.32,6.09,13.51A22.21,22.21,0,0,0,336,179.35a24,24,0,0,0,9.79-2,18.91,18.91,0,0,0,2.9-1.61v2.52H368V141.54a24.05,24.05,0,0,0-2-10.27,17.69,17.69,0,0,0-5.62-6.9,22.37,22.37,0,0,0-8.12-3.56,42.11,42.11,0,0,0-9.55-1Zm-6.51,22.82.19-.88a6.17,6.17,0,0,1,2-3.81,6.62,6.62,0,0,1,4.11-1.15,7.3,7.3,0,0,1,4.46,1.14c.29.22,1.17.91,1.17,3.21v1.17c-1.1,0-2.25,0-3.44,0-2.22,0-4.55.07-6.95.22l-1.54.13ZM340.87,157c1.61-.07,3.29-.1,5-.1l2.21,0v.9a4.32,4.32,0,0,1-1.81,3.69,9.43,9.43,0,0,1-5.86,1.62,6.21,6.21,0,0,1-3.71-1,2.29,2.29,0,0,1-1-2.1,1.92,1.92,0,0,1,1-1.89,9.05,9.05,0,0,1,4.16-1.18Z"/><path d="M416,122.28q12,0,18.13,7.49t6.15,19.58v3.53H404.93q.44,6.1,3.43,9.1a10.71,10.71,0,0,0,7.92,3c3.13,0,5.47-.73,7-2.19a11.09,11.09,0,0,0,3.05-4.44l13.59,2.57a21.1,21.1,0,0,1-2.51,5.88,18.36,18.36,0,0,1-4.66,5.08,24.25,24.25,0,0,1-7,3.59,30.18,30.18,0,0,1-9.58,1.39q-12.19,0-19.1-7.28t-6.9-20a32.19,32.19,0,0,1,2-11.87,24.41,24.41,0,0,1,5.51-8.56A22.5,22.5,0,0,1,405.9,124,29.24,29.24,0,0,1,416,122.28m-10.7,21.19H425.8c-.29-3.07-1.28-5.39-3-7a9.72,9.72,0,0,0-6.84-2.35,10.88,10.88,0,0,0-6.75,2.19c-1.92,1.46-3.24,3.84-3.95,7.12M416,119.78A32.07,32.07,0,0,0,405,121.64a25,25,0,0,0-9.08,5.71,26.93,26.93,0,0,0-6.08,9.42,34.59,34.59,0,0,0-2.21,12.79c0,9.12,2.55,16.43,7.59,21.73s12.1,8.06,20.91,8.06a32.53,32.53,0,0,0,10.37-1.52,27,27,0,0,0,7.73-4,21,21,0,0,0,5.27-5.76,23.59,23.59,0,0,0,2.81-6.59l.64-2.57-2.6-.49-13.59-2.57-2.15-.4-.69,2.07a8.7,8.7,0,0,1-2.4,3.42c-1.05,1-2.82,1.5-5.28,1.5a8.24,8.24,0,0,1-6.15-2.26,9.37,9.37,0,0,1-2.34-4.83h34.95v-6c0-8.61-2.26-15.74-6.72-21.17s-11.33-8.4-20.06-8.4ZM408.7,141a7,7,0,0,1,2-2.63,8.33,8.33,0,0,1,5.23-1.68,7.27,7.27,0,0,1,5.15,1.69,6.35,6.35,0,0,1,1.64,2.62Z"/><path d="M463.36,103v72.76H448.05V103h15.31m2.5-2.5H445.55v77.76h20.31V100.52Z"/><path d="M97.71,222.12q12,0,18.14,7.49T122,249.19v3.53H86.69c.28,4.06,1.42,7.1,3.42,9.09a10.71,10.71,0,0,0,7.92,3c3.14,0,5.47-.73,7-2.19a11.34,11.34,0,0,0,3-4.44l13.59,2.56a21.07,21.07,0,0,1-2.52,5.89,18.46,18.46,0,0,1-4.65,5.08,24.69,24.69,0,0,1-7,3.59,30.18,30.18,0,0,1-9.58,1.39q-12.19,0-19.1-7.28t-6.9-20a32.07,32.07,0,0,1,2-11.88A24.31,24.31,0,0,1,79.47,229a22.25,22.25,0,0,1,8.18-5.14,29.24,29.24,0,0,1,10.06-1.71M87,243.3h20.54a10.33,10.33,0,0,0-3-7A9.76,9.76,0,0,0,97.71,234a10.84,10.84,0,0,0-6.74,2.2q-2.89,2.19-4,7.11m10.7-23.68a31.73,31.73,0,0,0-10.91,1.86,25,25,0,0,0-9.09,5.7,27,27,0,0,0-6.08,9.43,34.8,34.8,0,0,0-2.21,12.79c0,9.11,2.55,16.42,7.59,21.73s12.1,8.06,20.91,8.06a32.92,32.92,0,0,0,10.38-1.52,27,27,0,0,0,7.72-4,21.07,21.07,0,0,0,5.28-5.77,23.8,23.8,0,0,0,2.8-6.58l.64-2.57-2.6-.49-13.59-2.57-2.14-.41-.69,2.07a8.87,8.87,0,0,1-2.41,3.43c-1,1-2.82,1.5-5.28,1.5a8.24,8.24,0,0,1-6.15-2.26,9.49,9.49,0,0,1-2.34-4.83h35v-6c0-8.62-2.26-15.74-6.72-21.17-4.59-5.58-11.34-8.4-20.07-8.4ZM90.45,240.8a7,7,0,0,1,2-2.62,8.28,8.28,0,0,1,5.23-1.69,7.32,7.32,0,0,1,5.16,1.7,6.2,6.2,0,0,1,1.63,2.61Z"/><path d="M152.92,222.12q9.09,0,15.19,4.06a16.18,16.18,0,0,1,7.28,11.34L162,240.2a8.31,8.31,0,0,0-2.84-4.71c-1.46-1.21-3.66-1.82-6.58-1.82a11.92,11.92,0,0,0-5.94,1.18,3.59,3.59,0,0,0-2,3.21,3.11,3.11,0,0,0,1.61,2.94,19.06,19.06,0,0,0,5.24,1.66l6.74,1.28q7.92,1.5,12.57,5t4.66,10.49a15.22,15.22,0,0,1-5.94,12.47q-5.94,4.76-17.17,4.76-10,0-16-4.23A17.57,17.57,0,0,1,129,260.21l13.91-1.71a7.8,7.8,0,0,0,3.16,4.87,11.69,11.69,0,0,0,6.69,1.65q4.48,0,6.47-1.12a3.48,3.48,0,0,0,2-3.16,3.77,3.77,0,0,0-1.44-3.15c-1-.75-3-1.41-6.05-2l-7.17-1.29q-7.71-1.38-11.82-5T130.56,239q0-8.24,6.26-12.57t16.1-4.33m0-2.5c-7,0-12.95,1.6-17.53,4.78-4.86,3.36-7.33,8.29-7.33,14.62,0,5.23,1.67,9.34,5,12.21A24,24,0,0,0,142.6,256h0l-13.91,1.71-2.58.31.41,2.56a20.08,20.08,0,0,0,8.43,13.92c4.47,3.09,10.35,4.67,17.48,4.67,8,0,14.34-1.79,18.73-5.31A17.66,17.66,0,0,0,178,259.46c0-5.44-1.9-9.64-5.65-12.48a28.76,28.76,0,0,0-9.25-4.45L175.88,240l2.36-.48-.38-2.38a18.68,18.68,0,0,0-8.36-13c-4.46-3-10-4.48-16.58-4.48Zm6.87,22.08-1-.21L152,240.2a16.63,16.63,0,0,1-4.48-1.37c-.18-.11-.34-.19-.34-.77,0-.26,0-.61.76-1.06s2-.83,4.66-.83c2.28,0,4,.43,5,1.25a5.78,5.78,0,0,1,2,3.32l.21,1Zm-7.08,20.82a9.42,9.42,0,0,1-5.27-1.21,5.33,5.33,0,0,1-2.14-3.38l-.32-1.35,1.08.2,7.17,1.29c3.8.71,4.79,1.37,5,1.49a1.28,1.28,0,0,1,.48,1.18c0,.26,0,.58-.71,1-.53.29-1.91.79-5.24.79Z"/><path d="M214.12,222.12a22,22,0,0,1,8.72,1.71,19,19,0,0,1,7,5.08,24.77,24.77,0,0,1,4.65,8.4,40.56,40.56,0,0,1-.1,23.7,24.7,24.7,0,0,1-5,8.67,20.74,20.74,0,0,1-7.6,5.24,24.9,24.9,0,0,1-9.42,1.77,23.08,23.08,0,0,1-7.75-1.23,16,16,0,0,1-5.83-3.48v24.39H183.41V223.19h15v6.2a17.5,17.5,0,0,1,6.42-5.24,20.66,20.66,0,0,1,9.31-2m-4.38,41.73a9.69,9.69,0,0,0,8.08-3.8q2.94-3.8,2.94-10.75,0-6.75-2.94-10.54a9.66,9.66,0,0,0-8.08-3.8,10.89,10.89,0,0,0-8,3,10.59,10.59,0,0,0-3.05,7.92v7.7a9.81,9.81,0,0,0,3,7.39,11.1,11.1,0,0,0,8,2.89m4.38-44.23a23.13,23.13,0,0,0-10.42,2.29,22.1,22.1,0,0,0-2.81,1.66v-2.88h-20v78.18h20.31V276.75a21.41,21.41,0,0,0,2.49,1.06,25.79,25.79,0,0,0,8.59,1.38,27.62,27.62,0,0,0,10.35-1.95,23.31,23.31,0,0,0,8.51-5.87,27.2,27.2,0,0,0,5.55-9.53,43.06,43.06,0,0,0,.11-25.33,27.19,27.19,0,0,0-5.14-9.24,21.71,21.71,0,0,0-7.85-5.74,24.63,24.63,0,0,0-9.71-1.91Zm-4.38,41.73a8.6,8.6,0,0,1-6.29-2.19,7.37,7.37,0,0,1-2.23-5.59v-7.7a8.11,8.11,0,0,1,2.3-6.13,8.38,8.38,0,0,1,6.22-2.28,7.15,7.15,0,0,1,6.1,2.83c1.6,2.07,2.42,5.1,2.42,9s-.82,7.15-2.42,9.22a7.15,7.15,0,0,1-6.1,2.83Z"/><path d="M258.14,202.86v72.76h-15.3V202.86h15.3m2.5-2.5h-20.3v77.76h20.3V200.36Z"/><path d="M290.06,222.12a40,40,0,0,1,9,1,19.69,19.69,0,0,1,7.22,3.16,15.07,15.07,0,0,1,4.82,5.94,21.57,21.57,0,0,1,1.76,9.2v34.24H298.62v-5.89a15.51,15.51,0,0,1-6.42,5.19,21.24,21.24,0,0,1-8.77,1.77,19.7,19.7,0,0,1-12.63-4.07q-5.13-4.06-5.14-11.56,0-8.24,5.3-11.93t14.29-4.33q3.53-.21,6.79-.21c2.18,0,4.15,0,5.94.1V241a6.17,6.17,0,0,0-2.14-5.19,9.57,9.57,0,0,0-6-1.66,9,9,0,0,0-5.62,1.66,8.45,8.45,0,0,0-2.94,5.3l-13.91-2.14a19.24,19.24,0,0,1,6.95-12q5.78-4.81,15.73-4.81m-2.25,43.33a11.8,11.8,0,0,0,7.39-2.14,6.81,6.81,0,0,0,2.78-5.67v-3.32c-1.36-.07-2.93-.1-4.71-.1s-3.5,0-5.14.1a11.4,11.4,0,0,0-5.35,1.56,4.43,4.43,0,0,0-2.14,4,4.81,4.81,0,0,0,2,4.12,8.62,8.62,0,0,0,5.19,1.44m2.25-45.83c-7.2,0-13,1.81-17.33,5.39a21.74,21.74,0,0,0-7.82,13.5L264.5,241l2.5.39,11.8,1.81a26.24,26.24,0,0,0-9.27,3.88c-4.22,2.95-6.37,7.65-6.37,14,0,5.78,2,10.32,6.09,13.52a22.21,22.21,0,0,0,14.18,4.61,23.83,23.83,0,0,0,9.79-2,18.06,18.06,0,0,0,2.9-1.6v2.52h19.23V241.38a24,24,0,0,0-2-10.27,17.62,17.62,0,0,0-5.62-6.9,22.55,22.55,0,0,0-8.12-3.57,42.7,42.7,0,0,0-9.55-1Zm-6.51,22.82.19-.88a6.17,6.17,0,0,1,2-3.81,6.62,6.62,0,0,1,4.11-1.15,7.25,7.25,0,0,1,4.46,1.14c.29.22,1.17.91,1.17,3.21v1.17c-1.1,0-2.25,0-3.44,0-2.22,0-4.55.07-7,.22-.52,0-1,.08-1.54.13Zm4.72,14.38c1.61-.07,3.29-.1,5-.1.77,0,1.51,0,2.21,0v.9a4.35,4.35,0,0,1-1.81,3.69,9.43,9.43,0,0,1-5.86,1.62,6.21,6.21,0,0,1-3.71-1,2.3,2.3,0,0,1-1-2.1,1.92,1.92,0,0,1,1-1.89,8.93,8.93,0,0,1,4.16-1.18Z"/><path d="M367.35,223.19v13.16l-27.6,25.89h27.82v13.38h-47V262.35l27.61-25.79h-27V223.19h46.12m2.5-2.5H318.73v18.37h23.13l-23,21.46-.8.74v16.86h52V259.74h-24l23-21.57.79-.74V220.69Z"/><path d="M398.42,222.12a40,40,0,0,1,9,1,19.74,19.74,0,0,1,7.23,3.16,15,15,0,0,1,4.81,5.94,21.41,21.41,0,0,1,1.77,9.2v34.24H407v-5.89a15.63,15.63,0,0,1-6.42,5.19,21.29,21.29,0,0,1-8.78,1.77,19.7,19.7,0,0,1-12.62-4.07Q374,268.56,374,261.06q0-8.24,5.3-11.93t14.28-4.33c2.36-.14,4.62-.21,6.8-.21s4.15,0,5.93.1V241c0-2.36-.71-4.08-2.14-5.19a9.53,9.53,0,0,0-6-1.66,9,9,0,0,0-5.61,1.66,8.46,8.46,0,0,0-2.95,5.3l-13.91-2.14a19.3,19.3,0,0,1,7-12q5.78-4.81,15.73-4.81m-2.25,43.33a11.75,11.75,0,0,0,7.38-2.14,6.78,6.78,0,0,0,2.78-5.67v-3.32c-1.35-.07-2.92-.1-4.7-.1s-3.5,0-5.14.1a11.4,11.4,0,0,0-5.35,1.56,4.41,4.41,0,0,0-2.14,4,4.81,4.81,0,0,0,2,4.12,8.62,8.62,0,0,0,5.19,1.44m2.25-45.83c-7.21,0-13,1.81-17.33,5.39a21.74,21.74,0,0,0-7.82,13.5l-.41,2.49,2.49.39,11.81,1.81a26.16,26.16,0,0,0-9.27,3.88c-4.23,2.95-6.37,7.65-6.37,14,0,5.78,2.05,10.32,6.08,13.52a22.21,22.21,0,0,0,14.18,4.61,23.79,23.79,0,0,0,9.79-2,18.6,18.6,0,0,0,2.91-1.6v2.52h19.23V241.38a24,24,0,0,0-2-10.27,17.51,17.51,0,0,0-5.61-6.9,22.63,22.63,0,0,0-8.12-3.57,42.76,42.76,0,0,0-9.55-1Zm-6.51,22.82.18-.88a6.22,6.22,0,0,1,2-3.81,6.64,6.64,0,0,1,4.11-1.15,7.21,7.21,0,0,1,4.46,1.14c.29.22,1.17.91,1.17,3.21v1.17c-1.09,0-2.24,0-3.43,0-2.22,0-4.56.07-6.95.22-.52,0-1,.08-1.54.13Zm4.72,14.38c1.6-.07,3.28-.1,5-.1.77,0,1.51,0,2.2,0v.9a4.34,4.34,0,0,1-1.8,3.69,9.43,9.43,0,0,1-5.86,1.62,6.26,6.26,0,0,1-3.72-1,2.3,2.3,0,0,1-.95-2.1,1.92,1.92,0,0,1,1-1.89,8.9,8.9,0,0,1,4.16-1.18Z"/><path d="M189,312.12q8,0,13.11,4.76t5.08,13.75v35H191.76V333.84q0-4.27-2.35-6.53t-6.74-2.25a10.42,10.42,0,0,0-6.69,2.36,7.66,7.66,0,0,0-2.94,6.31v31.89H157.63V333.84a8.46,8.46,0,0,0-2.36-6.42,9.21,9.21,0,0,0-6.63-2.25,10.72,10.72,0,0,0-6.79,2.3,7.51,7.51,0,0,0-2.95,6.26v31.89H123.6V313.19h14.87v6.63a19.59,19.59,0,0,1,6.48-5.51,20.18,20.18,0,0,1,9.79-2.19,18.09,18.09,0,0,1,10.11,2.56,15.51,15.51,0,0,1,5.72,6.53,18.65,18.65,0,0,1,7.82-6.85A24.85,24.85,0,0,1,189,312.12m0-2.5a27.29,27.29,0,0,0-11.65,2.48,20.71,20.71,0,0,0-6.5,4.73,18.36,18.36,0,0,0-4.61-4.23,20.55,20.55,0,0,0-11.48-3,22.7,22.7,0,0,0-11,2.5,23.8,23.8,0,0,0-2.78,1.76v-3.19H121.1v57.43h20.3V333.73a5,5,0,0,1,2-4.29,8.21,8.21,0,0,1,5.25-1.77,6.8,6.8,0,0,1,4.91,1.56,6,6,0,0,1,1.58,4.61v34.28h20.41V333.73a5.16,5.16,0,0,1,2-4.36,7.91,7.91,0,0,1,5.13-1.81,7.07,7.07,0,0,1,5,1.56c1.06,1,1.58,2.56,1.58,4.72v34.28h20.41V330.63c0-6.68-2-11.92-5.87-15.58S195,309.62,189,309.62Z"/><path d="M230.92,292.54V306H215.19V292.54h15.73m-.21,20.65v52.43h-15.3V313.19h15.3M233.42,290H212.69v18.48h20.73V290Zm-.21,20.65h-20.3v57.43h20.3V310.69Z"/><path d="M264.09,312.12q12,0,18.14,7.49t6.15,19.58v3.53H253.07c.29,4.06,1.43,7.1,3.43,9.09a10.67,10.67,0,0,0,7.91,3q4.71,0,7-2.19a11.34,11.34,0,0,0,3.05-4.44l13.59,2.56a21.33,21.33,0,0,1-2.51,5.89,18.5,18.5,0,0,1-4.66,5.08,24.43,24.43,0,0,1-7,3.59,30.12,30.12,0,0,1-9.57,1.39q-12.21,0-19.1-7.28t-6.9-20a32.08,32.08,0,0,1,2-11.88,24.31,24.31,0,0,1,5.51-8.55,22.33,22.33,0,0,1,8.18-5.14,29.24,29.24,0,0,1,10.06-1.71m-10.7,21.18h20.55a10.38,10.38,0,0,0-3-6.95,9.75,9.75,0,0,0-6.85-2.36,10.86,10.86,0,0,0-6.74,2.2c-1.92,1.46-3.25,3.83-4,7.11m10.7-23.68a31.73,31.73,0,0,0-10.91,1.86,25.12,25.12,0,0,0-9.09,5.7,27.16,27.16,0,0,0-6.08,9.43,34.8,34.8,0,0,0-2.2,12.79c0,9.11,2.55,16.42,7.58,21.73s12.11,8.06,20.92,8.06a32.86,32.86,0,0,0,10.37-1.52,27,27,0,0,0,7.72-4,20.91,20.91,0,0,0,5.28-5.77,23.83,23.83,0,0,0,2.81-6.58l.64-2.57-2.61-.49-13.58-2.57-2.15-.41-.69,2.07a8.94,8.94,0,0,1-2.4,3.43c-1.05,1-2.83,1.5-5.29,1.5a8.27,8.27,0,0,1-6.15-2.26,9.49,9.49,0,0,1-2.33-4.83h34.95v-6c0-8.62-2.26-15.74-6.72-21.17s-11.33-8.4-20.07-8.4Zm-7.26,21.18a7,7,0,0,1,2-2.62,8.32,8.32,0,0,1,5.23-1.69,7.3,7.3,0,0,1,5.16,1.7,6.31,6.31,0,0,1,1.64,2.61Z"/><path d="M327.76,312.12a19.16,19.16,0,0,1,13.27,4.7q5.24,4.71,5.24,13.7v35.1H331V333.94q0-4.59-2.52-6.68a10.47,10.47,0,0,0-6.9-2.09,11.74,11.74,0,0,0-6.95,2.19,7.33,7.33,0,0,0-3.11,6.37v31.89h-15.3V313.19h14.88V320a20.24,20.24,0,0,1,6.74-5.67,20.79,20.79,0,0,1,9.95-2.24m0-2.5a23.25,23.25,0,0,0-11.14,2.54,25.11,25.11,0,0,0-3.05,1.93v-3.4H293.69v57.43H314V333.73a4.83,4.83,0,0,1,2.05-4.32,9.21,9.21,0,0,1,5.51-1.74,8.2,8.2,0,0,1,5.31,1.51c1.06.89,1.61,2.49,1.61,4.76v34.18h20.3v-37.6c0-6.7-2-11.93-6.07-15.56a21.67,21.67,0,0,0-14.94-5.34Z"/><path d="M375.84,300.35v12.84h14v13.37h-14V345q0,4.17,1.76,5.72a7.87,7.87,0,0,0,5.3,1.55h7.17v13.38H381q-10.7,0-15.62-4.6t-4.92-15.73V326.56h-7.92V313.19h7.92V300.35h15.41m2.5-2.5H357.93v12.84H350v18.37h7.92v16.23c0,8.1,1.92,14,5.71,17.55s9.58,5.28,17.33,5.28h11.6V349.74H382.9a5.66,5.66,0,0,1-3.65-.93c-.27-.24-.91-1.1-.91-3.84V329.06h14V310.69h-14V297.85Z"/><path d="M422.6,312.12q12.4,0,19.47,7.22t7.06,20q0,12.72-7.06,20.06t-19.47,7.33q-12.21,0-19.37-7.33t-7.17-20.06q0-12.74,7.17-20t19.37-7.22m0,41.94a10.29,10.29,0,0,0,8.34-3.74q3.1-3.75,3.11-11c0-4.86-1-8.49-3.11-10.92a10.42,10.42,0,0,0-8.34-3.64,10.54,10.54,0,0,0-8.3,3.59q-3.15,3.59-3.15,11t3.15,11a10.35,10.35,0,0,0,8.3,3.74m0-44.44c-8.79,0-15.9,2.68-21.15,8s-7.89,12.58-7.89,21.72,2.65,16.46,7.88,21.81,12.36,8.08,21.16,8.08,16.1-2.73,21.27-8.1,7.76-12.68,7.76-21.79-2.61-16.43-7.77-21.71-12.33-8-21.26-8Zm0,41.94a7.84,7.84,0,0,1-6.38-2.85c-1.71-2-2.57-5.19-2.57-9.41s.85-7.41,2.53-9.32a8.07,8.07,0,0,1,6.42-2.74A8,8,0,0,1,429,330c1.66,1.95,2.51,5.08,2.51,9.3s-.86,7.4-2.53,9.42a7.85,7.85,0,0,1-6.42,2.84Z"/><path d="M42.92,138.84c0-23.75,13-39.8,35.84-39.8,18.94,0,29.75,10.81,31.78,27l-14.12,2c-1.29-10.81-7.6-17.66-18.09-17.66-13.37,0-21.07,11.24-21.07,28.25,0,16.58,7.49,28.46,21.4,28.46,9.73,0,16.37-6.53,18.29-17.23l13.7,2.79c-3.21,15.19-13.59,26-32.1,26C54.69,178.65,42.92,161.74,42.92,138.84Z"/><path d="M0,202H27.39c22.26,0,36.81,15.2,36.81,37.67S49.75,278,27.18,278H0Zm26.75,65.16c14.76,0,22.9-12.41,22.9-27.49,0-15.41-7.82-26.86-22.69-26.86H13.8v54.35Z"/></svg>