<svg id="Layer_1" data-name="Layer 1" xmlns="http://www.w3.org/2000/svg" viewBox="0 0 339.26 383.73"><title>Spanish Export copy</title><path d="M122.91,2.3q11.88,1.13,15,2.18C140,5.19,141,5.92,141,6.67c0,1-1.09,2-3.25,2.87V23.66h24.48V9c0-1.83-.08-4-.25-6.62a103.12,103.12,0,0,1,12.18,1.69c2.79.62,4.48,1.17,5.06,1.62a1.9,1.9,0,0,1,.87,1.44c0,1-.87,1.79-2.62,2.37V23.66h5.87q3.75-6,5.62-8.43c1.25-1.63,2.21-2.44,2.88-2.44q1.62,0,8.49,5.93t6.87,7.81c0,.83-.83,1.25-2.5,1.25H177.5v5.87a36.2,36.2,0,0,0,.13,3.75l.12,2.25q0,1.74-5.37,3A39,39,0,0,1,165,43.89a5,5,0,0,1-2.37-.31,1.31,1.31,0,0,1-.38-1.06V27.78H137.78V40.27a2.18,2.18,0,0,1-1,2,22.85,22.85,0,0,1-5.62,1.56,38.54,38.54,0,0,1-7.25.94c-.66,0-1-.38-1-1.13l.25-4.62q.14-3.24.13-9.74v-1.5H101.43a7.79,7.79,0,0,0-4.5,1.37l-3.25-5.87a50.32,50.32,0,0,0,6.25.38h23.36V11.42q0-4.12-.38-9.12M167,44.14q1.88,0,10.18,5.44t8.31,7.55c0,1-1,1.57-2.94,1.69a17.9,17.9,0,0,0-6.68,2.06q-11.74,5.5-16.24,8.12Q151,73.88,143.21,79.31a86.46,86.46,0,0,0-10.86,8.49,34.15,34.15,0,0,0-4.25,4.87,6,6,0,0,0-1.19,3.06q0,3.63,7.81,4.94T158.83,102q16.29,0,22.86-1.81a15.8,15.8,0,0,0,9.74-7.06q3.18-5.25,5.81-17.61c.33-1.58.66-2.38,1-2.38s.5.84.5,2.5q0,10.62,1.68,15a15.81,15.81,0,0,0,6.06,7.44c1.67,1.16,2.5,2.29,2.5,3.37q0,2.74-5.43,6.06a43,43,0,0,1-13.93,5q-8.51,1.69-23.74,1.69t-29.29-1.12q-14.06-1.12-19.61-5t-5.56-9.74q0-8.25,10.06-17.49T158,55.51H112.55a7.79,7.79,0,0,0-4.5,1.37L104.8,51a50.32,50.32,0,0,0,6.25.38h48.21q5.25-5.88,6.12-6.56a2.73,2.73,0,0,1,1.63-.69M120.2-.47l.22,3c.24,3.26.37,6.26.37,8.94v9.74H99.93A47.39,47.39,0,0,1,94,20.8l-4.87-.61,2.38,4.3,3.24,5.87,1.34,2.42,2.27-1.57a5.31,5.31,0,0,1,3.08-.93h19.36c0,3.76-.05,6.66-.12,8.65l-.25,4.58v.13a3.41,3.41,0,0,0,3.5,3.63,40.38,40.38,0,0,0,7.74-1c4.46-.9,5.73-1.44,6.45-1.89a4.65,4.65,0,0,0,2.18-4.12v-10h19.48V42.52a3.72,3.72,0,0,0,1.28,3l.1.08c-.75.81-1.72,1.88-3,3.3h-47.1a47.39,47.39,0,0,1-5.94-.36l-4.87-.61,2.37,4.3,3.25,5.87,1.34,2.42,2.27-1.57a5.31,5.31,0,0,1,3.08-.93h36.66c-13.75,8.64-23.64,15.7-29.42,21-7.21,6.62-10.87,13.13-10.87,19.33,0,4.76,2.23,8.73,6.63,11.79,4.11,2.87,10.93,4.64,20.84,5.44,9.4.75,19.32,1.13,29.49,1.13s18.43-.58,24.22-1.74a45.32,45.32,0,0,0,14.75-5.31c4.52-2.76,6.63-5.36,6.63-8.19,0-1.94-1.2-3.76-3.56-5.42a13.25,13.25,0,0,1-5.16-6.27c-1-2.66-1.52-7.43-1.52-14.17,0-1.37,0-5-3-5-2.54,0-3.13,2.84-3.45,4.36-1.68,7.93-3.53,13.59-5.5,16.83a13.26,13.26,0,0,1-8.27,6c-4.13,1.14-11.6,1.72-22.19,1.72s-18.65-.43-23.7-1.28c-4.52-.76-5.72-2-5.72-2.47a3.78,3.78,0,0,1,.78-1.69,31.37,31.37,0,0,1,3.92-4.47,85.43,85.43,0,0,1,10.53-8.21c5.11-3.56,10.57-7,16.23-10.18,2.93-1.72,8.33-4.41,16.07-8l0,0h0a15.52,15.52,0,0,1,5.72-1.81c4.76-.3,5.28-3,5.28-4.18,0-2.14-1.58-4.5-9.44-9.65-1.69-1.1-3.11-2-4.32-2.72,2.45-.65,6-2,6-5.11v-.14l-.13-2.25v-.14c-.05-.44-.11-1.41-.11-3.47V30.28h24.73c4.64,0,5-2.87,5-3.75,0-1.86-1.29-4.13-7.73-9.7-7-6-8.79-6.54-10.13-6.54-2,0-3.56,1.72-4.86,3.41-1.17,1.53-2.82,4-5,7.46h-2v-10a4.47,4.47,0,0,0,2.62-4,4.26,4.26,0,0,0-1.82-3.4c-.7-.54-1.9-1.17-6.06-2.1A107,107,0,0,0,162.25-.07l-2.92-.27.19,2.92c.16,2.53.24,4.71.24,6.46V21.16H140.28v-10c1.46-.82,3.25-2.23,3.25-4.45,0-2.91-3.5-4.1-4.82-4.55-2.29-.78-7.38-1.54-15.56-2.31l-3-.28Z"/><path d="M268.69,1.3q3.49.12,10.18.81c4.45.46,7.12.87,8,1.25s1.31.85,1.31,1.44q0,1.49-3.49,3V33.9h25.48q1.5-2.62,4.12-6.37T317.65,23a2,2,0,0,1,1.38-.81q1.25,0,7.93,5.74t6.68,7.94q0,2.17-4.12,2.18H290.17q6.75,17.11,17.93,28.55T336.27,85c1.16.5,1.74,1,1.74,1.37s-.87.86-2.62,1.32-3.77,1.83-6.06,4.12a35.48,35.48,0,0,0-6.06,8.3c-.58,1.09-1.2,1.63-1.87,1.63q-2,0-10.74-10.06a90.28,90.28,0,0,1-14.49-23.11A120,120,0,0,1,287.8,38h-3.12v62.46q0,4.13.25,8.74l.12,4.25a2,2,0,0,1-.37,1.31,8.5,8.5,0,0,1-2.75,1.25,35.77,35.77,0,0,1-6,1.37,38.14,38.14,0,0,1-5.24.57c-1.09,0-1.71-.11-1.88-.32a2.92,2.92,0,0,1-.25-1.56l.13-4.87c.16-3.33.25-7.08.25-11.24V59.13q-15,22.11-31.86,33.79T217.85,104.6c-.34,0-.5-.12-.5-.37s.41-.71,1.25-1.38Q232.09,92,243.89,74.5A138,138,0,0,0,261.57,38H229.71a7.72,7.72,0,0,0-4.49,1.38L222,33.53a50.36,50.36,0,0,0,6.25.37h40.72V12.42c0-4.17-.09-7.87-.25-11.12m27,7.87c5.24,0,9.6.85,13.05,2.56s5.19,4,5.19,6.87a10.6,10.6,0,0,1-2.57,7.24,7.9,7.9,0,0,1-6.18,2.94q-4.62,0-6.24-5-3.51-10.86-10.37-12.49c-.84-.16-1.25-.46-1.25-.87q0-1.24,8.37-1.25M266.05-1.3l.14,2.73c.16,3.19.25,6.88.25,11v19H228.22a49.28,49.28,0,0,1-5.94-.35l-4.88-.62,2.38,4.31L223,40.61,224.36,43l2.27-1.56a5.29,5.29,0,0,1,3.08-.94h28.42A136.88,136.88,0,0,1,241.82,73.1c-7.69,11.4-16,20.75-24.79,27.8-1.1.89-2.18,1.88-2.18,3.33a2.88,2.88,0,0,0,3,2.87c1.25,0,3.15,0,20.66-12.12,9.74-6.75,19.11-16.15,27.93-28v33c0,4.1-.09,7.84-.25,11.12v.06l-.13,4.87v.06a4.83,4.83,0,0,0,.8,3.12c.93,1.16,2.46,1.26,3.83,1.26a40.6,40.6,0,0,0,5.63-.6,39,39,0,0,0,6.42-1.47c2.52-.87,3.32-1.39,3.83-2a4.39,4.39,0,0,0,1-2.94v-.07l-.12-4.25v-.06c-.16-3-.24-5.89-.24-8.61v-52a111.71,111.71,0,0,0,6.7,21.1,93.2,93.2,0,0,0,14.89,23.74c8.76,10.08,11,10.92,12.63,10.92,1.14,0,2.77-.51,4.07-2.94a33.13,33.13,0,0,1,5.63-7.73c2.44-2.44,4-3.23,4.92-3.47,1.57-.41,4.49-1.17,4.49-3.73,0-2.27-2.37-3.28-3.26-3.67-11-4.52-20.19-10.53-27.37-17.87a80.51,80.51,0,0,1-16-24.3h35.6c6,0,6.62-3.27,6.62-4.68,0-1.73-.91-4.12-7.55-9.83-6.85-5.88-8.33-6.35-9.56-6.35a4.1,4.1,0,0,0-2.78,1.19,16.55,16.55,0,0,0,.16-2.25c0-2.68-1.14-6.43-6.58-9.11a32,32,0,0,0-14.16-2.82c-2.09,0-4,0-5.58.19a3.93,3.93,0,0,0,.58-2.06c0-.95-.36-2.69-2.83-3.74-.81-.35-2.49-.8-8.72-1.44-4.57-.46-7.95-.73-10.34-.82l-2.73-.1Zm21.13,32.7V13.5a5.5,5.5,0,0,0,.83.23c3.63.88,6.5,4.52,8.53,10.82,1.4,4.34,4.47,6.73,8.62,6.73a10.41,10.41,0,0,0,4.18-.85c-.22.33-.42.66-.61,1Z"/><path d="M34.6,147.21a220.23,220.23,0,0,0,28.67-7.81q15.67-5.31,24.79-10.31a64,64,0,0,1,8.87,8.31,76.19,76.19,0,0,1,6.06,7,4.37,4.37,0,0,1,.81,2.06c0,.92-.66,1.37-2,1.37a7.06,7.06,0,0,1-1.74-.25A47.69,47.69,0,0,0,91,147q-6.18,0-14.8.5L34.6,150c-.58.59-.87,2-.87,4.13q0,6.73-.25,16.73H76c2.33-4.41,3.76-6.91,4.31-7.49a2.42,2.42,0,0,1,1.81-.87q2.12,0,10.43,5.37t8.3,7.68q0,2.31-3.37,2.94a5.11,5.11,0,0,0-3.12,1.74,27.34,27.34,0,0,0-3,6A91.56,91.56,0,0,1,75.2,213q15,9.36,40.59,14.36c1.67.33,2.5.75,2.5,1.25s-1.18,1-3.56,1.56-4.89,2.06-7.55,4.56a28.92,28.92,0,0,0-6.38,8.74,1.64,1.64,0,0,1-1.56,1.13,6.34,6.34,0,0,1-2.31-.5q-1.25-.51-8.37-4.56t-13-8.18a98.43,98.43,0,0,1-10.68-8.5A82,82,0,0,1,47.4,233.77,109.14,109.14,0,0,1,28,240.64q-9.93,2.51-11.74,2.5c-1.21,0-1.81-.21-1.81-.62s.54-.84,1.62-1.25q25.37-9.37,41.1-26.74Q45.47,199.43,43,174.94H33.23q-.25,11.87-1.44,21.61a62.38,62.38,0,0,1-4.87,18,65.45,65.45,0,0,1-8.87,14.62A64.57,64.57,0,0,1,7.12,239.89C3.29,242.81,1,244.26.25,244.26c-.17,0-.25-.14-.25-.43a3.87,3.87,0,0,1,1-1.69,70.14,70.14,0,0,0,10.49-16.68,72.94,72.94,0,0,0,5.25-18.36q1.5-9.79,1.5-27.23T17,141.71A98,98,0,0,1,34.6,147.21Zm30,57.83A77.29,77.29,0,0,0,77,174.94H46.47Q52.08,193.56,64.58,205Z"/><path d="M75.82,356.13V318.78H68.2a12.69,12.69,0,0,0-5.24.87L59.08,314a27.06,27.06,0,0,0,6.25.63h10a30.9,30.9,0,0,1,3.06-4.94c1.13-1.45,2-2.18,2.63-2.18s2.43.87,5.43,2.62a67.42,67.42,0,0,1,6.93,4.5c1.63,1.25,2.44,2.2,2.44,2.87q0,1.62-4.75,3.87v36.35a36,36,0,0,0,14.87,7.56q8.61,2.19,30.6,2.18,6.5,0,13.05-.25t13.31-.74q6.74-.51,10.86-1c2.75-.34,4.38-.5,4.88-.5s.74.18.74.56-.58.89-1.74,1.56q-8.5,5-9.12,13.62c-.09.83-.46,1.31-1.13,1.43s-6,.19-16,.19-18.47-.25-25.29-.75a121.31,121.31,0,0,1-14.93-1.75,29.35,29.35,0,0,1-9.93-4.5,70.77,70.77,0,0,1-11.87-10.61c-1.58-1.58-2.85-2.38-3.81-2.38s-2.35.92-4.18,2.75-5.08,6.33-9.74,13.49Q70.69,380,70.26,380a1.26,1.26,0,0,1-.87-.44q-.44-.44-3.56-4.56t-6.62-9.24Q68.57,359.87,75.82,356.13ZM71.2,274.69q12.36,0,18,4.05a12.44,12.44,0,0,1,5.68,10.56A8.8,8.8,0,0,1,92,296.17a9.19,9.19,0,0,1-6.19,2.62,8.92,8.92,0,0,1-5.49-1.68A5.63,5.63,0,0,1,78,292.67q-.63-7.11-2.75-10.12t-8.12-5.87c-1.17-.58-1.75-1.06-1.75-1.43S67.29,274.69,71.2,274.69Zm54,12.61q-15.73.75-26.35.75-1.5,0-1.5-.87c0-.59.41-.92,1.25-1q31.85-5.25,56-17.62,15.1,13.62,15.11,16.12c0,.92-.64,1.27-1.93,1.06a52.39,52.39,0,0,0-7.06-.31q-5.13,0-16.62.75c.09,1.16-.74,2.29-2.49,3.37v23.73h12.36q4-7.25,5.06-8.62c.71-.91,1.35-1.37,1.94-1.37q1.5,0,8.93,5.56t7.43,7.06c0,1-.83,1.49-2.5,1.49H141.53V339l.12,18.62a3.81,3.81,0,0,1-1.25,3.06,11.74,11.74,0,0,1-3.81,1.93,19.73,19.73,0,0,1-6.37.88,31.55,31.55,0,0,1-4.68-.19,1.06,1.06,0,0,1-.88-1.19L125,350q.12-5.88.12-10V317.4H105.43a7.72,7.72,0,0,0-4.5,1.38l-4.62-5.87a50.32,50.32,0,0,0,6.24.37h22.61Z"/><path d="M241,286.05a6.59,6.59,0,0,1-3.69-6.12,12.21,12.21,0,0,0-1.75-6.56,11.26,11.26,0,0,0-4.12-3.49c-1.71-.88-2.56-1.52-2.56-1.94q0-1,7.68-1a25.45,25.45,0,0,1,12.81,2.94q5.11,2.92,5.12,7.18,0,7-7.12,9h31.6q3.49-6.75,4.87-8.8c.92-1.38,1.71-2.07,2.38-2.07q2,0,9.11,6.06t7.12,7.5c0,1-.83,1.43-2.49,1.43h-45.6a61.62,61.62,0,0,1,7.93,3.69q3.69,2.06,3.69,3.06c0,.67-.75,1.1-2.25,1.31s-4.58,2.15-9.24,5.81a34.37,34.37,0,0,1,9.18,7.06q3.18,3.67,3.18,6.8a6.74,6.74,0,0,1-1.87,5h5.75V299.42c0-1.83-.09-4-.25-6.62q9.62,1,13.36,1.81c2.5.54,3.75,1.19,3.75,1.93s-.75,1.5-2.25,2.25v21.86a36.2,36.2,0,0,0,.13,3.75l.12,2.25q0,1.62-4.56,2.93a29.79,29.79,0,0,1-8.18,1.32c-1.42,0-2.12-.46-2.12-1.38V327H255a9.16,9.16,0,0,1-2.56,1.81q-1.44.69-8.06,8.94h32.23a27.37,27.37,0,0,1,3.12-5.19,2.76,2.76,0,0,1,1.87-1.06q1.5,0,7.56,3.75a64.57,64.57,0,0,1,7.49,5.06,3.54,3.54,0,0,1,1.44,2.43c0,1.25-1.33,2.38-4,3.37v22a20.06,20.06,0,0,1-1.12,7.68,9.22,9.22,0,0,1-3.56,4.12,23.77,23.77,0,0,1-6.75,2.69,28.19,28.19,0,0,1-6.49,1.12c-1.46,0-2.4-1-2.81-3.12a9.44,9.44,0,0,0-4-5.75,16.5,16.5,0,0,0-7.06-3.12c-2.45-.42-3.68-.83-3.68-1.25s.71-.62,2.12-.62l7,.25q7,0,9.05-1.69c1.38-1.12,2.06-3.18,2.06-6.18V341.89H240.71a130.15,130.15,0,0,1-13.62,12.61l26.11-.62a26.15,26.15,0,0,0-7-8.49c-1.08-.84-1.62-1.36-1.62-1.57s.16-.31.5-.31a38.45,38.45,0,0,1,6.87,1.63,44.14,44.14,0,0,1,9.49,3.81,19,19,0,0,1,5.81,4.68,8.17,8.17,0,0,1,1.94,5,8.31,8.31,0,0,1-2.31,6.24,7.79,7.79,0,0,1-5.63,2.25q-3.3,0-4.68-1.62a6.38,6.38,0,0,1-1.44-4.06,14.64,14.64,0,0,0-.81-4.56q-22.86,6.87-32.1,11.36a3,3,0,0,1-1.31.38c-.38,0-.73-.29-1.06-.88a59.61,59.61,0,0,1-2.38-6.24,33.9,33.9,0,0,1-1.87-6.37c0-.67.5-1,1.5-1.13a8.06,8.06,0,0,0,4.87-2.37q2.49-2.25,7.12-9.74H214a2.56,2.56,0,0,1-2.5,2.12v34.1a3.16,3.16,0,0,1-.57,2.13,11.05,11.05,0,0,1-3.49,1.68,28,28,0,0,1-8.93,1.06c-1.09,0-1.63-.5-1.63-1.49l.25-5.88q.25-6.12.25-11.11V344q0-6.24-.25-11.12a104.45,104.45,0,0,1,14.37,4.88h19.86A48.3,48.3,0,0,0,235.09,327h-18l-1.75,2.88a2.51,2.51,0,0,1-2.12,1.37q-1.26,0-6.69-2.5c-3.62-1.66-5.43-2.77-5.43-3.31a2.61,2.61,0,0,1,.94-1.75,6.12,6.12,0,0,0,1.37-2,9.27,9.27,0,0,0,.44-3.31V302.29c0-3.91-.13-7.08-.38-9.49a107,107,0,0,1,11.87,1.81c2.66.62,4,1.33,4,2.12s-.75,1.44-2.25,1.94V322.9h3a105.23,105.23,0,0,0,19.11-17.61,69.52,69.52,0,0,0-15.37-8.87c-1.08-.42-1.62-.77-1.62-1.06s.46-.44,1.37-.44a64.91,64.91,0,0,1,7.81,1.25,88.12,88.12,0,0,1,12.18,3.25,70.79,70.79,0,0,0,5.5-9.25H194.36a7.72,7.72,0,0,0-4.49,1.38l-3.25-5.87a50.32,50.32,0,0,0,6.24.37Zm5,24.73a120.66,120.66,0,0,1-21.36,12.12h30.86a20.25,20.25,0,0,1-2.75-4.18A36.51,36.51,0,0,0,246,310.78Z"/></svg>