<?xml version="1.0" standalone="no"?>
<!DOCTYPE svg PUBLIC "-//W3C//DTD SVG 1.1//EN" "http://www.w3.org/Graphics/SVG/1.1/DTD/svg11.dtd" >
<svg xmlns="http://www.w3.org/2000/svg">
<metadata></metadata>
<defs>
<font id="grotesque_mtbold_extended" horiz-adv-x="1449" >
<font-face units-per-em="2048" ascent="1536" descent="-512" />
<missing-glyph horiz-adv-x="614" />
<glyph horiz-adv-x="0" />
<glyph horiz-adv-x="0" />
<glyph unicode="&#xd;" horiz-adv-x="512" />
<glyph unicode=" "  horiz-adv-x="614" />
<glyph unicode="&#x09;" horiz-adv-x="614" />
<glyph unicode="&#xa0;" horiz-adv-x="614" />
<glyph unicode="!" horiz-adv-x="661" d="M147 1128q0 113 19.5 183.5t36.5 99.5h270q25 -59 33 -126.5t8 -115.5q0 -92 -14.5 -178t-31.5 -167t-33.5 -155.5t-22.5 -144.5h-160q-10 80 -27.5 153t-35 144.5t-30 146t-12.5 160.5zM152 0v367h346v-367h-346z" />
<glyph unicode="&#x22;" horiz-adv-x="681" d="M31 879v555h245v-555h-245zM406 879v555h245v-555h-245z" />
<glyph unicode="#" horiz-adv-x="1366" d="M176 403l8 195h195l33 238h-174l8 194h192l56 404h204l-55 -404h186l56 404h205l-56 -404h158l-8 -194h-176l-33 -238h155l-8 -195h-176l-55 -403h-205l55 403h-186l-55 -403h-205l55 403h-174zM584 598h186l33 238h-187z" />
<glyph unicode="$" horiz-adv-x="1472" d="M86 467h270q4 -100 79 -162.5t210 -68.5v319q-182 29 -281.5 70t-150.5 92q-61 61 -84 135t-23 129q0 74 35 142.5t102.5 124t169 90t234.5 40.5v45h176l-2 -47q135 -8 228.5 -44t154 -92t90 -126t35.5 -145h-285q-35 147 -223 170v-310q100 -14 173 -30.5t127.5 -38 t93 -47t69.5 -56.5q66 -66 84 -132t18 -119q0 -92 -38.5 -168t-111.5 -131.5t-178.5 -86t-238.5 -28.5v-209h-174v207q-180 -2 -288.5 56t-168 137t-80 160t-22.5 124zM412 999q0 -49 49 -87t182 -54v289q-100 -2 -165.5 -39t-65.5 -109zM819 231q80 4 129 20.5t75 38t35 44 t9 41.5q0 68 -62.5 101.5t-185.5 47.5v-293z" />
<glyph unicode="%" horiz-adv-x="2068" d="M68 1053q0 84 28.5 155.5t82.5 123.5t131 81t175 29q94 0 171 -29t130.5 -80t83 -121.5t29.5 -152.5q0 -80 -30.5 -148.5t-85 -120t-130.5 -81t-166 -29.5q-94 0 -171.5 29.5t-133 80t-85 119t-29.5 144.5zM315 1059q0 -117 49 -167t123 -50t119 53t45 160q0 123 -45 174 t-119 51q-78 0 -125 -51t-47 -170zM518 -78l862 1518h170l-864 -1518h-168zM1169 295q0 84 29 155.5t83 124t131 81t175 28.5q94 0 171 -28.5t130.5 -80t83 -122t29.5 -152.5q0 -80 -31 -148.5t-85 -119.5t-130 -81t-166 -30q-94 0 -172 30t-133 80t-85 118.5t-30 144.5z M1417 301q0 -117 49.5 -167t122.5 -50q74 0 119 53t45 160q0 123 -45 174t-119 51q-78 0 -125 -51t-47 -170z" />
<glyph unicode="&#x26;" horiz-adv-x="1878" d="M119 324q0 37 14 92t63.5 116.5t144.5 124t257 115.5q-47 61 -73.5 129t-26.5 146q0 55 24.5 119.5t74.5 119.5t129 93t185 38q113 0 191 -31.5t127 -81t70.5 -109.5t21.5 -120q0 -43 -15.5 -92t-48 -96t-85 -87t-123.5 -65q55 -59 107 -110.5t108 -102.5 q68 57 119 141.5t75 151.5h248q-45 -133 -116.5 -249.5t-155.5 -200.5q92 -82 182 -119t196 -37h46v-199q-45 -14 -101.5 -23.5t-116.5 -9.5q-131 0 -239.5 43t-210.5 125q-86 -59 -164 -93t-146.5 -51t-129 -21.5t-115.5 -4.5q-180 0 -282.5 47.5t-155 107.5t-65.5 116.5 t-13 77.5zM504 395q0 -76 67.5 -124t169.5 -48q82 0 152 25.5t117 58.5l-289 291q-129 -51 -173 -100t-44 -103zM788 1081q0 -23 10.5 -47t28 -48.5t37 -47.5t37.5 -39q115 35 153 84t38 102q0 63 -46.5 101.5t-105.5 38.5q-68 0 -110 -39t-42 -105z" />
<glyph unicode="'" horiz-adv-x="454" d="M104 879v555h246v-555h-246z" />
<glyph unicode="(" horiz-adv-x="897" d="M113 524q0 225 67.5 389t170 273.5t221 170t219.5 79.5v-166q-168 -104 -237 -298t-69 -456q0 -258 76 -449.5t227 -269.5v-157q-84 2 -199.5 56t-222 164.5t-180 275.5t-73.5 388z" />
<glyph unicode=")" horiz-adv-x="897" d="M106 1270v166q102 -18 220 -79t220.5 -170.5t170 -273t67.5 -389.5q0 -223 -73.5 -388t-180 -275.5t-222 -164.5t-199.5 -56v157q152 78 227.5 269.5t75.5 449.5q0 262 -68 455.5t-238 298.5z" />
<glyph unicode="*" horiz-adv-x="1067" d="M49 944l80 279l354 -219l-100 407h291l-107 -403l357 223l96 -273l-420 -26l324 -268l-234 -175l-162 392l-147 -392l-238 166l322 277z" />
<glyph unicode="+" horiz-adv-x="1366" d="M168 395v246h393v395h246v-395h393v-246h-393v-395h-246v395h-393z" />
<glyph unicode="," horiz-adv-x="641" d="M135 -225q53 33 94 88t43 137h-127v365h351v-222q0 -90 -11.5 -178t-49.5 -158.5t-108.5 -118.5t-191.5 -57v144z" />
<glyph unicode="-" horiz-adv-x="937" d="M143 356v295h652v-295h-652z" />
<glyph unicode="." horiz-adv-x="641" d="M145 0v371h351v-371h-351z" />
<glyph unicode="/" horiz-adv-x="747" d="M57 -338l361 1749h209l-365 -1749h-205z" />
<glyph unicode="0" horiz-adv-x="1492" d="M94 696q0 164 39 295t119 223.5t203 141.5t293 49q174 0 296.5 -51t201.5 -144.5t116 -227.5t37 -300q0 -164 -38 -296t-117 -225t-202.5 -143.5t-296.5 -50.5q-174 0 -297.5 52.5t-202.5 147.5t-115 229t-36 300zM475 692q0 -215 60.5 -340t209.5 -125q156 0 214.5 122 t58.5 345q0 106 -13.5 190.5t-44 141.5t-81.5 88t-129 31q-80 0 -132.5 -31t-84 -89t-45 -142t-13.5 -191z" />
<glyph unicode="1" horiz-adv-x="1087" d="M147 1010v176q90 4 156 26.5t111 55t71.5 71.5t38.5 72h240v-1411h-375v1010h-242z" />
<glyph unicode="2" horiz-adv-x="1492" d="M188 926q0 106 41 194t115 151.5t176.5 98.5t224.5 35q156 0 263.5 -40t175 -103.5t97.5 -142.5t30 -156q0 -88 -37 -163t-118 -151t-208 -163t-307 -203h668v-283h-1104v150q96 82 187 157.5t170 140t139.5 115.5t91.5 82q76 74 106.5 135.5t30.5 145.5 q0 102 -62.5 167.5t-179.5 65.5q-111 0 -174 -72.5t-63 -177.5q0 -43 11 -89t36 -93h-277q-20 59 -26.5 108.5t-6.5 90.5z" />
<glyph unicode="3" horiz-adv-x="1492" d="M139 471h295q0 -55 15.5 -105.5t48 -88t84 -60t120.5 -22.5q117 0 190 53t73 160q0 45 -21.5 81.5t-58.5 63.5t-87 41t-106 14q-37 0 -84 -4t-84 -8v219q29 -4 70 -7t78 -3q117 0 180 49t63 141q0 41 -18 74t-49 56.5t-70 37t-82 13.5t-85 -12.5t-73.5 -39t-51 -70.5 t-19.5 -110h-291q0 86 27.5 168t93 147.5t176.5 105.5t277 40q104 0 201.5 -22.5t172 -68.5t120.5 -119t46 -175q0 -96 -81 -179t-238 -118q80 -10 149.5 -39t121.5 -74t82 -105.5t30 -135.5q0 -111 -48.5 -188t-132 -126t-195.5 -70.5t-241 -21.5q-109 0 -215 20.5t-191 77 t-138.5 155.5t-53.5 255z" />
<glyph unicode="4" horiz-adv-x="1492" d="M72 297v281l614 800h453v-841h291v-240h-291v-297h-371v297h-696zM360 537h408v538z" />
<glyph unicode="5" horiz-adv-x="1492" d="M152 434h315q0 -104 60.5 -168.5t172.5 -64.5q72 0 120 22.5t78 57t43 81t13 91.5q0 74 -23.5 122t-60 77.5t-81 42t-84.5 12.5q-68 0 -130.5 -36t-107.5 -114h-250q23 131 39 267.5t25 250.5l18 303h985q-10 -88 -33.5 -151.5t-65.5 -103.5t-108.5 -58t-163.5 -18 q-115 0 -212 12t-201 26l-29 -282q45 31 93 50t92 28.5t84 12.5t69 3q121 0 220 -35t170 -95t109 -142t38 -176q0 -76 -31 -161t-101.5 -156t-185.5 -118t-280 -47q-94 0 -167 11.5t-129.5 32t-100.5 50t-81 66.5q-61 61 -89.5 138t-28.5 169z" />
<glyph unicode="6" horiz-adv-x="1492" d="M131 651q0 147 39 283.5t119 241t202.5 167t290.5 62.5q158 0 260.5 -41t165 -103.5t89 -136t32.5 -139.5h-297q-18 82 -76.5 131t-156.5 49q-147 0 -219 -101t-68 -278q59 37 150.5 67t195.5 30q98 0 188.5 -31t160 -89t111.5 -141t42 -188q0 -90 -36 -175 t-108.5 -150.5t-182 -105.5t-257.5 -40q-154 0 -273.5 51.5t-202.5 142.5t-126 217t-43 277zM522 436q0 -47 17.5 -89t48 -73.5t75 -50t97.5 -18.5q115 0 176 73.5t61 176.5q0 41 -12 80.5t-38.5 73.5t-68.5 54.5t-100 20.5q-129 0 -192.5 -71.5t-63.5 -176.5z" />
<glyph unicode="7" horiz-adv-x="1492" d="M195 1053v325h1091v-133q-137 -162 -215 -336t-115.5 -340t-46 -313t-10.5 -256h-391q20 147 59 281.5t93.5 262.5t120 254t139.5 255h-725z" />
<glyph unicode="8" horiz-adv-x="1492" d="M111 373q0 145 85 225t228 129q-70 27 -117 63.5t-75.5 77.5t-41 83t-12.5 79q0 55 23.5 119.5t87 122t175 95.5t288.5 38q195 0 305 -46t167.5 -107.5t72 -123t14.5 -94.5q0 -98 -65.5 -180t-188.5 -129q147 -33 236 -126t89 -216q0 -20 -6 -59t-27.5 -85t-62.5 -95.5 t-111.5 -88.5t-174 -64.5t-250.5 -25.5q-207 0 -333 46t-193.5 110.5t-90 134.5t-22.5 117zM492 395q0 -84 63.5 -142t192.5 -58q119 0 184 57t65 149t-64.5 147.5t-187.5 55.5q-117 0 -185 -55t-68 -154zM541 991q0 -80 54 -132t146 -52q96 0 150.5 53t54.5 131 q0 86 -62.5 134.5t-144.5 48.5q-86 0 -142 -51.5t-56 -131.5z" />
<glyph unicode="9" horiz-adv-x="1492" d="M133 934q0 90 36 175t108.5 150.5t182 105.5t257.5 40q154 0 273.5 -51t202.5 -142.5t126 -217.5t43 -277q0 -147 -39 -283.5t-119 -241t-202.5 -167t-290.5 -62.5q-156 0 -259.5 41t-166 103.5t-89 136t-32.5 139.5h297q18 -82 76.5 -131t156.5 -49q147 0 219 101.5 t68 277.5q-59 -37 -150.5 -67t-195.5 -30q-98 0 -188.5 31t-160 89.5t-111.5 141t-42 187.5zM496 913q0 -39 12 -79.5t38.5 -74.5t69 -54.5t99.5 -20.5q129 0 192.5 71.5t63.5 176.5q0 47 -17.5 89t-48.5 73.5t-75 50t-97 18.5q-113 0 -175 -73.5t-62 -176.5z" />
<glyph unicode=":" horiz-adv-x="641" d="M145 0v362h351v-362h-351zM145 641v363h351v-363h-351z" />
<glyph unicode=";" horiz-adv-x="641" d="M137 -225q53 33 94 88t43 137h-129v365h351v-222q0 -90 -11.5 -178t-49.5 -158.5t-108.5 -118.5t-189.5 -57v144zM145 641v363h351v-363h-351z" />
<glyph unicode="&#x3c;" horiz-adv-x="1366" d="M164 422v192l1040 439v-236l-721 -299l721 -299v-235z" />
<glyph unicode="=" horiz-adv-x="1366" d="M168 166v246h1032v-246h-1032zM168 625v245h1032v-245h-1032z" />
<glyph unicode="&#x3e;" horiz-adv-x="1366" d="M164 -16v235l721 299l-721 299v236l1040 -439v-192z" />
<glyph unicode="?" horiz-adv-x="1323" d="M117 1026q0 102 40 179t113.5 130.5t176 80t225.5 26.5q131 0 234.5 -32t175 -86t109.5 -127t38 -155q0 -66 -25.5 -118t-60.5 -86q-39 -41 -84 -68t-88 -47.5t-81 -39.5t-65 -46q-33 -35 -44 -72t-13 -67h-236q0 70 23 135t82 125q27 27 64.5 52.5t71.5 56t57.5 69.5 t23.5 90q0 37 -18.5 68.5t-49 54t-71.5 36t-86 13.5q-63 0 -109.5 -17.5t-75 -47t-42 -66.5t-13.5 -78q0 -61 25 -117h-273q-14 43 -19 90.5t-5 63.5zM469 0v369h352v-369h-352z" />
<glyph unicode="@" horiz-adv-x="1638" d="M92 705q0 160 60.5 295t164 235t241.5 156.5t296 56.5q131 0 256 -42t222.5 -119t156.5 -186.5t59 -242.5q0 -160 -57 -264.5t-137 -166.5t-164 -87t-137 -25t-86 25t-35 72l-4 4q-35 -41 -91.5 -71t-127.5 -30q-53 0 -104.5 26t-90.5 70t-62.5 103t-23.5 127 q0 88 23.5 168t70.5 141.5t119 98t168 36.5q76 0 137.5 -27.5t106.5 -88.5l18 90h178l-82 -447q-2 -12 -4 -31.5t-1 -37t6.5 -29.5t17.5 -12q33 0 65.5 17.5t59 52t43 87t16.5 123.5q0 121 -39 211t-108.5 151.5t-164.5 92.5t-210 31q-123 0 -225.5 -42t-174 -117 t-111.5 -178.5t-40 -225.5q0 -131 44 -234.5t122 -175.5t185.5 -111t234.5 -39q113 0 208 33t169 88l96 -110q-88 -82 -209 -136.5t-281 -54.5t-300 54.5t-245.5 152.5t-167 234.5t-61.5 298.5zM643 686q0 -70 39 -117t111 -47q47 0 83.5 16.5t63.5 44t41 63.5t14 75 q0 72 -43 121t-114 49q-43 0 -78 -17.5t-61.5 -46t-41 -65.5t-14.5 -76z" />
<glyph unicode="A" horiz-adv-x="1685" d="M45 0l598 1427h373l626 -1427h-389l-120 289h-617l-113 -289h-358zM610 535h418l-219 514z" />
<glyph unicode="B" horiz-adv-x="1728" d="M197 0v1411h807q106 0 199 -17.5t162 -56.5t108.5 -100t39.5 -152q0 -49 -17 -97t-58 -90t-108.5 -76t-170.5 -52q129 -18 216 -54t139.5 -83t74 -104.5t21.5 -120.5q0 -109 -53.5 -186t-145.5 -126t-218 -72.5t-273 -23.5h-723zM584 283h370q74 0 122 12t78 34.5 t41 52.5t11 67q0 84 -57 128t-162 44h-403v-338zM584 877h334q84 0 140 34.5t56 106.5q0 78 -56.5 111.5t-144.5 33.5h-329v-286z" />
<glyph unicode="C" horiz-adv-x="1728" d="M104 692q0 201 70 344.5t183.5 234.5t259 133t298.5 42q287 0 476.5 -128t242.5 -403h-350q-37 102 -131 164t-240 62q-113 0 -188.5 -40t-122.5 -103.5t-67.5 -142.5t-20.5 -155q0 -100 28.5 -180t80 -134t123 -83t157.5 -29q72 0 137.5 19.5t117.5 57.5t88 92.5 t48 121.5h359q-6 -100 -57.5 -206.5t-147.5 -193.5t-236.5 -142.5t-324.5 -55.5q-221 0 -370.5 69.5t-241 176t-131.5 234.5t-40 245z" />
<glyph unicode="D" horiz-adv-x="1835" d="M197 0v1411h735q178 0 323.5 -52t249 -145.5t159.5 -223.5t56 -285q0 -131 -49 -257t-148.5 -225.5t-248 -161t-348.5 -61.5h-729zM584 307h325q90 0 160 20.5t118 68.5t73.5 127t25.5 196t-27.5 192.5t-79 119.5t-122 61.5t-156.5 17.5h-317v-803z" />
<glyph unicode="E" horiz-adv-x="1556" d="M193 0v1411h1230v-307h-843v-234h696v-307h-696v-256h878v-307h-1265z" />
<glyph unicode="F" horiz-adv-x="1429" d="M186 0v1411h1186v-313h-797v-242h639v-303h-636v-553h-392z" />
<glyph unicode="G" horiz-adv-x="1705" d="M96 702q0 55 13.5 132t47 159t91 162t146.5 143.5t214 102.5t291 39q170 0 298 -43t214 -116t131 -170t47 -206h-334q-12 78 -54 125t-94 73.5t-107.5 36t-94.5 9.5q-100 0 -175 -36t-125 -97.5t-74.5 -143t-24.5 -176.5q0 -104 30.5 -185t84 -136.5t126 -84t154.5 -28.5 q129 0 217 55.5t121 128.5h-231v291h583v-737h-245v166q-94 -98 -227.5 -147.5t-280.5 -49.5q-141 0 -275.5 47t-238 140.5t-166 230.5t-62.5 315z" />
<glyph unicode="H" horiz-adv-x="1921" d="M199 0v1411h389v-520h745v520h389v-1411h-389v547h-745v-547h-389z" />
<glyph unicode="I" horiz-adv-x="788" d="M199 0v1411h391v-1411h-391z" />
<glyph unicode="J" horiz-adv-x="1300" d="M96 481q0 47 3 92t18 111h280q-6 -29 -9 -79t-3 -103q0 -123 52 -181.5t132 -58.5q74 0 126.5 55.5t52.5 180.5v913h395v-885q0 -160 -47 -266t-123 -170.5t-170 -91.5t-187 -27q-76 0 -167 21.5t-168.5 78t-131 156t-53.5 254.5z" />
<glyph unicode="K" horiz-adv-x="1812" d="M244 0v1411h387v-735l684 735h395l-549 -586l611 -825h-484l-383 549l-276 -299v-250h-385z" />
<glyph unicode="L" horiz-adv-x="1429" d="M199 0v1411h389v-1053h784v-358h-1173z" />
<glyph unicode="M" horiz-adv-x="2283" d="M193 0v1411h538l397 -844l408 844h557v-1411h-375v999l-485 -999h-227l-469 999v-999h-344z" />
<glyph unicode="N" horiz-adv-x="1921" d="M205 0v1411h534l621 -868v868h356v-1411h-444l-711 1006v-1006h-356z" />
<glyph unicode="O" horiz-adv-x="1855" d="M113 707q0 123 46 254t144 239.5t253 178t372 69.5q236 0 392.5 -78t250.5 -191.5t134 -241.5t40 -228q0 -133 -52.5 -264.5t-153.5 -236t-250.5 -170t-346.5 -65.5q-238 0 -397.5 75t-255.5 185.5t-136 239t-40 234.5zM526 709q0 -92 31 -171t85 -135.5t128 -89 t160 -32.5q84 0 156.5 32.5t127 91t86 137.5t31.5 171t-31.5 171t-85 136t-126 90t-152.5 33q-88 0 -163 -33t-130 -91t-86 -138t-31 -172z" />
<glyph unicode="P" horiz-adv-x="1642" d="M190 0v1411h795q158 0 268.5 -35t180 -93t101.5 -135t32 -161q0 -76 -27 -154.5t-92.5 -143t-179 -105.5t-289.5 -41h-395v-543h-394zM578 807h303q131 0 201.5 42t70.5 134q0 90 -68.5 126t-201.5 36h-305v-338z" />
<glyph unicode="Q" horiz-adv-x="1855" d="M113 707q0 123 46 254t144 239.5t253 178t372 69.5q236 0 392.5 -78t250.5 -191.5t134 -241.5t40 -228q0 -117 -40 -234t-119 -215t-194.5 -170t-267.5 -100q2 -33 7.5 -59.5t29 -45t69.5 -29t128 -10.5q84 0 154.5 13.5t140.5 29.5v-229q-111 -23 -220.5 -30t-222.5 -9 q-223 0 -320 61.5t-97 206.5q0 18 1 40t5 55q-197 23 -328 101.5t-211 183t-113.5 222t-33.5 216.5zM526 709q0 -92 31 -171t85 -135.5t128 -89t160 -32.5q84 0 156.5 32.5t127 91t86 137.5t31.5 171t-31.5 171t-85 136t-126 90t-152.5 33q-88 0 -163 -33t-130 -91t-86 -138 t-31 -172z" />
<glyph unicode="R" horiz-adv-x="1665" d="M219 0v1411h817q104 0 196.5 -21.5t162 -66.5t109.5 -112.5t40 -157.5q0 -45 -14 -102.5t-66.5 -112t-154 -98.5t-275.5 -62q135 -35 205 -66.5t111 -72.5q61 -61 81.5 -126t29.5 -132.5t22.5 -138t60.5 -142.5h-414q-37 49 -50 118.5t-22 143.5t-23.5 140.5t-55.5 107.5 q-27 27 -74 35t-92 8h-203v-553h-391zM608 825h228q90 0 149 13.5t94 36t49.5 53t14.5 65.5q0 63 -48 109.5t-169 46.5h-318v-324z" />
<glyph unicode="S" horiz-adv-x="1579" d="M100 518h349q8 -68 39.5 -119t80.5 -85.5t110.5 -52t129.5 -17.5q135 0 199.5 37.5t64.5 85.5q0 35 -29 63q-45 45 -142 70.5t-209.5 53.5t-225.5 69t-188 116q-53 53 -82 120t-29 142q0 84 37 158t86 125q82 82 196.5 122t307.5 40q256 0 427 -122t228 -378h-324 q-33 109 -125 163t-217 54q-80 0 -130 -13t-77.5 -32.5t-37 -41t-9.5 -36.5q0 -29 23 -51q25 -23 79 -41t126.5 -35.5t157.5 -37t168 -46t157 -63.5t127 -90t85 -124t32 -142q0 -92 -44 -172t-128 -139.5t-207 -93.5t-283 -34q-111 0 -197.5 12.5t-154.5 35t-120 56.5 t-95 77q-82 82 -117 170t-39 196z" />
<glyph unicode="T" horiz-adv-x="1556" d="M51 1092v319h1475v-319h-551v-1092h-391v1092h-533z" />
<glyph unicode="U" horiz-adv-x="1748" d="M174 553v858h389v-801q0 -197 82 -274.5t232 -77.5q76 0 137 19.5t104 62.5t66.5 112.5t23.5 170.5v788h367v-840q0 -150 -57.5 -262t-154.5 -188t-225 -114t-270 -38q-160 0 -287.5 34t-218 105.5t-139.5 182t-49 262.5z" />
<glyph unicode="V" horiz-adv-x="1556" d="M49 1411h412l358 -987l342 987h348l-518 -1411h-413z" />
<glyph unicode="W" horiz-adv-x="2324" d="M43 1411h381l309 -860l295 860h295l328 -858l288 858h342l-518 -1411h-272l-330 858l-317 -858h-266z" />
<glyph unicode="X" horiz-adv-x="1835" d="M100 1411h478l342 -426l340 426h446l-543 -682l572 -729h-482l-356 455l-350 -455h-438l548 713z" />
<glyph unicode="Y" horiz-adv-x="1622" d="M47 1413h422l381 -600l369 598h356l-565 -909v-502h-389v502z" />
<glyph unicode="Z" horiz-adv-x="1536" d="M109 0v131l710 954h-674v326h1248v-137l-713 -946h743v-328h-1314z" />
<glyph unicode="[" horiz-adv-x="1173" d="M188 -342v1753h875v-250h-526v-1251h526v-252h-875z" />
<glyph unicode="\" horiz-adv-x="747" d="M123 1411h209l360 -1749h-205z" />
<glyph unicode="]" horiz-adv-x="1173" d="M111 -90h526v1251h-526v250h874v-1753h-874v252z" />
<glyph unicode="^" horiz-adv-x="1366" d="M137 506l438 928h218l438 -928h-246l-301 688l-303 -688h-244z" />
<glyph unicode="_" horiz-adv-x="1024" d="M0 -154h1024v-102h-1024v102z" />
<glyph unicode="`" horiz-adv-x="681" d="M74 1481h313l59 -342h-137z" />
<glyph unicode="a" horiz-adv-x="1579" d="M127 262q0 53 18.5 99.5t53.5 80.5q55 55 134 83t175 44.5t205.5 28.5t226.5 37v33q0 72 -56.5 121t-178.5 49q-176 0 -218 -146h-301q0 51 22.5 102.5t63.5 94.5q33 33 73 60.5t97.5 48t136 31.5t189.5 11q176 0 278.5 -35.5t155.5 -91t68.5 -124t15.5 -134.5v-331 q0 -59 21.5 -91t95.5 -32q27 0 63.5 6t75.5 18v-205q-109 -35 -171 -41t-111 -6q-131 0 -212 43t-114 138q-47 -47 -105.5 -82t-121 -58.5t-124 -35t-116.5 -11.5q-82 0 -145.5 24.5t-106.5 65.5t-65.5 94.5t-22.5 110.5zM489 303q0 -47 36 -83t126 -36q37 0 81 11.5t85 36 t74 60.5t47 85v133q-84 -14 -165 -26.5t-143.5 -33t-101.5 -54.5t-39 -93z" />
<glyph unicode="b" horiz-adv-x="1556" d="M178 0v1411h342v-539q76 84 178.5 127t206.5 43q106 0 202.5 -37.5t170.5 -107.5t117 -167t43 -214q0 -123 -46 -222t-122 -169t-174.5 -107.5t-200.5 -37.5q-129 0 -241.5 50t-192.5 173q-10 -53 -22.5 -113.5t-16.5 -89.5h-244zM565 510q0 -66 17.5 -125t51.5 -104 t86 -72t120 -27q117 0 174 87t57 239q0 154 -59.5 235.5t-175.5 81.5q-121 0 -196 -86t-75 -229z" />
<glyph unicode="c" horiz-adv-x="1409" d="M104 506q0 115 45.5 213t126 171t194.5 113.5t249 40.5q158 0 267.5 -41.5t181 -102t107.5 -129.5t46 -122h-375q-45 150 -227 150q-49 0 -93 -18.5t-78 -56.5t-54.5 -96.5t-20.5 -138.5q0 -74 19.5 -129t53.5 -89.5t78 -52t93 -17.5q182 0 250 164h362q-12 -45 -48 -113 t-105.5 -131.5t-180 -108.5t-272.5 -45q-141 0 -255 38t-194.5 108.5t-125 170t-44.5 222.5z" />
<glyph unicode="d" horiz-adv-x="1556" d="M117 506q0 133 52 233.5t132 166t175 98t181 32.5q92 0 187.5 -33.5t181.5 -109.5v518h350v-1411h-352v147q-59 -72 -160.5 -123t-228.5 -51q-115 0 -210 43t-163.5 116t-106.5 170t-38 204zM477 502q0 -141 59.5 -225t188.5 -84q47 0 92 18t80 58t56.5 101.5t21.5 147.5 q0 143 -72 228t-182 85q-121 0 -182.5 -88t-61.5 -241z" />
<glyph unicode="e" d="M129 496q0 109 43 207t122 173.5t189.5 119.5t247.5 44q150 0 263.5 -49t192.5 -131t120 -189.5t45 -221.5h-852q2 -47 17 -93.5t49 -83t87.5 -59.5t130.5 -23q72 0 129.5 25t96.5 80h336q-18 -37 -60.5 -93.5t-114 -108.5t-174 -90t-241.5 -38q-184 0 -306 54.5 t-193 135.5t-99.5 173t-28.5 168zM504 604h487q-4 84 -64.5 146.5t-176.5 62.5q-104 0 -169 -56.5t-77 -152.5z" />
<glyph unicode="f" horiz-adv-x="1044" d="M51 748v256h262v55q0 190 127 290.5t336 100.5q115 0 193 -23.5t127 -63.5t72.5 -93t29.5 -111h-324q-2 20 -9 43t-19 41t-30.5 30.5t-47.5 12.5q-57 0 -80.5 -47t-23.5 -123v-112h311v-256h-311v-748h-351v748h-262z" />
<glyph unicode="g" horiz-adv-x="1579" d="M123 -213q0 41 52 78t155 55q-55 16 -93 43t-60.5 58.5t-32 63.5t-9.5 56q0 27 7.5 58.5t30 65.5t65.5 64.5t114 55.5q-92 47 -138 122t-46 161q0 61 34 125.5t101.5 117t169.5 86t240 33.5q96 0 172 -14.5t131 -36t91 -46t56 -44.5q86 76 176.5 104.5t219.5 32.5v-235 h-46q-45 0 -119.5 -7.5t-138.5 -35.5q10 -41 11 -76q0 -100 -47.5 -171t-121 -116t-163.5 -65.5t-174 -20.5q-106 0 -165.5 13.5t-86.5 13.5q-14 0 -35.5 -6.5t-42 -17.5t-35 -27.5t-14.5 -38.5q0 -35 36 -53.5t89 -18.5q123 0 252 7t233 7q117 0 193 -24.5t121 -62.5 t63 -86t18 -93q0 -106 -57 -165.5t-147 -87.5t-202 -34t-220 -6q-100 0 -213 3t-207 18.5t-155.5 49.5t-61.5 97zM395 -197q0 -29 31 -45t80 -24t111.5 -11.5t125.5 -3.5q199 0 295.5 20.5t96.5 74.5q0 29 -21.5 44t-56.5 22t-79 8t-89 1q-135 0 -229.5 -4t-152.5 -13 t-85 -25.5t-27 -43.5zM522 664q0 -66 21.5 -107t51.5 -64.5t62.5 -32.5t55.5 -9q39 0 74.5 15t63.5 43t44 67.5t16 91.5q0 66 -20.5 109.5t-50 70t-63 37t-58.5 10.5q-31 0 -66 -10.5t-64.5 -37t-48 -71.5t-18.5 -112z" />
<glyph unicode="h" horiz-adv-x="1515" d="M182 0v1411h344v-604q47 100 143.5 163.5t248.5 63.5q109 0 188.5 -31.5t132.5 -87t80 -132t27 -167.5v-616h-351v504q0 53 -6 99t-25.5 82t-54.5 56.5t-92 20.5q-135 0 -214 -104.5t-79 -278.5v-379h-342z" />
<glyph unicode="i" horiz-adv-x="704" d="M176 0v1004h352v-1004h-352zM176 1151v260h350v-260h-350z" />
<glyph unicode="j" horiz-adv-x="747" d="M23 -109q113 4 157.5 32t44.5 104v977h350v-1088q0 -78 -31.5 -132t-88 -90t-135 -52.5t-173.5 -16.5q-23 0 -62.5 1t-61.5 3v262zM227 1151v260h351v-260h-351z" />
<glyph unicode="k" horiz-adv-x="1492" d="M170 0v1411h344v-827l397 420h488l-406 -369l469 -635h-434l-276 414l-238 -217v-197h-344z" />
<glyph unicode="l" horiz-adv-x="704" d="M174 0v1411h358v-1411h-358z" />
<glyph unicode="m" horiz-adv-x="2324" d="M178 0v1004h342v-205q61 127 172 177t232 50q131 0 232 -62.5t149 -172.5q68 111 181 173t245 62q84 0 161.5 -27.5t136 -85t93.5 -142.5t35 -200v-571h-349v526q0 117 -52 173.5t-122 56.5q-61 0 -115.5 -23.5t-93.5 -66.5t-61.5 -104.5t-22.5 -139.5v-422h-348v512 q0 127 -50 183.5t-132 56.5q-53 0 -104.5 -25t-91.5 -70t-64.5 -109.5t-24.5 -144.5v-403h-348z" />
<glyph unicode="n" horiz-adv-x="1515" d="M178 0v1004h346v-213q57 125 167 180t245 55q111 0 189.5 -36t129 -92t74 -127t23.5 -140v-631h-351v526q0 123 -49 176.5t-131 53.5q-55 0 -107 -22.5t-94 -67.5t-67 -112t-25 -155v-399h-350z" />
<glyph unicode="o" d="M115 506q0 111 44 209t123.5 169.5t191.5 113.5t249 42q143 0 257 -41t192.5 -111.5t120.5 -167.5t42 -212q0 -125 -49 -226.5t-134 -171t-195.5 -107.5t-233.5 -38q-145 0 -259 46t-191.5 122t-117.5 173.5t-40 199.5zM485 506q0 -61 14.5 -114.5t43 -93.5t74 -62.5 t108.5 -22.5q59 0 103 23.5t75 63.5t46.5 93t15.5 115q0 129 -62.5 207t-177.5 78q-117 0 -178.5 -77t-61.5 -210z" />
<glyph unicode="p" horiz-adv-x="1556" d="M180 -383v1387h348v-156q72 92 173.5 139t201.5 47q102 0 199.5 -35.5t173.5 -105.5t121 -169t45 -226q0 -125 -44 -222.5t-118 -165t-169 -103.5t-198 -36q-135 0 -233 39t-152 117v-510h-348zM575 504q0 -162 76 -248t189 -86q63 0 108 24.5t73 67.5t40 101.5t12 125.5 q0 102 -22.5 166t-56 100t-75.5 48t-83 12q-55 0 -102.5 -22.5t-82.5 -62.5t-55.5 -97.5t-20.5 -128.5z" />
<glyph unicode="q" horiz-adv-x="1556" d="M119 508q0 109 41 204t114.5 165.5t176 112.5t225.5 42q86 0 153.5 -21.5t118.5 -54t88 -71.5t62 -74l32 193h254v-1387h-358v514q-20 -18 -54 -46t-81 -53.5t-108.5 -43t-137.5 -17.5q-119 0 -216 45t-165.5 119t-106.5 171t-38 202zM489 510q0 -156 64.5 -239 t167.5 -83q41 0 88 15.5t87 54.5t66.5 103.5t26.5 162.5q0 61 -19.5 116.5t-54 98.5t-83 67.5t-105.5 24.5q-111 0 -174.5 -79.5t-63.5 -241.5z" />
<glyph unicode="r" horiz-adv-x="1024" d="M166 0v1004h350v-279q57 131 149.5 214t241.5 83h68v-328h-43q-70 0 -121 -5t-89 -16t-66.5 -27.5t-53.5 -41.5q-47 -47 -66.5 -98t-19.5 -103v-403h-350z" />
<glyph unicode="s" horiz-adv-x="1173" d="M80 285h311q16 -35 39 -57.5t51 -37.5q29 -12 60.5 -17t66.5 -5q88 0 140.5 21.5t52.5 66.5q0 10 -4 21.5t-15 21.5q-25 25 -102.5 40t-172.5 34.5t-189.5 51.5t-151.5 89q-41 41 -59.5 88t-18.5 98q0 68 31 130.5t91 109.5t150.5 75.5t208.5 28.5q242 0 365 -87 t139 -242h-285q-10 47 -56 85t-148 38q-80 0 -119 -20.5t-39 -55.5q0 -12 5 -22.5t9 -16.5q27 -31 96.5 -44t155.5 -29.5t173 -45.5t147 -88q47 -47 68.5 -104.5t21.5 -116.5q0 -25 -11.5 -78t-61.5 -107.5t-151.5 -96.5t-279.5 -42t-280.5 38t-154.5 89.5t-67.5 103.5 t-15.5 83z" />
<glyph unicode="t" horiz-adv-x="1044" d="M74 748v256h239l64 364h272v-364h299v-256h-297v-398q0 -78 27 -112.5t125 -34.5q29 0 67.5 4t77.5 16v-215q-53 -16 -124.5 -26.5t-161.5 -10.5q-176 0 -266.5 65.5t-90.5 178.5v533h-231z" />
<glyph unicode="u" horiz-adv-x="1515" d="M170 436v568h348v-531q0 -123 54.5 -174t132.5 -51q53 0 103 24.5t90 69.5t64.5 106.5t24.5 137.5v418h348v-1004h-346v203q-61 -113 -166.5 -171.5t-240.5 -58.5q-90 0 -166 30t-130.5 88.5t-85 145.5t-30.5 199z" />
<glyph unicode="v" horiz-adv-x="1300" d="M45 1004h365l245 -635l234 635h368l-450 -1004h-322z" />
<glyph unicode="w" horiz-adv-x="1984" d="M51 1004h365l176 -619l221 619h340l221 -607l178 607h381l-387 -1004h-346l-217 606l-219 -606h-340z" />
<glyph unicode="x" d="M59 0l445 539l-367 465h418l174 -320l172 320h418l-371 -469l445 -535h-447l-219 373l-215 -373h-453z" />
<glyph unicode="y" horiz-adv-x="1300" d="M49 1004h369l254 -627l225 627h352l-461 -1059q-41 -94 -88 -154.5t-108.5 -96.5t-138 -49.5t-174.5 -13.5h-91v260h84h15q100 0 151 26q54 28 76 85z" />
<glyph unicode="z" horiz-adv-x="1323" d="M78 0v217l602 520h-569v267h1120v-228l-594 -506h625v-270h-1184z" />
<glyph unicode="{" horiz-adv-x="1173" d="M129 418v233q47 0 96 8.5t90 28t68 53t27 84.5v289q0 141 112.5 219t329.5 78h233v-246h-145q-106 0 -144 -35.5t-38 -101.5v-262q0 -57 -28 -98t-72 -68t-99 -42t-115 -23q59 -8 114.5 -23.5t99.5 -42.5t72 -67t28 -99v-262q0 -66 38 -101.5t144 -35.5h145v-246h-233 q-217 0 -329.5 78t-112.5 219v289q0 51 -27 84.5t-68 53t-90 28t-96 8.5z" />
<glyph unicode="|" horiz-adv-x="1118" d="M457 -512v2048h205v-2048h-205z" />
<glyph unicode="}" horiz-adv-x="1173" d="M88 -96h145q106 0 144.5 35.5t38.5 101.5v262q0 59 27.5 99t71.5 67t100.5 42t113.5 24q-57 8 -113.5 23t-100.5 42t-71.5 68t-27.5 98v262q0 66 -38 101.5t-145 35.5h-145v246h234q217 0 329.5 -78t112.5 -219v-289q0 -51 26.5 -84.5t67.5 -53t91 -28t95 -8.5v-233 q-45 0 -95 -8.5t-91 -28t-67.5 -53t-26.5 -84.5v-289q0 -141 -112.5 -219t-329.5 -78h-234v246z" />
<glyph unicode="~" horiz-adv-x="1366" d="M158 514q59 78 128.5 132t176.5 54q68 0 126 -21.5t110.5 -48t102.5 -48t101 -21.5q61 0 106.5 35t80.5 90l118 -164q-57 -78 -127.5 -132t-177.5 -54q-55 0 -106.5 21.5t-104.5 48.5t-108.5 48t-120.5 21q-61 0 -105.5 -36t-81.5 -89z" />
<glyph unicode="&#xa1;" horiz-adv-x="661" d="M147 -90q0 92 14.5 178t32 167t34 155.5t22.5 144.5h160q10 -80 27.5 -152.5t34.5 -144.5t29.5 -146.5t12.5 -160.5q0 -113 -19.5 -183.5t-35.5 -99.5h-271q-25 59 -33 127t-8 115zM164 709v366h346v-366h-346z" />
<glyph unicode="&#xa2;" horiz-adv-x="1409" d="M96 489q0 111 40 211.5t119 176t196.5 120.5t273.5 45q20 0 58 -1t81 -9l201 418h199l-226 -473q72 -31 121 -76t83 -92t52.5 -91t24.5 -75h-383q-4 8 -11 27.5t-18 27.5l-235 -497q94 -12 172 26.5t106 134.5h375q-20 -80 -71.5 -151.5t-129 -126.5t-181 -88t-228.5 -33 q-10 0 -56.5 2t-93.5 6l-166 -356h-196l192 410q-72 29 -127 79t-94 112.5t-58.5 133t-19.5 139.5zM467 498q0 -63 9 -114.5t40 -92.5l236 500q-68 8 -121 -11.5t-90 -60.5t-55.5 -98.5t-18.5 -122.5z" />
<glyph unicode="&#xa3;" horiz-adv-x="1941" d="M94 164q0 49 24.5 88t68.5 66.5t104.5 42t132.5 14.5q35 0 85 -2t105 -6q-2 47 -19 107.5t-38 105.5h-393v204h346q-4 25 -8 55.5t-4 69.5q0 72 23.5 159t90 164t184 129t306.5 52q102 0 201.5 -26.5t177.5 -87t126 -154.5t46 -230h-256q-2 31 -17.5 69t-48.5 70.5 t-83 55.5t-122 23q-117 0 -188.5 -57.5t-71.5 -180.5q0 -29 2 -58.5t9 -52.5h430v-204h-398v-74q0 -39 -5 -87t-21 -83q84 -16 178 -27.5t194 -11.5q154 0 230 45t92 170h262q0 -125 -25.5 -224.5t-83 -169t-148.5 -105.5t-224 -36q-109 0 -246 39t-303 134 q-82 -80 -184.5 -127.5t-216.5 -47.5q-88 0 -148.5 17.5t-97.5 45.5t-52.5 60.5t-15.5 65.5zM217 160q0 -29 35 -56.5t104 -27.5q53 0 96.5 14t77 37t56 50.5t32.5 51.5q-47 14 -90 26.5t-125 12.5q-76 0 -131 -27.5t-55 -80.5z" />
<glyph unicode="&#xa4;" horiz-adv-x="1366" d="M106 201l201 200q-29 47 -46 107.5t-17 128.5q0 70 18.5 131t44.5 104l-201 201l142 141l201 -200q47 29 107 46t128 17q70 0 130 -17.5t106 -45.5l200 200l142 -141l-201 -201q29 -45 46 -105t17 -130t-17 -130.5t-46 -103.5l201 -202l-142 -142l-200 203 q-45 -29 -105.5 -47t-130.5 -18q-68 0 -128 17t-107 46l-201 -201zM489 637q0 -92 51.5 -153.5t143.5 -61.5t143.5 61.5t51.5 153.5t-51.5 153.5t-143.5 61.5t-143.5 -61.5t-51.5 -153.5z" />
<glyph unicode="&#xa5;" horiz-adv-x="1622" d="M47 1411h422l381 -500l369 500h356l-395 -537h381v-204h-560v-191h560v-205h-560v-274h-372v274h-568v205h568v191h-568v204h396z" />
<glyph unicode="&#xa6;" horiz-adv-x="1118" d="M457 358h205v-716h-205v716zM457 666v716h205v-716h-205z" />
<glyph unicode="&#xa7;" horiz-adv-x="1343" d="M139 502q0 168 158 319q-55 53 -86 112.5t-31 137.5q0 31 15.5 90.5t67.5 116.5t149.5 100t259.5 43q154 0 249 -37.5t147 -91t69.5 -114t13.5 -107.5h-264q0 45 -19.5 75t-52.5 48t-75 25.5t-87 7.5q-35 0 -68.5 -5t-61 -19.5t-44 -38t-16.5 -58.5q0 -14 7 -29.5 t17 -25.5q33 -33 116 -55.5t178.5 -45t186.5 -52.5t142 -79q49 -51 71.5 -104t22.5 -125q0 -92 -39 -170t-102 -144q59 -39 88 -105.5t29 -137.5q0 -53 -21.5 -119t-80 -123t-161 -95t-264.5 -38q-150 0 -240.5 38t-139 91t-62.5 110.5t-12 98.5h303q2 -84 58 -112.5 t140 -28.5q37 0 73 5t64.5 19.5t47 37t18.5 58.5q0 33 -22 52q-37 37 -122 59.5t-184.5 47t-194.5 57t-153 90.5q-47 47 -67.5 101t-20.5 120zM360 608q0 -43 33 -78q31 -31 85 -52t124 -40.5t153 -39t171 -48.5q29 29 46 60.5t17 66.5q0 45 -35 80t-99 58.5t-139 42 t-153 37.5t-139 46q-29 -31 -46.5 -64.5t-17.5 -68.5z" />
<glyph unicode="&#xa8;" horiz-adv-x="681" d="M8 1186v237h223v-237h-223zM446 1186v237h228v-237h-228z" />
<glyph unicode="&#xa9;" horiz-adv-x="1638" d="M49 707q0 176 64.5 314t171 233.5t246 144.5t288.5 49q150 0 288 -49t245.5 -144.5t172 -233.5t64.5 -314t-64.5 -314.5t-172 -234t-245.5 -144.5t-288 -49t-289 49t-245.5 144.5t-171 234t-64.5 314.5zM233 707q0 -123 46.5 -229.5t126 -186.5t186 -126t227.5 -46 t227.5 46t186.5 126t126 186.5t46 229.5t-46 229t-126 186t-186.5 126t-227.5 46t-227.5 -46t-186 -126t-126 -186t-46.5 -229zM440 713q0 92 28 171t80 135t128 89t170 33q135 0 231.5 -77t118.5 -228h-180q-12 68 -61.5 94t-108.5 26q-90 0 -137 -64.5t-47 -174.5 q0 -106 51 -176t137 -70q68 0 115 29.5t51 97.5h188q-10 -76 -43 -134t-80 -98t-106.5 -59.5t-124.5 -19.5q-92 0 -168 32.5t-130 90t-83 135.5t-29 168z" />
<glyph unicode="&#xaa;" horiz-adv-x="972" d="M72 928q0 74 43 123q35 37 83 55t106 28.5t125 18.5t136 25v18q0 47 -32.5 79t-104.5 32q-106 0 -131 -95h-188q0 72 53 129q20 23 43.5 40.5t58.5 31.5t84 21.5t117 7.5q106 0 169.5 -23.5t96.5 -60.5t42 -82t9 -88v-217q0 -39 12.5 -59.5t57.5 -20.5q16 0 39.5 3 t46.5 13v-137q-68 -23 -105.5 -28t-68.5 -5q-162 0 -197 119q-59 -61 -140 -92t-146 -31q-100 0 -154.5 59.5t-54.5 135.5zM297 956q0 -33 20.5 -54t75.5 -21q47 0 101.5 29.5t74.5 88.5v86q-51 -8 -100 -15t-88 -19.5t-61.5 -35t-22.5 -59.5z" />
<glyph unicode="&#xab;" horiz-adv-x="1343" d="M121 545q39 55 77 116.5t73.5 122t65.5 116.5t50 101h272q-20 -45 -50.5 -106t-65.5 -125.5t-71 -124t-66 -102.5q78 -106 146.5 -230.5t113.5 -222.5h-275q-61 123 -132 243t-138 212zM678 545q39 55 78 116.5t74.5 122t64.5 116.5t49 101h275q-20 -45 -52 -106 t-67 -125.5t-71 -124t-66 -102.5q78 -106 147.5 -230.5t112.5 -222.5h-275q-61 123 -132 243t-138 212z" />
<glyph unicode="&#xac;" horiz-adv-x="1366" d="M168 625v245h1032v-649h-246v404h-786z" />
<glyph unicode="&#xad;" horiz-adv-x="937" d="M143 356v295h652v-295h-652z" />
<glyph unicode="&#xae;" horiz-adv-x="1638" d="M49 707q0 176 64.5 314t171 233.5t246 144.5t288.5 49q150 0 288 -49t245.5 -144.5t172 -233.5t64.5 -314t-64.5 -314.5t-172 -234t-245.5 -144.5t-288 -49t-289 49t-245.5 144.5t-171 234t-64.5 314.5zM233 707q0 -123 46.5 -229.5t126 -186.5t186 -126t227.5 -46 t227.5 46t186.5 126t126 186.5t46 229.5t-46 229t-126 186t-186.5 126t-227.5 46t-227.5 -46t-186 -126t-126 -186t-46.5 -229zM520 328v772h338q49 0 98.5 -9.5t88 -32t63.5 -61.5t25 -98q0 -76 -46.5 -124t-121.5 -64v-4q49 -4 76.5 -20.5t42 -42.5t19.5 -59.5t11 -74.5 q4 -37 10 -93.5t29 -88.5h-195q-10 51 -16 102t-12 105q-4 33 -15.5 67.5t-48.5 36.5h-157v-311h-189zM709 774h125q106 -2 106 100q0 53 -25.5 76t-80.5 25h-125v-201z" />
<glyph unicode="&#xaf;" horiz-adv-x="681" d="M4 1208v193h674v-193h-674z" />
<glyph unicode="&#xb0;" horiz-adv-x="819" d="M88 1112q0 68 25.5 126t68.5 101t101.5 69t126.5 26t126 -26t101 -69t68.5 -101t25.5 -126t-25.5 -126t-68.5 -102t-101.5 -70t-125.5 -26q-68 0 -126.5 26t-101.5 70t-68.5 102t-25.5 126zM223 1112q0 -84 51.5 -142.5t135.5 -58.5t135 58.5t51 142.5t-51 141.5 t-135 57.5t-135.5 -57.5t-51.5 -141.5z" />
<glyph unicode="&#xb1;" horiz-adv-x="1366" d="M168 0v246h1032v-246h-1032zM168 700v246h393v320h246v-320h393v-246h-393v-307h-246v307h-393z" />
<glyph unicode="&#xb2;" horiz-adv-x="897" d="M135 1161q0 43 11.5 91t44 90t91 70t152.5 28q86 0 146.5 -19.5t98.5 -51.5t54.5 -74t16.5 -87q0 -53 -22.5 -95t-64.5 -81t-104.5 -78t-142.5 -86h338v-153h-613v86q164 96 257.5 202.5t93.5 186.5q0 53 -27 79.5t-66 26.5q-53 0 -81.5 -30.5t-28.5 -85.5q0 -35 12 -82 h-160q-6 25 -6 63z" />
<glyph unicode="&#xb3;" horiz-adv-x="897" d="M111 944h170q18 -115 131 -115q43 0 71.5 26t28.5 71q0 51 -39 71.5t-94 20.5h-62v115h56q51 0 82.5 25.5t31.5 64.5q0 41 -26.5 61.5t-67.5 20.5q-45 0 -69.5 -28t-24.5 -73h-168q4 123 81 179.5t226 56.5q102 0 161.5 -21.5t91.5 -52.5t41 -65.5t9 -61.5 q0 -61 -37.5 -98t-101.5 -58q86 -16 131 -56t45 -122q0 -43 -17.5 -80t-55 -65.5t-101 -45t-155.5 -16.5q-170 0 -248 61.5t-90 184.5z" />
<glyph unicode="&#xb4;" horiz-adv-x="681" d="M233 1139l70 344h313l-247 -344h-136z" />
<glyph unicode="&#xb5;" horiz-adv-x="1366" d="M150 -393v1397h309v-551q0 -49 15 -92.5t43 -76t69 -52t90 -19.5q53 0 96 22.5t74 59.5t47 85t16 97v527h308v-1004h-308v147q-39 -78 -96 -125t-141 -47t-136.5 32t-86.5 79q4 -47 7 -88t3 -88v-303h-309z" />
<glyph unicode="&#xb6;" horiz-adv-x="1433" d="M76 989q0 102 39 181t106.5 132.5t159.5 81t199 27.5h766v-225h-123v-1555h-246v1555h-199v-1555h-246v912q-223 0 -339.5 122.5t-116.5 323.5z" />
<glyph unicode="&#xb7;" horiz-adv-x="641" d="M145 535v335h353v-335h-353z" />
<glyph unicode="&#xb8;" horiz-adv-x="681" d="M211 -111h260v-106q0 -51 -13.5 -96t-62.5 -93h-145q27 31 49.5 60t38.5 63h-127v172z" />
<glyph unicode="&#xb9;" horiz-adv-x="897" d="M213 1214v105q88 2 139 32.5t86 75.5h156v-712h-260v499h-121z" />
<glyph unicode="&#xba;" horiz-adv-x="890" d="M80 1090q0 74 26.5 138t73.5 111t114.5 75t149.5 28q86 0 155 -26.5t116 -74t72.5 -112t25.5 -137.5q0 -84 -29.5 -151t-81 -113t-118 -70.5t-140.5 -24.5q-88 0 -155.5 31t-113.5 80t-70.5 113.5t-24.5 132.5zM307 1090q0 -90 34 -139.5t105 -49.5q74 0 107 51.5 t33 139.5q0 84 -36 133t-104 49q-72 0 -105.5 -48t-33.5 -136z" />
<glyph unicode="&#xbb;" horiz-adv-x="1343" d="M123 90q45 98 113.5 222t146.5 231q-31 43 -66.5 102.5t-70.5 124t-65.5 125.5t-51.5 106h272q20 -45 50 -101t66 -116.5t74 -122t77 -116.5q-68 -92 -138.5 -212t-132.5 -243h-274zM678 92q43 98 112.5 222t147.5 231q-31 43 -66.5 102.5t-71.5 123t-67 124.5t-51 106 h274q20 -45 49 -100t65 -115.5t74 -122t77 -116.5q-66 -92 -137.5 -212t-133.5 -243h-272z" />
<glyph unicode="&#xbc;" horiz-adv-x="1921" d="M141 1214v105q88 2 139.5 32.5t86.5 75.5h155v-712h-260v499h-121zM379 -74l866 1516h156l-864 -1516h-158zM1040 82v158l314 409h291v-436h141v-133h-144v-146h-245v148h-357zM1192 215h201v262z" />
<glyph unicode="&#xbd;" horiz-adv-x="1921" d="M166 1212v105q88 2 139 32.5t86 75.5h156v-710h-260v497h-121zM336 -74l864 1516h158l-864 -1516h-158zM1092 381q0 43 11 92t44 91t91 70t153 28q86 0 146 -19.5t98 -51.5t54.5 -74t16.5 -87q0 -53 -22.5 -96t-64.5 -81t-104.5 -78t-142.5 -87h338v-154h-612v86 q164 96 257 203t93 187q0 55 -27.5 81.5t-64.5 26.5q-53 0 -82 -31.5t-29 -87.5q0 -35 12 -82h-159q-6 29 -6 64z" />
<glyph unicode="&#xbe;" horiz-adv-x="1921" d="M88 942h170q18 -113 131 -113q45 0 74 26t29 69q0 51 -39 71.5t-95 20.5h-63v114h55q51 0 83 26t32 67t-26.5 61.5t-67.5 20.5q-45 0 -70 -29t-25 -74h-167q4 123 80.5 180.5t226.5 57.5q102 0 161.5 -21.5t91 -53.5t41 -66.5t9.5 -61.5q0 -61 -38 -98t-99 -58 q86 -16 131 -56t45 -120q0 -43 -17.5 -80t-56.5 -65.5t-102.5 -45t-155.5 -16.5q-170 0 -248 60.5t-90 183.5zM449 -74l864 1518h157l-864 -1518h-157zM1096 82v158l311 409h293v-436h141v-133h-143v-146h-248v148h-354zM1247 215h201v262z" />
<glyph unicode="&#xbf;" horiz-adv-x="1323" d="M98 31q0 66 26 118t60 87q41 41 85 67.5t87 47t81 40t65 45.5q33 33 44 71t13 68h234q0 -70 -22.5 -135t-82.5 -125q-27 -27 -63.5 -52t-70.5 -56t-57.5 -70t-23.5 -90q0 -37 17.5 -68.5t48 -54t71.5 -36t86 -13.5q66 0 111 17.5t74.5 47t43 67.5t13.5 77q0 63 -27 115 h275q14 -41 19 -88.5t5 -63.5q0 -102 -41 -179t-113.5 -130t-175 -80t-225.5 -27q-131 0 -234.5 32t-175 86t-109.5 127t-38 155zM504 709v366h352v-366h-352z" />
<glyph unicode="&#xc0;" horiz-adv-x="1685" d="M45 0l598 1427h373l626 -1427h-389l-120 289h-617l-113 -289h-358zM545 1889h313l59 -342h-137zM610 535h418l-219 514z" />
<glyph unicode="&#xc1;" horiz-adv-x="1685" d="M45 0l598 1427h373l626 -1427h-389l-120 289h-617l-113 -289h-358zM610 535h418l-219 514zM735 1547l70 344h313l-247 -344h-136z" />
<glyph unicode="&#xc2;" horiz-adv-x="1685" d="M45 0l598 1427h373l626 -1427h-389l-120 289h-617l-113 -289h-358zM491 1547l199 385h258l187 -385h-162l-158 204l-166 -204h-158zM610 535h418l-219 514z" />
<glyph unicode="&#xc3;" horiz-adv-x="1685" d="M45 0l598 1427h373l626 -1427h-389l-120 289h-617l-113 -289h-358zM457 1565q16 145 69.5 222t157.5 77q49 0 89 -13t75 -28.5t63.5 -29t53.5 -13.5q35 0 54 26.5t23 61.5h125q-6 -84 -26.5 -142t-51 -94t-67.5 -51.5t-78 -15.5q-43 0 -85 13.5t-78 30t-65.5 29.5 t-49.5 13q-37 0 -57.5 -28.5t-31.5 -57.5h-120zM610 535h418l-219 514z" />
<glyph unicode="&#xc4;" horiz-adv-x="1685" d="M45 0l598 1427h373l626 -1427h-389l-120 289h-617l-113 -289h-358zM479 1594v237h223v-237h-223zM610 535h418l-219 514zM917 1594v237h228v-237h-228z" />
<glyph unicode="&#xc5;" horiz-adv-x="1685" d="M55 0l600 1434q-12 29 -23 54t-11 62q0 45 16 86t46 73t72 51.5t93 19.5q43 0 81 -17.5t67.5 -46t46 -67.5t16.5 -82q0 -47 -11.5 -80t-23.5 -55l629 -1432h-389l-121 289h-617l-112 -289h-359zM621 537h417l-219 514zM715 1554q0 -51 35.5 -87.5t89.5 -36.5 q53 0 89 36.5t36 87.5q0 53 -36 90t-89 37t-89 -36.5t-36 -90.5z" />
<glyph unicode="&#xc6;" horiz-adv-x="2390" d="M37 0l784 1411h1440v-303h-780v-242h622v-305h-624v-260h813v-301h-1200v285h-514l-160 -285h-381zM715 532h379v670l-4 2z" />
<glyph unicode="&#xc7;" horiz-adv-x="1728" d="M104 692q0 201 70 344.5t183.5 234.5t259 133t298.5 42q287 0 476.5 -128t242.5 -403h-350q-37 102 -131 164t-240 62q-113 0 -188.5 -40t-122.5 -103.5t-67.5 -142.5t-20.5 -155q0 -100 28.5 -180t80 -134t123 -83t157.5 -29q72 0 137.5 19.5t117.5 57.5t88 92.5 t48 121.5h359q-6 -100 -57.5 -206.5t-147.5 -193.5t-236.5 -142.5t-324.5 -55.5q-221 0 -370.5 69.5t-241 176t-131.5 234.5t-40 245zM735 -111h260v-106q0 -51 -13.5 -96t-62.5 -93h-145q27 31 49.5 60t38.5 63h-127v172z" />
<glyph unicode="&#xc8;" horiz-adv-x="1556" d="M193 0v1411h1230v-307h-843v-234h696v-307h-696v-256h878v-307h-1265zM512 1889h313l59 -342h-137z" />
<glyph unicode="&#xc9;" horiz-adv-x="1556" d="M193 0v1411h1230v-307h-843v-234h696v-307h-696v-256h878v-307h-1265zM702 1547l70 344h313l-247 -344h-136z" />
<glyph unicode="&#xca;" horiz-adv-x="1556" d="M193 0v1411h1230v-307h-843v-234h696v-307h-696v-256h878v-307h-1265zM479 1547l199 385h258l187 -385h-162l-158 204l-166 -204h-158z" />
<glyph unicode="&#xcb;" horiz-adv-x="1556" d="M193 0v1411h1230v-307h-843v-234h696v-307h-696v-256h878v-307h-1265zM467 1594v237h223v-237h-223zM905 1594v237h228v-237h-228z" />
<glyph unicode="&#xcc;" horiz-adv-x="788" d="M127 1889h313l59 -342h-137zM199 0v1411h391v-1411h-391z" />
<glyph unicode="&#xcd;" horiz-adv-x="788" d="M199 0v1411h391v-1411h-391zM286 1547l70 344h313l-247 -344h-136z" />
<glyph unicode="&#xce;" horiz-adv-x="788" d="M73 1547l199 385h258l187 -385h-162l-158 204l-166 -204h-158zM199 0v1411h391v-1411h-391z" />
<glyph unicode="&#xcf;" horiz-adv-x="788" d="M61 1594v237h223v-237h-223zM199 0v1411h391v-1411h-391zM499 1594v237h228v-237h-228z" />
<glyph unicode="&#xd0;" horiz-adv-x="1835" d="M66 565v307h165v539h736q178 0 323.5 -52t248.5 -145.5t159.5 -223.5t56.5 -285q0 -131 -49 -257t-148.5 -225.5t-248 -161t-348.5 -61.5h-730v565h-165zM588 307h325q90 0 160 20.5t118 68.5t73.5 127t25.5 196t-27.5 192.5t-78.5 119.5t-122 61.5t-157 17.5h-317v-238 h330v-307h-330v-258z" />
<glyph unicode="&#xd1;" horiz-adv-x="1921" d="M205 0v1411h534l621 -868v868h356v-1411h-444l-711 1006v-1006h-356zM607 1565q16 145 69.5 222t157.5 77q49 0 89 -13t75 -28.5t63.5 -29t53.5 -13.5q35 0 54 26.5t23 61.5h125q-6 -84 -26.5 -142t-51 -94t-67.5 -51.5t-78 -15.5q-43 0 -85 13.5t-78 30t-65.5 29.5 t-49.5 13q-37 0 -57.5 -28.5t-31.5 -57.5h-120z" />
<glyph unicode="&#xd2;" horiz-adv-x="1855" d="M113 707q0 123 46 254t144 239.5t253 178t372 69.5q236 0 392.5 -78t250.5 -191.5t134 -241.5t40 -228q0 -133 -52.5 -264.5t-153.5 -236t-250.5 -170t-346.5 -65.5q-238 0 -397.5 75t-255.5 185.5t-136 239t-40 234.5zM526 709q0 -92 31 -171t85 -135.5t128 -89 t160 -32.5q84 0 156.5 32.5t127 91t86 137.5t31.5 171t-31.5 171t-85 136t-126 90t-152.5 33q-88 0 -163 -33t-130 -91t-86 -138t-31 -172zM662 1889h313l59 -342h-137z" />
<glyph unicode="&#xd3;" horiz-adv-x="1855" d="M113 707q0 123 46 254t144 239.5t253 178t372 69.5q236 0 392.5 -78t250.5 -191.5t134 -241.5t40 -228q0 -133 -52.5 -264.5t-153.5 -236t-250.5 -170t-346.5 -65.5q-238 0 -397.5 75t-255.5 185.5t-136 239t-40 234.5zM526 709q0 -92 31 -171t85 -135.5t128 -89 t160 -32.5q84 0 156.5 32.5t127 91t86 137.5t31.5 171t-31.5 171t-85 136t-126 90t-152.5 33q-88 0 -163 -33t-130 -91t-86 -138t-31 -172zM821 1547l70 344h313l-247 -344h-136z" />
<glyph unicode="&#xd4;" horiz-adv-x="1855" d="M113 707q0 123 46 254t144 239.5t253 178t372 69.5q236 0 392.5 -78t250.5 -191.5t134 -241.5t40 -228q0 -133 -52.5 -264.5t-153.5 -236t-250.5 -170t-346.5 -65.5q-238 0 -397.5 75t-255.5 185.5t-136 239t-40 234.5zM526 709q0 -92 31 -171t85 -135.5t128 -89 t160 -32.5q84 0 156.5 32.5t127 91t86 137.5t31.5 171t-31.5 171t-85 136t-126 90t-152.5 33q-88 0 -163 -33t-130 -91t-86 -138t-31 -172zM608 1547l199 385h258l187 -385h-162l-158 204l-166 -204h-158z" />
<glyph unicode="&#xd5;" horiz-adv-x="1855" d="M113 707q0 123 46 254t144 239.5t253 178t372 69.5q236 0 392.5 -78t250.5 -191.5t134 -241.5t40 -228q0 -133 -52.5 -264.5t-153.5 -236t-250.5 -170t-346.5 -65.5q-238 0 -397.5 75t-255.5 185.5t-136 239t-40 234.5zM526 709q0 -92 31 -171t85 -135.5t128 -89 t160 -32.5q84 0 156.5 32.5t127 91t86 137.5t31.5 171t-31.5 171t-85 136t-126 90t-152.5 33q-88 0 -163 -33t-130 -91t-86 -138t-31 -172zM574 1565q16 145 69.5 222t157.5 77q49 0 89 -13t75 -28.5t63.5 -29t53.5 -13.5q35 0 54 26.5t23 61.5h125q-6 -84 -26.5 -142 t-51 -94t-67.5 -51.5t-78 -15.5q-43 0 -85 13.5t-78 30t-65.5 29.5t-49.5 13q-37 0 -57.5 -28.5t-31.5 -57.5h-120z" />
<glyph unicode="&#xd6;" horiz-adv-x="1855" d="M113 707q0 123 46 254t144 239.5t253 178t372 69.5q236 0 392.5 -78t250.5 -191.5t134 -241.5t40 -228q0 -133 -52.5 -264.5t-153.5 -236t-250.5 -170t-346.5 -65.5q-238 0 -397.5 75t-255.5 185.5t-136 239t-40 234.5zM526 709q0 -92 31 -171t85 -135.5t128 -89 t160 -32.5q84 0 156.5 32.5t127 91t86 137.5t31.5 171t-31.5 171t-85 136t-126 90t-152.5 33q-88 0 -163 -33t-130 -91t-86 -138t-31 -172zM596 1594v237h223v-237h-223zM1034 1594v237h228v-237h-228z" />
<glyph unicode="&#xd7;" horiz-adv-x="1366" d="M190 193l326 325l-326 326l168 168l326 -326l326 326l168 -168l-328 -326l328 -325l-168 -168l-326 327l-326 -327z" />
<glyph unicode="&#xd8;" horiz-adv-x="1855" d="M113 707q0 123 46 254t144 239.5t253 178t372 69.5q135 0 242.5 -26.5t193.5 -73.5l88 98h266l-192 -217q61 -61 102 -129t67.5 -136.5t38 -134t11.5 -120.5q0 -133 -52.5 -264.5t-153.5 -236t-250.5 -170t-346.5 -65.5q-141 0 -251.5 27t-196.5 74l-93 -103h-274 l201 224q-57 55 -98.5 120.5t-68 132t-37.5 133t-11 126.5zM526 709q0 -127 60 -228l542 606q-86 55 -192 56q-88 0 -163 -33t-130 -91t-86 -138t-31 -172zM727 336q43 -27 93 -41t110 -14q84 0 156.5 32.5t127 91t86 137.5t31.5 171q0 127 -63 229z" />
<glyph unicode="&#xd9;" horiz-adv-x="1748" d="M174 553v858h389v-801q0 -197 82 -274.5t232 -77.5q76 0 137 19.5t104 62.5t66.5 112.5t23.5 170.5v788h367v-840q0 -150 -57.5 -262t-154.5 -188t-225 -114t-270 -38q-160 0 -287.5 34t-218 105.5t-139.5 182t-49 262.5zM609 1889h313l59 -342h-137z" />
<glyph unicode="&#xda;" horiz-adv-x="1748" d="M174 553v858h389v-801q0 -197 82 -274.5t232 -77.5q76 0 137 19.5t104 62.5t66.5 112.5t23.5 170.5v788h367v-840q0 -150 -57.5 -262t-154.5 -188t-225 -114t-270 -38q-160 0 -287.5 34t-218 105.5t-139.5 182t-49 262.5zM768 1547l70 344h313l-247 -344h-136z" />
<glyph unicode="&#xdb;" horiz-adv-x="1748" d="M174 553v858h389v-801q0 -197 82 -274.5t232 -77.5q76 0 137 19.5t104 62.5t66.5 112.5t23.5 170.5v788h367v-840q0 -150 -57.5 -262t-154.5 -188t-225 -114t-270 -38q-160 0 -287.5 34t-218 105.5t-139.5 182t-49 262.5zM555 1547l199 385h258l187 -385h-162l-158 204 l-166 -204h-158z" />
<glyph unicode="&#xdc;" horiz-adv-x="1748" d="M174 553v858h389v-801q0 -197 82 -274.5t232 -77.5q76 0 137 19.5t104 62.5t66.5 112.5t23.5 170.5v788h367v-840q0 -150 -57.5 -262t-154.5 -188t-225 -114t-270 -38q-160 0 -287.5 34t-218 105.5t-139.5 182t-49 262.5zM543 1594v237h223v-237h-223zM981 1594v237h228 v-237h-228z" />
<glyph unicode="&#xdd;" horiz-adv-x="1622" d="M47 1413h422l381 -600l369 598h356l-565 -909v-502h-389v502zM725 1547l70 344h313l-247 -344h-136z" />
<glyph unicode="&#xde;" horiz-adv-x="1642" d="M190 0v1411h394v-260h401q158 0 268.5 -35t180 -93t101.5 -135t32 -161q0 -76 -28 -154.5t-93.5 -143t-177 -105.5t-281.5 -41h-403v-283h-394zM578 547h294q137 0 209 42t72 134q0 90 -69.5 126t-209.5 36h-296v-338z" />
<glyph unicode="&#xdf;" horiz-adv-x="1579" d="M213 0v823q0 160 25.5 278t95 196.5t194.5 116.5t322 38q162 0 270.5 -38t175 -95t94 -127t27.5 -133q0 -49 -12 -95t-40 -86t-75 -73t-116 -55q147 -45 216.5 -130t69.5 -241q0 -86 -32.5 -160t-91 -128t-138.5 -86t-176 -32q-35 0 -94.5 6.5t-141.5 28.5v189 q41 -8 74 -11.5t49 -3.5q76 0 132.5 56.5t56.5 193.5q0 129 -55.5 181.5t-163.5 52.5h-35v165q27 0 65.5 3.5t75.5 23t62.5 60t25.5 116.5q0 102 -58.5 165t-187.5 63q-96 0 -150 -37t-81 -91.5t-33 -112.5t-6 -101v-920h-344z" />
<glyph unicode="&#xe0;" horiz-adv-x="1579" d="M127 262q0 53 18.5 99.5t53.5 80.5q55 55 134 83t175 44.5t205.5 28.5t226.5 37v33q0 72 -56.5 121t-178.5 49q-176 0 -218 -146h-301q0 51 22.5 102.5t63.5 94.5q33 33 73 60.5t97.5 48t136 31.5t189.5 11q176 0 278.5 -35.5t155.5 -91t68.5 -124t15.5 -134.5v-331 q0 -59 21.5 -91t95.5 -32q27 0 63.5 6t75.5 18v-205q-109 -35 -171 -41t-111 -6q-131 0 -212 43t-114 138q-47 -47 -105.5 -82t-121 -58.5t-124 -35t-116.5 -11.5q-82 0 -145.5 24.5t-106.5 65.5t-65.5 94.5t-22.5 110.5zM489 303q0 -47 36 -83t126 -36q37 0 81 11.5t85 36 t74 60.5t47 85v133q-84 -14 -165 -26.5t-143.5 -33t-101.5 -54.5t-39 -93zM492 1481h313l59 -342h-137z" />
<glyph unicode="&#xe1;" horiz-adv-x="1579" d="M127 262q0 53 18.5 99.5t53.5 80.5q55 55 134 83t175 44.5t205.5 28.5t226.5 37v33q0 72 -56.5 121t-178.5 49q-176 0 -218 -146h-301q0 51 22.5 102.5t63.5 94.5q33 33 73 60.5t97.5 48t136 31.5t189.5 11q176 0 278.5 -35.5t155.5 -91t68.5 -124t15.5 -134.5v-331 q0 -59 21.5 -91t95.5 -32q27 0 63.5 6t75.5 18v-205q-109 -35 -171 -41t-111 -6q-131 0 -212 43t-114 138q-47 -47 -105.5 -82t-121 -58.5t-124 -35t-116.5 -11.5q-82 0 -145.5 24.5t-106.5 65.5t-65.5 94.5t-22.5 110.5zM489 303q0 -47 36 -83t126 -36q37 0 81 11.5t85 36 t74 60.5t47 85v133q-84 -14 -165 -26.5t-143.5 -33t-101.5 -54.5t-39 -93zM682 1139l70 344h313l-247 -344h-136z" />
<glyph unicode="&#xe2;" horiz-adv-x="1579" d="M127 262q0 53 18.5 99.5t53.5 80.5q55 55 134 83t175 44.5t205.5 28.5t226.5 37v33q0 72 -56.5 121t-178.5 49q-176 0 -218 -146h-301q0 51 22.5 102.5t63.5 94.5q33 33 73 60.5t97.5 48t136 31.5t189.5 11q176 0 278.5 -35.5t155.5 -91t68.5 -124t15.5 -134.5v-331 q0 -59 21.5 -91t95.5 -32q27 0 63.5 6t75.5 18v-205q-109 -35 -171 -41t-111 -6q-131 0 -212 43t-114 138q-47 -47 -105.5 -82t-121 -58.5t-124 -35t-116.5 -11.5q-82 0 -145.5 24.5t-106.5 65.5t-65.5 94.5t-22.5 110.5zM438 1139l199 385h258l187 -385h-162l-158 204 l-166 -204h-158zM489 303q0 -47 36 -83t126 -36q37 0 81 11.5t85 36t74 60.5t47 85v133q-84 -14 -165 -26.5t-143.5 -33t-101.5 -54.5t-39 -93z" />
<glyph unicode="&#xe3;" horiz-adv-x="1579" d="M127 262q0 53 18.5 99.5t53.5 80.5q55 55 134 83t175 44.5t205.5 28.5t226.5 37v33q0 72 -56.5 121t-178.5 49q-176 0 -218 -146h-301q0 51 22.5 102.5t63.5 94.5q33 33 73 60.5t97.5 48t136 31.5t189.5 11q176 0 278.5 -35.5t155.5 -91t68.5 -124t15.5 -134.5v-331 q0 -59 21.5 -91t95.5 -32q27 0 63.5 6t75.5 18v-205q-109 -35 -171 -41t-111 -6q-131 0 -212 43t-114 138q-47 -47 -105.5 -82t-121 -58.5t-124 -35t-116.5 -11.5q-82 0 -145.5 24.5t-106.5 65.5t-65.5 94.5t-22.5 110.5zM414 1157q16 145 69.5 222t157.5 77q49 0 89 -13 t75 -28.5t63.5 -29t53.5 -13.5q35 0 54 26.5t23 61.5h125q-6 -84 -26.5 -142t-51 -94t-67.5 -51.5t-78 -15.5q-43 0 -85 13.5t-78 30t-65.5 29.5t-49.5 13q-37 0 -57.5 -28.5t-31.5 -57.5h-120zM489 303q0 -47 36 -83t126 -36q37 0 81 11.5t85 36t74 60.5t47 85v133 q-84 -14 -165 -26.5t-143.5 -33t-101.5 -54.5t-39 -93z" />
<glyph unicode="&#xe4;" horiz-adv-x="1579" d="M127 262q0 53 18.5 99.5t53.5 80.5q55 55 134 83t175 44.5t205.5 28.5t226.5 37v33q0 72 -56.5 121t-178.5 49q-176 0 -218 -146h-301q0 51 22.5 102.5t63.5 94.5q33 33 73 60.5t97.5 48t136 31.5t189.5 11q176 0 278.5 -35.5t155.5 -91t68.5 -124t15.5 -134.5v-331 q0 -59 21.5 -91t95.5 -32q27 0 63.5 6t75.5 18v-205q-109 -35 -171 -41t-111 -6q-131 0 -212 43t-114 138q-47 -47 -105.5 -82t-121 -58.5t-124 -35t-116.5 -11.5q-82 0 -145.5 24.5t-106.5 65.5t-65.5 94.5t-22.5 110.5zM426 1186v237h223v-237h-223zM489 303q0 -47 36 -83 t126 -36q37 0 81 11.5t85 36t74 60.5t47 85v133q-84 -14 -165 -26.5t-143.5 -33t-101.5 -54.5t-39 -93zM864 1186v237h228v-237h-228z" />
<glyph unicode="&#xe5;" horiz-adv-x="1579" d="M127 262q0 53 18.5 99.5t53.5 80.5q55 55 134 83t175 44.5t205.5 28.5t226.5 37v33q0 72 -56.5 121t-178.5 49q-176 0 -218 -146h-301q0 51 22.5 102.5t63.5 94.5q33 33 73 60.5t97.5 48t136 31.5t189.5 11q176 0 278.5 -35.5t155.5 -91t68.5 -124t15.5 -134.5v-331 q0 -59 21.5 -91t95.5 -32q27 0 63.5 6t75.5 18v-205q-109 -35 -171 -41t-111 -6q-131 0 -212 43t-114 138q-47 -47 -105.5 -82t-121 -58.5t-124 -35t-116.5 -11.5q-82 0 -145.5 24.5t-106.5 65.5t-65.5 94.5t-22.5 110.5zM489 303q0 -47 36 -83t126 -36q37 0 81 11.5t85 36 t74 60.5t47 85v133q-84 -14 -165 -26.5t-143.5 -33t-101.5 -54.5t-39 -93zM567 1323q0 86 58.5 144.5t144.5 58.5q84 0 142.5 -58.5t58.5 -144.5q0 -41 -15.5 -78t-43 -64.5t-64.5 -43t-78 -15.5q-86 0 -144.5 58.5t-58.5 142.5zM651 1325q0 -47 33 -81t80 -34t81 34t34 81 t-34 80t-81 33t-80 -33t-33 -80z" />
<glyph unicode="&#xe6;" horiz-adv-x="2367" d="M121 256q0 113 84 193q57 55 155.5 86.5t215 52t240.5 34t231 33.5v29q0 66 -74 114t-197 48q-117 0 -187.5 -30t-103.5 -116h-311q4 53 29.5 103.5t56.5 81.5q33 33 75 61.5t102.5 50t143.5 34.5t193 13q166 0 273.5 -34.5t199.5 -94.5q61 45 157.5 87t244.5 42 q123 0 231.5 -39.5t190 -115.5t130 -185.5t50.5 -248.5h-893q-4 -68 18.5 -119t65.5 -85t103.5 -50.5t129.5 -16.5q78 0 137.5 29t92.5 70h346q-27 -51 -77 -106.5t-124 -102.5t-172 -78t-221 -31q-186 0 -332.5 47t-230.5 152q-276 -199 -566 -199q-82 0 -155.5 19.5 t-130 56.5t-89 91t-32.5 124zM489 309q0 -20 9.5 -42.5t31 -42t57.5 -32t89 -12.5q37 0 92 8.5t110.5 33t101.5 67.5t67 110v136q-96 -25 -195.5 -39.5t-179.5 -35t-131.5 -55t-51.5 -96.5zM1358 604h536q0 90 -71.5 153.5t-188.5 63.5q-51 0 -100 -12t-87 -39t-61.5 -67.5 t-27.5 -98.5z" />
<glyph unicode="&#xe7;" horiz-adv-x="1409" d="M104 506q0 115 45.5 213t126 171t194.5 113.5t249 40.5q158 0 267.5 -41.5t181 -102t107.5 -129.5t46 -122h-375q-45 150 -227 150q-49 0 -93 -18.5t-78 -56.5t-54.5 -96.5t-20.5 -138.5q0 -74 19.5 -129t53.5 -89.5t78 -52t93 -17.5q182 0 250 164h362q-12 -45 -48 -113 t-105.5 -131.5t-180 -108.5t-272.5 -45q-141 0 -255 38t-194.5 108.5t-125 170t-44.5 222.5zM576 -111h260v-106q0 -51 -13.5 -96t-62.5 -93h-145q27 31 49.5 60t38.5 63h-127v172z" />
<glyph unicode="&#xe8;" d="M129 496q0 109 43 207t122 173.5t189.5 119.5t247.5 44q150 0 263.5 -49t192.5 -131t120 -189.5t45 -221.5h-852q2 -47 17 -93.5t49 -83t87.5 -59.5t130.5 -23q72 0 129.5 25t96.5 80h336q-18 -37 -60.5 -93.5t-114 -108.5t-174 -90t-241.5 -38q-184 0 -306 54.5 t-193 135.5t-99.5 173t-28.5 168zM459 1481h313l59 -342h-137zM504 604h487q-4 84 -64.5 146.5t-176.5 62.5q-104 0 -169 -56.5t-77 -152.5z" />
<glyph unicode="&#xe9;" d="M129 496q0 109 43 207t122 173.5t189.5 119.5t247.5 44q150 0 263.5 -49t192.5 -131t120 -189.5t45 -221.5h-852q2 -47 17 -93.5t49 -83t87.5 -59.5t130.5 -23q72 0 129.5 25t96.5 80h336q-18 -37 -60.5 -93.5t-114 -108.5t-174 -90t-241.5 -38q-184 0 -306 54.5 t-193 135.5t-99.5 173t-28.5 168zM504 604h487q-4 84 -64.5 146.5t-176.5 62.5q-104 0 -169 -56.5t-77 -152.5zM618 1139l70 344h313l-247 -344h-136z" />
<glyph unicode="&#xea;" d="M129 496q0 109 43 207t122 173.5t189.5 119.5t247.5 44q150 0 263.5 -49t192.5 -131t120 -189.5t45 -221.5h-852q2 -47 17 -93.5t49 -83t87.5 -59.5t130.5 -23q72 0 129.5 25t96.5 80h336q-18 -37 -60.5 -93.5t-114 -108.5t-174 -90t-241.5 -38q-184 0 -306 54.5 t-193 135.5t-99.5 173t-28.5 168zM405 1139l199 385h258l187 -385h-162l-158 204l-166 -204h-158zM504 604h487q-4 84 -64.5 146.5t-176.5 62.5q-104 0 -169 -56.5t-77 -152.5z" />
<glyph unicode="&#xeb;" d="M129 496q0 109 43 207t122 173.5t189.5 119.5t247.5 44q150 0 263.5 -49t192.5 -131t120 -189.5t45 -221.5h-852q2 -47 17 -93.5t49 -83t87.5 -59.5t130.5 -23q72 0 129.5 25t96.5 80h336q-18 -37 -60.5 -93.5t-114 -108.5t-174 -90t-241.5 -38q-184 0 -306 54.5 t-193 135.5t-99.5 173t-28.5 168zM393 1186v237h223v-237h-223zM504 604h487q-4 84 -64.5 146.5t-176.5 62.5q-104 0 -169 -56.5t-77 -152.5zM831 1186v237h228v-237h-228z" />
<glyph unicode="&#xec;" horiz-adv-x="704" d="M86 1481h313l59 -342h-137zM176 0v1004h352v-1004h-352z" />
<glyph unicode="&#xed;" horiz-adv-x="704" d="M176 0v1004h352v-1004h-352zM245 1139l70 344h313l-247 -344h-136z" />
<glyph unicode="&#xee;" horiz-adv-x="704" d="M32 1139l199 385h258l187 -385h-162l-158 204l-166 -204h-158zM176 0v1004h352v-1004h-352z" />
<glyph unicode="&#xef;" horiz-adv-x="704" d="M20 1186v237h223v-237h-223zM176 0v1004h352v-1004h-352zM458 1186v237h228v-237h-228z" />
<glyph unicode="&#xf0;" d="M115 506q0 111 43 206t121.5 164.5t187 108.5t240.5 39q41 0 73.5 -4t79.5 -21q-25 43 -55.5 83t-65.5 75l-338 -96l-43 158l232 65q-74 53 -160 92l287 76q82 -41 149 -88l312 88l43 -158l-199 -57q156 -150 234.5 -333t78.5 -372q0 -135 -49 -240.5t-134 -178 t-195.5 -110.5t-233.5 -38q-145 0 -259 46t-191.5 122t-117.5 173t-40 200zM485 502q0 -61 14.5 -114.5t43 -92.5t74 -61.5t108.5 -22.5q59 0 103 22.5t75 62.5t46.5 93t15.5 115q0 129 -62.5 205.5t-177.5 76.5q-117 0 -178.5 -75.5t-61.5 -208.5z" />
<glyph unicode="&#xf1;" horiz-adv-x="1515" d="M178 0v1004h346v-213q57 125 167 180t245 55q111 0 189.5 -36t129 -92t74 -127t23.5 -140v-631h-351v526q0 123 -49 176.5t-131 53.5q-55 0 -107 -22.5t-94 -67.5t-67 -112t-25 -155v-399h-350zM404 1157q16 145 69.5 222t157.5 77q49 0 89 -13t75 -28.5t63.5 -29 t53.5 -13.5q35 0 54 26.5t23 61.5h125q-6 -84 -26.5 -142t-51 -94t-67.5 -51.5t-78 -15.5q-43 0 -85 13.5t-78 30t-65.5 29.5t-49.5 13q-37 0 -57.5 -28.5t-31.5 -57.5h-120z" />
<glyph unicode="&#xf2;" d="M115 506q0 111 44 209t123.5 169.5t191.5 113.5t249 42q143 0 257 -41t192.5 -111.5t120.5 -167.5t42 -212q0 -125 -49 -226.5t-134 -171t-195.5 -107.5t-233.5 -38q-145 0 -259 46t-191.5 122t-117.5 173.5t-40 199.5zM459 1481h313l59 -342h-137zM485 506 q0 -61 14.5 -114.5t43 -93.5t74 -62.5t108.5 -22.5q59 0 103 23.5t75 63.5t46.5 93t15.5 115q0 129 -62.5 207t-177.5 78q-117 0 -178.5 -77t-61.5 -210z" />
<glyph unicode="&#xf3;" d="M115 506q0 111 44 209t123.5 169.5t191.5 113.5t249 42q143 0 257 -41t192.5 -111.5t120.5 -167.5t42 -212q0 -125 -49 -226.5t-134 -171t-195.5 -107.5t-233.5 -38q-145 0 -259 46t-191.5 122t-117.5 173.5t-40 199.5zM485 506q0 -61 14.5 -114.5t43 -93.5t74 -62.5 t108.5 -22.5q59 0 103 23.5t75 63.5t46.5 93t15.5 115q0 129 -62.5 207t-177.5 78q-117 0 -178.5 -77t-61.5 -210zM618 1139l70 344h313l-247 -344h-136z" />
<glyph unicode="&#xf4;" d="M115 506q0 111 44 209t123.5 169.5t191.5 113.5t249 42q143 0 257 -41t192.5 -111.5t120.5 -167.5t42 -212q0 -125 -49 -226.5t-134 -171t-195.5 -107.5t-233.5 -38q-145 0 -259 46t-191.5 122t-117.5 173.5t-40 199.5zM405 1139l199 385h258l187 -385h-162l-158 204 l-166 -204h-158zM485 506q0 -61 14.5 -114.5t43 -93.5t74 -62.5t108.5 -22.5q59 0 103 23.5t75 63.5t46.5 93t15.5 115q0 129 -62.5 207t-177.5 78q-117 0 -178.5 -77t-61.5 -210z" />
<glyph unicode="&#xf5;" d="M115 506q0 111 44 209t123.5 169.5t191.5 113.5t249 42q143 0 257 -41t192.5 -111.5t120.5 -167.5t42 -212q0 -125 -49 -226.5t-134 -171t-195.5 -107.5t-233.5 -38q-145 0 -259 46t-191.5 122t-117.5 173.5t-40 199.5zM371 1157q16 145 69.5 222t157.5 77q49 0 89 -13 t75 -28.5t63.5 -29t53.5 -13.5q35 0 54 26.5t23 61.5h125q-6 -84 -26.5 -142t-51 -94t-67.5 -51.5t-78 -15.5q-43 0 -85 13.5t-78 30t-65.5 29.5t-49.5 13q-37 0 -57.5 -28.5t-31.5 -57.5h-120zM485 506q0 -61 14.5 -114.5t43 -93.5t74 -62.5t108.5 -22.5q59 0 103 23.5 t75 63.5t46.5 93t15.5 115q0 129 -62.5 207t-177.5 78q-117 0 -178.5 -77t-61.5 -210z" />
<glyph unicode="&#xf6;" d="M115 506q0 111 44 209t123.5 169.5t191.5 113.5t249 42q143 0 257 -41t192.5 -111.5t120.5 -167.5t42 -212q0 -125 -49 -226.5t-134 -171t-195.5 -107.5t-233.5 -38q-145 0 -259 46t-191.5 122t-117.5 173.5t-40 199.5zM393 1186v237h223v-237h-223zM485 506 q0 -61 14.5 -114.5t43 -93.5t74 -62.5t108.5 -22.5q59 0 103 23.5t75 63.5t46.5 93t15.5 115q0 129 -62.5 207t-177.5 78q-117 0 -178.5 -77t-61.5 -210zM831 1186v237h228v-237h-228z" />
<glyph unicode="&#xf7;" horiz-adv-x="1366" d="M168 395v246h1032v-246h-1032zM496 94q0 39 15 74t42 60.5t60.5 40t72.5 14.5q37 0 72 -15.5t60.5 -41t40.5 -59.5t15 -73q0 -35 -15 -69.5t-40.5 -61t-59.5 -43t-71 -16.5q-39 0 -73.5 15t-61.5 41t-42 60.5t-15 73.5zM496 942q0 39 15 74t42 60.5t60.5 41t72.5 15.5 q37 0 72 -15.5t60.5 -41t40.5 -60.5t15 -74q0 -35 -15 -68.5t-40.5 -60.5t-59.5 -43t-71 -16q-39 0 -73.5 15t-61.5 41t-42 59.5t-15 72.5z" />
<glyph unicode="&#xf8;" d="M115 506q0 111 44 209t123.5 169.5t191.5 113.5t249 42q182 0 317 -65l140 153l137 -110l-131 -144q72 -70 110.5 -163t38.5 -203q0 -125 -49 -226.5t-134 -171t-195.5 -107.5t-233.5 -38q-90 0 -167 17.5t-142 50.5l-144 -156l-135 117l133 143q-76 76 -114.5 171 t-38.5 198zM485 506q0 -33 3.5 -62.5t11.5 -54.5l344 373q-49 31 -119 31q-117 0 -178.5 -77t-61.5 -210zM604 242q47 -29 121 -29q59 0 103 23.5t75 63.5t46.5 93t15.5 115q0 31 -3.5 58.5t-13.5 49.5z" />
<glyph unicode="&#xf9;" horiz-adv-x="1515" d="M170 436v568h348v-531q0 -123 54.5 -174t132.5 -51q53 0 103 24.5t90 69.5t64.5 106.5t24.5 137.5v418h348v-1004h-346v203q-61 -113 -166.5 -171.5t-240.5 -58.5q-90 0 -166 30t-130.5 88.5t-85 145.5t-30.5 199zM492 1481h313l59 -342h-137z" />
<glyph unicode="&#xfa;" horiz-adv-x="1515" d="M170 436v568h348v-531q0 -123 54.5 -174t132.5 -51q53 0 103 24.5t90 69.5t64.5 106.5t24.5 137.5v418h348v-1004h-346v203q-61 -113 -166.5 -171.5t-240.5 -58.5q-90 0 -166 30t-130.5 88.5t-85 145.5t-30.5 199zM651 1139l70 344h313l-247 -344h-136z" />
<glyph unicode="&#xfb;" horiz-adv-x="1515" d="M170 436v568h348v-531q0 -123 54.5 -174t132.5 -51q53 0 103 24.5t90 69.5t64.5 106.5t24.5 137.5v418h348v-1004h-346v203q-61 -113 -166.5 -171.5t-240.5 -58.5q-90 0 -166 30t-130.5 88.5t-85 145.5t-30.5 199zM438 1139l199 385h258l187 -385h-162l-158 204 l-166 -204h-158z" />
<glyph unicode="&#xfc;" horiz-adv-x="1515" d="M170 436v568h348v-531q0 -123 54.5 -174t132.5 -51q53 0 103 24.5t90 69.5t64.5 106.5t24.5 137.5v418h348v-1004h-346v203q-61 -113 -166.5 -171.5t-240.5 -58.5q-90 0 -166 30t-130.5 88.5t-85 145.5t-30.5 199zM426 1186v237h223v-237h-223zM864 1186v237h228v-237 h-228z" />
<glyph unicode="&#xfd;" horiz-adv-x="1300" d="M49 1004h369l254 -627l225 627h352l-461 -1059q-41 -94 -88 -154.5t-108.5 -96.5t-138 -49.5t-174.5 -13.5h-91v260h84q111 -2 165.5 26t76.5 85zM542 1139l70 344h313l-247 -344h-136z" />
<glyph unicode="&#xfe;" horiz-adv-x="1556" d="M180 -383v1794h348v-563q72 92 173.5 139t201.5 47q102 0 199.5 -35.5t173.5 -105.5t121 -169t45 -226q0 -125 -44 -222.5t-118 -165t-169 -103.5t-198 -36q-135 0 -233 39t-152 117v-510h-348zM575 504q0 -162 76 -248t189 -86q63 0 108 24.5t73 67.5t40 101.5t12 125.5 q0 102 -22.5 166t-56 100t-75.5 48t-83 12q-55 0 -102.5 -22.5t-82.5 -62.5t-55.5 -97.5t-20.5 -128.5z" />
<glyph unicode="&#xff;" horiz-adv-x="1300" d="M49 1004h369l254 -627l225 627h352l-461 -1059q-41 -94 -88 -154.5t-108.5 -96.5t-138 -49.5t-174.5 -13.5h-91v260h84q111 -2 165.5 26t76.5 85zM317 1186v237h223v-237h-223zM755 1186v237h228v-237h-228z" />
<glyph unicode="&#x152;" horiz-adv-x="2324" d="M94 698q0 141 52.5 271.5t149.5 229.5t236.5 158.5t311.5 59.5q35 0 68.5 -1t68.5 -1q35 -2 67.5 -3t67.5 -1h1176v-301h-711v-240h557v-303h-561v-260h745v-307h-1165q-35 0 -69.5 -1t-69.5 -1q-35 -2 -70 -3t-69 -1q-180 0 -324.5 58.5t-247 156.5t-158 225t-55.5 264z M504 694q0 -104 28.5 -182t77.5 -130t116 -77.5t142 -25.5q174 0 266.5 115.5t92.5 312.5q0 84 -14.5 162.5t-53.5 140t-109.5 99.5t-181.5 38q-162 0 -263 -112.5t-101 -340.5z" />
<glyph unicode="&#x153;" horiz-adv-x="2390" d="M152 512q0 117 47 214t131 168t198.5 109.5t247.5 38.5q143 0 245.5 -36.5t201.5 -98.5q78 59 197.5 97t267.5 38q135 0 244.5 -44t186 -123.5t118.5 -188t47 -237.5h-908q-2 -61 19.5 -110.5t64.5 -84.5t102.5 -54.5t129.5 -19.5q80 0 142 28t95 73h340 q-12 -35 -50 -89.5t-110.5 -104.5t-182 -86t-263.5 -36q-141 0 -250.5 31t-191.5 102q-98 -76 -206 -104.5t-247 -28.5q-137 0 -251 44t-195.5 119t-125.5 174t-44 210zM524 506q0 -141 63.5 -220t184.5 -79q117 0 188.5 81t71.5 216q0 141 -73.5 215t-176.5 74 q-51 0 -98 -18.5t-82 -55.5t-56.5 -90t-21.5 -123zM1391 600h532q0 37 -16.5 76t-50 70.5t-84 53t-117.5 21.5q-55 0 -104.5 -16.5t-85 -45t-56 -69.5t-18.5 -90z" />
<glyph unicode="&#x178;" horiz-adv-x="1622" d="M47 1413h422l381 -600l369 598h356l-565 -909v-502h-389v502zM500 1594v237h223v-237h-223zM938 1594v237h228v-237h-228z" />
<glyph unicode="&#x2c6;" horiz-adv-x="681" d="M20 1139l199 385h258l187 -385h-162l-158 204l-166 -204h-158z" />
<glyph unicode="&#x2dc;" horiz-adv-x="681" d="M-14 1157q16 145 69.5 222t157.5 77q49 0 89 -13t75 -28.5t63.5 -29t53.5 -13.5q35 0 54 26.5t23 61.5h125q-6 -84 -26.5 -142t-51 -94t-67.5 -51.5t-78 -15.5q-43 0 -85 13.5t-78 30t-65.5 29.5t-49.5 13q-37 0 -57.5 -28.5t-31.5 -57.5h-120z" />
<glyph unicode="&#x2000;" horiz-adv-x="966" />
<glyph unicode="&#x2001;" horiz-adv-x="1932" />
<glyph unicode="&#x2002;" horiz-adv-x="966" />
<glyph unicode="&#x2003;" horiz-adv-x="1932" />
<glyph unicode="&#x2004;" horiz-adv-x="644" />
<glyph unicode="&#x2005;" horiz-adv-x="483" />
<glyph unicode="&#x2006;" horiz-adv-x="322" />
<glyph unicode="&#x2007;" horiz-adv-x="322" />
<glyph unicode="&#x2008;" horiz-adv-x="241" />
<glyph unicode="&#x2009;" horiz-adv-x="386" />
<glyph unicode="&#x200a;" horiz-adv-x="107" />
<glyph unicode="&#x2010;" horiz-adv-x="937" d="M143 356v295h652v-295h-652z" />
<glyph unicode="&#x2011;" horiz-adv-x="937" d="M143 356v295h652v-295h-652z" />
<glyph unicode="&#x2012;" horiz-adv-x="937" d="M143 356v295h652v-295h-652z" />
<glyph unicode="&#x2013;" horiz-adv-x="1024" d="M-10 393v250h1044v-250h-1044z" />
<glyph unicode="&#x2014;" horiz-adv-x="2048" d="M-10 393v250h2068v-250h-2068z" />
<glyph unicode="&#x2018;" horiz-adv-x="641" d="M145 709v221q0 90 11.5 178t49.5 158.5t109.5 119t190.5 56.5v-144q-53 -33 -94 -88t-43 -137h127v-364h-351z" />
<glyph unicode="&#x2019;" horiz-adv-x="641" d="M135 678v143q53 33 94 88.5t43 137.5h-127v364h351v-221q0 -90 -11.5 -178t-49.5 -159t-108.5 -118t-191.5 -57z" />
<glyph unicode="&#x201a;" horiz-adv-x="641" d="M135 -225q53 33 94 88t43 137h-127v365h351v-222q0 -90 -11.5 -178t-49.5 -158.5t-108.5 -118.5t-191.5 -57v144z" />
<glyph unicode="&#x201c;" horiz-adv-x="1216" d="M145 709v221q0 90 11.5 178t49.5 158.5t109.5 119t190.5 56.5v-144q-53 -33 -94 -88t-43 -137h127v-364h-351zM723 709v221q0 90 11 178t49 158.5t110 119t190 56.5v-144q-53 -33 -94 -88t-43 -137h127v-364h-350z" />
<glyph unicode="&#x201d;" horiz-adv-x="1216" d="M135 678v145q53 31 94 86.5t43 137.5h-127v364h351v-221q0 -90 -11.5 -178t-49.5 -159t-108.5 -118t-191.5 -57zM713 678v143q53 33 94 88.5t43 137.5h-127v364h350v-221q0 -90 -11 -178t-49 -159t-108.5 -118t-191.5 -57z" />
<glyph unicode="&#x201e;" horiz-adv-x="1216" d="M135 -225q53 33 94 88t43 137h-127v365h351v-222q0 -90 -11.5 -178t-49.5 -158.5t-108.5 -118.5t-191.5 -57v144zM713 -225q53 33 94 88t43 137h-127v365h350v-222q0 -90 -11 -178t-49 -158.5t-108.5 -118.5t-191.5 -57v144z" />
<glyph unicode="&#x2022;" horiz-adv-x="1366" d="M336 717q0 72 26.5 135t73.5 110.5t110.5 75t137.5 27.5q72 0 135.5 -27.5t110.5 -75t74.5 -110.5t27.5 -135t-27.5 -135.5t-74.5 -110.5t-110.5 -74.5t-135.5 -27.5t-135.5 26.5t-110.5 73.5t-74.5 110.5t-27.5 137.5z" />
<glyph unicode="&#x2026;" horiz-adv-x="2433" d="M231 0v369h351v-369h-351zM1042 0v369h351v-369h-351zM1853 0v369h351v-369h-351z" />
<glyph unicode="&#x202f;" horiz-adv-x="386" />
<glyph unicode="&#x2039;" horiz-adv-x="788" d="M123 545q39 55 77 116.5t73.5 122t64.5 116.5t49 101h275q-20 -45 -51 -106t-67 -125.5t-72 -124t-66 -102.5q78 -106 147.5 -230.5t112.5 -222.5h-275q-61 123 -132 243t-136 212z" />
<glyph unicode="&#x203a;" horiz-adv-x="788" d="M123 90q45 98 113.5 222t146.5 231q-31 43 -66.5 102.5t-70.5 124t-65.5 125.5t-51.5 106h272q20 -45 50 -101t66 -116.5t74 -122t77 -116.5q-68 -92 -138.5 -212t-132.5 -243h-274z" />
<glyph unicode="&#x205f;" horiz-adv-x="483" />
<glyph unicode="&#x2122;" horiz-adv-x="2048" d="M49 1227v184h705v-184h-230v-660h-245v660h-230zM946 567v844h320l182 -489l182 489h320v-844h-221v553h-5l-186 -553h-180l-187 553h-4v-553h-221z" />
<glyph unicode="&#x25fc;" horiz-adv-x="1003" d="M0 0v1004h1004v-1004h-1004z" />
<glyph unicode="&#xfb01;" horiz-adv-x="1748" d="M80 748v256h258v34q0 70 29.5 143.5t101.5 133t189.5 98.5t291.5 39q123 0 225.5 -18.5t177 -54.5t119 -86t50.5 -113h-342q-18 55 -78 82.5t-152 27.5q-141 0 -201.5 -63.5t-60.5 -163.5v-59h840v-1004h-352v748h-488v-748h-350v748h-258z" />
<glyph unicode="&#xfb02;" horiz-adv-x="1748" d="M84 748v256h262v38q0 68 28.5 139.5t97.5 132t183.5 99.5t288.5 39q117 0 191.5 -12.5t128.5 -28.5h268v-1411h-358v748h-478v-748h-350v748h-262zM696 1004h478v139q0 74 -58.5 110.5t-161.5 36.5q-117 0 -187.5 -52t-70.5 -163v-71z" />
</font>
</defs>
</svg>
