<?xml version="1.0" standalone="no"?>
<!DOCTYPE svg PUBLIC "-//W3C//DTD SVG 1.1//EN" "http://www.w3.org/Graphics/SVG/1.1/DTD/svg11.dtd" >
<svg xmlns="http://www.w3.org/2000/svg">
<metadata></metadata>
<defs>
<font id="rasmusregular" horiz-adv-x="1447" >
<font-face units-per-em="2048" ascent="1536" descent="-512" />
<missing-glyph horiz-adv-x="614" />
<glyph horiz-adv-x="2048" />
<glyph horiz-adv-x="2048" />
<glyph unicode="&#xd;" horiz-adv-x="2048" />
<glyph unicode=" "  horiz-adv-x="614" />
<glyph unicode="&#x09;" horiz-adv-x="614" />
<glyph unicode="&#xa0;" horiz-adv-x="614" />
<glyph unicode="!" horiz-adv-x="559" d="M164 96q0 -52 33.5 -88.5t76.5 -36.5q51 0 86 35.5t35 89.5q0 47 -35.5 82t-85.5 35q-42 0 -76 -36t-34 -81zM182 614l43 -225h105l45 225v820h-193v-820z" />
<glyph unicode="&#x22;" horiz-adv-x="514" d="M123 1188l24 -131h62l22 131v246h-108v-246zM283 1188l24 -131h62l22 131v246h-108v-246z" />
<glyph unicode="#" horiz-adv-x="1048" d="M61 391l27 103h164l70 284h-179l27 103h176l133 553h96v-29l-124 -524h278l133 553h96v-29l-124 -524h153l-26 -103h-152l-68 -284h164l-26 -103h-162l-94 -391h-101v29l88 362h-276l-94 -391h-101v29l88 362h-166zM358 494h277l70 284h-279z" />
<glyph unicode="$" horiz-adv-x="1038" d="M61 10v359h33q33 -84 71 -141t82 -89.5t89.5 -47t103.5 -17.5v612l-49 21q-66 28 -113 53.5t-89.5 58.5t-68 69t-40 83.5t-14.5 105.5q0 152 104.5 256.5t269.5 126.5v123h103v-119q96 -3 195 -26t165 -58l-74 -282h-32q-8 251 -254 264v-490l106 -41q328 -131 328 -411 q0 -193 -122.5 -313.5t-311.5 -135.5v-118h-103v116q-110 6 -174 31t-133 78l-39 -68h-33zM262 1165q0 -180 178 -252v443q-82 -14 -130 -61.5t-48 -129.5zM543 74q245 21 245 245q0 118 -62 195t-181 127h-2v-567z" />
<glyph unicode="%" horiz-adv-x="1325" d="M61 1161q0 -132 86 -220.5t195 -88.5q104 0 187 88.5t83 220.5q0 128 -83 216.5t-187 88.5q-108 0 -194.5 -88.5t-86.5 -216.5zM186 0v29l811 1405h97v-29l-807 -1405h-101zM193 1161q0 242 149 242q139 0 139 -242q0 -121 -32 -182t-107 -61q-79 0 -114 61.5t-35 181.5z M713 281q0 -132 85.5 -221t194.5 -89q104 0 187.5 89t83.5 221q0 128 -83.5 216.5t-187.5 88.5q-108 0 -194 -88.5t-86 -216.5zM844 281q0 241 149 241q140 0 140 -241q0 -121 -32.5 -182.5t-107.5 -61.5q-79 0 -114 62t-35 182z" />
<glyph unicode="&#x26;" horiz-adv-x="1419" d="M123 322q0 65 22 127t52.5 108t82.5 97t92.5 83t100.5 76q-22 31 -63.5 87t-57 79t-37 58.5t-29 62t-7.5 53.5q0 152 86 231.5t231 79.5q58 0 109.5 -13t99 -41t76 -82t28.5 -128q0 -114 -54 -191t-173 -165l274 -355l177 246q-11 27 -30.5 49.5t-33.5 31.5l-14 9v15h260 v-25q-5 -1 -13 -5t-29.5 -24.5t-37.5 -50.5l-225 -309l233 -320q56 -56 115 -81v-25h-293l-174 248q-42 -57 -80.5 -100t-88 -84.5t-105 -64t-113.5 -22.5q-164 0 -272.5 94t-108.5 251zM305 352q23 -93 90 -152t146 -59q74 0 153.5 55.5t136.5 131.5l-311 411 q-127 -102 -181 -206t-34 -181zM385 1180q0 -12 1.5 -22.5t3 -18t6.5 -17.5t6.5 -14t9.5 -14t9.5 -11.5t11.5 -13t11 -12.5q22 -24 62.5 -36t54.5 -28l70 -84q157 108 157 285q0 81 -54 135t-138 53q-211 -3 -211 -202z" />
<glyph unicode="'" horiz-adv-x="354" d="M123 1188l24 -131h62l22 131v246h-108v-246z" />
<glyph unicode="(" horiz-adv-x="618" d="M61 387q0 148 34 311.5t98 321t169 292t234 206.5v-113q-85 -77 -149 -197.5t-100 -260t-53.5 -280t-17.5 -280.5q0 -109 8 -213.5t30 -223t57 -219.5t93 -195t134 -157v-102q-121 65 -225.5 196.5t-170.5 287.5t-103.5 320.5t-37.5 305.5z" />
<glyph unicode=")" horiz-adv-x="618" d="M20 -575q76 63 134 157t93 194.5t57 219.5t30 223t8 213q0 140 -17.5 280t-53 280t-99.5 260.5t-149 197.5v113q129 -72 233.5 -206.5t168.5 -292t98 -321t34 -311.5q0 -141 -37.5 -305.5t-103.5 -320.5t-170.5 -287.5t-225.5 -196.5v103z" />
<glyph unicode="*" horiz-adv-x="501" d="M82 1163l8 -33l117 33l33 -116h26l33 116l107 -33l14 33l-92 78l92 88l-14 21l-107 -41l-33 125h-26l-33 -125l-113 41l-12 -21l80 -88z" />
<glyph unicode="+" horiz-adv-x="716" d="M63 541v102h252v250h103v-250h237v-102h-239v-258h-103v258h-250z" />
<glyph unicode="," horiz-adv-x="415" d="M82 96q0 45 34.5 81t76.5 36q50 0 85 -35t35 -82q0 -38 -20 -71l-176 -271v123l63 94q-40 6 -69 41.5t-29 83.5z" />
<glyph unicode="-" horiz-adv-x="907" d="M61 483h758l27 103h-758z" />
<glyph unicode="." horiz-adv-x="503" d="M184 96q0 -52 34 -88.5t77 -36.5q51 0 86 35.5t35 89.5q0 47 -35.5 82t-85.5 35q-42 0 -76.5 -36t-34.5 -81z" />
<glyph unicode="/" horiz-adv-x="647" d="M-20 0v29l591 1405h97v-29l-588 -1405h-100z" />
<glyph unicode="0" horiz-adv-x="1259" d="M61 725q0 -219 73.5 -391.5t204.5 -267.5t296 -95q161 0 289.5 95t201 267.5t72.5 391.5q0 213 -72.5 382.5t-201 264t-289.5 94.5q-165 0 -296 -94.5t-204.5 -264t-73.5 -382.5zM276 725q0 136 21 249t63 202t112.5 138.5t162.5 49.5q95 0 164.5 -49.5t108.5 -139 t57 -201t18 -249.5q0 -651 -348 -651q-93 0 -163 49.5t-112 139t-63 205.5t-21 257z" />
<glyph unicode="1" horiz-adv-x="563" d="M61 1190v29q9 0 51.5 23t113 76t128.5 116h29v-1321q22 -35 51.5 -56t48.5 -25l19 -3v-29h-426v29q7 1 18.5 4t41 24t52.5 56v989q-23 35 -54.5 57t-51.5 27z" />
<glyph unicode="2" horiz-adv-x="1187" d="M61 0v29q58 51 117 108.5t142 145.5t153.5 182t133.5 196.5t99.5 211.5t36.5 206q0 146 -47.5 215.5t-165.5 69.5q-88 0 -150 -23.5t-94 -57.5t-57 -85h-61q4 8 12.5 29t14.5 33.5t18 34.5t23.5 36.5t30.5 34t39 32.5t49.5 27t63 22t77 13.5t92.5 5.5q181 0 274.5 -99 t93.5 -282q0 -85 -23 -164.5t-57 -141t-96 -138t-117 -134.5t-145.5 -153.5t-157.5 -171.5h594l133 144h39l-165 -326h-900z" />
<glyph unicode="3" horiz-adv-x="999" d="M61 236h70q52 -93 119.5 -136t179.5 -43q143 0 219 93t76 268q0 179 -71 279.5t-210 109.5q-27 0 -49.5 -1t-37 -2.5t-25.5 -3.5t-17 -4.5t-10 -4t-5 -2.5l-1 -1v31l360 418h-516v27q6 6 15.5 17.5t27.5 55t23 95.5h721v-25l-447 -535q200 -11 323 -124.5t132 -329.5 t-120 -329.5t-388 -113.5q-81 0 -140.5 16.5t-102 52t-71 80t-55.5 112.5z" />
<glyph unicode="4" horiz-adv-x="1036" d="M61 346v29l697 1059h37v-985h180l-29 -103h-151v-233q22 -27 51 -48t47 -29l18 -7v-29h-424v29q9 3 23 8.5t45 27t47 48.5v233h-541zM240 451h362v567z" />
<glyph unicode="5" horiz-adv-x="989" d="M61 240h64q53 -80 121.5 -119t181.5 -39q141 0 219.5 97t69.5 276q0 72 -20 137.5t-64 118t-107 78.5t-158 14t-208 -70v41l145 660h600l-53 -166v-27h-481l-88 -364q124 58 238.5 40.5t203.5 -82.5t144 -167t59 -213q9 -221 -121.5 -342.5t-378.5 -112.5 q-139 0 -224 51.5t-143 188.5z" />
<glyph unicode="6" horiz-adv-x="1030" d="M61 522q0 100 19 195t68.5 199.5t127 195t203 175.5t287.5 147v-41q-131 -72 -263 -223.5t-190 -307.5q104 53 205 53q208 0 329.5 -125.5t121.5 -349.5q0 -220 -121.5 -342.5t-329.5 -122.5q-237 0 -347 138t-110 409zM256 481q0 -105 30.5 -200.5t92 -159.5t139.5 -64 q112 0 185 113t73 270q0 98 -32 188t-92.5 148t-133.5 58q-120 0 -191 -101t-71 -252z" />
<glyph unicode="7" horiz-adv-x="952" d="M61 1239h648l-529 -1210v-29h107l604 1405v29h-764q-12 -46 -28.5 -87.5t-26.5 -60.5l-11 -18v-29z" />
<glyph unicode="8" horiz-adv-x="1069" d="M61 373q0 -108 36 -187t102.5 -125t151.5 -67t192 -21q99 0 181 21.5t149.5 66.5t103.5 126.5t31 191.5q0 125 -87.5 235.5t-218.5 192.5q84 40 146.5 138.5t62.5 189.5q0 106 -49 182.5t-125 111.5t-170 35q-74 0 -144.5 -19.5t-132.5 -58t-100 -107t-38 -157.5 q0 -112 56 -191.5t163 -156.5q-61 -29 -99 -50.5t-82.5 -57t-69.5 -73.5t-42 -94.5t-17 -125.5zM262 371q-1 55 7.5 102t26.5 82t34.5 59.5t43.5 47t40 31.5t37 24q143 -90 197 -133q151 -121 151 -238q0 -112 -72 -201.5t-184 -89.5q-78 0 -136 30.5t-88 80t-43.5 101 t-13.5 104.5zM352 1182q0 26 8 53.5t25.5 54t42 47t61 33t78.5 12.5q121 0 181.5 -69t60.5 -178q0 -81 -61 -158.5t-130 -112.5q-194 115 -258 271q-8 21 -8 47z" />
<glyph unicode="9" horiz-adv-x="999" d="M61 1028q0 205 121 320.5t312 115.5q224 6 334 -117.5t110 -359.5q0 -116 -21 -223.5t-73 -220.5t-132 -209t-206 -183.5t-287 -148.5v57q135 71 267.5 220t181.5 301l16 49q-82 -33 -190 -33q-190 0 -311.5 115t-121.5 317zM272 1028q0 -93 25 -171.5t76.5 -128.5 t120.5 -50q116 0 175.5 97.5t59.5 252.5q0 96 -24 174t-78.5 129t-132.5 51q-69 0 -120.5 -50.5t-76.5 -130t-25 -173.5z" />
<glyph unicode=":" horiz-adv-x="477" d="M123 96q0 -52 33.5 -88.5t76.5 -36.5q51 0 86 35.5t35 89.5q0 47 -35.5 82t-85.5 35q-42 0 -76 -36t-34 -81zM123 788q0 -52 33.5 -88t76.5 -36q51 0 86 35t35 89q0 47 -35.5 82t-85.5 35q-42 0 -76 -36t-34 -81z" />
<glyph unicode=";" horiz-adv-x="479" d="M123 96q0 45 34 81t76 36q50 0 85.5 -35t35.5 -82q0 -38 -20 -71l-176 -271v123l63 94q-40 6 -69 41.5t-29 83.5zM125 788q0 45 34.5 81t76.5 36q50 0 85 -35t35 -82q0 -54 -34.5 -89t-85.5 -35q-43 0 -77 36t-34 88z" />
<glyph unicode="&#x3c;" horiz-adv-x="757" d="M61 487v58l594 407v-116l-448 -318l448 -321v-115z" />
<glyph unicode="=" horiz-adv-x="940" d="M123 397h610l27 103h-610zM180 655h611l26 103h-610z" />
<glyph unicode="&#x3e;" horiz-adv-x="757" d="M102 82v115l449 321l-449 318v116l594 -407v-58z" />
<glyph unicode="?" horiz-adv-x="880" d="M82 1171h65q5 64 32.5 108t71.5 65.5t88.5 30t96.5 7.5q172 -2 172 -194q0 -70 -27 -135.5t-65.5 -122t-77.5 -119t-66 -152.5t-28 -196v-70h94v68q2 72 24 138t56 116t74.5 97t80.5 90.5t73 85.5t53 92t20 102q-1 144 -104 213t-277 69q-167 0 -261.5 -67t-94.5 -201 v-25zM279 96q0 -52 33.5 -88.5t76.5 -36.5q51 0 86 35.5t35 89.5q0 47 -35.5 82t-85.5 35q-42 0 -76 -36t-34 -81z" />
<glyph unicode="@" horiz-adv-x="1529" d="M61 444q0 200 89 364.5t253.5 261.5t372.5 97q142 0 267 -42.5t220 -120.5t150 -198.5t55 -266.5q0 -234 -66.5 -358t-195.5 -124q-75 0 -135.5 40.5t-77.5 109.5l-12 -23q-40 -55 -112 -92t-140 -37q-175 0 -277 107.5t-102 294.5q0 191 101.5 298t277.5 107 q80 0 145 -33.5t95 -95.5q55 39 100 109h37q0 -87 -1 -231q-3 -289 12.5 -374t92.5 -85q74 0 115 108t41 277q0 118 -47.5 218t-128.5 167.5t-188 105t-226 37.5q-181 0 -322.5 -87t-215.5 -227.5t-74 -306.5q0 -163 76 -303t211.5 -224.5t298.5 -84.5q89 0 208.5 22 t194.5 54v-103q-162 -75 -403 -75q-146 0 -275 57t-219.5 153.5t-142.5 227.5t-52 276zM512 457q0 -136 58.5 -234t158.5 -98q66 0 116.5 47.5t75.5 122t25 162.5q0 89 -25 164.5t-75.5 123.5t-116.5 48q-67 0 -117.5 -48t-75 -123.5t-24.5 -164.5z" />
<glyph unicode="A" horiz-adv-x="1449" d="M61 0v29q5 1 13 4.5t31 24.5t42 55l490 1198q53 53 92 127h35l541 -1325q19 -34 40 -54.5t33 -24.5l11 -3v-31h-416v31q5 1 13 4.5t31 24t42 53.5l-119 305h-553l-115 -305q19 -34 40.5 -55t33.5 -25l12 -4v-29h-297zM424 520h481l-235 594z" />
<glyph unicode="B" horiz-adv-x="1208" d="M61 0v29l5 2q4 2 13 7.5t19 14t23.5 24.5t25.5 36v1208q-12 20 -25.5 36t-23.5 24.5t-19 14t-13 7.5l-5 2v29h586q214 0 326 -86t112 -252q0 -136 -64 -220t-155 -94q116 -21 198.5 -117.5t82.5 -256.5q0 -211 -97 -309.5t-298 -98.5h-691zM340 150q11 -16 23 -28t18 -16 l6 -4h301q113 0 178.5 93.5t65.5 224.5q0 119 -78.5 201t-218.5 92h-248q-22 -10 -47 -47v-516zM340 862q11 -16 23 -28t18 -16l6 -3h248q99 9 171.5 82t72.5 176q-1 112 -81 186q-78 72 -184 72h-6h-221q-22 -10 -47 -47v-422z" />
<glyph unicode="C" horiz-adv-x="1263" d="M61 729q0 155 47.5 289t134.5 233t218.5 156t292.5 57q106 0 221 -29.5t207 -86.5l-86 -320h-33q-6 91 -22 149.5t-51.5 102.5t-96 63t-152.5 19q-140 -7 -245.5 -89t-162.5 -223t-57 -321q0 -297 132 -475t346 -178q133 0 213.5 39t189.5 149h45q-47 -86 -100 -144.5 t-113.5 -90t-121.5 -44t-138 -12.5q-171 0 -300.5 56t-209 158.5t-119 238t-39.5 303.5z" />
<glyph unicode="D" horiz-adv-x="1267" d="M61 0v29l5 2q4 2 13 7.5t19 14t23.5 24.5t25.5 36v1212q-12 19 -25 34t-23 23t-18.5 13.5t-12.5 7.5l-5 2v29h545q146 0 260.5 -54t188 -150.5t111.5 -227t38 -287.5q0 -159 -38 -289.5t-111.5 -225.5t-188 -147.5t-260.5 -52.5h-547zM340 150q11 -16 23 -28t18 -16l6 -4 h221q122 0 210 82t130.5 218.5t42.5 312.5t-42.5 313.5t-130.5 220t-210 82.5h-221q-22 -10 -47 -47v-1134z" />
<glyph unicode="E" horiz-adv-x="1175" d="M61 0v29q37 8 78 69l8 17v1206q-19 34 -40.5 55t-33.5 25l-12 4v29h830l117 -207h-41l-127 104h-457q-26 -17 -43 -45v-420q11 -16 23 -28t18 -16l6 -3h340q34 19 55 40.5t25 33.5l4 12h29v-274h-29q-1 5 -4.5 13t-24.5 31t-55 42h-340q-22 -10 -47 -47v-523 q17 -28 43 -45h559l133 127h39l-110 -229h-943z" />
<glyph unicode="F" horiz-adv-x="1038" d="M61 0v29q37 8 78 69l8 17v1206q-19 34 -40.5 55t-33.5 25l-12 4v29h799l117 -207h-41l-127 104h-426q-26 -17 -43 -45v-420q11 -16 23 -28t18 -16l6 -3h287q34 19 55 40.5t25 33.5l4 12h28v-274h-28q-1 5 -4.5 13t-24.5 31t-55 42h-287q-22 -10 -47 -47v-557 q19 -34 40.5 -55t33.5 -25l12 -4v-29h-365z" />
<glyph unicode="G" horiz-adv-x="1341" d="M61 719q0 213 84 382.5t244.5 268t370.5 98.5q101 0 222 -30.5t212 -85.5l-88 -326h-31q-6 92 -21.5 152t-50.5 104.5t-94 64t-149 19.5q-142 0 -253 -83.5t-171 -231t-60 -332.5q0 -290 133.5 -466.5t350.5 -176.5q164 0 241 26v609q-18 34 -40 55t-32 25t-14 4v28h365 v-28q-5 -1 -13 -4.5t-31 -24.5t-42 -55v-518q-24 -41 -47 -72.5t-50 -54.5t-49.5 -39t-55.5 -26t-56 -16t-64 -8.5t-66.5 -3t-76.5 -0.5q-135 0 -246 37t-188.5 104t-130.5 160.5t-78 205t-25 239.5z" />
<glyph unicode="H" horiz-adv-x="1298" d="M61 0v29q5 1 13 4.5t31 24.5t42 55v1208q-19 34 -40.5 55t-33.5 25l-12 4v29h365v-29q-5 -1 -13 -4.5t-31 -24.5t-42 -55v-461q11 -16 23 -28t18 -16l6 -3h524q22 10 47 47v461q-19 34 -40.5 55t-33.5 25l-12 4v29h365v-29q-5 -1 -13 -4.5t-31 -24.5t-42 -55v-1208 q19 -34 40.5 -55t33.5 -25l12 -4v-29h-365v29q5 1 13 4.5t31 24.5t42 55v551q-11 16 -23 28t-18 16l-6 3h-524q-22 -10 -47 -47v-551q19 -34 40.5 -55t33.5 -25l12 -4v-29h-365z" />
<glyph unicode="I" horiz-adv-x="487" d="M61 0v29q5 1 13 4.5t31 24.5t42 55v1208q-19 34 -40.5 55t-33.5 25l-12 4v29h365v-29q-5 -1 -13 -4.5t-31 -24.5t-42 -55v-1208q19 -34 40.5 -55t33.5 -25l12 -4v-29h-365z" />
<glyph unicode="J" horiz-adv-x="622" d="M61 -258q54 -26 94 -26q47 0 75 36q53 66 53 260v1309q-19 34 -40.5 55t-33.5 25l-12 4v29h364v-29q-5 -1 -13 -4.5t-31 -24.5t-42 -55v-1268q0 -109 -26.5 -192t-70 -128.5t-97.5 -65.5q-37 -14 -75 -14q-18 0 -36 3q-57 10 -109 45v41z" />
<glyph unicode="K" horiz-adv-x="1357" d="M61 0v29l5 2q4 2 13 7.5t19 14t23.5 24.5t25.5 36v1208q-12 20 -25.5 36t-23.5 24.5t-19 14t-13 7.5l-5 2v29h367v-29l-4 -2q-5 -2 -14 -7.5t-19 -14t-23.5 -24.5t-25.5 -36v-512l475 512q-12 20 -25.5 36t-23.5 24.5t-19 14t-13 7.5l-5 2v29h373v-29q-42 -16 -79 -37 t-53 -34l-16 -13l-442 -479l635 -731q53 -47 147 -82v-29h-528v29l4 2q5 2 14 7.5t19 14t23.5 24.5t25.5 36l-487 577l-25 -22v-555q12 -20 25.5 -36t23.5 -24.5t19 -14t14 -7.5l4 -2v-29h-367z" />
<glyph unicode="L" horiz-adv-x="1128" d="M61 0v29q5 1 13 4.5t31 24.5t42 55v1208q-19 34 -40.5 55t-33.5 25l-12 4v29h365v-29q-5 -1 -13 -4.5t-31 -24.5t-42 -55v-1174q11 -16 22.5 -27t17.5 -14l5 -4h504l141 129h37l-125 -231h-881z" />
<glyph unicode="M" horiz-adv-x="1583" d="M61 1405v29h365l381 -1123l395 1123h320v-29q-5 -1 -13 -4.5t-31 -24.5t-42 -55v-1208q19 -34 40.5 -55t33.5 -25l12 -4v-29h-365v29q5 1 13 4.5t31 24.5t42 55v1136l-395 -1134q-35 -21 -68 -49.5t-49 -47.5l-16 -18h-33l-422 1249v-1140q19 -32 40 -52t32 -24l12 -4 v-29h-268v29q5 1 13 4.5t31 24.5t42 55l-15 1212v-4q-37 64 -79 82z" />
<glyph unicode="N" horiz-adv-x="1308" d="M61 0v29q5 1 13 4.5t31 24.5t42 55v1192l-77 98v31h245l744 -973v860q-19 33 -40.5 54t-33.5 25l-12 5v29h274v-29l-5 -2q-4 -2 -13 -7.5t-19 -14t-23.5 -24.5t-25.5 -36v-1321h-35l-876 1180v-1067q12 -20 25.5 -36t23.5 -24.5t19 -14t14 -7.5l4 -2v-29h-275z" />
<glyph unicode="O" d="M61 711q0 -212 81 -379.5t234 -263t353 -95.5q195 0 345.5 95.5t231 263t80.5 379.5q0 218 -81 388.5t-231 266.5t-345 96q-201 0 -353.5 -96.5t-233.5 -266.5t-81 -388zM276 711q0 182 57.5 330t161.5 233.5t234 85.5q127 0 228.5 -85.5t157.5 -233.5t56 -330 q0 -173 -56 -318t-158 -231t-228 -86q-129 0 -233.5 86t-162 231t-57.5 318z" />
<glyph unicode="P" horiz-adv-x="1095" d="M61 0v29q5 1 13 4.5t31 24.5t42 55v1208q-19 34 -40.5 55t-33.5 25l-12 4v29h564q204 0 306.5 -109t102.5 -299q0 -220 -116.5 -327t-372.5 -107h-158q-22 -10 -47 -47v-432q19 -34 40.5 -55t33.5 -25l12 -4v-29h-365zM340 739q17 -28 43 -45h117q99 0 161 16.5 t99.5 57.5t52 101.5t14.5 156.5q0 167 -62.5 236t-227.5 69h-150q-22 -10 -47 -47v-545z" />
<glyph unicode="Q" d="M61 711q0 218 81 388t233.5 266.5t353.5 96.5q195 0 345 -96t231 -266.5t81 -388.5q0 -309 -166 -513t-442 -223l35 -2l184 -36l295 -166v-33h-260l-338 209q-46 27 -90 37q-249 43 -396 241.5t-147 485.5zM276 711q0 -173 57.5 -318t162 -231t233.5 -86q126 0 228 86 t158 231t56 318q0 182 -56 330t-157.5 233.5t-228.5 85.5q-130 0 -234 -85.5t-161.5 -233.5t-57.5 -330z" />
<glyph unicode="R" horiz-adv-x="1259" d="M61 0v29q5 1 13 4.5t31 24.5t42 55v1212q-19 32 -40 52t-33 24l-11 4v29h558q103 0 179.5 -29.5t121.5 -84t66.5 -125t21.5 -159.5q0 -161 -93 -256t-260 -116l134 -86l213 -388q45 -52 93.5 -92.5t74.5 -55.5l26 -15v-27h-309l-359 651h-143q-22 -10 -47 -47v-491 q19 -34 40.5 -55t33.5 -25l12 -4v-29h-365zM340 801q11 -16 23 -28t18 -15l6 -4h119q152 0 224.5 69.5t72.5 212.5q0 155 -71.5 225t-225.5 70h-119q-22 -10 -47 -47v-483z" />
<glyph unicode="S" horiz-adv-x="1038" d="M61 10v359h33q29 -75 64 -129t70 -86.5t79.5 -51t86.5 -24.5t98 -6q137 0 216.5 59t79.5 188q0 118 -62 195t-181 127l-154 66q-66 28 -113 53.5t-89.5 58.5t-68 69t-40 83.5t-14.5 105.5q0 170 129 278.5t323 108.5q98 0 206 -23.5t179 -60.5l-74 -282h-32 q-4 141 -76.5 202.5t-202.5 61.5q-114 0 -185 -48.5t-71 -148.5q0 -183 189 -256l198 -78q328 -131 328 -411q0 -206 -138.5 -328.5t-346.5 -122.5q-138 0 -211 25.5t-148 83.5l-39 -68h-33z" />
<glyph unicode="T" horiz-adv-x="1329" d="M61 1231l111 205h989l107 -205h-31l-129 102h-299q-22 -10 -47 -47v-1173q19 -34 40.5 -55t33.5 -25l12 -4v-29h-365v29q5 1 13 4.5t31 24.5t42 55v1173q-11 16 -23 28t-18 16l-6 3h-299l-127 -102h-35z" />
<glyph unicode="U" horiz-adv-x="1337" d="M61 1405v29h385v-29l-4 -2q-5 -2 -14 -7.5t-19 -14t-23.5 -24.5t-25.5 -36v-758q0 -76 6.5 -137.5t28.5 -128.5t57.5 -112.5t99 -75t148.5 -29.5q70 0 127 14t97 37t69.5 59.5t47 75.5t28.5 90.5t14.5 99.5t3.5 107v758q-12 20 -25.5 36t-23.5 24.5t-19 14t-13 7.5l-5 2 v29h275v-29l-4 -2q-5 -2 -14 -7.5t-19 -14t-23.5 -24.5t-25.5 -36v-758q0 -113 -11 -197t-43 -160.5t-85.5 -124.5t-141.5 -76t-209 -28q-166 0 -275.5 37t-170 115.5t-84 180.5t-23.5 253v758q-12 20 -25.5 36t-23.5 24.5t-19 14t-13 7.5z" />
<glyph unicode="V" horiz-adv-x="1390" d="M61 1405v29h379v-29q-5 -1 -13 -4.5t-31 -24.5t-42 -55l391 -1006l388 1006l-19 29q-16 22 -32.5 35.5t-25.5 16.5l-9 3v29h282v-29q-5 -1 -13 -4.5t-30 -23.5t-41 -52l-2 -4l-465 -1208q-5 -3 -14 -10.5t-30.5 -37t-37.5 -65.5h-37l-512 1321l-10 14q-17 28 -36 45.5 t-29 21.5z" />
<glyph unicode="W" horiz-adv-x="2052" d="M61 1405v29h400v-29q-5 -1 -13 -4.5t-31 -24t-42 -53.5l319 -930l301 928q8 5 21 13.5t43.5 38t50.5 61.5h31l352 -1069l305 954l-10 20q-17 26 -36 42.5t-30 20.5l-10 3v29h279v-29q-4 -1 -11.5 -4t-28 -20.5t-38.5 -45.5l-8 -16l-375 -1206q-3 0 -16 -9.5t-37.5 -37.5 t-46.5 -66h-31l-375 1087l-303 -972q-2 -1 -6 -3.5t-15 -12t-21 -21.5t-23 -33t-23 -45h-29l-459 1323q-19 33 -40 53.5t-33 24.5z" />
<glyph unicode="X" horiz-adv-x="1359" d="M61 1405v29h422v-29q-5 -1 -13 -4.5t-31 -24.5t-42 -55l310 -471l325 471l-4 8q-19 30 -39.5 49t-31.5 23l-11 4v29h295v-29q-15 -3 -35 -21q-34 -34 -51 -63l-389 -563l408 -643l4 -4q27 -30 55 -52q16 -11 32 -18.5t25 -9.5l8 -2v-29h-469v29q4 1 11.5 3.5t27.5 19.5 t37 44l10 19l-288 456l-308 -456l3 -4v2q19 -34 40.5 -55t33.5 -25l12 -4v-29h-338v29q7 1 19 5t42 22.5t53 45.5l9 13l374 549l-420 657q-19 34 -40.5 55t-33.5 25z" />
<glyph unicode="Y" horiz-adv-x="1202" d="M61 1405v29h416v-29q-5 -1 -13 -4.5t-31 -24.5t-42 -55v4l-2 -6l283 -547l270 549l-2 6q-18 31 -38.5 50.5t-31.5 23.5l-12 4v29h283v-29q-25 -4 -56 -41l-30 -43l-346 -715v-493q19 -34 40.5 -55t33.5 -25l12 -4v-29h-365v29q5 1 13 4.5t31 24.5t42 55v493l-369 713 l-18 29q-16 23 -33 37t-26 17z" />
<glyph unicode="Z" horiz-adv-x="1204" d="M61 0v29l775 1302h-521l-118 -102h-47l104 205h856v-29l-741 -1303h598l133 131h43l-131 -233h-951z" />
<glyph unicode="[" horiz-adv-x="706" d="M184 -123v1686h482v-82h-269q-22 -10 -47 -47v-1428q11 -16 23 -28t18 -16l6 -3h269v-82h-482z" />
<glyph unicode="\" horiz-adv-x="647" d="M-20 1405v29h96l592 -1405v-29h-101z" />
<glyph unicode="]" horiz-adv-x="706" d="M41 -41h268q22 10 47 47v1428q-11 16 -23 28t-18 16l-6 3h-268v82h479v-1686h-479v82z" />
<glyph unicode="^" horiz-adv-x="796" d="M61 958l287 469h98l289 -469h-119l-217 355l-221 -355h-117z" />
<glyph unicode="_" horiz-adv-x="1501" d="M123 -262h1229l26 102h-1228z" />
<glyph unicode="`" horiz-adv-x="284" d="M-41 1350v155l367 -174v-41z" />
<glyph unicode="a" horiz-adv-x="1024" d="M41 434q0 211 113 330t309 119q95 0 153 -23t113 -88q0 -2 15 8.5t41.5 37.5t50.5 63h41v-768q19 -34 40.5 -55t33.5 -25l12 -4v-29h-220l-38 109q-35 -66 -98 -101t-144 -35q-195 0 -308.5 123t-113.5 338zM221 434q0 -99 29.5 -185t85.5 -140t127 -54t127 54t85.5 140 t29.5 185q0 152 -66.5 259.5t-175.5 107.5q-107 0 -174.5 -108t-67.5 -259z" />
<glyph unicode="b" horiz-adv-x="1089" d="M61 0v29q6 0 16 3t36 23t45 54v1282q-19 34 -40.5 55t-33.5 25l-12 4v28q15 3 40 9t87 30.5t106 56.5h31v-815q82 117 250 117q201 0 321.5 -123.5t120.5 -339.5q0 -217 -120.5 -341t-321.5 -124q-143 0 -250 136l-41 -109h-234zM336 438q0 -102 28 -187.5t86 -140.5 t136 -55q76 0 134.5 54.5t88 141t29.5 187.5q0 100 -29.5 186t-88 140.5t-134.5 54.5q-78 0 -136 -55t-86 -140t-28 -186z" />
<glyph unicode="c" horiz-adv-x="899" d="M61 426q0 -207 114 -330t341 -123q113 0 187.5 36.5t134.5 142.5h-45q-95 -68 -140.5 -82.5t-124.5 -14.5q-137 0 -206.5 96.5t-69.5 274.5q0 182 66.5 286.5t209.5 104.5q51 0 86.5 -15.5t54.5 -46t28.5 -63t13.5 -78.5h37l47 220q-122 65 -267 65q-215 0 -341 -133.5 t-126 -339.5z" />
<glyph unicode="d" horiz-adv-x="1075" d="M61 430q0 229 116 350t327 121q165 0 244 -121v611q-19 34 -40.5 55t-33.5 25l-12 4v28q16 2 43 7t90 29t102 60h31v-1486q19 -34 40.5 -55t33.5 -25l12 -4v-29h-226l-40 113q-76 -140 -244 -140q-211 0 -327 117.5t-116 339.5zM252 430q0 -97 28.5 -181t87 -139 t136.5 -55q109 0 176.5 112.5t67.5 262.5q0 157 -67.5 273t-176.5 116q-78 0 -136.5 -56.5t-87 -143.5t-28.5 -189z" />
<glyph unicode="e" horiz-adv-x="927" d="M61 426v2q0 223 109 348t309 125q102 0 178.5 -30t121 -82.5t66 -118t21.5 -142.5v-43l-602 -118l-10 -9q12 -147 81 -225t193 -78q56 0 82 3.5t71 24.5t112 69h45q-60 -106 -134.5 -142.5t-187.5 -36.5q-227 0 -341 123t-114 330zM258 463l432 82q-11 140 -54.5 207 t-146.5 67q-65 0 -111.5 -28.5t-72 -80.5t-36.5 -112.5t-11 -134.5z" />
<glyph unicode="f" horiz-adv-x="743" d="M61 0v29q5 1 13 4.5t31 24.5t42 55v592q-19 34 -40.5 54.5t-33.5 24.5l-12 4v29l86 12v236q3 177 139 293.5t335 116.5h61l-43 -211h-21q-11 71 -40 94q-18 15 -56 15q-22 0 -51 -5q-16 -3 -31.5 -10t-37 -27t-37 -50t-26.5 -83t-11 -121v-223l211 27l-27 -86l-184 -25 v-657q19 -34 40.5 -55t33.5 -25l12 -4v-29h-353z" />
<glyph unicode="g" horiz-adv-x="1114" d="M61 20l127 84l201 46q-139 30 -225 126.5t-86 239.5q0 178 115.5 281.5t306.5 103.5q145 0 291 -80q87 21 159 60h37l-113 -191q48 -71 48 -174q0 -165 -102.5 -260t-282.5 -106q-36 -7 -89 -40.5t-88 -63.5l-34 -30q1 -3 3.5 -7.5t17 -17.5t35 -26t61.5 -29.5t94 -29.5 q28 -7 81.5 -20t80 -19.5t72.5 -19.5t69 -22t58.5 -24.5t54 -29.5t41 -34.5t33.5 -43t18.5 -50.5t7.5 -61q0 -66 -20.5 -115.5t-64 -78t-83 -46t-105.5 -24.5t-103 -8.5t-102 -1.5q-235 0 -373.5 84t-138.5 254q0 158 130 225q-9 4 -23 13.5t-49.5 48t-59.5 87.5zM248 -354 q0 -73 28 -125t78 -79.5t106 -39.5t124 -12q150 0 216 31t66 110q0 72 -74.5 114.5t-242.5 88.5q-34 10 -111 27t-112 32q-78 -74 -78 -147zM268 516q0 -124 61.5 -205.5t170.5 -81.5q110 0 170.5 81.5t60.5 205.5q0 127 -61 215t-170 88q-108 0 -170 -88t-62 -215z" />
<glyph unicode="h" horiz-adv-x="1085" d="M61 0v29q5 1 13 4.5t31.5 24t44.5 53.5v1198q-19 34 -41 55t-34 25l-12 4v28l218 103h36l9 -813q7 13 33 39.5t71.5 61.5t117.5 60t150 25q108 0 174 -68t66 -202v-514q19 -34 40.5 -55t33.5 -25l12 -4v-29h-352v29q5 1 13 4.5t31 24.5t42 55v528q0 64 -48 98.5 t-106 34.5q-11 1 -21 1q-35 -1 -69 -11q-44 -14 -73 -32t-57.5 -46t-38 -40.5t-19.5 -27.5v-507q19 -33 40.5 -53.5t33.5 -24.5l12 -4v-29h-351z" />
<glyph unicode="i" horiz-adv-x="475" d="M61 0v29q5 1 13 4.5t31 24.5t42 55v553q-19 34 -40.5 55t-33.5 25l-12 4v28q15 2 39.5 8t85.5 32.5t105 62.5h37v-768q19 -34 40.5 -55t33.5 -25l12 -4v-29h-353zM125 1270q0 45 34.5 80.5t76.5 35.5q50 0 85 -34.5t35 -81.5q0 -54 -34.5 -89.5t-85.5 -35.5 q-43 0 -77 36.5t-34 88.5z" />
<glyph unicode="j" horiz-adv-x="546" d="M61 -340q43 -19 77 -19q53 0 84 47q50 76 50 255v721q-19 34 -40.5 55t-33.5 25l-12 4v30q0 -2 38 9t96.5 37t99.5 57h33v-934q0 -101 -23.5 -178.5t-63.5 -120.5t-90 -62q-32 -11 -66 -11q-20 0 -40 3q-56 11 -109 47v35zM254 1276q0 45 34.5 81t76.5 36q50 0 85 -35 t35 -82q0 -54 -34.5 -89.5t-85.5 -35.5q-43 0 -77 36.5t-34 88.5z" />
<glyph unicode="k" horiz-adv-x="1081" d="M61 0v29l5 2q4 2 13 7.5t19 14t23.5 24.5t25.5 36v1271q-12 20 -25.5 36t-23.5 24.5t-19 14t-13 7.5l-5 2v29q17 3 44.5 9.5t90.5 33.5t99 62h33v-1059l260 260q-15 18 -30.5 30t-23.5 15l-8 4v29h342v-31q-91 -8 -157 -49l-254 -258l438 -465q26 -17 57.5 -29.5 t49.5 -16.5l18 -3v-29h-291l-41 51l-348 373l-12 -12v-299q12 -20 25.5 -36t23.5 -24.5t19 -14t14 -7.5l4 -2v-29h-353z" />
<glyph unicode="l" horiz-adv-x="475" d="M61 1487v29q17 3 45 8.5t90.5 27t98.5 47.5h33v-1486q19 -34 40.5 -55t33.5 -25l12 -4v-29h-351v29q5 1 13 4.5t30 23.5t41 52v1294q-19 34 -40.5 55t-33.5 25z" />
<glyph unicode="m" horiz-adv-x="1689" d="M61 0v29q5 1 13 4.5t31 24.5t42 55v551q-19 34 -40.5 55t-33.5 25l-12 4v28q10 3 27 9.5t63.5 33.5t84.5 62h28l64 -170q7 13 33 39.5t71.5 61.5t117.5 60t150 25q89 0 150 -46t82 -138q9 16 36.5 42.5t73 60.5t116 57.5t145.5 23.5q108 0 173.5 -68t65.5 -202v-514 q19 -34 40.5 -55t33.5 -25l12 -4v-29h-352v29q5 1 13 4.5t31 24.5t42 55v528q0 64 -48 98.5t-106 34.5q-11 1 -22 1q-38 0 -72 -11q-46 -14 -81 -40t-55.5 -46.5t-37.5 -42.5v-522q19 -34 40.5 -55t33.5 -25l12 -4v-29h-352v29q5 1 13 4.5t31 24.5t42 55v528q0 64 -48 98.5 t-106 34.5q-11 1 -23 1q-44 1 -86 -15q-53 -20 -87.5 -51t-54.5 -54t-27 -37v-505q19 -34 40.5 -55t33.5 -25l12 -4v-29h-353z" />
<glyph unicode="n" horiz-adv-x="1087" d="M61 0v29q5 1 13 4.5t31 24.5t42 55v551q-19 34 -40.5 55t-33.5 25l-12 4v28q10 3 27 9.5t63.5 33.5t84.5 62h28l64 -170q7 13 33 39.5t71.5 61.5t117.5 60t150 25q108 0 174 -68t66 -202v-514q19 -34 40.5 -55t33.5 -25l12 -4v-29h-352v29q5 1 13 4.5t31 24.5t42 55v528 q0 64 -48 98.5t-106 34.5q-11 1 -23 1q-44 1 -86 -15q-53 -20 -87.5 -51t-54.5 -54t-27 -37v-505q19 -34 40.5 -55t33.5 -25l12 -4v-29h-353z" />
<glyph unicode="o" horiz-adv-x="1003" d="M61 438q0 -218 118.5 -340.5t326.5 -122.5q196 0 316 124t120 339q0 213 -120 337t-316 124q-207 0 -326 -123t-119 -338zM256 438q0 102 29 187.5t86.5 138.5t132.5 53q111 0 177.5 -110.5t66.5 -268.5q0 -99 -26.5 -184.5t-82 -141t-129.5 -55.5q-112 0 -183 114.5 t-71 266.5z" />
<glyph unicode="p" horiz-adv-x="1091" d="M61 -700q5 1 13 4.5t31 24.5t42 55v1280q-19 34 -40.5 55t-33.5 25l-12 4v28q12 4 31.5 11.5t66.5 35t77 58.5h30l47 -115q76 137 271 137q214 0 330 -119t116 -340q0 -225 -120.5 -348t-325.5 -123q-80 0 -140.5 35.5t-115.5 104.5v-729q19 -34 40.5 -55t33.5 -25l12 -4 v-29h-353v29zM328 444q0 -103 29 -190t88.5 -143t138.5 -56q74 0 133.5 55.5t91 144t31.5 189.5q0 149 -72.5 263t-183.5 114q-79 0 -138.5 -55.5t-88.5 -140t-29 -181.5z" />
<glyph unicode="q" horiz-adv-x="1079" d="M61 438q0 222 114 342.5t317 120.5q97 0 171.5 -35t108.5 -104q7 3 19.5 9.5t45 35t56.5 67.5h39v-1490q19 -34 40.5 -55t33.5 -25l12 -4v-29h-352v29q5 1 13 4.5t31 24.5t42 55v716q-41 -56 -110.5 -91.5t-149.5 -35.5q-202 0 -316.5 123t-114.5 342zM252 438 q0 -156 68 -269.5t172 -113.5q119 0 189.5 112t70.5 271q0 164 -69.5 272.5t-190.5 108.5q-106 0 -173 -110t-67 -271z" />
<glyph unicode="r" horiz-adv-x="659" d="M61 0v29q5 1 13 4.5t31 24.5t42 55v551q-19 34 -40.5 55t-33.5 25l-12 4v28q11 3 29.5 9.5t68 33t89.5 62.5h33l47 -174q3 2 26.5 26.5t51 50t80 55t112.5 44.5l-43 -160q-16 3 -32 3q-17 0 -35 -4q-34 -6 -60 -22.5t-45 -32t-36 -32.5l-19 -19v-503q19 -34 40.5 -55 t33.5 -25l12 -4v-29h-353z" />
<glyph unicode="s" horiz-adv-x="786" d="M61 2v272h29q48 -221 287 -221q89 0 150 38.5t61 98.5q0 74 -45 118.5t-131 74.5l-117 41q-232 82 -232 233q0 111 91 177.5t233 66.5q166 0 256 -53l-39 -176h-24q-9 44 -24 73t-28.5 43.5t-41.5 21.5t-44 8t-55 1q-75 0 -119.5 -33t-44.5 -75q0 -19 3 -34.5t11 -27 t14 -19t21.5 -16t23 -12t28 -11.5t28.5 -11l129 -39q244 -83 244 -281q0 -138 -96 -213.5t-252 -75.5q-44 0 -76.5 3t-63 14t-40 14t-43.5 23t-37 22l-23 -45h-33z" />
<glyph unicode="t" horiz-adv-x="659" d="M61 799v28q121 206 232 512h33v-471l159 13l-8 -82l-151 -15v-583q0 -77 26 -112.5t84 -35.5q36 0 71 19.5t54 60.5h37q-56 -162 -215 -162q-120 0 -179 67.5t-59 186.5v494q-19 32 -40 52t-33 24z" />
<glyph unicode="u" horiz-adv-x="1112" d="M61 748v28q14 2 38 7t85 31.5t107 66.5h37v-650q0 -70 48 -104.5t120 -34.5q33 0 68 9.5t61.5 21.5t56 31t45 31.5t36 29.5t21.5 18v433q-19 34 -40.5 55t-33.5 25l-12 4v28q9 0 43.5 8.5t93 34t99.5 60.5h31v-768q19 -34 40.5 -55t33.5 -25l12 -4v-29h-222l-55 115 q-12 -13 -36 -32t-68.5 -46.5t-110 -46.5t-135.5 -19q-52 0 -100.5 18t-88.5 52t-64 89t-24 124v410q-19 34 -40.5 55t-33.5 25z" />
<glyph unicode="v" horiz-adv-x="1034" d="M61 852v29h373v-29q-4 -1 -11.5 -4t-28.5 -21.5t-38 -46.5l-8 -12l211 -539l229 539q-19 34 -40.5 55t-33.5 25l-12 4v29h271v-29q-5 -1 -13 -4.5t-31 -24.5t-42 -55l-326 -768h-98l-316 768l-16 27q-16 23 -33.5 37t-27.5 17z" />
<glyph unicode="w" horiz-adv-x="1523" d="M61 852v29h361v-29q-5 -1 -13 -4.5t-31 -24.5t-42 -55l192 -520l189 502q57 55 98 131h31l252 -627l186 514q-19 34 -40.5 55t-33.5 25l-12 4v29h264v-29q-16 -5 -39 -25q-14 -14 -45 -57l-274 -770h-115l-227 629l-215 -629h-127l-273 770v-2q-19 34 -40.5 55t-33.5 25z " />
<glyph unicode="x" horiz-adv-x="1107" d="M61 0v29q8 2 20.5 6t44 24.5t54.5 49.5l4 4l277 323l-260 332q-19 25 -40.5 46t-33.5 30l-12 8v29h403v-29q-5 -1 -13 -4t-30.5 -23t-40.5 -53l-2 -2l146 -203l170 203l-17 27q-16 23 -33.5 36.5t-26.5 16.5l-9 2v29h288v-29q-47 -27 -86 -82l-229 -274l291 -385l26 -31 q21 -18 44.5 -31t37.5 -17l13 -3v-29h-439v29q5 1 13 4t31 23.5t42 54.5v2l-182 252l-205 -252v-2q19 -34 40.5 -54.5t33.5 -24.5l12 -3v-29h-332z" />
<glyph unicode="y" horiz-adv-x="1058" d="M61 852v29h375v-29q-5 -1 -13 -4.5t-31 -24.5t-42 -55l234 -545l231 545q-19 34 -40.5 55t-33.5 25l-12 4v29h268v-29q-18 -4 -43 -27q-23 -23 -43 -57l-430 -1024q-28 -62 -58.5 -103t-69.5 -65q-32 -19 -69 -19q-9 0 -18 1q-49 6 -106 41v32q33 -11 61 -12.5t49.5 7.5 t38 21t31 34.5t24 41.5t21.5 48l107 229l-345 768q-19 34 -40.5 55t-33.5 25z" />
<glyph unicode="z" horiz-adv-x="942" d="M61 0v29l525 770h-314l-110 -51h-33l102 133h603v-29l-498 -770h436l78 90h31l-80 -172h-740z" />
<glyph unicode="{" horiz-adv-x="665" d="M61 692v58q70 0 116 54.5t46 141.5v352q0 48 12.5 86.5t33.5 65.5t53 47.5t66.5 32.5t79 19t86 9.5t91.5 2.5v-56q-35 0 -68 -5.5t-68.5 -21t-61.5 -39.5t-43 -66t-17 -97v-342q0 -4 1.5 -36.5t0 -53t-5.5 -49t-16 -46t-31 -22.5l-43 -12l43 -13q16 -4 27 -13t16.5 -19 t7.5 -29t2 -32t-1 -38.5t-1 -40.5v-366q0 -68 24.5 -115.5t66 -70t81.5 -31t86 -8.5v-62q-72 0 -127.5 5t-113.5 21.5t-95.5 44.5t-61.5 77t-24 116v342q0 91 -46 150t-116 59z" />
<glyph unicode="|" horiz-adv-x="471" d="M184 0v1434h103v-1434h-103z" />
<glyph unicode="}" horiz-adv-x="665" d="M20 -61q46 0 86 8.5t82 31t66.5 70t24.5 115.5v366q0 15 -1 40.5t-1 38.5t2 32t7.5 29t16.5 19t27 13l43 13l-43 12q-19 5 -31 22.5t-16 46t-5.5 49t0 53t1.5 36.5v342q0 55 -17 97t-43 66t-62 39.5t-69 21t-68 5.5v56q50 0 91.5 -2.5t86 -9.5t79 -19t66.5 -32.5 t53 -47.5t33.5 -65.5t12.5 -86.5v-352q0 -87 46 -141.5t116 -54.5v-58q-70 0 -116 -59t-46 -150v-342q0 -67 -24 -116t-61.5 -77t-95.5 -44.5t-113.5 -21.5t-127.5 -5v62z" />
<glyph unicode="~" horiz-adv-x="976" d="M123 428q1 9 3.5 24t18 54t38.5 68.5t69 54t106 24.5q47 0 89 -18.5t68 -40.5t61.5 -40.5t70.5 -18.5q37 0 68 13.5t48.5 32t29.5 37.5t16 32l4 14h41q0 -5 -1.5 -13t-8 -32t-15.5 -45.5t-27.5 -47.5t-42 -45t-59.5 -32t-79 -13q-47 0 -89.5 19t-69 41.5t-62.5 41.5 t-70 19q-37 0 -68 -13.5t-48.5 -32t-29.5 -37.5t-16 -32l-4 -14h-41z" />
<glyph unicode="&#xa1;" horiz-adv-x="559" d="M164 1309q0 -45 34 -81t76 -36q50 0 85.5 35t35.5 82q0 54 -35 89.5t-86 35.5q-43 0 -76.5 -36.5t-33.5 -88.5zM182 -29h193v820l-45 225h-105l-43 -225v-820z" />
<glyph unicode="&#xa2;" horiz-adv-x="899" d="M61 426q0 184 102 312t279 155v205h103v-199q132 -3 250 -65l-47 -220h-37q-3 34 -8.5 60.5t-17.5 53.5t-29.5 44.5t-45.5 30t-65 14.5v-762q66 0 111.5 16t136.5 81h45q-57 -100 -125.5 -138t-167.5 -41v-186h-103v190q-191 20 -286 139.5t-95 309.5zM252 426 q0 -304 190 -358v737q-190 -58 -190 -379z" />
<glyph unicode="&#xa3;" horiz-adv-x="1132" d="M61 0v29q5 1 13 4.5t31 24.5t42 55q82 272 93 524h-138l27 102h111q2 128 16 230t49 197.5t90.5 159t144 101t205.5 37.5q80 0 167 -29.5t159 -93.5l-80 -264h-28q0 86 -19 145.5t-53 88.5t-69 40t-79 11q-59 0 -106 -17t-79.5 -44.5t-56 -74t-37 -94.5t-21 -117 t-10.5 -130.5t-3 -145.5h307l-26 -102h-283q-12 -250 -59 -444h503l144 135h26l-118 -328h-863z" />
<glyph unicode="&#xa4;" horiz-adv-x="802" d="M102 555l88 86q-53 64 -53 162q0 51 12 87t41 73l-88 90l52 49l88 -90q64 53 161 53q93 0 160 -53l88 90l47 -51l-86 -88q52 -66 52 -162q0 -91 -52 -160l88 -88l-51 -49l-88 86q-60 -49 -160 -49q-96 0 -161 49l-88 -88zM219 801q0 -67 57 -122.5t125 -55.5t124.5 55.5 t56.5 122.5q0 69 -56.5 125.5t-124.5 56.5t-125 -56.5t-57 -125.5z" />
<glyph unicode="&#xa5;" horiz-adv-x="1202" d="M61 1405v29h416v-29q-5 -1 -13 -4.5t-31 -24.5t-42 -55v4l-2 -6l283 -547l270 549l-2 6q-18 31 -38.5 50.5t-31.5 23.5l-12 4v29h283v-29q-25 -4 -56 -41l-30 -43l-267 -549h240l-27 -102h-262l-30 -64v-63h270l-27 -103h-243v-327q19 -34 40.5 -55t33.5 -25l12 -4v-29 h-365v29q5 1 13 4.5t31 24.5t42 55v327h-321l26 103h295v63l-33 64h-239l26 102h160l-283 547l-18 29q-16 23 -33 37t-26 17z" />
<glyph unicode="&#xa6;" horiz-adv-x="471" d="M184 0v559h103v-559h-103zM184 874v560h103v-560h-103z" />
<glyph unicode="&#xa7;" horiz-adv-x="1163" d="M61 -25h39q45 -95 95 -157t109 -93t115 -42t132 -11q62 0 104.5 3t88.5 13.5t73 29t44.5 52t17.5 80.5q0 49 -13 87.5t-33 65.5t-57.5 52.5t-71.5 42t-90 39.5l-182 62q-96 41 -155.5 72.5t-113 74t-78 95t-24.5 118.5q0 163 132 246q-132 99 -132 250q0 118 68 212.5 t183 145.5t255 51q100 0 222.5 -27t209.5 -61l-81 -282h-23q-12 136 -98.5 201t-229.5 65q-128 0 -204 -52t-76 -157q0 -179 196 -264l228 -78q83 -33 145.5 -70.5t114.5 -89t79 -120t27 -152.5q0 -144 -51 -215q76 -82 76 -207q0 -78 -28.5 -142t-78.5 -109t-119.5 -76 t-151 -45.5t-173.5 -14.5q-157 0 -240.5 27t-167.5 92l-43 -78h-39v366zM287 664q0 -100 62 -166.5t161 -98.5l223 -80q89 -29 146 -57v19q0 218 -265 327l-182 80q-63 21 -127 51q-18 -43 -18 -75z" />
<glyph unicode="&#xa8;" horiz-adv-x="366" d="M-102 1333q0 41 29 71t69 30q41 0 70.5 -30t29.5 -71t-29.5 -69.5t-70.5 -28.5q-40 0 -69 28.5t-29 69.5zM270 1333q0 41 29.5 71t69.5 30q41 0 70.5 -30t29.5 -71t-29.5 -69.5t-70.5 -28.5q-40 0 -69.5 28.5t-29.5 69.5z" />
<glyph unicode="&#xa9;" horiz-adv-x="1658" d="M82 721q0 153 59 292.5t159 240t238 160t291 59.5t291.5 -59.5t238.5 -160t159 -240t59 -292.5q0 -202 -100 -373.5t-272.5 -272t-375.5 -100.5t-375.5 100.5t-272 272t-99.5 373.5zM184 721q0 -135 50 -254t135.5 -204.5t205 -135t254.5 -49.5q180 0 328 84t233 231.5 t85 327.5t-85 329t-233 234.5t-328 85.5q-135 0 -254.5 -50.5t-205 -137t-135.5 -206.5t-50 -255zM397 694q0 -207 113.5 -329.5t341.5 -122.5q113 0 187.5 36t134.5 142h-46q-95 -68 -140 -82t-124 -14q-137 0 -206.5 96t-69.5 274q0 182 66.5 286.5t209.5 104.5 q51 0 86.5 -15.5t54.5 -45.5t28.5 -63t13.5 -78h36l47 219q-122 65 -266 65q-215 0 -341 -133.5t-126 -339.5z" />
<glyph unicode="&#xab;" horiz-adv-x="735" d="M82 481v43l256 297h43l-113 -319l113 -322h-43zM334 481v43l256 297h43l-113 -319l113 -322h-43z" />
<glyph unicode="&#xac;" horiz-adv-x="817" d="M123 545v102h571v-239h-102v90q-11 16 -23 28t-18 16l-6 3h-422z" />
<glyph unicode="&#xad;" horiz-adv-x="907" d="M61 483h758l27 103h-758z" />
<glyph unicode="&#xae;" horiz-adv-x="1658" d="M82 721q0 153 59 292.5t159 240t238 160t291 59.5t291.5 -59.5t238.5 -160t159 -240t59 -292.5q0 -202 -100 -373.5t-272.5 -272t-375.5 -100.5t-375.5 100.5t-272 272t-99.5 373.5zM184 721q0 -135 50 -254t135.5 -204.5t205 -135t254.5 -49.5q180 0 328 84t233 231.5 t85 327.5t-85 329t-233 234.5t-328 85.5q-135 0 -254.5 -50.5t-205 -137t-135.5 -206.5t-50 -255zM518 268v21q26 2 53 49v743q-12 20 -24.5 33t-19.5 16l-7 3v16h340q126 0 184 -66t58 -180q0 -98 -57 -156.5t-160 -70.5l82 -51l131 -240q27 -32 57 -56.5t46 -32.5l16 -9 v-19h-191l-219 402h-88q-15 -6 -31 -29v-303q13 -21 26.5 -33t21.5 -14l7 -2v-21h-225zM688 760q7 -10 15 -17.5t12 -9.5l4 -2h74q180 0 180 172q0 96 -43.5 140t-136.5 44h-74q-15 -10 -31 -28v-299z" />
<glyph unicode="&#xaf;" horiz-adv-x="497" d="M0 563h471l27 103h-471z" />
<glyph unicode="&#xb0;" horiz-adv-x="671" d="M82 1210q0 104 75 179t179 75t179 -75t75 -179t-75 -179t-179 -75t-179 75t-75 179zM184 1210q0 -61 43.5 -106t108.5 -45q66 0 108.5 44.5t42.5 106.5q0 65 -43.5 108.5t-107.5 43.5q-62 0 -107 -44.5t-45 -107.5z" />
<glyph unicode="&#xb1;" horiz-adv-x="745" d="M61 160l27 102h596l-27 -102h-596zM92 633v102h252v250h102v-250h238v-102h-240v-258h-102v258h-250z" />
<glyph unicode="&#xb2;" horiz-adv-x="471" d="M61 1036v6q226 211 226 344q0 95 -70 95q-43 0 -64.5 -13.5t-39.5 -40.5h-21q1 2 10 19.5t16 25.5t22 20.5t38 18t55 5.5q58 0 89.5 -33t31.5 -92q0 -41 -18 -80.5t-36.5 -62.5t-67 -74.5t-72.5 -79.5h190l45 51h15l-56 -109h-293z" />
<glyph unicode="&#xb3;" horiz-adv-x="411" d="M61 1120h23q18 -30 40 -43.5t58 -13.5q47 0 73 31t26 88q0 59 -24 92.5t-69 36.5l-47 -6v8l117 139h-170v8q19 17 23 58h237v-11l-145 -176q66 -3 106 -40.5t41 -108.5q3 -73 -39 -110.5t-129 -37.5q-51 0 -78 21t-43 65z" />
<glyph unicode="&#xb4;" horiz-adv-x="284" d="M-41 1290v41l367 174v-155z" />
<glyph unicode="&#xb6;" horiz-adv-x="1042" d="M-20 1055q0 164 115.5 271.5t283.5 107.5h622v-78h-133q-22 -10 -47 -47v-1309h-102v1309q-11 16 -23 28t-18 15l-6 4h-123q-22 -10 -47 -47v-1309h-103v686h-20q-169 0 -284 103t-115 266z" />
<glyph unicode="&#xb7;" horiz-adv-x="434" d="M102 618q0 46 34 80.5t81 34.5t81 -34.5t34 -80.5q0 -47 -34 -80.5t-81 -33.5t-81 33.5t-34 80.5z" />
<glyph unicode="&#xb8;" horiz-adv-x="290" d="M41 -373l31 70q51 -39 110 -39q27 0 45 6t24.5 17.5t8.5 19.5t2 20q0 15 -2.5 27t-20.5 25.5t-51 13.5h-51l-26 25l69 168h76l-49 -127h26q42 0 70.5 -35t28.5 -97q0 -70 -35 -102.5t-117 -32.5q-34 0 -68.5 10t-52.5 20z" />
<glyph unicode="&#xb9;" horiz-adv-x="270" d="M61 1436v10q3 0 17.5 7.5t38.5 25.5t43 39h8v-441q7 -12 17.5 -19t16.5 -8l7 -1v-11h-143v11q20 1 38 28v330q-8 12 -19 19.5t-17 8.5z" />
<glyph unicode="&#xbb;" horiz-adv-x="735" d="M102 180l113 322l-113 319h43l256 -297v-43l-256 -301h-43zM354 180l113 322l-113 319h43l256 -297v-43l-256 -301h-43z" />
<glyph unicode="&#xbc;" horiz-adv-x="1347" d="M61 1280v18q7 0 32.5 14t68.5 47.5t78 74.5h18v-813q14 -21 32.5 -33.5t29.5 -14.5l12 -2v-18h-260v18q36 3 67 50v606q-14 22 -33.5 35t-31.5 16zM152 0v29l917 1405h96v-29l-913 -1405h-100zM725 215v18l428 648h25v-607h108l-20 -59h-88v-145q12 -16 29 -29t27 -18 l11 -5v-18h-258v18q50 17 68 52v145h-330zM852 281l219 -7v351z" />
<glyph unicode="&#xbd;" horiz-adv-x="1560" d="M61 1280v18q7 0 32.5 14t68.5 47.5t78 74.5h18v-813q14 -21 32.5 -33.5t29.5 -14.5l12 -2v-18h-260v18q36 3 67 50v606q-14 22 -33.5 35t-31.5 16zM152 0v29l917 1405h96v-29l-913 -1405h-100zM846 -2v22q42 37 87.5 81t107.5 115.5t109 141t80.5 152.5t33.5 154 q0 90 -29.5 132t-101.5 42q-134 0 -185 -101h-37q2 5 9.5 22t12 26.5t15.5 26.5t22 27.5t30.5 23.5t42 20.5t54.5 12.5t70 5q112 0 169 -61t57 -172q0 -63 -16.5 -116.5t-55.5 -108.5t-74.5 -95t-104.5 -112.5t-114 -124.5h365l84 88h22l-100 -201h-553z" />
<glyph unicode="&#xbe;" horiz-adv-x="1513" d="M61 700h43q31 -58 72.5 -85t112.5 -27q87 0 133.5 57.5t46.5 163.5q0 110 -43 173t-129 67q-36 0 -58.5 -2.5t-26.5 -5.5l-5 -3v19l223 256h-317v16q31 29 39 105h442v-17l-275 -327q124 -6 199.5 -76.5t79.5 -204.5q6 -131 -72.5 -199.5t-236.5 -68.5q-67 0 -111 18.5 t-69 51t-48 89.5zM346 0v29l918 1405h96v-29l-914 -1405h-100zM891 215v18l428 648h24v-607h109l-20 -59h-89v-145q12 -16 29 -29t28 -18l11 -5v-18h-258v18q50 17 68 52v145h-330zM1018 281l219 -7v351z" />
<glyph unicode="&#xbf;" horiz-adv-x="860" d="M61 254q1 -144 104 -213.5t277 -69.5q167 0 262 67.5t95 201.5v24h-66q-5 -64 -32.5 -108t-71.5 -65.5t-88.5 -30t-96.5 -7.5q-172 2 -172 195q0 70 27 135.5t66 122t77.5 119t66 152.5t28.5 196v69h-95v-67q-2 -72 -24 -138t-56 -116t-74.5 -97t-80.5 -90.5t-73 -85.5 t-53 -92t-20 -102zM371 1339q0 -46 35.5 -81t85.5 -35q42 0 76 35.5t34 80.5q0 52 -33.5 88.5t-76.5 36.5q-51 0 -86 -35.5t-35 -89.5z" />
<glyph unicode="&#xc0;" horiz-adv-x="1449" d="M61 0v29q5 1 13 4.5t31 24.5t42 55l490 1198q53 53 92 127h35l541 -1325q19 -34 40 -54.5t33 -24.5l11 -3v-31h-416v31q5 1 13 4.5t31 24t42 53.5l-119 305h-553l-115 -305q19 -34 40.5 -55t33.5 -25l12 -4v-29h-297zM424 520h481l-235 594zM555 1548v156l367 -174v-41z " />
<glyph unicode="&#xc1;" horiz-adv-x="1449" d="M61 0v29q5 1 13 4.5t31 24.5t42 55l490 1198q53 53 92 127h35l541 -1325q19 -34 40 -54.5t33 -24.5l11 -3v-31h-416v31q5 1 13 4.5t31 24t42 53.5l-119 305h-553l-115 -305q19 -34 40.5 -55t33.5 -25l12 -4v-29h-297zM424 520h481l-235 594zM528 1489v41l367 174v-156z " />
<glyph unicode="&#xc2;" horiz-adv-x="1449" d="M61 0v29q5 1 13 4.5t31 24.5t42 55l490 1198q53 53 92 127h35l541 -1325q19 -34 40 -54.5t33 -24.5l11 -3v-31h-416v31q5 1 13 4.5t31 24t42 53.5l-119 305h-553l-115 -305q19 -34 40.5 -55t33.5 -25l12 -4v-29h-297zM424 520h481l-235 594zM496 1511v35l243 195 l242 -195v-35l-242 78z" />
<glyph unicode="&#xc3;" horiz-adv-x="1449" d="M61 0v29q5 1 13 4.5t31 24.5t42 55l490 1198q53 53 92 127h35l541 -1325q19 -34 40 -54.5t33 -24.5l11 -3v-31h-416v31q5 1 13 4.5t31 24t42 53.5l-119 305h-553l-115 -305q19 -34 40.5 -55t33.5 -25l12 -4v-29h-297zM424 520h481l-235 594zM508 1556q46 44 82 64t78 20 q35 0 82.5 -25.5t68.5 -25.5q43 0 96 53l48 -45q-84 -81 -156 -81q-32 0 -77 26.5t-75 26.5q-27 0 -46 -12t-52 -44z" />
<glyph unicode="&#xc4;" horiz-adv-x="1449" d="M61 0v29q5 1 13 4.5t31 24.5t42 55l490 1198q53 53 92 127h35l541 -1325q19 -34 40 -54.5t33 -24.5l11 -3v-31h-416v31q5 1 13 4.5t31 24t42 53.5l-119 305h-553l-115 -305q19 -34 40.5 -55t33.5 -25l12 -4v-29h-297zM424 520h481l-235 594zM444 1616q0 41 29.5 70.5 t69.5 29.5q41 0 70.5 -29.5t29.5 -70.5t-29.5 -69.5t-70.5 -28.5q-40 0 -69.5 28.5t-29.5 69.5zM817 1616q0 41 29 70.5t69 29.5q41 0 71 -29.5t30 -70.5t-29.5 -69.5t-71.5 -28.5q-40 0 -69 28.5t-29 69.5z" />
<glyph unicode="&#xc5;" horiz-adv-x="1449" d="M61 0v29q5 1 13 4.5t31 24.5t42 55l490 1198q53 53 92 127h35l541 -1325q19 -34 40 -54.5t33 -24.5l11 -3v-31h-416v31q5 1 13 4.5t31 24t42 53.5l-119 305h-553l-115 -305q19 -34 40.5 -55t33.5 -25l12 -4v-29h-297zM424 520h481l-235 594zM600 1614q0 53 38.5 91 t92.5 38t92.5 -38t38.5 -91q0 -55 -38.5 -93t-92.5 -38t-92.5 38t-38.5 93zM653 1614q0 -33 22.5 -56.5t55.5 -23.5t55.5 23.5t22.5 56.5q0 32 -23 55t-55 23t-55 -23.5t-23 -54.5z" />
<glyph unicode="&#xc6;" horiz-adv-x="1863" d="M-20 0v29q5 1 13 4.5t31 24.5t42 55l770 1208q-19 34 -40.5 55t-33.5 25l-12 4v29h829l117 -207h-41l-127 104h-457q-26 -17 -43 -45v-41l4 -385q10 -15 21 -25t17 -13l5 -3h340q34 19 55 40.5t25 33.5l4 12h29v-274h-29q-1 5 -4.5 13t-24.5 31t-55 42h-340 q-18 -8 -41 -39l6 -547q17 -20 31 -29h559l133 127h39l-110 -229h-953v23l11 2v4q36 8 77 69l9 17v354h-426l-222 -358q19 -33 40.5 -53.5t33.5 -24.5l12 -4v-29h-294zM485 573l351 -4v568z" />
<glyph unicode="&#xc7;" horiz-adv-x="1263" d="M61 729q0 155 47.5 289t134.5 233t218.5 156t292.5 57q106 0 221 -29.5t207 -86.5l-86 -320h-33q-6 91 -22 149.5t-51.5 102.5t-96 63t-152.5 19q-140 -7 -245.5 -89t-162.5 -223t-57 -321q0 -297 132 -475t346 -178q133 0 213.5 39t189.5 149h45q-46 -85 -99 -143 t-112.5 -89.5t-120 -44.5t-135.5 -14l-47 -120h27q42 0 70 -35t28 -97q0 -70 -34.5 -102.5t-116.5 -32.5q-34 0 -69 10t-53 20l-18 11l31 70q52 -39 111 -39q27 0 44.5 6t24.5 17.5t8.5 19.5t1.5 20q0 11 -1.5 19t-7.5 20.5t-22.5 19.5t-41.5 7h-52l-26 25l67 163 q-153 11 -269 71.5t-187.5 161.5t-106.5 231.5t-35 289.5z" />
<glyph unicode="&#xc8;" horiz-adv-x="1175" d="M61 0v29q37 8 78 69l8 17v1206q-19 34 -40.5 55t-33.5 25l-12 4v29h830l117 -207h-41l-127 104h-457q-26 -17 -43 -45v-420q11 -16 23 -28t18 -16l6 -3h340q34 19 55 40.5t25 33.5l4 12h29v-274h-29q-1 5 -4.5 13t-24.5 31t-55 42h-340q-22 -10 -47 -47v-523 q17 -28 43 -45h559l133 127h39l-110 -229h-943zM367 1548v156l366 -174v-41z" />
<glyph unicode="&#xc9;" horiz-adv-x="1175" d="M61 0v29q37 8 78 69l8 17v1206q-19 34 -40.5 55t-33.5 25l-12 4v29h830l117 -207h-41l-127 104h-457q-26 -17 -43 -45v-420q11 -16 23 -28t18 -16l6 -3h340q34 19 55 40.5t25 33.5l4 12h29v-274h-29q-1 5 -4.5 13t-24.5 31t-55 42h-340q-22 -10 -47 -47v-523 q17 -28 43 -45h559l133 127h39l-110 -229h-943zM387 1489v41l367 174v-156z" />
<glyph unicode="&#xca;" horiz-adv-x="1175" d="M61 0v29q37 8 78 69l8 17v1206q-19 34 -40.5 55t-33.5 25l-12 4v29h830l117 -207h-41l-127 104h-457q-26 -17 -43 -45v-420q11 -16 23 -28t18 -16l6 -3h340q34 19 55 40.5t25 33.5l4 12h29v-274h-29q-1 5 -4.5 13t-24.5 31t-55 42h-340q-22 -10 -47 -47v-523 q17 -28 43 -45h559l133 127h39l-110 -229h-943zM299 1511v35l244 195l241 -195v-35l-241 78z" />
<glyph unicode="&#xcb;" horiz-adv-x="1175" d="M61 0v29q37 8 78 69l8 17v1206q-19 34 -40.5 55t-33.5 25l-12 4v29h830l117 -207h-41l-127 104h-457q-26 -17 -43 -45v-420q11 -16 23 -28t18 -16l6 -3h340q34 19 55 40.5t25 33.5l4 12h29v-274h-29q-1 5 -4.5 13t-24.5 31t-55 42h-340q-22 -10 -47 -47v-523 q17 -28 43 -45h559l133 127h39l-110 -229h-943zM248 1616q0 41 29 70.5t69 29.5q41 0 70.5 -29.5t29.5 -70.5t-29.5 -69.5t-70.5 -28.5q-40 0 -69 28.5t-29 69.5zM621 1616q0 41 29 70.5t69 29.5q41 0 70.5 -29.5t29.5 -70.5t-29.5 -69.5t-70.5 -28.5q-40 0 -69 28.5 t-29 69.5z" />
<glyph unicode="&#xcc;" horiz-adv-x="489" d="M61 0v29q5 1 13 4.5t31 24.5t42 55v1208q-19 34 -40.5 55t-33.5 25l-12 4v29h365v-29q-5 -1 -13 -4.5t-31 -24.5t-42 -55v-1208q19 -34 40.5 -55t33.5 -25l12 -4v-29h-365zM61 1548v156l367 -174v-41z" />
<glyph unicode="&#xcd;" horiz-adv-x="495" d="M61 1509v41l367 174v-155zM70 0v29q5 1 13 4.5t31 24.5t42 55v1208q-19 34 -40.5 55t-33.5 25l-12 4v29h364v-29q-5 -1 -13 -4.5t-31 -24.5t-42 -55v-1208q19 -34 40.5 -55t33.5 -25l12 -4v-29h-364z" />
<glyph unicode="&#xce;" horiz-adv-x="608" d="M61 1511v35l244 195l242 -195v-35l-242 78zM125 0v29q5 1 13 4.5t31 24.5t42 55v1208q-19 34 -40.5 55t-33.5 25l-12 4v29h364v-29q-5 -1 -13 -4.5t-31 -24.5t-42 -55v-1208q19 -34 40.5 -55t33.5 -25l12 -4v-29h-364z" />
<glyph unicode="&#xcf;" horiz-adv-x="694" d="M61 1616q0 41 29.5 70.5t69.5 29.5q41 0 70.5 -29.5t29.5 -70.5t-29.5 -69.5t-70.5 -28.5q-40 0 -69.5 28.5t-29.5 69.5zM160 0v29q5 1 13 4.5t31 24.5t42 55v1208q-19 34 -40.5 55t-33.5 25l-12 4v29h364v-29q-5 -1 -13 -4.5t-31 -24.5t-42 -55v-1208q19 -34 40.5 -55 t33.5 -25l12 -4v-29h-364zM434 1616q0 41 29 70.5t69 29.5q41 0 71 -29.5t30 -70.5t-29.5 -69.5t-71.5 -28.5q-40 0 -69 28.5t-29 69.5z" />
<glyph unicode="&#xd0;" horiz-adv-x="1331" d="M61 641l27 102h123v582q-12 19 -25 34t-23 23t-18.5 13.5t-12.5 7.5l-5 2v29h545q146 0 260.5 -54t188 -150.5t111.5 -227t38 -287.5q0 -159 -38 -289.5t-111.5 -225.5t-188 -147.5t-260.5 -52.5h-547v29l5 2q4 2 13 7.5t19 14t23.5 24.5t25.5 36v528h-150zM403 150 q11 -16 23 -28t18 -16l7 -4h221q122 0 210 82t130.5 218.5t42.5 312.5t-42.5 313.5t-130.5 220t-210 82.5h-221q-23 -10 -48 -47v-541h156l-27 -102h-129v-491z" />
<glyph unicode="&#xd1;" horiz-adv-x="1308" d="M61 0v29q5 1 13 4.5t31 24.5t42 55v1192l-77 98v31h245l744 -973v860q-19 33 -40.5 54t-33.5 25l-12 5v29h274v-29l-5 -2q-4 -2 -13 -7.5t-19 -14t-23.5 -24.5t-25.5 -36v-1321h-35l-876 1180v-1067q12 -20 25.5 -36t23.5 -24.5t19 -14t14 -7.5l4 -2v-29h-275zM457 1556 q46 44 81.5 64t77.5 20q35 0 83 -25.5t69 -25.5q43 0 96 53l47 -45q-84 -81 -155 -81q-32 0 -77 26.5t-75 26.5q-27 0 -46 -12t-52 -44z" />
<glyph unicode="&#xd2;" d="M61 711q0 -212 81 -379.5t234 -263t353 -95.5q195 0 345.5 95.5t231 263t80.5 379.5q0 218 -81 388.5t-231 266.5t-345 96q-201 0 -353.5 -96.5t-233.5 -266.5t-81 -388zM276 711q0 182 57.5 330t161.5 233.5t234 85.5q127 0 228.5 -85.5t157.5 -233.5t56 -330 q0 -173 -56 -318t-158 -231t-228 -86q-129 0 -233.5 86t-162 231t-57.5 318zM528 1538v156l367 -174v-41z" />
<glyph unicode="&#xd3;" d="M61 711q0 -212 81 -379.5t234 -263t353 -95.5q195 0 345.5 95.5t231 263t80.5 379.5q0 218 -81 388.5t-231 266.5t-345 96q-201 0 -353.5 -96.5t-233.5 -266.5t-81 -388zM276 711q0 182 57.5 330t161.5 233.5t234 85.5q127 0 228.5 -85.5t157.5 -233.5t56 -330 q0 -173 -56 -318t-158 -231t-228 -86q-129 0 -233.5 86t-162 231t-57.5 318zM528 1479v41l367 174v-156z" />
<glyph unicode="&#xd4;" d="M61 711q0 -212 81 -379.5t234 -263t353 -95.5q195 0 345.5 95.5t231 263t80.5 379.5q0 218 -81 388.5t-231 266.5t-345 96q-201 0 -353.5 -96.5t-233.5 -266.5t-81 -388zM276 711q0 182 57.5 330t161.5 233.5t234 85.5q127 0 228.5 -85.5t157.5 -233.5t56 -330 q0 -173 -56 -318t-158 -231t-228 -86q-129 0 -233.5 86t-162 231t-57.5 318zM492 1511v35l243 195l242 -195v-35l-242 78z" />
<glyph unicode="&#xd5;" d="M61 711q0 -212 81 -379.5t234 -263t353 -95.5q195 0 345.5 95.5t231 263t80.5 379.5q0 218 -81 388.5t-231 266.5t-345 96q-201 0 -353.5 -96.5t-233.5 -266.5t-81 -388zM276 711q0 182 57.5 330t161.5 233.5t234 85.5q127 0 228.5 -85.5t157.5 -233.5t56 -330 q0 -173 -56 -318t-158 -231t-228 -86q-129 0 -233.5 86t-162 231t-57.5 318zM508 1556q46 44 82 64t78 20q35 0 82.5 -25.5t68.5 -25.5q43 0 96 53l48 -45q-84 -81 -156 -81q-32 0 -77 26.5t-75 26.5q-27 0 -46 -12t-52 -44z" />
<glyph unicode="&#xd6;" d="M61 711q0 -212 81 -379.5t234 -263t353 -95.5q195 0 345.5 95.5t231 263t80.5 379.5q0 218 -81 388.5t-231 266.5t-345 96q-201 0 -353.5 -96.5t-233.5 -266.5t-81 -388zM276 711q0 182 57.5 330t161.5 233.5t234 85.5q127 0 228.5 -85.5t157.5 -233.5t56 -330 q0 -173 -56 -318t-158 -231t-228 -86q-129 0 -233.5 86t-162 231t-57.5 318zM444 1616q0 41 29.5 70.5t69.5 29.5q41 0 70.5 -29.5t29.5 -70.5t-29.5 -69.5t-70.5 -28.5q-40 0 -69.5 28.5t-29.5 69.5zM817 1616q0 41 29 70.5t69 29.5q41 0 71 -29.5t30 -70.5t-29.5 -69.5 t-71.5 -28.5q-40 0 -69 28.5t-29 69.5z" />
<glyph unicode="&#xd7;" horiz-adv-x="794" d="M102 373l232 245l-232 244l66 68l227 -246l232 242l63 -62l-231 -241l233 -248l-63 -64l-234 246l-231 -244z" />
<glyph unicode="&#xd8;" d="M61 711q0 218 81 388t233.5 266.5t353.5 96.5q232 0 397 -137l86 109h107v-29l-119 -152q186 -208 186 -542q0 -212 -80.5 -379.5t-231 -263t-345.5 -95.5q-242 0 -420 144l-92 -117h-111v29l130 161q-175 203 -175 521zM276 711q0 -205 80 -365l672 854 q-125 160 -299 160q-130 0 -234 -85.5t-161.5 -233.5t-57.5 -330zM414 250q125 -174 315 -174q126 0 228 86t158 231t56 318q0 227 -86 397z" />
<glyph unicode="&#xd9;" horiz-adv-x="1316" d="M61 1405v29h365v-29l-4 -2q-5 -2 -14 -7.5t-19 -14t-23.5 -24.5t-25.5 -36v-758q0 -76 6.5 -137.5t28.5 -128.5t57.5 -112.5t99 -75t148.5 -29.5q70 0 127 14t97 37t69.5 59.5t47 75.5t28.5 90.5t14.5 99.5t3.5 107v758q-12 20 -25.5 36t-23.5 24.5t-19 14t-13 7.5l-5 2 v29h274v-29l-5 -2q-4 -2 -13 -7.5t-19 -14t-23.5 -24.5t-25.5 -36v-758q0 -114 -11 -197.5t-42.5 -160t-85 -124.5t-141.5 -76t-209 -28q-95 0 -170.5 13t-131.5 36.5t-96.5 62t-66.5 84t-41 108.5t-21 129.5t-6 152.5v758q-12 20 -25.5 36t-23.5 24.5t-19 14t-13 7.5z M520 1548v156l367 -174v-41z" />
<glyph unicode="&#xda;" horiz-adv-x="1316" d="M61 1405v29h365v-29l-4 -2q-5 -2 -14 -7.5t-19 -14t-23.5 -24.5t-25.5 -36v-758q0 -76 6.5 -137.5t28.5 -128.5t57.5 -112.5t99 -75t148.5 -29.5q70 0 127 14t97 37t69.5 59.5t47 75.5t28.5 90.5t14.5 99.5t3.5 107v758q-12 20 -25.5 36t-23.5 24.5t-19 14t-13 7.5l-5 2 v29h274v-29l-5 -2q-4 -2 -13 -7.5t-19 -14t-23.5 -24.5t-25.5 -36v-758q0 -114 -11 -197.5t-42.5 -160t-85 -124.5t-141.5 -76t-209 -28q-95 0 -170.5 13t-131.5 36.5t-96.5 62t-66.5 84t-41 108.5t-21 129.5t-6 152.5v758q-12 20 -25.5 36t-23.5 24.5t-19 14t-13 7.5z M539 1489v41l366 174v-156z" />
<glyph unicode="&#xdb;" horiz-adv-x="1316" d="M61 1405v29h365v-29l-4 -2q-5 -2 -14 -7.5t-19 -14t-23.5 -24.5t-25.5 -36v-758q0 -76 6.5 -137.5t28.5 -128.5t57.5 -112.5t99 -75t148.5 -29.5q70 0 127 14t97 37t69.5 59.5t47 75.5t28.5 90.5t14.5 99.5t3.5 107v758q-12 20 -25.5 36t-23.5 24.5t-19 14t-13 7.5l-5 2 v29h274v-29l-5 -2q-4 -2 -13 -7.5t-19 -14t-23.5 -24.5t-25.5 -36v-758q0 -114 -11 -197.5t-42.5 -160t-85 -124.5t-141.5 -76t-209 -28q-95 0 -170.5 13t-131.5 36.5t-96.5 62t-66.5 84t-41 108.5t-21 129.5t-6 152.5v758q-12 20 -25.5 36t-23.5 24.5t-19 14t-13 7.5z M471 1511v35l244 195l241 -195v-35l-241 78z" />
<glyph unicode="&#xdc;" horiz-adv-x="1316" d="M61 1405v29h365v-29l-4 -2q-5 -2 -14 -7.5t-19 -14t-23.5 -24.5t-25.5 -36v-758q0 -76 6.5 -137.5t28.5 -128.5t57.5 -112.5t99 -75t148.5 -29.5q70 0 127 14t97 37t69.5 59.5t47 75.5t28.5 90.5t14.5 99.5t3.5 107v758q-12 20 -25.5 36t-23.5 24.5t-19 14t-13 7.5l-5 2 v29h274v-29l-5 -2q-4 -2 -13 -7.5t-19 -14t-23.5 -24.5t-25.5 -36v-758q0 -114 -11 -197.5t-42.5 -160t-85 -124.5t-141.5 -76t-209 -28q-95 0 -170.5 13t-131.5 36.5t-96.5 62t-66.5 84t-41 108.5t-21 129.5t-6 152.5v758q-12 20 -25.5 36t-23.5 24.5t-19 14t-13 7.5z M393 1616q0 41 29.5 70.5t69.5 29.5q41 0 70.5 -29.5t29.5 -70.5t-29.5 -69.5t-70.5 -28.5q-40 0 -69.5 28.5t-29.5 69.5zM766 1616q0 41 29 70.5t69 29.5q41 0 71 -29.5t30 -70.5t-29.5 -69.5t-71.5 -28.5q-40 0 -69 28.5t-29 69.5z" />
<glyph unicode="&#xdd;" horiz-adv-x="1202" d="M61 1405v29h416v-29q-5 -1 -13 -4.5t-31 -24.5t-42 -55v4l-2 -6l283 -547l270 549l-2 6q-18 31 -38.5 50.5t-31.5 23.5l-12 4v29h283v-29q-25 -4 -56 -41l-30 -43l-346 -715v-493q19 -34 40.5 -55t33.5 -25l12 -4v-29h-365v29q5 1 13 4.5t31 24.5t42 55v493l-369 713 l-18 29q-16 23 -33 37t-26 17zM418 1489v41l366 174v-156z" />
<glyph unicode="&#xde;" horiz-adv-x="978" d="M61 0v29q5 1 13 4.5t31 24.5t42 55v1208q-19 34 -40.5 55t-33.5 25l-12 4v29h365v-29q-5 -1 -13 -4.5t-31 -24.5t-42 -55v-158h133q242 0 343.5 -89.5t101.5 -297.5q0 -193 -101.5 -294t-333.5 -101h-71v82h55q122 0 178.5 75.5t56.5 239.5q0 150 -55 216.5t-176 66.5 h-131v-948q19 -34 40.5 -55t33.5 -25l12 -4v-29h-365z" />
<glyph unicode="&#xdf;" horiz-adv-x="1128" d="M61 0v29q5 1 13 4.5t31 24.5t42 55v792q0 299 94.5 431t297.5 132q101 0 179 -32.5t120.5 -84.5t63 -108t20.5 -113q0 -115 -42 -179t-132 -115q146 -35 232.5 -149.5t86.5 -268.5q0 -197 -121 -320t-305 -123q-146 0 -252 58v203h33q8 -84 64 -132t155 -47 q117 1 176.5 94t59.5 267q0 152 -65 253.5t-185 104.5h-142v82h29q124 0 170.5 60t46.5 212q0 134 -54.5 195t-137.5 61q-56 0 -95 -20.5t-61.5 -53.5t-35 -92t-16 -118t-3.5 -150v-952h-267z" />
<glyph unicode="&#xe0;" horiz-adv-x="1024" d="M41 434q0 211 113 330t309 119q95 0 153 -23t113 -88q0 -2 15 8.5t41.5 37.5t50.5 63h41v-768q19 -34 40.5 -55t33.5 -25l12 -4v-29h-220l-38 109q-35 -66 -98 -101t-144 -35q-195 0 -308.5 123t-113.5 338zM221 434q0 -99 29.5 -185t85.5 -140t127 -54t127 54t85.5 140 t29.5 185q0 152 -66.5 259.5t-175.5 107.5q-107 0 -174.5 -108t-67.5 -259zM295 1104v156l367 -175v-41z" />
<glyph unicode="&#xe1;" horiz-adv-x="1024" d="M41 434q0 211 113 330t309 119q95 0 153 -23t113 -88q0 -2 15 8.5t41.5 37.5t50.5 63h41v-768q19 -34 40.5 -55t33.5 -25l12 -4v-29h-220l-38 109q-35 -66 -98 -101t-144 -35q-195 0 -308.5 123t-113.5 338zM221 434q0 -99 29.5 -185t85.5 -140t127 -54t127 54t85.5 140 t29.5 185q0 152 -66.5 259.5t-175.5 107.5q-107 0 -174.5 -108t-67.5 -259zM295 1044v41l367 175v-156z" />
<glyph unicode="&#xe2;" horiz-adv-x="1024" d="M41 434q0 211 113 330t309 119q95 0 153 -23t113 -88q0 -2 15 8.5t41.5 37.5t50.5 63h41v-768q19 -34 40.5 -55t33.5 -25l12 -4v-29h-220l-38 109q-35 -66 -98 -101t-144 -35q-195 0 -308.5 123t-113.5 338zM221 434q0 -99 29.5 -185t85.5 -140t127 -54t127 54t85.5 140 t29.5 185q0 152 -66.5 259.5t-175.5 107.5q-107 0 -174.5 -108t-67.5 -259zM236 1028v35l243 194l242 -194v-35l-242 78z" />
<glyph unicode="&#xe3;" horiz-adv-x="1024" d="M41 434q0 211 113 330t309 119q95 0 153 -23t113 -88q0 -2 15 8.5t41.5 37.5t50.5 63h41v-768q19 -34 40.5 -55t33.5 -25l12 -4v-29h-220l-38 109q-35 -66 -98 -101t-144 -35q-195 0 -308.5 123t-113.5 338zM221 434q0 -99 29.5 -185t85.5 -140t127 -54t127 54t85.5 140 t29.5 185q0 152 -66.5 259.5t-175.5 107.5q-107 0 -174.5 -108t-67.5 -259zM240 1169q46 44 81.5 64t77.5 20q35 0 83 -25.5t69 -25.5q43 0 96 53l47 -45q-85 -82 -155 -82q-32 0 -77 27t-75 27q-27 0 -46 -12t-52 -44z" />
<glyph unicode="&#xe4;" horiz-adv-x="1024" d="M41 434q0 211 113 330t309 119q95 0 153 -23t113 -88q0 -2 15 8.5t41.5 37.5t50.5 63h41v-768q19 -34 40.5 -55t33.5 -25l12 -4v-29h-220l-38 109q-35 -66 -98 -101t-144 -35q-195 0 -308.5 123t-113.5 338zM203 1149q0 41 29 70.5t69 29.5q41 0 70.5 -29.5t29.5 -70.5 t-29.5 -69.5t-70.5 -28.5q-40 0 -69 28.5t-29 69.5zM221 434q0 -99 29.5 -185t85.5 -140t127 -54t127 54t85.5 140t29.5 185q0 152 -66.5 259.5t-175.5 107.5q-107 0 -174.5 -108t-67.5 -259zM575 1149q0 41 29.5 70.5t69.5 29.5q41 0 70.5 -29.5t29.5 -70.5t-29.5 -69.5 t-70.5 -28.5q-40 0 -69.5 28.5t-29.5 69.5z" />
<glyph unicode="&#xe5;" horiz-adv-x="1024" d="M41 434q0 211 113 330t309 119q95 0 153 -23t113 -88q0 -2 15 8.5t41.5 37.5t50.5 63h41v-768q19 -34 40.5 -55t33.5 -25l12 -4v-29h-220l-38 109q-35 -66 -98 -101t-144 -35q-195 0 -308.5 123t-113.5 338zM221 434q0 -99 29.5 -185t85.5 -140t127 -54t127 54t85.5 140 t29.5 185q0 152 -66.5 259.5t-175.5 107.5q-107 0 -174.5 -108t-67.5 -259zM338 1126q0 53 38.5 91t92.5 38t92.5 -38t38.5 -91q0 -55 -38.5 -93t-92.5 -38t-92.5 38t-38.5 93zM391 1126q0 -33 22.5 -56t55.5 -23t55.5 23t22.5 56q0 32 -23 55t-55 23t-55 -23.5t-23 -54.5z " />
<glyph unicode="&#xe6;" horiz-adv-x="1439" d="M61 227q0 61 9.5 104t39.5 86t84.5 69t147.5 43.5t225 19.5l13 2v137q0 131 -168 131q-82 0 -133.5 -35.5t-51.5 -91.5v-16h-82v2q0 77 40.5 129t99 73t129.5 21q201 0 301 -117q55 57 118 86t158 29q102 0 178.5 -30t121 -82.5t66 -118t21.5 -142.5v-43l-604 -118 q2 -145 72 -228.5t194 -83.5q56 0 82 3.5t71 24.5t112 69h45q-60 -106 -134.5 -142.5t-187.5 -36.5q-132 0 -214 51t-118 140h-2l-41 -51q-59 -70 -153.5 -105t-180.5 -35q-32 0 -66 8.5t-69 28.5t-62 49t-44 73t-17 97zM252 236q0 -56 33 -97t98 -41q47 0 103.5 20t91.5 60 v289l-95 -4q-62 -3 -107 -19t-68.5 -37.5t-36.5 -54t-16 -57t-3 -59.5zM770 461l432 82q-11 140 -54.5 207t-146.5 67q-65 0 -111.5 -28.5t-72 -80.5t-36.5 -112.5t-11 -134.5z" />
<glyph unicode="&#xe7;" horiz-adv-x="899" d="M61 426q0 206 126 339.5t341 133.5q145 0 267 -65l-47 -220h-37q-4 46 -13.5 78.5t-28.5 63t-54.5 46t-86.5 15.5q-143 0 -209.5 -104.5t-66.5 -286.5q0 -178 69.5 -274.5t206.5 -96.5q56 0 82 3.5t71 24.5t112 69h45q-57 -100 -125.5 -138t-167.5 -41l-45 -116h26 q42 0 70.5 -34.5t28.5 -96.5q0 -70 -35 -103t-117 -33q-34 0 -68.5 10t-52.5 20l-18 11l31 70q51 -39 110 -39q27 0 45 6t24.5 17.5t8.5 20t2 20.5q0 11 -1.5 19t-8 20t-23 19t-41.5 7h-51l-27 25l66 159q-204 12 -306 133.5t-102 317.5z" />
<glyph unicode="&#xe8;" horiz-adv-x="927" d="M61 426v2q0 223 109 348t309 125q102 0 178.5 -30t121 -82.5t66 -118t21.5 -142.5v-43l-602 -118l-10 -9q12 -147 81 -225t193 -78q56 0 82 3.5t71 24.5t112 69h45q-60 -106 -134.5 -142.5t-187.5 -36.5q-227 0 -341 123t-114 330zM258 463l432 82q-11 140 -54.5 207 t-146.5 67q-65 0 -111.5 -28.5t-72 -80.5t-36.5 -112.5t-11 -134.5zM285 1104v156l366 -175v-41z" />
<glyph unicode="&#xe9;" horiz-adv-x="927" d="M61 426v2q0 223 109 348t309 125q102 0 178.5 -30t121 -82.5t66 -118t21.5 -142.5v-43l-602 -118l-10 -9q12 -147 81 -225t193 -78q56 0 82 3.5t71 24.5t112 69h45q-60 -106 -134.5 -142.5t-187.5 -36.5q-227 0 -341 123t-114 330zM258 463l432 82q-11 140 -54.5 207 t-146.5 67q-65 0 -111.5 -28.5t-72 -80.5t-36.5 -112.5t-11 -134.5zM285 1044v41l366 175v-156z" />
<glyph unicode="&#xea;" horiz-adv-x="927" d="M61 426v2q0 223 109 348t309 125q102 0 178.5 -30t121 -82.5t66 -118t21.5 -142.5v-43l-602 -118l-10 -9q12 -147 81 -225t193 -78q56 0 82 3.5t71 24.5t112 69h45q-60 -106 -134.5 -142.5t-187.5 -36.5q-227 0 -341 123t-114 330zM238 1028v35l243 194l242 -194v-35 l-242 78zM258 463l432 82q-11 140 -54.5 207t-146.5 67q-65 0 -111.5 -28.5t-72 -80.5t-36.5 -112.5t-11 -134.5z" />
<glyph unicode="&#xeb;" horiz-adv-x="927" d="M61 426v2q0 223 109 348t309 125q102 0 178.5 -30t121 -82.5t66 -118t21.5 -142.5v-43l-602 -118l-10 -9q12 -147 81 -225t193 -78q56 0 82 3.5t71 24.5t112 69h45q-60 -106 -134.5 -142.5t-187.5 -36.5q-227 0 -341 123t-114 330zM188 1141q0 41 29.5 70.5t69.5 29.5 q41 0 70.5 -29.5t29.5 -70.5t-29.5 -70t-70.5 -29q-40 0 -69.5 29t-29.5 70zM258 463l432 82q-11 140 -54.5 207t-146.5 67q-65 0 -111.5 -28.5t-72 -80.5t-36.5 -112.5t-11 -134.5zM561 1141q0 41 29 70.5t69 29.5q41 0 71 -29.5t30 -70.5t-30 -70t-71 -29q-40 0 -69 29 t-29 70z" />
<glyph unicode="&#xec;" horiz-adv-x="495" d="M61 1104v156l367 -175v-41zM82 0v29q5 1 13 4.5t31 24.5t42 55v553q-19 34 -40.5 55t-33.5 25l-12 4v28q15 2 39.5 8t85 32.5t104.5 62.5h37v-768q19 -34 40.5 -55t33.5 -25l12 -4v-29h-352z" />
<glyph unicode="&#xed;" horiz-adv-x="495" d="M61 1044v41l367 175v-156zM82 0v29q5 1 13 4.5t31 24.5t42 55v553q-19 34 -40.5 55t-33.5 25l-12 4v28q15 2 39.5 8t85 32.5t104.5 62.5h37v-768q19 -34 40.5 -55t33.5 -25l12 -4v-29h-352z" />
<glyph unicode="&#xee;" horiz-adv-x="608" d="M61 1028v35l244 194l242 -194v-35l-242 78zM143 0v29q5 1 13 4.5t31 24.5t42 55v553q-19 34 -40.5 55t-33.5 25l-12 4v28q15 2 39.5 8t85.5 32.5t105 62.5h37v-768q19 -34 40.5 -55t33.5 -25l12 -4v-29h-353z" />
<glyph unicode="&#xef;" horiz-adv-x="653" d="M41 1616q0 41 29 70.5t69 29.5q41 0 71 -29.5t30 -70.5t-29.5 -69.5t-71.5 -28.5q-40 0 -69 28.5t-29 69.5zM150 0v29q5 1 13 4.5t31 24.5t42 55v1208q-19 34 -40.5 55t-33.5 25l-12 4v29h364v-29q-5 -1 -13 -4.5t-31 -24.5t-42 -55v-1208q19 -34 40.5 -55t33.5 -25 l12 -4v-29h-364zM414 1616q0 41 29 70.5t69 29.5q41 0 70.5 -29.5t29.5 -70.5t-29.5 -69.5t-70.5 -28.5q-40 0 -69 28.5t-29 69.5z" />
<glyph unicode="&#xf0;" horiz-adv-x="1030" d="M61 440q0 224 121.5 349.5t329.5 125.5q101 0 205 -53q-39 102 -96 185l-175 -46v105l111 29q-141 174 -293 258v41q269 -103 434 -265l205 54v-105l-129 -33q195 -239 195 -565q0 -270 -110 -407.5t-347 -137.5q-208 0 -329.5 122.5t-121.5 342.5zM254 440 q0 -157 73 -270t185 -113q78 0 139.5 64t92 159.5t30.5 200.5q0 151 -71 252t-191 101q-73 0 -133.5 -58t-92.5 -148t-32 -188z" />
<glyph unicode="&#xf1;" horiz-adv-x="1087" d="M61 0v29q5 1 13 4.5t31 24.5t42 55v551q-19 34 -40.5 55t-33.5 25l-12 4v28q10 3 27 9.5t63.5 33.5t84.5 62h28l64 -170q7 13 33 39.5t71.5 61.5t117.5 60t150 25q108 0 174 -68t66 -202v-514q19 -34 40.5 -55t33.5 -25l12 -4v-29h-352v29q5 1 13 4.5t31 24.5t42 55v528 q0 64 -48 98.5t-106 34.5q-56 5 -109 -14.5t-87.5 -50.5t-54.5 -54t-27 -37v-505q19 -34 40.5 -55t33.5 -25l12 -4v-29h-353zM297 1169q46 44 82 64t78 20q35 0 82.5 -25.5t68.5 -25.5q44 0 97 53l47 -45q-85 -82 -156 -82q-32 0 -77 27t-75 27q-27 0 -46 -12t-52 -44z" />
<glyph unicode="&#xf2;" horiz-adv-x="995" d="M61 438q0 -218 117 -340.5t324 -122.5q196 0 314 123.5t118 339.5q0 213 -118.5 337t-313.5 124q-207 0 -324 -122.5t-117 -338.5zM252 438q0 102 29 187.5t86.5 138.5t132.5 53q111 0 177 -110.5t66 -268.5q0 -99 -26.5 -184.5t-81.5 -141t-129 -55.5q-112 0 -183 114.5 t-71 266.5zM303 1104v156l367 -175v-41z" />
<glyph unicode="&#xf3;" horiz-adv-x="995" d="M61 438q0 -218 117 -340.5t324 -122.5q196 0 314 123.5t118 339.5q0 213 -118.5 337t-313.5 124q-207 0 -324 -122.5t-117 -338.5zM252 438q0 102 29 187.5t86.5 138.5t132.5 53q111 0 177 -110.5t66 -268.5q0 -99 -26.5 -184.5t-81.5 -141t-129 -55.5q-112 0 -183 114.5 t-71 266.5zM303 1044v41l367 175v-156z" />
<glyph unicode="&#xf4;" horiz-adv-x="995" d="M61 438q0 -218 117 -340.5t324 -122.5q196 0 314 123.5t118 339.5q0 213 -118.5 337t-313.5 124q-207 0 -324 -122.5t-117 -338.5zM252 438q0 102 29 187.5t86.5 138.5t132.5 53q111 0 177 -110.5t66 -268.5q0 -99 -26.5 -184.5t-81.5 -141t-129 -55.5q-112 0 -183 114.5 t-71 266.5zM258 1028v35l244 194l241 -194v-35l-241 78z" />
<glyph unicode="&#xf5;" horiz-adv-x="995" d="M61 438q0 -218 117 -340.5t324 -122.5q196 0 314 123.5t118 339.5q0 213 -118.5 337t-313.5 124q-207 0 -324 -122.5t-117 -338.5zM252 438q0 102 29 187.5t86.5 138.5t132.5 53q111 0 177 -110.5t66 -268.5q0 -99 -26.5 -184.5t-81.5 -141t-129 -55.5q-112 0 -183 114.5 t-71 266.5zM258 1169q46 44 82 64t78 20q35 0 82.5 -25.5t68.5 -25.5q44 0 97 53l47 -45q-85 -82 -156 -82q-32 0 -76.5 27t-74.5 27q-27 0 -46.5 -12.5t-52.5 -43.5z" />
<glyph unicode="&#xf6;" horiz-adv-x="995" d="M61 438q0 -218 117 -340.5t324 -122.5q196 0 314 123.5t118 339.5q0 213 -118.5 337t-313.5 124q-207 0 -324 -122.5t-117 -338.5zM205 1141q0 41 29 70.5t69 29.5q41 0 70.5 -29.5t29.5 -70.5t-29.5 -70t-70.5 -29q-40 0 -69 29t-29 70zM252 438q0 102 29 187.5 t86.5 138.5t132.5 53q111 0 177 -110.5t66 -268.5q0 -99 -26.5 -184.5t-81.5 -141t-129 -55.5q-112 0 -183 114.5t-71 266.5zM578 1141q0 41 29 70.5t69 29.5q41 0 70.5 -29.5t29.5 -70.5t-29.5 -70t-70.5 -29q-40 0 -69 29t-29 70z" />
<glyph unicode="&#xf7;" horiz-adv-x="1148" d="M123 420h876l27 102h-876zM479 80q0 -45 30.5 -77t68.5 -32q44 0 75 31.5t31 77.5q0 42 -31 73t-75 31q-37 0 -68 -31.5t-31 -72.5zM479 868q0 -44 30.5 -76t68.5 -32q44 0 75 31t31 77q0 42 -31 73.5t-75 31.5q-37 0 -68 -32t-31 -73z" />
<glyph unicode="&#xf8;" horiz-adv-x="1038" d="M61 0v29l117 123q-74 120 -74 286q0 216 117 338.5t324 122.5q151 0 264 -80l57 62h107v-29l-94 -100q98 -121 98 -314q0 -216 -118 -339.5t-314 -123.5q-188 0 -301 101l-72 -76h-111zM295 438q0 -76 18 -143l400 424q-68 98 -170 98q-75 0 -132.5 -53t-86.5 -138.5 t-29 -187.5zM354 193q34 -63 84 -99.5t111 -36.5q74 0 129 55.5t81.5 141t26.5 184.5t-28 185z" />
<glyph unicode="&#xf9;" horiz-adv-x="1112" d="M61 748v28q14 2 38 7t85 31.5t107 66.5h37v-650q0 -70 48 -104.5t120 -34.5q33 0 68 9.5t61.5 21.5t56 31t45 31.5t36 29.5t21.5 18v433q-19 34 -40.5 55t-33.5 25l-12 4v28q9 0 43.5 8.5t93 34t99.5 60.5h31v-768q19 -34 40.5 -55t33.5 -25l12 -4v-29h-222l-55 115 q-12 -13 -36 -32t-68.5 -46.5t-110 -46.5t-135.5 -19q-52 0 -100.5 18t-88.5 52t-64 89t-24 124v410q-19 34 -40.5 55t-33.5 25zM373 1104v156l366 -175v-41z" />
<glyph unicode="&#xfa;" horiz-adv-x="1112" d="M61 748v28q14 2 38 7t85 31.5t107 66.5h37v-650q0 -70 48 -104.5t120 -34.5q33 0 68 9.5t61.5 21.5t56 31t45 31.5t36 29.5t21.5 18v433q-19 34 -40.5 55t-33.5 25l-12 4v28q9 0 43.5 8.5t93 34t99.5 60.5h31v-768q19 -34 40.5 -55t33.5 -25l12 -4v-29h-222l-55 115 q-12 -13 -36 -32t-68.5 -46.5t-110 -46.5t-135.5 -19q-52 0 -100.5 18t-88.5 52t-64 89t-24 124v410q-19 34 -40.5 55t-33.5 25zM373 1044v41l366 175v-156z" />
<glyph unicode="&#xfb;" horiz-adv-x="1112" d="M61 748v28q14 2 38 7t85 31.5t107 66.5h37v-650q0 -70 48 -104.5t120 -34.5q33 0 68 9.5t61.5 21.5t56 31t45 31.5t36 29.5t21.5 18v433q-19 34 -40.5 55t-33.5 25l-12 4v28q9 0 43.5 8.5t93 34t99.5 60.5h31v-768q19 -34 40.5 -55t33.5 -25l12 -4v-29h-222l-55 115 q-12 -13 -36 -32t-68.5 -46.5t-110 -46.5t-135.5 -19q-52 0 -100.5 18t-88.5 52t-64 89t-24 124v410q-19 34 -40.5 55t-33.5 25zM322 1028v35l243 194l242 -194v-35l-242 78z" />
<glyph unicode="&#xfc;" horiz-adv-x="1112" d="M61 748v28q14 2 38 7t85 31.5t107 66.5h37v-650q0 -70 48 -104.5t120 -34.5q33 0 68 9.5t61.5 21.5t56 31t45 31.5t36 29.5t21.5 18v433q-19 34 -40.5 55t-33.5 25l-12 4v28q9 0 43.5 8.5t93 34t99.5 60.5h31v-768q19 -34 40.5 -55t33.5 -25l12 -4v-29h-222l-55 115 q-12 -13 -36 -32t-68.5 -46.5t-110 -46.5t-135.5 -19q-52 0 -100.5 18t-88.5 52t-64 89t-24 124v410q-19 34 -40.5 55t-33.5 25zM258 1141q0 41 29 70.5t69 29.5q41 0 71 -29.5t30 -70.5t-30 -70t-71 -29q-40 0 -69 29t-29 70zM631 1141q0 41 29 70.5t69 29.5 q41 0 70.5 -29.5t29.5 -70.5t-29.5 -70t-70.5 -29q-40 0 -69 29t-29 70z" />
<glyph unicode="&#xfd;" horiz-adv-x="1058" d="M61 852v29h375v-29q-5 -1 -13 -4.5t-31 -24.5t-42 -55l234 -545l231 545q-19 34 -40.5 55t-33.5 25l-12 4v29h268v-29q-18 -4 -43 -27q-23 -23 -43 -57l-430 -1024q-28 -62 -58.5 -103t-69.5 -64.5t-87.5 -18t-105.5 40.5v32q33 -11 61 -12.5t49.5 7.5t38 21t31 34.5 t24 41.5t21.5 48l107 229l-345 768q-19 34 -40.5 55t-33.5 25zM391 1044v41l367 175v-156z" />
<glyph unicode="&#xfe;" horiz-adv-x="1091" d="M61 -700q5 1 13.5 4.5t32 24.5t43.5 55v1937q-19 34 -41 55t-34 25l-12 4v29h351v-29q-5 -1 -13 -4.5t-30.5 -24t-42.5 -53.5v-557q40 72 101 104.5t155 32.5q214 0 330 -119t116 -340q0 -225 -120.5 -348t-325.5 -123q-80 0 -140.5 35.5t-115.5 104.5v-729 q19 -34 40.5 -55t33.5 -25l12 -4v-29h-353v29zM328 444q0 -103 29 -190t88.5 -143t138.5 -56q74 0 133.5 55.5t91 144t31.5 189.5q0 149 -72.5 263t-183.5 114q-79 0 -138.5 -55.5t-88.5 -140t-29 -181.5z" />
<glyph unicode="&#xff;" horiz-adv-x="1058" d="M61 852v29h375v-29q-5 -1 -13 -4.5t-31 -24.5t-42 -55l234 -545l231 545q-19 34 -40.5 55t-33.5 25l-12 4v29h268v-29q-18 -4 -43 -27q-23 -23 -43 -57l-430 -1024q-28 -62 -58.5 -103t-69.5 -64.5t-87.5 -18t-105.5 40.5v32q33 -11 61 -12.5t49.5 7.5t38 21t31 34.5 t24 41.5t21.5 48l107 229l-345 768q-19 34 -40.5 55t-33.5 25zM295 1141q0 41 29 70.5t69 29.5q41 0 71 -29.5t30 -70.5t-30 -70t-71 -29q-40 0 -69 29t-29 70zM668 1141q0 41 29 70.5t69 29.5q41 0 70.5 -29.5t29.5 -70.5t-29.5 -70t-70.5 -29q-40 0 -69 29t-29 70z" />
<glyph unicode="&#x152;" horiz-adv-x="2033" d="M61 709q0 218 81 388t233.5 266.5t353.5 96.5q108 0 193 -26h827l117 -207h-41l-127 104h-457q-1 -1 -9 -7.5t-17 -16t-17 -21.5v-420q11 -16 23 -28t18 -16l6 -3h340q34 19 55 40.5t25 33.5l4 12h29v-274h-29q-1 5 -4.5 13t-24.5 31t-55 42h-340l-47 -47v-523 q17 -28 43 -45h559l133 127h39l-110 -229h-932q-98 -29 -201 -29q-200 0 -353 95.5t-234 263t-81 379.5zM276 709q0 -173 57.5 -318t162 -231t233.5 -86q160 0 277 133v1018q-117 133 -277 133q-130 0 -234 -85.5t-161.5 -233.5t-57.5 -330z" />
<glyph unicode="&#x153;" horiz-adv-x="1607" d="M61 436q0 216 117 338.5t324 122.5q211 0 329 -143q110 147 328 147q102 0 178.5 -30t121 -82.5t66 -118t21.5 -142.5v-43l-602 -118q-4 -5 -10 -9q12 -147 81 -225t193 -78q56 0 82 3.5t71 24.5t112 69h45q-60 -106 -134.5 -142.5t-187.5 -36.5q-245 0 -362 146 q-118 -146 -332 -146q-207 0 -324 122.5t-117 340.5zM252 436q0 -152 71 -266.5t183 -114.5q67 0 123 57t84.5 141.5t27.5 172.5v10q0 157 -68 268t-173 111q-75 0 -132.5 -53t-86.5 -138.5t-29 -187.5zM938 463l432 82q-11 140 -54.5 207t-146.5 67q-65 0 -111.5 -28.5 t-72 -80.5t-36.5 -112.5t-11 -134.5z" />
<glyph unicode="&#x178;" horiz-adv-x="1202" d="M61 1405v29h416v-29q-5 -1 -13 -4.5t-31 -24.5t-42 -55v4l-2 -6l283 -547l270 549l-2 6q-18 31 -38.5 50.5t-31.5 23.5l-12 4v29h283v-29q-25 -4 -56 -41l-30 -43l-346 -715v-493q19 -34 40.5 -55t33.5 -25l12 -4v-29h-365v29q5 1 13 4.5t31 24.5t42 55v493l-369 713 l-18 29q-16 23 -33 37t-26 17zM365 1616q0 41 29 70.5t69 29.5q41 0 70.5 -29.5t29.5 -70.5t-29.5 -69.5t-70.5 -28.5q-40 0 -69 28.5t-29 69.5zM737 1616q0 41 29.5 70.5t69.5 29.5q41 0 70.5 -29.5t29.5 -70.5t-29.5 -69.5t-70.5 -28.5q-40 0 -69.5 28.5t-29.5 69.5z" />
<glyph unicode="&#x2c6;" horiz-adv-x="280" d="M-102 1235v35l243 194l242 -194v-35l-242 78z" />
<glyph unicode="&#x2dc;" horiz-adv-x="249" d="M-102 1423q46 44 81.5 64t77.5 20q35 0 83 -25.5t69 -25.5q43 0 96 53l47 -45q-85 -82 -155 -82q-32 0 -77 27t-75 27q-27 0 -46 -12t-52 -44z" />
<glyph unicode="&#x2000;" horiz-adv-x="871" />
<glyph unicode="&#x2001;" horiz-adv-x="1743" />
<glyph unicode="&#x2002;" horiz-adv-x="871" />
<glyph unicode="&#x2003;" horiz-adv-x="1743" />
<glyph unicode="&#x2004;" horiz-adv-x="581" />
<glyph unicode="&#x2005;" horiz-adv-x="435" />
<glyph unicode="&#x2006;" horiz-adv-x="290" />
<glyph unicode="&#x2007;" horiz-adv-x="290" />
<glyph unicode="&#x2008;" horiz-adv-x="217" />
<glyph unicode="&#x2009;" horiz-adv-x="348" />
<glyph unicode="&#x200a;" horiz-adv-x="96" />
<glyph unicode="&#x2010;" horiz-adv-x="907" d="M61 483h758l27 103h-758z" />
<glyph unicode="&#x2011;" horiz-adv-x="907" d="M61 483h758l27 103h-758z" />
<glyph unicode="&#x2012;" horiz-adv-x="907" d="M61 483h758l27 103h-758z" />
<glyph unicode="&#x2013;" horiz-adv-x="1255" d="M0 481h1229l26 103h-1228z" />
<glyph unicode="&#x2014;" horiz-adv-x="1869" d="M0 481h1843l27 103h-1843z" />
<glyph unicode="&#x2018;" horiz-adv-x="409" d="M102 1210q0 38 23 68l151 233v-108l-57 -84q35 -6 61.5 -37t26.5 -72t-30.5 -72.5t-67.5 -31.5q-44 0 -75.5 31t-31.5 73z" />
<glyph unicode="&#x2019;" horiz-adv-x="409" d="M102 1407q0 41 31 72.5t68 31.5q44 0 75 -31t31 -73q0 -40 -22 -68l-154 -233v108l59 84q-35 6 -61.5 37t-26.5 72z" />
<glyph unicode="&#x201a;" horiz-adv-x="409" d="M102 82q0 41 31 72.5t68 31.5q44 0 75 -31t31 -73q0 -40 -22 -68l-154 -233v108l59 84q-35 6 -61.5 37t-26.5 72z" />
<glyph unicode="&#x201c;" horiz-adv-x="671" d="M102 1210q0 38 23 68l151 233v-108l-57 -84q35 -6 61.5 -37t26.5 -72t-30.5 -72.5t-67.5 -31.5q-44 0 -75.5 31t-31.5 73zM365 1210q0 40 22 68l152 233v-108l-58 -84q35 -6 61.5 -37t26.5 -72t-30.5 -72.5t-67.5 -31.5q-44 0 -75 31t-31 73z" />
<glyph unicode="&#x201d;" horiz-adv-x="671" d="M102 1407q0 41 31 72.5t68 31.5q44 0 75 -31t31 -73q0 -40 -22 -68l-152 -233v108l57 84q-35 6 -61.5 37t-26.5 72zM365 1407q0 41 30.5 72.5t67.5 31.5q44 0 75 -31t31 -73q0 -40 -22 -68l-154 -233v108l60 84q-35 6 -61.5 37t-26.5 72z" />
<glyph unicode="&#x201e;" horiz-adv-x="671" d="M102 78q0 41 31 72.5t68 31.5q44 0 75 -31t31 -73q0 -40 -22 -68l-152 -233v108l57 84q-35 6 -61.5 37t-26.5 72zM365 78q0 41 30.5 72.5t67.5 31.5q44 0 75 -31t31 -73q0 -40 -22 -68l-154 -233v108l60 84q-35 6 -61.5 37t-26.5 72z" />
<glyph unicode="&#x2022;" horiz-adv-x="688" d="M164 594q0 72 53.5 126t126.5 54t126.5 -54t53.5 -126q0 -73 -53 -125.5t-127 -52.5t-127 52.5t-53 125.5z" />
<glyph unicode="&#x2026;" horiz-adv-x="1226" d="M102 96q0 -52 34 -88.5t77 -36.5q51 0 86 35.5t35 89.5q0 47 -35.5 82t-85.5 35q-42 0 -76.5 -36t-34.5 -81zM489 96q0 -52 34 -88.5t77 -36.5q51 0 86 35.5t35 89.5q0 47 -35.5 82t-85.5 35q-42 0 -76.5 -36t-34.5 -81zM893 96q0 -52 34 -88.5t77 -36.5q51 0 85.5 35.5 t34.5 89.5q0 47 -35 82t-85 35q-42 0 -76.5 -36t-34.5 -81z" />
<glyph unicode="&#x202f;" horiz-adv-x="348" />
<glyph unicode="&#x2039;" horiz-adv-x="483" d="M82 481v43l256 297h43l-113 -319l113 -322h-43z" />
<glyph unicode="&#x203a;" horiz-adv-x="483" d="M82 180l113 322l-113 319h43l256 -297v-43l-256 -301h-43z" />
<glyph unicode="&#x205f;" horiz-adv-x="435" />
<glyph unicode="&#x20ac;" horiz-adv-x="1398" d="M61 522l27 103h174q-4 69 -2 104v49h-139l26 103h123q21 126 75.5 232.5t136.5 184.5t194.5 122t243.5 44q210 0 397 -116l-86 -320h-33q-6 90 -21.5 149.5t-48.5 103t-86.5 62.5t-134.5 19q-161 -9 -275.5 -139.5t-146.5 -341.5h420l-26 -103h-406v-49q0 -38 4 -104h369 l-27 -103h-330q37 -211 149 -328.5t282 -117.5q112 0 188 39.5t184 148.5h45q-93 -170 -191.5 -230.5t-250.5 -60.5q-265 0 -420.5 146.5t-200.5 402.5h-213z" />
<glyph unicode="&#x2122;" horiz-adv-x="1257" d="M123 1362l41 76h366l39 -76h-12l-47 39h-109q-10 -5 -18 -19v-434q7 -12 15 -19.5t12 -8.5l4 -2v-11h-133v11q16 3 30 30v434q-4 6 -8 11t-6 7l-2 1h-113l-45 -39h-14zM594 1425v13h133l141 -416l148 416h119v-13q-17 -1 -33 -28v-449q7 -12 15.5 -19.5t12.5 -8.5l5 -2 v-11h-138v11q17 3 33 30v420l-145 -420q-14 -6 -26.5 -16.5t-18.5 -17.5l-6 -7h-11l-157 461v-420q7 -12 15 -19.5t13 -8.5l4 -2v-11h-100v11q17 3 33 30l-6 449q-6 12 -14 19t-13 8z" />
<glyph unicode="&#x25fc;" horiz-adv-x="880" d="M0 0v881h881v-881h-881z" />
</font>
</defs>
</svg>
