<?xml version="1.0" standalone="no"?>
<!DOCTYPE svg PUBLIC "-//W3C//DTD SVG 1.1//EN" "http://www.w3.org/Graphics/SVG/1.1/DTD/svg11.dtd" >
<svg xmlns="http://www.w3.org/2000/svg">
<metadata></metadata>
<defs>
<font id="rasmusbold" horiz-adv-x="1492" >
<font-face units-per-em="2048" ascent="1536" descent="-512" />
<missing-glyph horiz-adv-x="614" />
<glyph horiz-adv-x="2048" />
<glyph horiz-adv-x="2048" />
<glyph unicode="&#xd;" horiz-adv-x="2048" />
<glyph unicode=" "  horiz-adv-x="614" />
<glyph unicode="&#x09;" horiz-adv-x="614" />
<glyph unicode="&#xa0;" horiz-adv-x="614" />
<glyph unicode="!" horiz-adv-x="604" d="M164 119q0 -62 40.5 -106t92.5 -44q60 0 101.5 43.5t41.5 106.5q0 56 -42 97.5t-101 41.5q-51 0 -92 -42t-41 -97zM170 657l43 -225h178l45 225v777h-266v-777z" />
<glyph unicode="&#x22;" horiz-adv-x="555" d="M123 1188l24 -131h82l23 131v246h-129v-246zM303 1188l25 -131h82l22 131v246h-129v-246z" />
<glyph unicode="#" horiz-adv-x="1048" d="M61 381l27 123h156l63 264h-164l27 123h168l131 543h119v-35l-123 -508h256l131 543h119v-35l-123 -508h139l-26 -123h-142l-63 -264h149l-26 -123h-152l-92 -381h-123v35l84 346h-252l-92 -381h-123v35l84 346h-152zM373 504h254l63 264h-254z" />
<glyph unicode="$" horiz-adv-x="1038" d="M61 10v359h48q32 -81 70 -136.5t82 -84t85 -40.5t94 -14v551l-49 21q-159 68 -242 168.5t-83 242.5q0 152 104.5 256.5t269.5 126.5v123h123v-121q93 -5 190 -27.5t160 -54.5l-73 -282h-47q-4 127 -62 181t-168 60v-434l86 -33q144 -58 236 -176t92 -276 q0 -187 -116.5 -306.5t-297.5 -140.5v-120h-123v116q-110 4 -168.5 27.5t-128.5 77.5l-32 -64h-50zM262 1165q0 -49 12 -84t40.5 -58.5t53 -36.5t72.5 -32v381q-80 -16 -129 -60.5t-49 -109.5zM563 98q95 19 160 76.5t65 144.5q0 58 -14.5 100.5t-47 74t-69 52.5t-94.5 46 v-494z" />
<glyph unicode="%" horiz-adv-x="1323" d="M61 1161q0 -131 90.5 -220t200.5 -89q67 0 131 38.5t107 111t43 159.5q0 127 -88 216t-193 89q-109 0 -200 -89t-91 -216zM168 0v37l811 1397h125v-35l-807 -1399h-129zM223 1161q0 106 34 158.5t95 52.5q64 0 91.5 -50.5t27.5 -160.5q0 -115 -28 -164t-91 -49 q-67 0 -98 49.5t-31 163.5zM690 279q0 -131 90.5 -220.5t200.5 -89.5q105 0 193 89.5t88 220.5q0 127 -88 216t-193 89q-109 0 -200 -89t-91 -216zM852 279q0 106 34 158t95 52q64 0 91.5 -50t27.5 -160q0 -115 -28 -164t-91 -49q-67 0 -98 49.5t-31 163.5z" />
<glyph unicode="&#x26;" horiz-adv-x="1454" d="M123 307q0 65 25 129.5t60 114.5t91 104.5t99.5 89.5t103.5 78q-24 34 -63 86.5t-55.5 75.5t-36.5 56.5t-27 59t-7 52.5q0 152 86.5 231.5t231.5 79.5q57 0 106.5 -12.5t94 -41t70.5 -82.5t26 -128q0 -116 -49 -194t-162 -162l268 -342l164 225q-11 27 -30 48t-33 29 l-13 7v33h277v-37q-5 -1 -13.5 -5t-30.5 -24.5t-38 -50.5l-224 -301l222 -301q68 -61 127 -86v-39h-293l-174 248q-83 -113 -194.5 -192t-223.5 -79q-181 0 -283 85.5t-102 244.5zM354 397q23 -91 89.5 -145.5t146.5 -54.5q154 0 264 145l-295 391q-131 -105 -177.5 -183.5 t-27.5 -152.5zM440 1180q0 -47 8 -72t31 -51q22 -24 65.5 -35t57.5 -27l60 -63q70 48 102.5 109t32.5 153q0 71 -38 120t-128 48q-51 -1 -89 -17t-59.5 -42.5t-32 -57t-10.5 -65.5z" />
<glyph unicode="'" horiz-adv-x="374" d="M123 1188l24 -131h82l23 131v246h-129v-246z" />
<glyph unicode="(" horiz-adv-x="714" d="M61 508q0 194 64 386t193 359t303 265l32 -66q-113 -102 -188 -261t-106 -328t-31 -355q0 -135 14.5 -252.5t49 -238t100.5 -229.5t161 -198l-30 -67q-164 88 -294 251t-199 355.5t-69 378.5z" />
<glyph unicode=")" horiz-adv-x="673" d="M20 -410q95 89 161 198t101 229.5t49.5 238t14.5 252.5q0 288 -79.5 540.5t-246.5 403.5l33 66q174 -97 302.5 -264.5t192.5 -359.5t64 -386q0 -186 -68.5 -378.5t-198.5 -355.5t-294 -251z" />
<glyph unicode="*" horiz-adv-x="581" d="M82 1098l10 -41l146 41l38 -144h33l41 144l133 -41l17 41l-113 96l113 111l-17 24l-133 -51l-41 156h-33l-38 -156l-142 51l-14 -24l98 -111z" />
<glyph unicode="+" horiz-adv-x="716" d="M63 530v123h242v240h123v-240h227v-123h-229v-247h-123v247h-240z" />
<glyph unicode="," horiz-adv-x="450" d="M82 100q0 53 40 95.5t87 42.5q58 0 98.5 -41.5t40.5 -96.5q0 -46 -22 -82l-203 -309v141l72 109q-45 6 -79 46t-34 95z" />
<glyph unicode="-" horiz-adv-x="907" d="M61 473h758l27 123h-758z" />
<glyph unicode="." horiz-adv-x="538" d="M184 117q0 -63 39 -105.5t90 -42.5q61 0 102.5 42t41.5 106q0 56 -42.5 97.5t-101.5 41.5q-50 0 -89.5 -42t-39.5 -97z" />
<glyph unicode="/" horiz-adv-x="671" d="M-20 0v41l591 1393h121v-37l-588 -1397h-124z" />
<glyph unicode="0" horiz-adv-x="1341" d="M61 725q0 -163 49.5 -304.5t133 -239.5t196 -154t236.5 -56q121 0 231.5 56t193 154t131 239.5t48.5 304.5q0 158 -48.5 297.5t-131 236t-193 152t-231.5 55.5q-124 0 -237 -55.5t-196 -152.5t-132.5 -236t-49.5 -297zM348 725q0 139 16 246t52.5 193.5t102 132.5 t157.5 46q77 0 133.5 -31.5t91.5 -84t56 -133.5t28.5 -168.5t7.5 -200.5q0 -118 -7.5 -207.5t-28.5 -172t-56 -135.5t-91.5 -84.5t-133.5 -31.5q-93 0 -158 46t-101.5 133t-52.5 197t-16 255z" />
<glyph unicode="1" horiz-adv-x="659" d="M61 0v39q3 1 8.5 2.5t22 9t32.5 19t36 34.5t37 52v917q-26 46 -60 75.5t-55 35.5l-21 6v39q13 0 68.5 20.5t143 71.5t145.5 113h45v-1278q26 -46 60 -75.5t55 -35.5l20 -6v-39h-537z" />
<glyph unicode="2" horiz-adv-x="1161" d="M61 0v39q49 44 97.5 89t119.5 118.5t131 144t124 160.5t108.5 173.5t73 177t28.5 177.5q0 143 -46.5 203.5t-166.5 60.5q-88 0 -150 -23.5t-94 -57t-57 -84.5h-51q6 26 11.5 45t19.5 51t32 55.5t50 51t71.5 45t97.5 29t128 11.5q184 0 290.5 -104t106.5 -285 q0 -70 -29 -148.5t-70 -145t-106 -148t-117.5 -137.5t-124.5 -133.5t-108 -118.5h481l142 98h47l-185 -344h-854z" />
<glyph unicode="3" horiz-adv-x="1034" d="M61 236h70q49 -87 119 -122.5t188 -35.5q139 0 204 91.5t65 270.5q0 322 -254 322q-62 0 -101 -5t-47 -9l-8 -5v62l311 381h-477v26q8 12 21 32t36.5 78t28.5 110h715v-41l-438 -543q200 -11 335 -118.5t144 -289.5q11 -216 -132.5 -340.5t-402.5 -124.5q-141 0 -233 66 t-144 195z" />
<glyph unicode="4" horiz-adv-x="1110" d="M61 346v29l756 1059h51v-985h181l-29 -103h-152v-190q26 -46 60 -75.5t55 -35.5l21 -6v-39h-537v39q3 1 8.5 2.5t22 9t32 19t35.5 34.5t37 52v190h-541zM242 449h360v507z" />
<glyph unicode="5" horiz-adv-x="1017" d="M61 240h64q50 -76 117.5 -107t185.5 -31q139 0 204 86t56 267q0 72 -18.5 134.5t-61 112t-104 74t-155 15.5t-206.5 -58v41l162 660h627l-53 -209v-37h-517l-79 -311q97 39 195 41t181.5 -31t149.5 -92.5t104.5 -147t42.5 -190.5q8 -219 -135 -342.5t-393 -114.5 q-139 0 -224 51.5t-143 188.5z" />
<glyph unicode="6" horiz-adv-x="1077" d="M61 506q0 98 23 196.5t78 204t138 199t212 180t291 148.5v-60q-128 -70 -239.5 -204t-170.5 -293q75 38 158 38q204 0 334.5 -127.5t130.5 -347.5q0 -218 -129.5 -341.5t-335.5 -123.5q-243 0 -366.5 133.5t-123.5 397.5zM330 465q0 -81 11 -147.5t35.5 -122t68 -86.5 t102.5 -31q87 0 155 106t68 256q0 101 -23.5 183.5t-74 136t-121.5 53.5q-79 0 -129.5 -47.5t-71 -122.5t-20.5 -178z" />
<glyph unicode="7" horiz-adv-x="946" d="M61 1188h623l-504 -1149v-39h101l604 1393v41h-758q-12 -46 -28.5 -98t-26.5 -80l-11 -29v-39z" />
<glyph unicode="8" horiz-adv-x="1089" d="M61 373q0 -108 37.5 -187t106 -124.5t154.5 -67t194 -21.5q78 0 147 12.5t132 42.5t107 76t68.5 116t20.5 159q0 65 -27 128.5t-73.5 118t-99.5 98.5t-115 83q84 40 146.5 138.5t62.5 189.5q0 106 -49 182.5t-125 111.5t-170 35q-59 0 -118 -11.5t-117 -38t-102.5 -65 t-72 -97.5t-27.5 -130q0 -58 18.5 -108.5t56 -94t73.5 -74.5t92 -71q-70 -34 -123 -69.5t-100 -84t-72 -111t-25 -136.5zM328 371q-1 66 8.5 119.5t23 86.5t36 61t39.5 41t40 28q59 -37 102 -69.5t89 -78.5t71 -100.5t25 -112.5q0 -55 -11 -102t-34.5 -85.5t-65.5 -60.5 t-98 -22q-54 0 -95.5 18.5t-65.5 47.5t-39 69.5t-20 78.5t-5 81zM363 1190q0 30 16 60.5t40.5 55.5t66 40.5t92.5 15.5q123 0 182 -60.5t59 -166.5q0 -81 -60.5 -158.5t-129.5 -112.5q-194 115 -258 271q-8 25 -8 55z" />
<glyph unicode="9" horiz-adv-x="1032" d="M61 1028q0 136 62.5 236.5t164 150t226.5 49.5q226 6 341.5 -117t115.5 -356q0 -114 -24 -223.5t-80 -222t-140.5 -210t-213 -185t-290.5 -148.5v68q138 72 269 215.5t180 294.5l16 49q-47 -19 -79.5 -26t-88.5 -7q-125 0 -228 49.5t-167 149.5t-64 233zM328 1028 q0 -96 17.5 -167t61.5 -117t113 -46q47 0 81 16.5t53.5 43t30 71t14 89.5t3.5 110q0 61 -4 106t-16 90t-32 74t-54.5 46.5t-81.5 17.5q-89 0 -137.5 -94.5t-48.5 -239.5z" />
<glyph unicode=":" horiz-adv-x="518" d="M123 117q0 -63 39 -105.5t90 -42.5q61 0 102 42t41 106q0 56 -42 97.5t-101 41.5q-50 0 -89.5 -42t-39.5 -97zM123 774q0 -63 39 -105t90 -42q61 0 102 41.5t41 105.5q0 56 -42 97.5t-101 41.5q-50 0 -89.5 -42t-39.5 -97z" />
<glyph unicode=";" horiz-adv-x="518" d="M123 774q0 55 39.5 97t89.5 42q59 0 101 -41.5t42 -97.5q0 -64 -41 -105.5t-102 -41.5q-51 0 -90 42t-39 105zM125 100q0 53 40 95.5t87 42.5q58 0 98.5 -41.5t40.5 -96.5q0 -46 -22 -82l-203 -309v141l72 109q-45 6 -79 46t-34 95z" />
<glyph unicode="&#x3c;" horiz-adv-x="757" d="M61 487v58l594 407v-145l-419 -289l419 -293v-143z" />
<glyph unicode="=" horiz-adv-x="940" d="M123 387h610l27 123h-610zM180 645h611l26 123h-610z" />
<glyph unicode="&#x3e;" horiz-adv-x="757" d="M102 82v143l420 293l-420 289v145l594 -407v-58z" />
<glyph unicode="?" horiz-adv-x="882" d="M82 1157h65q4 52 21 90t40.5 60t58 35t67.5 17t74 3q31 0 55 -6.5t39.5 -14t26 -24t16 -27.5t8 -33.5t2.5 -33v-35.5q0 -70 -21.5 -137.5t-52.5 -126.5t-62 -122.5t-52.5 -151.5t-22.5 -187v-70h94v68q2 68 24.5 131t56.5 113t74.5 98t81 92.5t73.5 88.5t53 95t20 103 q-1 73 -34 128.5t-90.5 88.5t-129.5 49t-157 16q-161 0 -244.5 -72t-83.5 -210v-25zM258 119q0 -62 40.5 -106t92.5 -44q60 0 102 43.5t42 106.5q0 56 -42.5 97.5t-101.5 41.5q-51 0 -92 -42t-41 -97z" />
<glyph unicode="@" horiz-adv-x="1570" d="M61 444q0 149 55.5 285t152 237.5t234.5 161.5t294 60q113 0 218.5 -28.5t195 -85t156.5 -133.5t104.5 -181t37.5 -221q0 -230 -75 -356t-207 -126q-206 0 -234 150q-40 -73 -105.5 -113.5t-131.5 -40.5q-164 0 -272.5 116t-108.5 286q0 166 107 273.5t274 107.5 q147 0 227 -95q0 -2 15.5 4t43 24.5t52.5 43.5h45v-561q3 -43 22.5 -66.5t69.5 -23.5q74 0 114.5 103.5t40.5 271.5q0 156 -81.5 278t-215 186t-292.5 64q-136 0 -252.5 -50.5t-194.5 -136t-122 -198t-44 -236.5q0 -163 76 -303t211.5 -224.5t298.5 -84.5q89 0 209 22 t195 54v-123q-164 -76 -404 -76q-195 0 -359 102t-257 270.5t-93 362.5zM586 455q0 -82 17.5 -152.5t57 -119t95.5 -48.5q81 0 127.5 96.5t46.5 223.5q0 123 -45.5 212t-128.5 89q-56 0 -95.5 -44.5t-57 -111t-17.5 -145.5z" />
<glyph unicode="A" horiz-adv-x="1583" d="M61 0v39q2 1 6.5 2t17.5 9t26.5 19t31.5 33t35 50l473 1159q5 2 14 6t34 17t46 27t43 35t33 42h49l525 -1288q26 -44 58 -71.5t51 -33.5l18 -6v-39h-570v39q2 1 6.5 2.5t18 9t27 19t32 34.5t35.5 52l-110 252h-533l-106 -252q26 -46 55.5 -75.5t46.5 -35.5l16 -6v-39 h-379zM467 532h459l-226 582z" />
<glyph unicode="B" horiz-adv-x="1345" d="M61 0v39q2 1 6.5 2.5t18 9t27 19t32 34.5t35.5 52v1122q-26 46 -56 75.5t-46 35.5l-17 6v39h693q218 0 343.5 -87.5t125.5 -250.5q0 -133 -77 -218.5t-173 -95.5q55 -10 107.5 -37.5t99.5 -72t75.5 -113.5t28.5 -151q0 -207 -110.5 -307.5t-315.5 -100.5h-797zM446 182 q14 -21 29 -35.5t23 -18.5l8 -5h268q112 0 167.5 82.5t55.5 214.5q0 120 -68.5 196t-207.5 86h-215q-29 -12 -60 -59v-461zM446 879q29 -41 54 -54h221q97 9 160 76.5t63 171.5q0 111 -70 174.5t-180 63.5h-188q-29 -13 -60 -60v-372z" />
<glyph unicode="C" horiz-adv-x="1304" d="M61 729q0 153 53.5 288.5t148.5 234t233 155.5t299 57q104 0 226.5 -32.5t215.5 -90.5l-86 -313h-47q-6 91 -22 146.5t-52 95t-95 55.5t-153 16q-209 -10 -321.5 -173t-112.5 -439q0 -300 117.5 -466.5t329.5 -166.5q138 0 210 31t177 137h61q-47 -86 -100 -144.5 t-113.5 -90t-121.5 -44t-138 -12.5q-172 0 -307.5 56.5t-223 157.5t-133 239t-45.5 303z" />
<glyph unicode="D" horiz-adv-x="1402" d="M61 0v39q2 1 6.5 2t17.5 9t26.5 19t31.5 33t35 50v1130q-26 44 -55.5 72.5t-45.5 34.5l-16 6v39h641q194 0 340.5 -93.5t222.5 -256t76 -369.5q0 -157 -44.5 -289t-126 -226t-201.5 -147t-267 -53h-641zM444 180q30 -44 56 -57h202q92 0 161 43.5t110.5 123.5t61.5 186 t20 239t-20 239.5t-61.5 187.5t-110.5 125t-161 44h-198q-29 -13 -60 -60v-1071z" />
<glyph unicode="E" horiz-adv-x="1280" d="M61 0v39q2 1 6.5 2t17.5 9t26.5 19t31.5 33t35 50v1130q-26 44 -55.5 72.5t-45.5 34.5l-16 6v39h934l117 -228h-51l-117 105h-440q-29 -13 -60 -60v-362q14 -21 29 -36t23 -19l8 -5h266q48 26 78.5 56t36.5 47l6 16h37v-360h-37q0 2 -1.5 6.5t-9.5 18t-20 27t-35.5 32 t-54.5 35.5h-270q-25 -13 -56 -58v-467q14 -21 29 -35.5t23 -18.5l8 -5h543l122 127h50l-111 -250h-1047zM467 1311h16q-3 1 -7 1t-9 -1z" />
<glyph unicode="F" horiz-adv-x="1153" d="M61 0v39q2 1 6.5 2t17.5 9t26.5 19t31.5 33t35 50v1130q-26 44 -55.5 72.5t-45.5 34.5l-16 6v39h914l117 -228h-52l-116 105h-420q-29 -13 -60 -60v-362q14 -21 29 -36t23 -19l8 -5h246q48 26 78 56t36 47l6 16h37v-360h-37q0 2 -1.5 6.5t-9.5 18t-19.5 27t-35 32 t-54.5 35.5h-250q-25 -13 -56 -58l-4 19v-512q26 -46 56 -75.5t46 -35.5l17 -6v-39h-498zM467 1311h16q-3 1 -7 1t-9 -1z" />
<glyph unicode="G" horiz-adv-x="1413" d="M61 719q0 158 52.5 296.5t145.5 238t228 157t293 57.5q104 0 236.5 -31t222.5 -85l-88 -326h-41q-5 90 -23 148.5t-56.5 98t-98.5 56.5t-152 17q-211 0 -321.5 -169.5t-110.5 -457.5q0 -297 107.5 -460t320.5 -163q144 0 223 27v588q-18 34 -40 55t-32 25t-14 4v28h439 v-28q-5 -1 -13 -4.5t-31 -24.5t-42 -55v-518q-21 -36 -45 -65t-46.5 -51t-52.5 -38.5t-53.5 -27.5t-59 -18.5t-59.5 -11t-65 -5.5t-65 -2.5t-70 -0.5q-169 0 -301.5 57t-216.5 158t-127.5 236t-43.5 295z" />
<glyph unicode="H" d="M61 0v39q2 1 6.5 2.5t18 9t27 19t32 34.5t35.5 52v1122q-26 46 -56 75.5t-46 35.5l-17 6v39h504v-39q-2 -1 -6.5 -2.5t-18 -9t-27 -19t-32 -34.5t-35.5 -52v-395q14 -21 29 -36t23 -19l8 -5h483q27 13 58 56v399q-26 46 -56 75.5t-47 35.5l-16 6v39h504v-39 q-2 -1 -6.5 -2.5t-18 -9t-27 -19t-32 -34.5t-35.5 -52v-1122q26 -46 56 -75.5t47 -35.5l16 -6v-39h-504v39q2 1 6.5 2.5t18 9t27 19t32 34.5t35.5 52v485q-14 21 -29 35.5t-23 19.5l-8 4h-481q-29 -12 -60 -59v-485q26 -46 56 -75.5t46 -35.5l17 -6v-39h-504z" />
<glyph unicode="I" horiz-adv-x="616" d="M61 0v39q2 1 6.5 2t17.5 9t26 19t31 33t34 50v1138q-24 43 -51.5 69.5t-42.5 32.5l-16 5v37h485v-39q-6 -1 -16.5 -5.5t-39.5 -32t-53 -71.5v-1141q24 -44 52.5 -71.5t44.5 -33.5l16 -5v-35h-494z" />
<glyph unicode="J" horiz-adv-x="729" d="M61 -254q55 -26 95 -26q46 0 74 34q53 64 53 258v1266q-26 46 -56 75.5t-47 35.5l-16 6v39h504v-39q-2 -1 -6.5 -2.5t-18 -9t-27 -19t-32 -34.5t-35.5 -52v-1225q0 -91 -24 -165t-64 -121t-91.5 -77t-105.5 -38q-22 -3 -45 -3q-31 0 -62 7q-53 10 -96 39v51z" />
<glyph unicode="K" horiz-adv-x="1488" d="M61 0v39q2 1 6.5 2.5t18 9t27 19t32 34.5t35.5 52v1122q-26 46 -56 75.5t-46 35.5l-17 6v39h504v-39q-2 -1 -6.5 -2.5t-18 -9t-27 -19t-32 -34.5t-35.5 -52v-426l437 426q-26 46 -56 75.5t-47 35.5l-16 6v39h489v-43q-56 -17 -102.5 -44t-64.5 -45l-19 -18l-408 -391 l572 -725q9 -10 25 -26t67 -51t104 -52v-39h-684v39q2 1 6.5 2.5t18 9t27 19t32 34.5t35.5 52l-391 534l-25 -22v-512q26 -46 56 -75.5t46 -35.5l17 -6v-39h-504z" />
<glyph unicode="L" horiz-adv-x="1253" d="M61 0v39q2 1 6.5 2.5t18 9t27 19t32 34.5t35.5 52v1122q-26 46 -56 75.5t-46 35.5l-17 6v39h504v-39q-2 -1 -6.5 -2.5t-18 -9t-27 -19t-32 -34.5t-35.5 -52v-1096q14 -21 29 -35.5t23 -18.5l8 -5h485l142 129h59l-143 -252h-988z" />
<glyph unicode="M" horiz-adv-x="1742" d="M61 1395v39h486l338 -971l348 971h448v-39q-2 -1 -6.5 -2.5t-18 -9t-26.5 -19t-31.5 -34.5t-35.5 -52v-1122q26 -46 55.5 -75.5t45.5 -35.5l17 -6v-39h-383v-2h-118v39q6 1 17.5 6t42 34t56.5 73v1099l-383 -1102q-35 -21 -66 -57.5t-45 -63.5l-14 -26h-53l-422 1249 v-1093q26 -46 56 -75.5t47 -35.5l16 -6v-39h-237v-2h-119v39q2 1 6.5 2t18 9t27 19.5t32 33.5t35.5 51l-15 1173v-47q-26 46 -56 75.5t-46 35.5z" />
<glyph unicode="N" horiz-adv-x="1441" d="M61 0v39q2 1 6.5 2.5t18 9t27 19t32 34.5t35.5 52v1128l-78 98v52h328l709 -912v758q-26 46 -56 75.5t-47 35.5l-16 6v39h360v-39q-2 -1 -6.5 -2.5t-18 -9t-26.5 -19t-31.5 -34.5t-35.5 -52v-1280h-97l-862 1139v-983q26 -46 56 -75.5t47 -35.5l16 -6v-39h-361z" />
<glyph unicode="O" d="M61 711q0 -158 51.5 -295t142 -234.5t219.5 -153t280 -55.5q147 0 273 55.5t215 153t139.5 234.5t50.5 295q0 216 -86 387.5t-241 267.5t-351 96q-201 0 -359.5 -96t-246 -267t-87.5 -388zM348 711q0 283 106.5 455.5t299.5 172.5q188 0 289.5 -172t101.5 -456 q0 -177 -43 -314t-133 -219t-215 -82q-128 0 -221.5 82t-139 219.5t-45.5 313.5z" />
<glyph unicode="P" horiz-adv-x="1212" d="M61 0v39q2 1 6.5 2.5t18 9t27 19t32 34.5t35.5 52v1122q-26 46 -56 75.5t-46 35.5l-17 6v39h631q210 0 334.5 -112t124.5 -296q0 -216 -139.5 -330t-399.5 -114h-110q-25 -13 -56 -58v-368q26 -46 56 -75.5t46 -35.5l17 -6v-39h-504zM446 764q14 -21 29 -35.5t23 -18.5 l8 -5h55q68 0 115.5 6t82 23t54.5 39t32 61t15.5 82.5t3.5 109.5q0 164 -54 224.5t-206 60.5h-98q-29 -13 -60 -60v-487z" />
<glyph unicode="Q" d="M61 711q0 217 87.5 388t246 267t359.5 96q196 0 351 -96t241 -267.5t86 -387.5q0 -204 -80 -368t-225.5 -261t-331.5 -107l24 -2l223 -36l295 -187v-33h-299l-338 230q-46 27 -90 37l27 -2q-258 41 -417 241.5t-159 487.5zM348 711q0 -176 45.5 -313.5t139 -219.5 t221.5 -82q125 0 215 82t133 219t43 314q0 284 -101.5 456t-289.5 172q-193 0 -299.5 -172.5t-106.5 -455.5z" />
<glyph unicode="R" horiz-adv-x="1423" d="M61 0v39q2 1 6.5 2.5t18 9t27 19t32 34.5t35.5 52v1122q-26 46 -56 75.5t-46 35.5l-17 6v39h666q204 0 307 -109t103 -289q0 -167 -83.5 -270t-244.5 -123l133 -86l213 -367q45 -52 97 -90t81 -50l29 -11v-39h-418l-358 631h-84q-25 -13 -56 -58v-417q26 -46 56 -75.5 t46 -35.5l17 -6v-39h-504zM446 813q14 -21 29 -35.5t23 -19.5l8 -4h106q75 0 122.5 16.5t72.5 54.5t34 86t9 125q0 84 -8.5 132t-34.5 83t-72 47.5t-123 12.5h-110q-25 -13 -56 -58v-440z" />
<glyph unicode="S" horiz-adv-x="1038" d="M61 10v359h48q29 -74 65 -127t70.5 -81.5t79.5 -44.5t81 -20t87 -4q72 0 138.5 25t112 78.5t45.5 123.5q0 60 -15.5 103.5t-51 76t-74 53.5t-102.5 48l-154 66q-159 68 -242 168.5t-83 242.5q0 170 129 278.5t323 108.5q99 0 212 -24t183 -60l-73 -282h-47 q-4 139 -73 191t-202 52q-109 0 -182.5 -47.5t-73.5 -128.5q0 -26 3 -47.5t12 -39.5t16 -31t24.5 -26.5t26.5 -20.5t33 -18t34.5 -15.5t39.5 -16.5l198 -78q144 -58 236 -176t92 -276q0 -206 -138.5 -328.5t-346.5 -122.5q-138 0 -206 23.5t-143 81.5l-32 -64h-50z" />
<glyph unicode="T" horiz-adv-x="1447" d="M61 1192l134 244h1062l129 -244h-59l-123 121h-286q-29 -13 -60 -60v-1097q26 -46 56 -75.5t46 -35.5l17 -6v-39h-504v39q2 1 6.5 2.5t18 9t27 19t32 34.5t35.5 52v1097q-14 21 -29 36t-23 19l-8 5h-286l-125 -121h-60z" />
<glyph unicode="U" horiz-adv-x="1445" d="M61 1395v39h502v-39q-2 -1 -6.5 -2t-17.5 -9t-26.5 -19t-31.5 -33t-35 -50v-719q0 -54 3 -98t12 -95.5t24 -91.5t41.5 -78.5t62.5 -63.5t88 -40.5t116 -15.5q55 0 100.5 8.5t79.5 22.5t60 38t44 48t30.5 60.5t19.5 67t10.5 75.5t4.5 79t1 84v715q-26 46 -56 75.5 t-47 35.5l-16 6v39h360v-39q-2 -1 -6.5 -2.5t-18 -9t-26.5 -19t-31.5 -34.5t-35.5 -52v-715q0 -81 -4.5 -143.5t-17.5 -126t-34.5 -109.5t-57.5 -87t-85 -66t-118 -39.5t-156 -14.5q-145 0 -251.5 25t-175.5 71.5t-111 120.5t-58.5 162t-16.5 207v715q-26 46 -56 75.5 t-46 35.5z" />
<glyph unicode="V" horiz-adv-x="1480" d="M61 1395v39h514v-39q-2 -1 -6.5 -2.5t-18 -9t-26.5 -19t-31.5 -34.5t-35.5 -52l368 -891l349 891l-9 14q-25 41 -52.5 66.5t-42.5 31.5l-15 5v39h364v-39q-2 -1 -6.5 -2.5t-18 -9t-27 -19t-32 -34.5t-35.5 -52l-434 -1131q-3 -2 -9.5 -5t-24 -15.5t-33.5 -27.5t-35 -41.5 t-33 -57.5h-55l-496 1278q-26 46 -56 75.5t-46 35.5z" />
<glyph unicode="W" horiz-adv-x="2179" d="M61 1395v39h543v-39q-6 0 -20 -6t-44 -35.5t-55 -75.5l295 -866l295 909q9 5 23 13.5t47 38t53 61.5h64l342 -1018l270 862q-25 46 -55 75.5t-44 35.5t-20 6v39h363v-39q-6 0 -20 -6t-44 -34.5t-55 -74.5l-348 -1133q-4 0 -28 -16t-59.5 -52.5t-56.5 -78.5h-67l-336 1008 l-279 -865q-4 -2 -10 -6t-24 -18t-33.5 -29.5t-34 -40t-29.5 -49.5h-71l-443 1278q-25 46 -55 75.5t-44 35.5t-20 6z" />
<glyph unicode="X" horiz-adv-x="1460" d="M61 1395v39h586v-39q-2 -1 -6.5 -2.5t-18 -9t-27 -19t-32 -34.5t-35.5 -52l256 -383l275 385q-26 45 -56 74t-47 35l-16 6v39h389v-39q-31 -7 -72 -52l-16 -22l-29 -39l-2 -4l-358 -492l428 -630l8 -13l19 -28l18 -25q18 -20 36.5 -32.5t28.5 -15.5l9 -3v-39h-594v39 q2 1 6.5 2.5t18 9t27 19t32 34.5t35.5 52l-267 419l-303 -419l4 -6q25 -44 54 -71.5t45 -33.5l16 -6v-39h-395v39q5 1 13.5 4t32.5 22.5t46 49.5q1 2 11 17.5t16 23.5l389 522l-406 600l-2 4l-26 39l-2 2q-21 28 -43 46t-34 22z" />
<glyph unicode="Y" horiz-adv-x="1292" d="M61 1395v39h560v-39q-2 -1 -6.5 -2.5t-18 -9t-27 -19t-32 -34.5t-35.5 -52l233 -467l246 467q-26 46 -56 75.5t-47 35.5l-16 6v39h369v-39q-2 -1 -6.5 -2.5t-18 -9t-27 -19t-32 -34.5t-35.5 -52l-328 -672v-450q26 -46 56 -75.5t46 -35.5l17 -6v-39h-504v39q2 1 6.5 2.5 t18 9t27 19t32 34.5t35.5 52v450l-338 672q-26 46 -56 75.5t-46 35.5z" />
<glyph unicode="Z" horiz-adv-x="1241" d="M61 0v45l754 1266h-489l-109 -103h-67l114 226h916v-50l-731 -1261h528l123 131h67l-145 -254h-961z" />
<glyph unicode="[" horiz-adv-x="745" d="M184 -133v1706h521v-103h-256q-29 -12 -60 -59v-1382q14 -21 29 -36t23 -19l8 -5h256v-102h-521z" />
<glyph unicode="\" horiz-adv-x="671" d="M-20 1399v35h120l592 -1393v-41h-123z" />
<glyph unicode="]" horiz-adv-x="745" d="M41 -31h256q28 13 59 60v1382q-14 21 -28.5 35.5t-22.5 19.5l-8 4h-256v103h520v-1706h-520v102z" />
<glyph unicode="^" horiz-adv-x="845" d="M61 958l287 469h148l288 -469h-143l-217 355l-221 -355h-142z" />
<glyph unicode="_" horiz-adv-x="1501" d="M123 -272h1229l26 122h-1228z" />
<glyph unicode="`" horiz-adv-x="284" d="M-41 1339v179l367 -175v-63z" />
<glyph unicode="a" horiz-adv-x="1212" d="M61 483q0 212 136 349t348 137q95 0 165.5 -28t125.5 -93q0 -2 19 6t54 31t66 55h57v-784q26 -46 56 -75.5t46 -35.5l17 -6v-39h-313l-52 109q-35 -67 -97.5 -101.5t-143.5 -34.5q-209 0 -346.5 146.5t-137.5 363.5zM328 483q0 -103 22.5 -193t73.5 -152t121 -62 t122 61.5t75.5 152t23.5 193.5q0 101 -23 186t-74.5 141t-123.5 56q-70 0 -120.5 -56t-73.5 -141t-23 -186z" />
<glyph unicode="b" horiz-adv-x="1239" d="M61 0v39q3 1 8 2.5t20.5 9t30 19t34 34.5t36.5 52v1185q-26 46 -55.5 75.5t-46.5 35.5l-16 6v39q23 3 59.5 10t120 33.5t131.5 58.5h51v-759q39 56 119.5 90.5t165.5 34.5q233 0 346 -121t113 -346q0 -113 -26 -206t-79.5 -165.5t-143.5 -113t-210 -40.5 q-82 0 -159.5 37.5t-125.5 98.5l-45 -109h-328zM451 498q0 -182 72.5 -302t191.5 -120q57 0 99.5 37t66.5 100t35.5 134.5t11.5 150.5q0 103 -21 181t-71.5 127.5t-126.5 49.5q-118 0 -188 -102.5t-70 -255.5z" />
<glyph unicode="c" horiz-adv-x="989" d="M61 467q0 -102 32 -189t95 -156.5t167 -109t239 -39.5q217 0 334 207h-70q-56 -50 -105 -74.5t-75 -28t-72 -3.5q-136 0 -207 106.5t-71 286.5q0 183 68 292t210 109q49 0 87.5 -16.5t62 -42t39.5 -61t23.5 -67.5t10.5 -69h37l47 265q-176 94 -307 94 q-108 0 -198.5 -26.5t-154 -73.5t-107.5 -111t-64.5 -137.5t-20.5 -155.5z" />
<glyph unicode="d" horiz-adv-x="1251" d="M61 485q0 233 128 355.5t374 122.5q189 0 264 -115v493q-26 46 -55.5 75.5t-45.5 35.5l-17 6v41q22 3 58.5 9.5t120.5 32.5t134 58h51v-1447q26 -44 55.5 -72.5t45.5 -34.5l16 -6v-39h-322l-41 113q-37 -69 -106.5 -104.5t-155.5 -35.5q-165 0 -280 66.5t-169.5 180 t-54.5 265.5zM328 485q0 -101 23 -191t77 -154t131 -64q72 0 129.5 63.5t86 155.5t28.5 190q0 156 -67 265.5t-177 109.5q-78 0 -131.5 -53.5t-76.5 -135.5t-23 -186z" />
<glyph unicode="e" horiz-adv-x="989" d="M60 456q-1 8 -1 13q0 6 2 8v1v1v2q0 220 125.5 355t327.5 135q101 0 182.5 -36t130.5 -95.5t75 -131.5t26 -149v-43l-606 -119q-2 1 -3 0.5t-8 -2.5q15 -151 85 -237q67 -82 181 -82h11q3 2 14.5 -0.5t40.5 3t59.5 14t73 32t80.5 57.5h62q-63 -111 -141.5 -160 t-182.5 -49q-81 0 -150.5 13.5t-119.5 36t-92 53.5t-67.5 65.5t-47 71.5t-30.5 73t-17 68.5t-8 58.5t-2 43zM307 502l391 71q-6 68 -17.5 119.5t-32.5 92t-54 62t-78 21.5q-209 0 -209 -366z" />
<glyph unicode="f" horiz-adv-x="856" d="M61 838v39l119 14v254q3 186 141 297.5t398 111.5h76l-43 -233h-35q-12 75 -42 107q-21 22 -64 22q-19 0 -42 -4q-16 -3 -31.5 -10t-37 -26.5t-37 -49t-26.5 -82.5t-11 -121v-237l211 26l-10 -102l-201 -29v-659q26 -46 56 -75.5t46 -35.5l17 -6v-39h-477v39q6 1 17 6 t40.5 31.5t54.5 68.5v576q-26 46 -56 75.5t-46 35.5z" />
<glyph unicode="g" horiz-adv-x="1165" d="M61 -354q0 40 13 71t41 55t49.5 37.5t58.5 32.5q-11 5 -28 14.5t-57 49t-64 88.5l125 94l196 62q-158 28 -234.5 136.5t-76.5 266.5q0 191 116 305.5t351 114.5q67 0 125 -11t93 -26.5t60 -31.5t35 -27l10 -11l134 72h57l-88 -217q20 -30 26.5 -68t6.5 -100 q0 -103 -43 -191t-129.5 -146.5t-200.5 -65.5q-36 -7 -95 -40.5t-100 -63.5l-41 -30q6 0 18 -9t55 -29.5t114 -40.5q218 -62 281 -87q164 -65 212 -161q23 -48 23 -107q0 -66 -20.5 -115.5t-63.5 -78t-83 -46t-105.5 -24.5t-102.5 -8.5t-102 -1.5q-210 0 -334 36t-178 108.5 t-54 193.5zM299 -354q0 -58 19.5 -101.5t50 -68.5t76 -40.5t90.5 -20.5t100 -5q59 0 99 3.5t79 13.5t58.5 31.5t19.5 54.5q0 16 -7 31t-23.5 29t-31 25t-43.5 24t-46.5 20.5t-54 20t-52 17.5t-53.5 17q-31 10 -110 31t-114 36q-32 -30 -44.5 -54t-12.5 -64zM350 553 q0 -62 10.5 -116t33 -100t63 -72.5t94.5 -26.5q55 0 95.5 26.5t62.5 72.5t32.5 99.5t10.5 116.5t-10.5 117.5t-32.5 100.5t-62.5 72.5t-95.5 26.5q-54 0 -94.5 -26.5t-63 -72.5t-33 -100.5t-10.5 -117.5z" />
<glyph unicode="h" horiz-adv-x="1284" d="M61 0v39q2 1 6.5 2.5t18 9t27 19t32 34.5t35.5 52v1185q-26 46 -56 75.5t-46 35.5l-17 6v39q24 3 62 9t124.5 30.5t135.5 56.5h47l-8 -786q7 14 27.5 35.5t60 51.5t106 50.5t144.5 20.5q152 0 248 -97.5t96 -240.5v-471q26 -46 56 -75.5t46 -35.5l17 -6v-39h-482v39 q2 1 6.5 2t17.5 9t26.5 19t31.5 33t35 50v477q0 50 -14.5 99t-51 86.5t-87.5 37.5q-56 0 -109 -24t-88 -58.5t-55 -59t-27 -38.5v-516q26 -46 56 -75.5t46 -35.5l17 -6v-39h-484z" />
<glyph unicode="i" horiz-adv-x="606" d="M61 0v39q2 1 6.5 2.5t18 9t27 19t32 34.5t35.5 52v530q-26 46 -56 75.5t-46 35.5l-17 6v39h2q9 1 23.5 2t56 8t78.5 16.5t80 28t70 41.5h55v-782q26 -46 56 -75.5t46 -35.5l17 -6v-39h-484zM168 1274q0 55 41 97t92 42q59 0 101 -41.5t42 -97.5q0 -63 -41.5 -106.5 t-101.5 -43.5q-52 0 -92.5 44t-40.5 106z" />
<glyph unicode="j" horiz-adv-x="651" d="M61 -379q47 -21 87 -21q59 0 103 44q75 74 75 243v799q-26 46 -56 75.5t-46 35.5l-17 6v39h16q60 9 152.5 36t140.5 60h55v-1047q0 -101 -29.5 -182t-81 -128.5t-116.5 -67.5q-37 -12 -77 -12q-30 0 -61 7q-74 14 -145 62v51zM317 1274q0 53 40.5 95t88.5 42 q59 0 101.5 -41t42.5 -96q0 -63 -42 -105.5t-102 -42.5q-49 0 -89 43.5t-40 104.5z" />
<glyph unicode="k" horiz-adv-x="1318" d="M61 0v39q2 1 6.5 2.5t18 9t27 19t32 34.5t35.5 52v1187q-26 46 -56 75.5t-46 35.5l-17 6v39q20 2 53.5 7.5t117 32t143.5 63.5h51v-1027l246 205q-26 46 -56 75.5t-46 35.5l-17 6v39h510v-43q-6 -1 -16 -2t-39 -8.5t-55.5 -18t-59.5 -31.5t-57 -47l-203 -172l463 -495 q37 -34 77.5 -51.5t62.5 -17.5l21 -1v-49h-399l-41 51l-358 393l-33 -32v-256q26 -46 56 -75.5t46 -35.5l17 -6v-39h-484z" />
<glyph unicode="l" horiz-adv-x="606" d="M61 0v39q2 1 6.5 2.5t18 9t27 19t32 34.5t35.5 52v1185q-26 46 -56 75.5t-46 35.5l-17 6v39q24 3 62 9t124.5 30.5t135.5 56.5h43v-1437q26 -46 56 -75.5t46 -35.5l17 -6v-39h-484z" />
<glyph unicode="m" horiz-adv-x="1908" d="M61 0v39q2 1 6.5 2.5t18 9t27 19t32 34.5t35.5 52v528q-26 46 -56 75.5t-46 35.5l-17 6v39q15 3 40.5 9.5t91 31.5t114.5 57h55l60 -131q7 12 15.5 25.5t35 39.5t58.5 44.5t86.5 33.5t117.5 15q98 0 177 -48t124 -126q7 12 21.5 29.5t45.5 44t68.5 48t94 37t118.5 15.5 q152 0 248.5 -97.5t96.5 -240.5v-471q26 -46 55.5 -75.5t45.5 -35.5l17 -6v-39h-483v39q2 1 6.5 2.5t18 9t27 19t32 34.5t35.5 52v473q0 50 -15 99t-51.5 86.5t-87.5 37.5q-45 0 -86.5 -16.5t-68 -37.5t-50.5 -50.5t-32.5 -44t-16.5 -29.5q4 -32 4 -47v-471q26 -46 56 -75.5 t47 -35.5l16 -6v-39h-483v39q2 1 6.5 2.5t18 9t27 19t32 34.5t35.5 52v473q0 50 -15 99t-51.5 86.5t-87.5 37.5q-46 0 -88 -17.5t-68 -38.5t-50.5 -51.5t-32 -44t-15.5 -28.5v-516q26 -46 56 -75.5t46 -35.5l17 -6v-39h-484z" />
<glyph unicode="n" horiz-adv-x="1284" d="M61 0v39q2 1 6.5 2.5t18 9t27 19t32 34.5t35.5 52v530q-26 46 -56 75.5t-46 35.5l-17 6v39q16 3 43 9t94.5 30.5t116.5 56.5h47l60 -131q7 14 27.5 35.5t60 51.5t106 50.5t144.5 20.5q152 0 248 -97.5t96 -240.5v-471q26 -46 56 -75.5t46 -35.5l17 -6v-39h-482v39 q2 1 6.5 2t17.5 9t26.5 19t31.5 33t35 50v477q0 50 -14.5 99t-51 86.5t-87.5 37.5q-56 0 -109 -24t-88 -58.5t-55 -59t-27 -38.5v-516q26 -46 56 -75.5t46 -35.5l17 -6v-39h-484z" />
<glyph unicode="o" horiz-adv-x="1060" d="M41 481q0 -107 39 -201.5t105.5 -161t158 -105t193.5 -38.5q128 0 238.5 65t177.5 182t67 259q0 140 -67 253t-177 175t-239 62q-137 0 -250 -62t-179.5 -174.5t-66.5 -253.5zM307 481q0 104 23.5 189.5t76.5 141.5t128 56q74 0 124.5 -56t72.5 -141t22 -190 q0 -76 -12 -145t-36.5 -128t-67 -94.5t-97.5 -35.5q-74 0 -129 61.5t-80 151t-25 190.5z" />
<glyph unicode="p" horiz-adv-x="1261" d="M61 -690q2 1 6.5 2.5t18 9t27 19t32 34.5t35.5 52v1259q-26 46 -56 75.5t-46 35.5l-17 6v39q17 3 44 9.5t94.5 31.5t113.5 57h52l47 -115q39 71 112 109.5t166 38.5q255 0 382.5 -134.5t127.5 -365.5q0 -232 -133 -366t-377 -134q-87 0 -148 35t-116 105v-691 q26 -44 55.5 -72t45.5 -34l16 -6v-39h-482v39zM436 473q0 -102 31 -191.5t92.5 -147.5t140.5 -58q74 0 131 58t85 147t28 192q0 98 -28 187t-85 149.5t-131 60.5q-78 0 -140 -60t-93 -150t-31 -187z" />
<glyph unicode="q" horiz-adv-x="1249" d="M61 463q0 130 40 228t111 156t159 86t192 28q96 0 174.5 -38t112.5 -108q5 1 12.5 3.5t29.5 13t42 22.5t43.5 33.5t38.5 46.5h53v-1507q26 -46 56 -75.5t47 -35.5l16 -6v-39h-483v39q2 1 6.5 2.5t18 9t26.5 19t31.5 34.5t35.5 52v673q-41 -56 -110.5 -91.5t-149.5 -35.5 q-134 0 -248.5 60.5t-184 174t-69.5 255.5zM328 463q0 -158 64 -272.5t167 -114.5q80 0 137.5 55.5t84 141.5t26.5 190q0 108 -27 196t-85 143.5t-138 55.5q-69 0 -122 -55t-80 -144t-27 -196z" />
<glyph unicode="r" horiz-adv-x="755" d="M61 0v39q2 1 6.5 2t17.5 9t26.5 19t31.5 33t35 50v538q-26 44 -55.5 72.5t-45.5 34.5l-16 6v39q21 4 53.5 11.5t105 34.5t110.5 58h47l47 -162q2 1 26.5 23.5t51 43.5t79.5 47t113 42l-43 -172q-13 3 -27 3q-28 1 -56 -11q-42 -16 -67 -39.5t-50 -51t-27 -28.5v-485 q26 -46 56 -75.5t46 -35.5l17 -6v-39h-482z" />
<glyph unicode="s" horiz-adv-x="827" d="M61 2v309h37q14 -65 48 -112.5t79.5 -74t93.5 -38.5t99 -12q44 0 84.5 11.5t70 38.5t29.5 66q0 22 -6.5 40.5t-22.5 33.5t-27.5 24.5t-36 20t-33 13.5t-32.5 12l-116 41q-112 39 -184 121.5t-72 179.5q0 58 20 109.5t61 94t110.5 67t160.5 24.5q68 0 141.5 -21t128.5 -53 l-39 -186h-34q-15 57 -27.5 86t-36.5 46.5t-51 21t-82 3.5q-89 0 -134.5 -35.5t-45.5 -80.5q0 -77 149 -125l129 -39q123 -36 183.5 -109.5t60.5 -218.5q0 -138 -96 -213.5t-252 -75.5q-45 0 -82.5 3.5t-58.5 6.5t-49.5 14t-35 14t-35.5 19.5t-32 18.5l-23 -45h-41z" />
<glyph unicode="t" horiz-adv-x="800" d="M61 866v39q2 0 41.5 62.5t114.5 188.5t156 267h53v-493l160 12l-8 -102l-152 -15v-577q0 -77 33.5 -122.5t91.5 -45.5q36 0 74.5 20t56.5 60h57q-65 -189 -258 -189q-301 0 -301 275v504q-26 46 -56 75t-46 35z" />
<glyph unicode="u" horiz-adv-x="1290" d="M61 805v39q24 3 61.5 10t121 33t127.5 57h55v-700q0 -70 48 -105t120 -35q39 0 77.5 12t70 32t54 37.5t44 37.5t24.5 23v442q-26 46 -56 75.5t-46 35.5l-17 6v39q14 0 63.5 7t128.5 31.5t120 59.5h53v-786q26 -46 56 -75.5t46 -35.5l17 -6v-39h-320l-41 115 q-12 -13 -35 -31.5t-67.5 -47t-109 -47t-134.5 -18.5q-42 0 -87.5 11t-91 34.5t-82 55.5t-59 79.5t-22.5 102.5v434q-26 46 -56 75.5t-46 35.5z" />
<glyph unicode="v" horiz-adv-x="1116" d="M61 897v39h500v-39q-6 -1 -17 -6t-40.5 -31.5t-54.5 -68.5l-7 -11l181 -495l204 495q-26 46 -55.5 75.5t-45.5 35.5l-17 6v39h346v-39q-7 -1 -18 -6t-41.5 -32.5t-55.5 -70.5l-311 -788h-154l-305 799q-24 39 -51.5 63.5t-42.5 29.5z" />
<glyph unicode="w" horiz-adv-x="1660" d="M61 901v39h496v-39q-2 -1 -6.5 -2.5t-18 -9t-27 -19t-32 -34.5t-35.5 -52l174 -528l193 553q59 55 100 131h49l244 -682l176 526q-26 46 -56 75.5t-46 35.5l-17 6v39h347v-39q-2 -1 -6.5 -2t-18 -9t-27 -19.5t-32 -33.5t-35.5 -51l-260 -786h-195l-199 567l-190 -567 h-201l-258 784q-26 46 -56 75.5t-46 35.5z" />
<glyph unicode="x" horiz-adv-x="1259" d="M61 899v39h568v-39q-2 -1 -6.5 -2.5t-18 -9t-27 -19t-32 -34.5t-35.5 -52l156 -166l170 166l-9 13q-24 41 -51.5 67t-43.5 32l-15 5v39h420v-39q-11 -4 -28.5 -12.5t-59.5 -38.5t-70 -66l-248 -237l338 -391l29 -35q21 -22 46 -42.5t40 -30.5l14 -9v-37h-586v39 q2 1 6.5 2.5t18 9t27 19t32 34.5t35.5 52l-172 213l-188 -213q26 -46 55.5 -75.5t45.5 -35.5l17 -6v-39h-401v39q10 5 25.5 15t52 40.5t59.5 61.5l260 286l-297 340q-24 37 -56 66.5t-52 39.5z" />
<glyph unicode="y" horiz-adv-x="1198" d="M61 901v39h510v-39q-2 -1 -6.5 -2.5t-18 -9t-26.5 -19t-31.5 -34.5t-35.5 -52l237 -473l219 473v2q-26 45 -55 74t-45 35l-16 6v39h344v-39q-2 -1 -6.5 -2.5t-18 -9t-27 -19t-32 -34.5t-35.5 -52l-488 -1110q-36 -82 -96.5 -138.5t-135.5 -72.5q-20 -4 -39 -4 q-57 0 -116 35v55q37 -12 71 -12q54 0 102 31q77 49 112 133l137 299l-385 784q-26 46 -56 75.5t-46 35.5z" />
<glyph unicode="z" horiz-adv-x="1024" d="M61 0v43l525 793h-318l-118 -72h-44l121 174h684v-45l-497 -791h389l119 131h41l-111 -233h-791z" />
<glyph unicode="{" horiz-adv-x="704" d="M61 692v58q70 0 116 54.5t46 141.5v352q0 66 28 115t71.5 76.5t107.5 44.5t122.5 22t131.5 5v-56q-35 0 -68 -5.5t-68.5 -21t-61.5 -39.5t-43 -66t-17 -97v-342q0 -4 1.5 -36.5t0 -53t-5.5 -49t-16 -46t-31 -22.5l-82 -12l82 -13q16 -4 27 -13t16.5 -19t7.5 -29t2 -32 t-1 -38.5t-1 -40.5v-366q0 -68 24.5 -115.5t66 -70t81.5 -31t86 -8.5v-62q-60 0 -109.5 3.5t-105 13t-97.5 29t-77 47.5t-53.5 71.5t-18.5 99.5v342q0 91 -46 150t-116 59z" />
<glyph unicode="|" horiz-adv-x="491" d="M184 0v1434h123v-1434h-123z" />
<glyph unicode="}" horiz-adv-x="665" d="M20 -61q46 0 86 8.5t82 31t66.5 70t24.5 115.5v366q0 15 -1 40.5t-1 38.5t2 32t7.5 29t16.5 19t27 13l43 13l-43 12q-19 5 -31 22.5t-16 46t-5.5 49t0 53t1.5 36.5v342q0 55 -17 97t-43 66t-62 39.5t-69 21t-68 5.5v56q50 0 91.5 -2.5t86 -9.5t79 -19t66.5 -32.5 t53 -47.5t33.5 -65.5t12.5 -86.5v-352q0 -87 46 -141.5t116 -54.5v-58q-70 0 -116 -59t-46 -150v-342q0 -67 -24 -116t-61.5 -77t-95.5 -44.5t-113.5 -21.5t-127.5 -5v62z" />
<glyph unicode="~" horiz-adv-x="997" d="M123 406q1 10 4.5 26.5t21 58.5t41.5 74.5t71.5 59t107.5 26.5q44 0 84 -18.5t66 -41t63 -41t75 -18.5q37 0 68 13.5t48.5 32.5t29.5 38t16 32l4 14h51q-1 -5 -2.5 -14t-9 -35t-17.5 -49t-29.5 -52t-43.5 -49.5t-61 -34.5t-80 -14q-47 0 -89.5 19t-69 41.5t-62.5 41.5 t-70 19q-37 0 -68 -13.5t-48.5 -32t-29.5 -37.5t-16 -32l-4 -14h-51z" />
<glyph unicode="&#xa1;" horiz-adv-x="604" d="M164 1284q0 -55 41 -97t92 -42q59 0 101 41.5t42 97.5q0 63 -41.5 106.5t-101.5 43.5q-52 0 -92.5 -44t-40.5 -106zM170 -31h266v776l-45 226h-178l-43 -226v-776z" />
<glyph unicode="&#xa2;" horiz-adv-x="921" d="M61 471q0 187 108.5 323.5t287.5 170.5v133h123v-125q67 -3 142 -25.5t134 -58.5l-55 -215h-33q-9 116 -47 163.5t-141 51.5v-842q82 1 126.5 22.5t112.5 90.5h41q-54 -102 -121.5 -145t-158.5 -48v-180h-123v184q-190 26 -293 161.5t-103 338.5zM258 471 q0 -159 52 -264.5t147 -140.5v802q-96 -38 -147.5 -141t-51.5 -256z" />
<glyph unicode="&#xa3;" horiz-adv-x="1183" d="M61 -2v39q2 1 6.5 2.5t18 9t27 19t32 34.5t35.5 52q70 252 80 473h-117l27 123h90q3 125 20 227.5t55 195t96 155t148 99.5t207 37q81 0 170.5 -29.5t161.5 -93.5l-80 -264h-39q0 70 -13 120t-32 77.5t-50 43t-57 19.5t-63 4q-59 0 -105 -15.5t-78.5 -41.5t-56 -69 t-37.5 -88.5t-22 -110.5t-11 -125t-3 -141h307l-26 -123h-279q0 -186 -47 -379h514l135 135h47l-157 -383h-785v-2h-119z" />
<glyph unicode="&#xa4;" horiz-adv-x="720" d="M61 555l89 86q-54 65 -54 162q0 51 12.5 87t41.5 73l-89 90l52 49l88 -90q64 53 161 53q93 0 160 -53l88 90l47 -51l-86 -88q52 -66 52 -162q0 -91 -52 -160l88 -88l-51 -49l-88 86q-60 -49 -160 -49q-96 0 -161 49l-88 -88zM199 801q0 -67 46.5 -112.5t114.5 -45.5 t114 45.5t46 112.5q0 69 -46 115.5t-114 46.5t-114.5 -46.5t-46.5 -115.5z" />
<glyph unicode="&#xa5;" horiz-adv-x="1282" d="M61 1395v39h529v-39q-2 -1 -6.5 -2.5t-18 -9t-27 -19t-32 -34.5t-35.5 -52l244 -492l256 492q-26 46 -56 75.5t-47 35.5l-16 6v39h369v-39q-2 -1 -6.5 -2.5t-18 -9t-27 -19t-32 -34.5t-35.5 -52l-242 -496h191l-27 -123h-223l-27 -53v-53h227l-26 -123h-201v-274 q26 -46 56 -75.5t46 -35.5l17 -6v-39h-504v39q2 1 6.5 2.5t18 9t27 19t32 34.5t35.5 52v274h-291l27 123h264v53l-27 53h-215l27 123h129l-244 502q-26 44 -55.5 71.5t-45.5 33.5z" />
<glyph unicode="&#xa6;" horiz-adv-x="491" d="M184 0v559h123v-559h-123zM184 874v560h123v-560h-123z" />
<glyph unicode="&#xa7;" horiz-adv-x="1163" d="M61 -25h39q36 -77 77.5 -130t80.5 -82.5t91.5 -45.5t95 -20t106.5 -4q143 0 235.5 46t92.5 132q0 33 -6.5 60.5t-14.5 47t-27.5 37t-34 28.5t-46 24t-51.5 20t-61 21q-16 5 -24 8l-182 61q-91 38 -155 75t-115 82.5t-76 101t-25 122.5q0 156 123 240q-123 110 -123 256 q0 118 68 212.5t183 145.5t255 51q98 0 213.5 -27t206.5 -63l-82 -280h-41q-12 136 -83 190.5t-214 54.5q-58 0 -106 -9.5t-88.5 -30t-63 -58.5t-22.5 -90q0 -49 13 -83t45 -56.5t53 -32t68 -25.5q11 -4 17 -6l228 -78q162 -64 264 -195t102 -298q0 -139 -45 -203 q70 -99 70 -219q0 -78 -28.5 -142t-78.5 -109t-119.5 -76t-151 -45.5t-173.5 -14.5q-157 0 -240.5 27t-167.5 92l-43 -78h-39v366zM287 664q0 -26 5.5 -47.5t12 -37t22.5 -30.5t26 -23t35 -19t36.5 -15.5t42.5 -15.5t43 -15l223 -80q78 -25 144 -68q-5 50 -25.5 91t-57.5 74 t-79 58t-101 52l-182 80q-61 20 -133 55q-12 -35 -12 -59z" />
<glyph unicode="&#xa8;" horiz-adv-x="462" d="M-102 1317q0 48 33.5 82.5t80.5 34.5q49 0 83 -34.5t34 -82.5q0 -49 -33.5 -83t-83.5 -34q-47 0 -80.5 34t-33.5 83zM332 1317q0 47 35 82t82 35t81.5 -35t34.5 -82q0 -49 -34 -83t-82 -34t-82.5 34t-34.5 83z" />
<glyph unicode="&#xa9;" horiz-adv-x="1658" d="M82 721q0 153 59 292.5t159 240t238 160t291 59.5t291.5 -59.5t238.5 -160t159 -240t59 -292.5q0 -202 -100 -373.5t-272.5 -272t-375.5 -100.5t-375.5 100.5t-272 272t-99.5 373.5zM205 721q0 -180 79.5 -322.5t222 -221.5t322.5 -79q135 0 251.5 46.5t198.5 128 t128.5 197.5t46.5 251q0 274 -176 451.5t-449 177.5t-448.5 -177.5t-175.5 -451.5zM383 719q0 193 125.5 321.5t322.5 128.5q67 0 142.5 -19.5t132.5 -55.5l-53 -191h-29q-8 110 -47.5 150.5t-151.5 40.5q-129 -6 -198.5 -105.5t-69.5 -269.5q0 -186 72.5 -288.5 t201.5 -102.5q88 0 132.5 19t107.5 85h37q-55 -102 -124.5 -141t-166.5 -39q-209 0 -321.5 128.5t-112.5 338.5z" />
<glyph unicode="&#xab;" horiz-adv-x="757" d="M82 481v43l258 297h55l-112 -319l112 -322h-57zM342 481v43l258 297h55l-112 -319l112 -322h-57z" />
<glyph unicode="&#xac;" horiz-adv-x="817" d="M123 535v122h571v-260h-123v80q-31 46 -55 58h-393z" />
<glyph unicode="&#xad;" horiz-adv-x="907" d="M61 473h758l27 123h-758z" />
<glyph unicode="&#xae;" horiz-adv-x="1658" d="M82 721q0 153 59 292.5t159 240t238 160t291 59.5t291.5 -59.5t238.5 -160t159 -240t59 -292.5q0 -202 -100 -373.5t-272.5 -272t-375.5 -100.5t-375.5 100.5t-272 272t-99.5 373.5zM205 721q0 -180 79.5 -322.5t222 -221.5t322.5 -79q135 0 251.5 46.5t198.5 128 t128.5 197.5t46.5 251q0 274 -176 451.5t-449 177.5t-448.5 -177.5t-175.5 -451.5zM459 295v24q4 1 11 4t25.5 21.5t34.5 46.5v668q-16 28 -33.5 45.5t-27.5 20.5l-10 3v23h397q123 0 184.5 -65t61.5 -173q0 -99 -50.5 -160t-148.5 -73l80 -51l129 -217q26 -31 57 -54.5 t49 -31.5l17 -7v-24h-250l-213 379h-51q-17 -11 -31 -35v-248q16 -28 33.5 -46t26.5 -22l10 -4v-24h-301zM690 780q7 -12 16 -21t14 -11l5 -3h63q85 0 114.5 39t29.5 129q0 97 -28 130.5t-116 33.5h-67q-19 -12 -31 -33v-264z" />
<glyph unicode="&#xaf;" horiz-adv-x="497" d="M0 553h471l27 123h-471z" />
<glyph unicode="&#xb0;" horiz-adv-x="712" d="M82 1192q0 104 85 189t189 85t189.5 -85t85.5 -189t-85.5 -189t-189.5 -85t-189 85t-85 189zM205 1192q0 -62 43 -107t108 -45q66 0 109 45t43 107q0 64 -43.5 107.5t-108.5 43.5q-62 0 -106.5 -44t-44.5 -107z" />
<glyph unicode="&#xb1;" horiz-adv-x="745" d="M61 150l27 122h596l-27 -122h-596zM92 623v122h242v240h123v-240h227v-122h-229v-248h-123v248h-240z" />
<glyph unicode="&#xb2;" horiz-adv-x="473" d="M61 1028v12q31 26 64 59t73.5 81.5t66.5 103.5t26 102q0 50 -15.5 70.5t-56.5 20.5q-76 0 -100 -56h-19q5 18 10 29.5t19 29.5t42.5 28t68.5 10q59 0 96 -35.5t37 -96.5q0 -27 -11.5 -56.5t-36.5 -62t-43.5 -54t-53 -57t-44.5 -46.5h164l47 31h17l-64 -113h-287z" />
<glyph unicode="&#xb3;" horiz-adv-x="432" d="M61 1110h25q29 -53 102 -53q95 0 95 123q0 50 -21.5 80t-66.5 30q-21 0 -34.5 -1.5t-16.5 -2.5l-3 -2v19l107 131h-162v8q25 35 29 74h243v-13l-149 -186q68 -3 113.5 -39t48.5 -98q3 -72 -45.5 -114t-137.5 -42q-88 0 -127 86z" />
<glyph unicode="&#xb4;" horiz-adv-x="284" d="M-41 1280v63l367 175v-179z" />
<glyph unicode="&#xb6;" horiz-adv-x="1085" d="M-20 1055q0 164 115.5 271.5t283.5 107.5h665v-78h-122q-27 -13 -58 -56v-1300h-125v1300q-14 19 -28 33t-21 19l-8 4h-100q-29 -13 -60 -60v-1296h-123v686h-20q-169 0 -284 103t-115 266z" />
<glyph unicode="&#xb7;" horiz-adv-x="456" d="M102 618q0 51 36.5 88t88.5 37t89.5 -37t37.5 -88q0 -52 -37 -89t-90 -37q-52 0 -88.5 36.5t-36.5 89.5z" />
<glyph unicode="&#xb8;" horiz-adv-x="1228" d="M29 -377l34 80q60 -45 119 -45q27 0 44 6.5t22.5 19.5t6.5 18t1 15v11t-3.5 15t-9.5 18.5t-20.5 13t-34.5 6.5h-61l-25 39l68 160h86l-49 -127h26q43 0 75 -35.5t32 -96.5q0 -145 -160 -145q-34 0 -71.5 12t-58.5 24z" />
<glyph unicode="&#xb9;" horiz-adv-x="307" d="M61 1040v13q29 2 52 37v305q-10 19 -23 31t-21 14l-8 2v8q3 0 22.5 8t50 25.5t48.5 36.5h17v-430q8 -16 20 -25t19 -11l8 -1v-13h-185z" />
<glyph unicode="&#xbb;" horiz-adv-x="757" d="M102 180l113 322l-113 319h56l258 -297v-43l-256 -301h-58zM362 180l113 322l-113 319h56l258 -297v-43l-256 -301h-58z" />
<glyph unicode="&#xbc;" horiz-adv-x="1341" d="M61 553v25q5 1 13.5 4t31 20.5t39.5 44.5v563q-17 29 -38 47t-33 21l-13 4v25q8 0 42 12.5t87.5 44t88.5 70.5h28v-787q16 -27 37 -44.5t34 -20.5l13 -4v-25h-330zM172 0v39l918 1395h116v-35l-913 -1399h-121zM676 213v18l463 650h30v-602h111l-16 -66h-95v-115 q16 -30 37 -48.5t34 -21.5l13 -3v-25h-329v25q5 1 14 3.5t30.5 21t37.5 48.5v115h-330zM784 279h222v311z" />
<glyph unicode="&#xbd;" horiz-adv-x="1523" d="M61 553v25q5 1 13.5 4t31 20.5t39.5 44.5v563q-17 29 -38 47t-33 21l-13 4v25q8 0 42 12.5t87.5 44t88.5 70.5h28v-787q16 -27 37 -44.5t34 -20.5l13 -4v-25h-330zM172 0v39l918 1395h116v-35l-913 -1399h-121zM840 0v20q43 36 87.5 79t105 112t106 136t78 147.5 t32.5 150.5q0 85 -28.5 121.5t-100.5 36.5q-76 0 -115.5 -24.5t-66.5 -71.5h-29q34 174 244 174q110 0 176 -65t66 -173q0 -42 -17.5 -89t-42 -86.5t-64 -89t-70.5 -82.5t-76 -80t-66 -71h291l84 58h28l-110 -203h-512z" />
<glyph unicode="&#xbe;" d="M61 713h41q28 -55 72 -77t117 -22q164 0 164 220q0 196 -156 196q-37 0 -60.5 -2.5t-28.5 -5.5l-5 -2v37l188 229h-291v14q48 68 54 136h432v-25l-264 -330q122 -8 203 -72t85 -175q6 -129 -79 -205t-242 -76q-171 0 -230 160zM324 0v39l917 1395h117v-35l-914 -1399 h-120zM827 213v18l463 650h31v-602h111l-17 -66h-94v-115q16 -30 37 -48.5t34 -21.5l13 -3v-25h-330v25q5 1 14 3.5t30.5 21t37.5 48.5v115h-330zM936 279h221v311z" />
<glyph unicode="&#xbf;" horiz-adv-x="862" d="M61 252q1 -73 34 -128.5t91 -88.5t130 -49.5t157 -16.5q161 0 244.5 72.5t83.5 210.5v24h-66q-4 -52 -21 -90t-40.5 -59.5t-57.5 -34.5t-67 -17t-74 -3q-31 0 -55 6.5t-39.5 14t-26 24t-16 27.5t-8 33.5t-2.5 33v35.5q0 70 21.5 137.5t52.5 126.5t62 122.5t52.5 151.5 t22.5 187v69h-95v-67q-2 -68 -24.5 -131t-56.5 -113t-74.5 -98t-81 -92.5t-73.5 -88.5t-53 -95t-20 -103zM348 1315q0 -56 42.5 -97.5t101.5 -41.5q51 0 92 42t41 97q0 62 -40.5 105.5t-92.5 43.5q-60 0 -102 -43t-42 -106z" />
<glyph unicode="&#xc0;" horiz-adv-x="1583" d="M61 0v39q2 1 6.5 2t17.5 9t26.5 19t31.5 33t35 50l473 1159q5 2 14 6t34 17t46 27t43 35t33 42h49l525 -1288q26 -44 58 -71.5t51 -33.5l18 -6v-39h-570v39q2 1 6.5 2.5t18 9t27 19t32 34.5t35.5 52l-110 252h-533l-106 -252q26 -46 55.5 -75.5t46.5 -35.5l16 -6v-39 h-379zM467 532h459l-226 582zM596 1561v178l367 -174v-64z" />
<glyph unicode="&#xc1;" horiz-adv-x="1583" d="M61 0v39q2 1 6.5 2t17.5 9t26.5 19t31.5 33t35 50l473 1159q5 2 14 6t34 17t46 27t43 35t33 42h49l525 -1288q26 -44 58 -71.5t51 -33.5l18 -6v-39h-570v39q2 1 6.5 2.5t18 9t27 19t32 34.5t35.5 52l-110 252h-533l-106 -252q26 -46 55.5 -75.5t46.5 -35.5l16 -6v-39 h-379zM467 532h459l-226 582zM582 1501v64l366 174v-178z" />
<glyph unicode="&#xc2;" horiz-adv-x="1583" d="M61 0v39q2 1 6.5 2t17.5 9t26.5 19t31.5 33t35 50l473 1159q5 2 14 6t34 17t46 27t43 35t33 42h49l525 -1288q26 -44 58 -71.5t51 -33.5l18 -6v-39h-570v39q2 1 6.5 2.5t18 9t27 19t32 34.5t35.5 52l-110 252h-533l-106 -252q26 -46 55.5 -75.5t46.5 -35.5l16 -6v-39 h-379zM467 532h459l-226 582zM545 1505v56l243 194l242 -194v-56l-242 78z" />
<glyph unicode="&#xc3;" horiz-adv-x="1583" d="M61 0v39q2 1 6.5 2t17.5 9t26.5 19t31.5 33t35 50l473 1159q5 2 14 6t34 17t46 27t43 35t33 42h49l525 -1288q26 -44 58 -71.5t51 -33.5l18 -6v-39h-570v39q2 1 6.5 2.5t18 9t27 19t32 34.5t35.5 52l-110 252h-533l-106 -252q26 -46 55.5 -75.5t46.5 -35.5l16 -6v-39 h-379zM467 532h459l-226 582zM547 1583q46 44 82 64t78 20q35 0 82.5 -25.5t68.5 -25.5q43 0 96 53l47 -67q-85 -82 -155 -82q-32 0 -77 26.5t-75 26.5q-27 0 -46 -12t-52 -43z" />
<glyph unicode="&#xc4;" horiz-adv-x="1583" d="M61 0v39q2 1 6.5 2t17.5 9t26.5 19t31.5 33t35 50l473 1159q5 2 14 6t34 17t46 27t43 35t33 42h49l525 -1288q26 -44 58 -71.5t51 -33.5l18 -6v-39h-570v39q2 1 6.5 2.5t18 9t27 19t32 34.5t35.5 52l-110 252h-533l-106 -252q26 -46 55.5 -75.5t46.5 -35.5l16 -6v-39 h-379zM449 1634q0 48 33.5 82.5t80.5 34.5q49 0 83 -34.5t34 -82.5q0 -49 -33.5 -82.5t-83.5 -33.5q-48 0 -81 33.5t-33 82.5zM467 532h459l-226 582zM883 1634q0 47 34.5 82t81.5 35t82 -35t35 -82q0 -49 -34.5 -82.5t-82.5 -33.5t-82 33.5t-34 82.5z" />
<glyph unicode="&#xc5;" horiz-adv-x="1583" d="M61 0v39q2 1 6.5 2t17.5 9t26.5 19t31.5 33t35 50l473 1159q5 2 14 6t34 17t46 27t43 35t33 42h49l525 -1288q26 -44 58 -71.5t51 -33.5l18 -6v-39h-570v39q2 1 6.5 2.5t18 9t27 19t32 34.5t35.5 52l-110 252h-533l-106 -252q26 -46 55.5 -75.5t46.5 -35.5l16 -6v-39 h-379zM467 532h459l-226 582zM623 1634q0 56 43.5 103t107.5 47q73 0 112.5 -45.5t39.5 -104.5q0 -63 -40.5 -107t-111.5 -44q-69 0 -110 44t-41 107zM696 1634q0 -33 22.5 -56.5t55.5 -23.5t55.5 23.5t22.5 56.5q0 32 -23 55t-55 23t-55 -23.5t-23 -54.5z" />
<glyph unicode="&#xc6;" horiz-adv-x="2048" d="M61 0v39q42 9 89 70l2 4l788 1177q-24 42 -52 68t-44 32l-15 5v39h934l117 -228h-51l-117 105h-440q-29 -13 -58 -60v-364q14 -20 28.5 -34.5t21.5 -18.5l8 -5h266q48 26 78.5 56t36.5 47l6 16h37v-360h-37q0 2 -1.5 6.5t-9.5 18t-20 27t-35.5 32t-54.5 35.5h-270 q-23 -11 -51 -52l6 -487q12 -16 24.5 -27t18.5 -15l6 -3h543l122 127h50l-111 -250h-1047v39q2 1 6.5 2t17.5 9t26.5 19t31.5 33t35 50v309h-414l-204 -305q26 -46 55.5 -75.5t46.5 -35.5l16 -6v-39h-385zM612 584h332v483zM1235 1311h16q-6 2 -16 0z" />
<glyph unicode="&#xc7;" horiz-adv-x="1304" d="M61 729q0 153 53.5 288.5t148.5 234t233 155.5t299 57q104 0 226.5 -32.5t215.5 -90.5l-86 -313h-47q-6 91 -22 146.5t-52 95t-95 55.5t-153 16q-209 -10 -321.5 -173t-112.5 -439q0 -300 117.5 -466.5t329.5 -166.5q138 0 210 31t177 137h61q-86 -157 -190.5 -221 t-247.5 -70l-47 -120h26q43 0 75 -35.5t32 -96.5q0 -145 -160 -145q-34 0 -71.5 12t-58.5 24l-21 11l34 80q60 -45 119 -45q27 0 44 6.5t22.5 19.5t6.5 18t1 15v11t-3.5 15t-9.5 18.5t-20.5 13t-34.5 6.5h-61l-25 39l66 155q-212 11 -362 111.5t-223 264.5t-73 378z" />
<glyph unicode="&#xc8;" horiz-adv-x="1280" d="M61 0v39q2 1 6.5 2t17.5 9t26.5 19t31.5 33t35 50v1130q-26 44 -55.5 72.5t-45.5 34.5l-16 6v39h934l117 -228h-51l-117 105h-440q-29 -13 -60 -60v-362q14 -21 29 -36t23 -19l8 -5h266q48 26 78.5 56t36.5 47l6 16h37v-360h-37q0 2 -1.5 6.5t-9.5 18t-20 27t-35.5 32 t-54.5 35.5h-270q-25 -13 -56 -58v-467q14 -21 29 -35.5t23 -18.5l8 -5h543l122 127h50l-111 -250h-1047zM424 1561v178l367 -174v-64zM467 1311h16q-6 2 -16 0z" />
<glyph unicode="&#xc9;" horiz-adv-x="1280" d="M61 0v39q2 1 6.5 2t17.5 9t26.5 19t31.5 33t35 50v1130q-26 44 -55.5 72.5t-45.5 34.5l-16 6v39h934l117 -228h-51l-117 105h-440q-29 -13 -60 -60v-362q14 -21 29 -36t23 -19l8 -5h266q48 26 78.5 56t36.5 47l6 16h37v-360h-37q0 2 -1.5 6.5t-9.5 18t-20 27t-35.5 32 t-54.5 35.5h-270q-25 -13 -56 -58v-467q14 -21 29 -35.5t23 -18.5l8 -5h543l122 127h50l-111 -250h-1047zM438 1501v64l367 174v-178zM467 1311h16q-6 2 -16 0z" />
<glyph unicode="&#xca;" horiz-adv-x="1280" d="M61 0v39q2 1 6.5 2t17.5 9t26.5 19t31.5 33t35 50v1130q-26 44 -55.5 72.5t-45.5 34.5l-16 6v39h934l117 -228h-51l-117 105h-440q-29 -13 -60 -60v-362q14 -21 29 -36t23 -19l8 -5h266q48 26 78.5 56t36.5 47l6 16h37v-360h-37q0 2 -1.5 6.5t-9.5 18t-20 27t-35.5 32 t-54.5 35.5h-270q-25 -13 -56 -58v-467q14 -21 29 -35.5t23 -18.5l8 -5h543l122 127h50l-111 -250h-1047zM348 1505v56l244 194l242 -194v-56l-242 78zM467 1311h16q-6 2 -16 0z" />
<glyph unicode="&#xcb;" horiz-adv-x="1280" d="M61 0v39q2 1 6.5 2t17.5 9t26.5 19t31.5 33t35 50v1130q-26 44 -55.5 72.5t-45.5 34.5l-16 6v39h934l117 -228h-51l-117 105h-440q-29 -13 -60 -60v-362q14 -21 29 -36t23 -19l8 -5h266q48 26 78.5 56t36.5 47l6 16h37v-360h-37q0 2 -1.5 6.5t-9.5 18t-20 27t-35.5 32 t-54.5 35.5h-270q-25 -13 -56 -58v-467q14 -21 29 -35.5t23 -18.5l8 -5h543l122 127h50l-111 -250h-1047zM254 1634q0 47 34 82t81 35q49 0 82.5 -34.5t33.5 -82.5q0 -50 -33.5 -83t-82.5 -33q-48 0 -81.5 33.5t-33.5 82.5zM467 1311h16q-6 2 -16 0zM688 1634q0 47 35 82 t82 35t82 -35t35 -82q0 -49 -34.5 -82.5t-82.5 -33.5t-82.5 33.5t-34.5 82.5z" />
<glyph unicode="&#xcc;" horiz-adv-x="616" d="M61 0v39q2 1 6.5 2t17.5 9t26 19t31 33t34 50v1138q-24 43 -51.5 69.5t-42.5 32.5l-16 5v37h485v-39q-6 -1 -16.5 -5.5t-39.5 -32t-53 -71.5v-1141q24 -44 52.5 -71.5t44.5 -33.5l16 -5v-35h-494zM135 1561v178l367 -174v-64z" />
<glyph unicode="&#xcd;" horiz-adv-x="616" d="M61 0v39q2 1 6.5 2t17.5 9t26 19t31 33t34 50v1138q-24 43 -51.5 69.5t-42.5 32.5l-16 5v37h485v-39q-6 -1 -16.5 -5.5t-39.5 -32t-53 -71.5v-1141q24 -44 52.5 -71.5t44.5 -33.5l16 -5v-35h-494zM119 1501v64l366 174v-178z" />
<glyph unicode="&#xce;" horiz-adv-x="616" d="M61 0v39q2 1 6.5 2t17.5 9t26 19t31 33t34 50v1138q-24 43 -51.5 69.5t-42.5 32.5l-16 5v37h485v-39q-6 -1 -16.5 -5.5t-39.5 -32t-53 -71.5v-1141q24 -44 52.5 -71.5t44.5 -33.5l16 -5v-35h-494zM66 1505v56l243 194l242 -194v-56l-242 78z" />
<glyph unicode="&#xcf;" horiz-adv-x="790" d="M61 1634q0 47 34 82t81 35q49 0 83 -34.5t34 -82.5q0 -49 -33.5 -82.5t-83.5 -33.5q-48 0 -81.5 33.5t-33.5 82.5zM147 0v39q2 1 6.5 2t17.5 9t26 19t31 33t34 50v1138q-24 43 -51.5 69.5t-42.5 32.5l-16 5v37h485v-39q-6 -1 -16.5 -5.5t-39.5 -32t-53 -71.5v-1141 q24 -44 52.5 -71.5t44.5 -33.5l16 -5v-35h-494zM496 1634q0 47 34.5 82t81.5 35t82 -35t35 -82q0 -49 -34.5 -82.5t-82.5 -33.5t-82 33.5t-34 82.5z" />
<glyph unicode="&#xd0;" horiz-adv-x="1402" d="M61 0v39q2 1 6.5 2t17.5 9t26.5 19t31.5 33t35 50v479h-117l27 123h90v528q-26 44 -55.5 72.5t-45.5 34.5l-16 6v39h641q194 0 340.5 -93.5t222.5 -256t76 -369.5q0 -157 -44.5 -289t-126 -226t-201.5 -147t-267 -53h-641zM444 180q30 -44 56 -57h202q92 0 161 43.5 t110.5 123.5t61.5 186t20 239t-20 239.5t-61.5 187.5t-110.5 125t-161 44h-198q-29 -13 -60 -60v-497h115l-27 -123h-88v-451z" />
<glyph unicode="&#xd1;" horiz-adv-x="1441" d="M61 0v39q2 1 6.5 2.5t18 9t27 19t32 34.5t35.5 52v1128l-78 98v52h328l709 -912v758q-26 46 -56 75.5t-47 35.5l-16 6v39h360v-39q-2 -1 -6.5 -2.5t-18 -9t-26.5 -19t-31.5 -34.5t-35.5 -52v-1280h-97l-862 1139v-983q26 -46 56 -75.5t47 -35.5l16 -6v-39h-361zM539 1583 q46 44 81.5 64t77.5 20q35 0 83 -25.5t69 -25.5q43 0 96 53l47 -67q-85 -82 -155 -82q-32 0 -77 26.5t-75 26.5q-27 0 -46 -12t-52 -43z" />
<glyph unicode="&#xd2;" d="M61 711q0 -158 51.5 -295t142 -234.5t219.5 -153t280 -55.5q147 0 273 55.5t215 153t139.5 234.5t50.5 295q0 216 -86 387.5t-241 267.5t-351 96q-201 0 -359.5 -96t-246 -267t-87.5 -388zM348 711q0 283 106.5 455.5t299.5 172.5q188 0 289.5 -172t101.5 -456 q0 -177 -43 -314t-133 -219t-215 -82q-128 0 -221.5 82t-139 219.5t-45.5 313.5zM569 1561v178l367 -174v-64z" />
<glyph unicode="&#xd3;" d="M61 711q0 -158 51.5 -295t142 -234.5t219.5 -153t280 -55.5q147 0 273 55.5t215 153t139.5 234.5t50.5 295q0 216 -86 387.5t-241 267.5t-351 96q-201 0 -359.5 -96t-246 -267t-87.5 -388zM348 711q0 283 106.5 455.5t299.5 172.5q188 0 289.5 -172t101.5 -456 q0 -177 -43 -314t-133 -219t-215 -82q-128 0 -221.5 82t-139 219.5t-45.5 313.5zM567 1501v64l367 174v-178z" />
<glyph unicode="&#xd4;" d="M61 711q0 -158 51.5 -295t142 -234.5t219.5 -153t280 -55.5q147 0 273 55.5t215 153t139.5 234.5t50.5 295q0 216 -86 387.5t-241 267.5t-351 96q-201 0 -359.5 -96t-246 -267t-87.5 -388zM348 711q0 283 106.5 455.5t299.5 172.5q188 0 289.5 -172t101.5 -456 q0 -177 -43 -314t-133 -219t-215 -82q-128 0 -221.5 82t-139 219.5t-45.5 313.5zM512 1505v56l244 194l241 -194v-56l-241 78z" />
<glyph unicode="&#xd5;" d="M61 711q0 -158 51.5 -295t142 -234.5t219.5 -153t280 -55.5q147 0 273 55.5t215 153t139.5 234.5t50.5 295q0 216 -86 387.5t-241 267.5t-351 96q-201 0 -359.5 -96t-246 -267t-87.5 -388zM348 711q0 283 106.5 455.5t299.5 172.5q188 0 289.5 -172t101.5 -456 q0 -177 -43 -314t-133 -219t-215 -82q-128 0 -221.5 82t-139 219.5t-45.5 313.5zM522 1583q46 44 82 64t78 20q35 0 83 -25.5t69 -25.5q43 0 96 53l47 -67q-85 -82 -156 -82q-32 0 -76.5 26.5t-74.5 26.5q-27 0 -47 -12.5t-52 -42.5z" />
<glyph unicode="&#xd6;" d="M61 711q0 -158 51.5 -295t142 -234.5t219.5 -153t280 -55.5q147 0 273 55.5t215 153t139.5 234.5t50.5 295q0 216 -86 387.5t-241 267.5t-351 96q-201 0 -359.5 -96t-246 -267t-87.5 -388zM348 711q0 283 106.5 455.5t299.5 172.5q188 0 289.5 -172t101.5 -456 q0 -177 -43 -314t-133 -219t-215 -82q-128 0 -221.5 82t-139 219.5t-45.5 313.5zM401 1634q0 47 34 82t81 35q49 0 83 -34.5t34 -82.5q0 -49 -33.5 -82.5t-83.5 -33.5q-48 0 -81.5 33.5t-33.5 82.5zM836 1634q0 47 34.5 82t81.5 35t82 -35t35 -82q0 -49 -34.5 -82.5 t-82.5 -33.5t-82 33.5t-34 82.5z" />
<glyph unicode="&#xd7;" horiz-adv-x="841" d="M102 334l232 246l-232 243l91 92l227 -245l231 241l86 -88l-231 -241l233 -248l-86 -86l-233 246l-232 -244z" />
<glyph unicode="&#xd8;" d="M61 711q0 217 87.5 388t246 267t359.5 96q217 0 393 -127l78 99h127v-37l-115 -146q93 -102 144 -240.5t51 -299.5q0 -158 -50.5 -295t-139.5 -234.5t-215 -153t-273 -55.5q-239 0 -418 136l-86 -109h-131v39l125 156q-183 208 -183 516zM348 711q0 -185 49 -322l633 799 q-104 151 -276 151q-193 0 -299.5 -172.5t-106.5 -455.5zM459 264q110 -168 295 -168q125 0 215 82t133 219t43 314q0 205 -53 356z" />
<glyph unicode="&#xd9;" horiz-adv-x="1445" d="M61 1395v39h502v-39q-2 -1 -6.5 -2t-17.5 -9t-26.5 -19t-31.5 -33t-35 -50v-719q0 -54 3 -98t12 -95.5t24 -91.5t41.5 -78.5t62.5 -63.5t88 -40.5t116 -15.5q55 0 100.5 8.5t79.5 22.5t60 38t44 48t30.5 60.5t19.5 67t10.5 75.5t4.5 79t1 84v715q-26 46 -56 75.5 t-47 35.5l-16 6v39h360v-39q-2 -1 -6.5 -2.5t-18 -9t-26.5 -19t-31.5 -34.5t-35.5 -52v-715q0 -81 -4.5 -143.5t-17.5 -126t-34.5 -109.5t-57.5 -87t-85 -66t-118 -39.5t-156 -14.5q-145 0 -251.5 25t-175.5 71.5t-111 120.5t-58.5 162t-16.5 207v715q-26 46 -56 75.5 t-46 35.5zM596 1561v178l367 -174v-64z" />
<glyph unicode="&#xda;" horiz-adv-x="1445" d="M61 1395v39h502v-39q-2 -1 -6.5 -2t-17.5 -9t-26.5 -19t-31.5 -33t-35 -50v-719q0 -54 3 -98t12 -95.5t24 -91.5t41.5 -78.5t62.5 -63.5t88 -40.5t116 -15.5q55 0 100.5 8.5t79.5 22.5t60 38t44 48t30.5 60.5t19.5 67t10.5 75.5t4.5 79t1 84v715q-26 46 -56 75.5 t-47 35.5l-16 6v39h360v-39q-2 -1 -6.5 -2.5t-18 -9t-26.5 -19t-31.5 -34.5t-35.5 -52v-715q0 -81 -4.5 -143.5t-17.5 -126t-34.5 -109.5t-57.5 -87t-85 -66t-118 -39.5t-156 -14.5q-145 0 -251.5 25t-175.5 71.5t-111 120.5t-58.5 162t-16.5 207v715q-26 46 -56 75.5 t-46 35.5zM627 1501v64l366 174v-178z" />
<glyph unicode="&#xdb;" horiz-adv-x="1445" d="M61 1395v39h502v-39q-2 -1 -6.5 -2t-17.5 -9t-26.5 -19t-31.5 -33t-35 -50v-719q0 -54 3 -98t12 -95.5t24 -91.5t41.5 -78.5t62.5 -63.5t88 -40.5t116 -15.5q55 0 100.5 8.5t79.5 22.5t60 38t44 48t30.5 60.5t19.5 67t10.5 75.5t4.5 79t1 84v715q-26 46 -56 75.5 t-47 35.5l-16 6v39h360v-39q-2 -1 -6.5 -2.5t-18 -9t-26.5 -19t-31.5 -34.5t-35.5 -52v-715q0 -81 -4.5 -143.5t-17.5 -126t-34.5 -109.5t-57.5 -87t-85 -66t-118 -39.5t-156 -14.5q-145 0 -251.5 25t-175.5 71.5t-111 120.5t-58.5 162t-16.5 207v715q-26 46 -56 75.5 t-46 35.5zM555 1505v56l244 194l241 -194v-56l-241 78z" />
<glyph unicode="&#xdc;" horiz-adv-x="1445" d="M61 1395v39h502v-39q-2 -1 -6.5 -2t-17.5 -9t-26.5 -19t-31.5 -33t-35 -50v-719q0 -54 3 -98t12 -95.5t24 -91.5t41.5 -78.5t62.5 -63.5t88 -40.5t116 -15.5q55 0 100.5 8.5t79.5 22.5t60 38t44 48t30.5 60.5t19.5 67t10.5 75.5t4.5 79t1 84v715q-26 46 -56 75.5 t-47 35.5l-16 6v39h360v-39q-2 -1 -6.5 -2.5t-18 -9t-26.5 -19t-31.5 -34.5t-35.5 -52v-715q0 -81 -4.5 -143.5t-17.5 -126t-34.5 -109.5t-57.5 -87t-85 -66t-118 -39.5t-156 -14.5q-145 0 -251.5 25t-175.5 71.5t-111 120.5t-58.5 162t-16.5 207v715q-26 46 -56 75.5 t-46 35.5zM451 1634q0 48 33.5 82.5t80.5 34.5q49 0 83 -34.5t34 -82.5q0 -49 -33.5 -82.5t-83.5 -33.5q-48 0 -81 33.5t-33 82.5zM885 1634q0 47 34.5 82t81.5 35t82 -35t35 -82q0 -49 -34.5 -82.5t-82.5 -33.5t-82 33.5t-34 82.5z" />
<glyph unicode="&#xdd;" horiz-adv-x="1292" d="M61 1395v39h560v-39q-2 -1 -6.5 -2.5t-18 -9t-27 -19t-32 -34.5t-35.5 -52l233 -467l246 467q-26 46 -56 75.5t-47 35.5l-16 6v39h369v-39q-2 -1 -6.5 -2.5t-18 -9t-27 -19t-32 -34.5t-35.5 -52l-328 -672v-450q26 -46 56 -75.5t46 -35.5l17 -6v-39h-504v39q2 1 6.5 2.5 t18 9t27 19t32 34.5t35.5 52v450l-338 672q-26 46 -56 75.5t-46 35.5zM559 1501v64l367 174v-178z" />
<glyph unicode="&#xde;" horiz-adv-x="1136" d="M61 0v39q2 1 6.5 2.5t18 9t27 19t32 34.5t35.5 52v1122q-26 46 -56 75.5t-46 35.5l-17 6v39h504v-39q-2 -1 -6.5 -2.5t-18 -9t-27 -19t-32 -34.5t-35.5 -52v-104h134q143 0 238.5 -23t152.5 -73.5t80.5 -122.5t23.5 -179q0 -76 -13.5 -136t-47.5 -111.5t-88.5 -85.5 t-139 -53t-196.5 -19h-72v102h55q120 0 167.5 69.5t47.5 235.5q0 152 -45.5 212.5t-164.5 60.5h-132v-895q26 -46 56 -75.5t46 -35.5l17 -6v-39h-504z" />
<glyph unicode="&#xdf;" horiz-adv-x="1241" d="M61 0v39q2 1 6.5 2.5t18 9t27 19t32 34.5t35.5 52v749q0 156 21 259t72 173t136.5 100.5t215.5 30.5q82 0 151.5 -21.5t116.5 -56.5t80 -80t48 -90.5t15 -89.5q0 -77 -26 -134.5t-63.5 -90.5t-100.5 -69q148 -35 241 -150.5t93 -267.5q0 -199 -122 -321t-319 -122 q-144 0 -250 58v221h52q8 -84 57.5 -130.5t140.5 -45.5q47 1 79 15.5t50.5 38t28.5 69t13 93t3 124.5q0 78 -9 136.5t-31 107.5t-64 76t-102 28h-123v102h28q121 0 160 57.5t39 204.5q0 133 -50.5 184.5t-135.5 51.5q-35 0 -63 -6t-48.5 -21t-35 -32t-24 -47.5t-15.5 -57.5 t-8.5 -72t-3.5 -82t-1 -96v-952h-365z" />
<glyph unicode="&#xe0;" horiz-adv-x="1212" d="M61 483q0 212 136 349t348 137q95 0 165.5 -28t125.5 -93q0 -2 19 6t54 31t66 55h57v-784q26 -46 56 -75.5t46 -35.5l17 -6v-39h-313l-52 109q-35 -67 -97.5 -101.5t-143.5 -34.5q-209 0 -346.5 146.5t-137.5 363.5zM328 483q0 -103 22.5 -193t73.5 -152t121 -62 t122 61.5t75.5 152t23.5 193.5q0 101 -23 186t-74.5 141t-123.5 56q-70 0 -120.5 -56t-73.5 -141t-23 -186zM356 1112v178l367 -174v-63z" />
<glyph unicode="&#xe1;" horiz-adv-x="1212" d="M61 483q0 212 136 349t348 137q95 0 165.5 -28t125.5 -93q0 -2 19 6t54 31t66 55h57v-784q26 -46 56 -75.5t46 -35.5l17 -6v-39h-313l-52 109q-35 -67 -97.5 -101.5t-143.5 -34.5q-209 0 -346.5 146.5t-137.5 363.5zM328 483q0 -103 22.5 -193t73.5 -152t121 -62 t122 61.5t75.5 152t23.5 193.5q0 101 -23 186t-74.5 141t-123.5 56q-70 0 -120.5 -56t-73.5 -141t-23 -186zM356 1053v63l367 174v-178z" />
<glyph unicode="&#xe2;" horiz-adv-x="1212" d="M61 483q0 212 136 349t348 137q95 0 165.5 -28t125.5 -93q0 -2 19 6t54 31t66 55h57v-784q26 -46 56 -75.5t46 -35.5l17 -6v-39h-313l-52 109q-35 -67 -97.5 -101.5t-143.5 -34.5q-209 0 -346.5 146.5t-137.5 363.5zM307 1032v55l244 195l242 -195v-55l-242 78zM328 483 q0 -103 22.5 -193t73.5 -152t121 -62t122 61.5t75.5 152t23.5 193.5q0 101 -23 186t-74.5 141t-123.5 56q-70 0 -120.5 -56t-73.5 -141t-23 -186z" />
<glyph unicode="&#xe3;" horiz-adv-x="1212" d="M61 483q0 212 136 349t348 137q95 0 165.5 -28t125.5 -93q0 -2 19 6t54 31t66 55h57v-784q26 -46 56 -75.5t46 -35.5l17 -6v-39h-313l-52 109q-35 -67 -97.5 -101.5t-143.5 -34.5q-209 0 -346.5 146.5t-137.5 363.5zM319 1108q46 44 82 64t78 20q35 0 83 -25.5t69 -25.5 q43 0 96 53l47 -68q-85 -82 -156 -82q-32 0 -76.5 27t-74.5 27q-27 0 -46 -12t-52 -44zM328 483q0 -103 22.5 -193t73.5 -152t121 -62t122 61.5t75.5 152t23.5 193.5q0 101 -23 186t-74.5 141t-123.5 56q-70 0 -120.5 -56t-73.5 -141t-23 -186z" />
<glyph unicode="&#xe4;" horiz-adv-x="1212" d="M61 483q0 212 136 349t348 137q95 0 165.5 -28t125.5 -93q0 -2 19 6t54 31t66 55h57v-784q26 -46 56 -75.5t46 -35.5l17 -6v-39h-313l-52 109q-35 -67 -97.5 -101.5t-143.5 -34.5q-209 0 -346.5 146.5t-137.5 363.5zM213 1153q0 47 34 82t81 35q49 0 82.5 -34.5 t33.5 -82.5q0 -50 -33.5 -83.5t-82.5 -33.5q-48 0 -81.5 34t-33.5 83zM328 483q0 -103 22.5 -193t73.5 -152t121 -62t122 61.5t75.5 152t23.5 193.5q0 101 -23 186t-74.5 141t-123.5 56q-70 0 -120.5 -56t-73.5 -141t-23 -186zM647 1153q0 47 35 82t82 35t82 -35t35 -82 q0 -49 -34.5 -83t-82.5 -34t-82.5 34t-34.5 83z" />
<glyph unicode="&#xe5;" horiz-adv-x="1212" d="M61 483q0 212 136 349t348 137q95 0 165.5 -28t125.5 -93q0 -2 19 6t54 31t66 55h57v-784q26 -46 56 -75.5t46 -35.5l17 -6v-39h-313l-52 109q-35 -67 -97.5 -101.5t-143.5 -34.5q-209 0 -346.5 146.5t-137.5 363.5zM328 483q0 -103 22.5 -193t73.5 -152t121 -62 t122 61.5t75.5 152t23.5 193.5q0 101 -23 186t-74.5 141t-123.5 56q-70 0 -120.5 -56t-73.5 -141t-23 -186zM430 1190q0 56 44 102.5t108 46.5q73 0 112 -45t39 -104q0 -63 -40.5 -107.5t-110.5 -44.5q-69 0 -110.5 44.5t-41.5 107.5zM504 1190q0 -33 22.5 -56.5t55.5 -23.5 t55 23.5t22 56.5q0 32 -22.5 55t-54.5 23t-55 -23.5t-23 -54.5z" />
<glyph unicode="&#xe6;" horiz-adv-x="1538" d="M61 231q0 60 12.5 108t47.5 96t93.5 80t156 53.5t227.5 23.5l12 2v135q0 70 -55 104.5t-127 34.5q-81 0 -132.5 -36.5t-51.5 -92.5v-16h-103v2q0 77 45.5 135t109.5 84.5t134 26.5q130 0 208 -29t128 -86q125 115 297 115q101 0 182.5 -36t130.5 -95.5t75 -131.5t26 -149 v-43l-607 -119q0 1 -10 -2q14 -153 84 -238t193 -81q3 2 14.5 -0.5t40.5 3t59.5 14t73 32t80.5 57.5h61q-63 -111 -141 -160t-182 -49q-268 0 -408 144l-4 -6q-58 -69 -173 -104.5t-208 -35.5q-41 0 -88.5 15.5t-93.5 45t-76.5 82t-30.5 117.5zM303 240q0 -58 32.5 -108 t92.5 -50q46 0 95.5 18t84.5 58v334l-94 -7q-43 -3 -77 -13.5t-55.5 -24t-37 -35.5t-23.5 -40t-12.5 -45t-5 -44t-0.5 -43zM856 502l391 71q-6 68 -17.5 119.5t-32.5 92t-54 62t-78 21.5q-209 0 -209 -366z" />
<glyph unicode="&#xe7;" horiz-adv-x="989" d="M61 467q0 82 20.5 155.5t64.5 137.5t107.5 111t154 73.5t198.5 26.5q131 0 307 -94l-47 -265h-37q-3 37 -10.5 69t-23.5 67.5t-39.5 61t-62 42t-87.5 16.5q-142 0 -210 -109t-68 -292q0 -180 71 -286.5t207 -106.5q46 0 72 3.5t75 28t105 74.5h70q-106 -186 -287 -205 l-39 -102h27q43 0 74.5 -35t31.5 -96q0 -145 -160 -145q-34 0 -71.5 11.5t-58.5 23.5l-21 12l35 80q60 -46 119 -46q22 0 37.5 6t22 11t10 17t3.5 14.5v11.5v2q-8 57 -67 61h-62l-24 39l57 133q-125 6 -221.5 48t-155 110.5t-88 153t-29.5 182.5z" />
<glyph unicode="&#xe8;" horiz-adv-x="989" d="M60.5 456q-2.5 17 0.5 21v1v1v2q0 220 125.5 355t327.5 135q101 0 182.5 -36t130.5 -95.5t75 -131.5t26 -149v-43l-606 -119q-2 1 -3 0.5t-8 -2.5q14 -152 84.5 -237.5t192.5 -81.5q3 2 14.5 -0.5t40.5 3t59.5 14t73 32t80.5 57.5h62q-63 -111 -141.5 -160t-182.5 -49 q-81 0 -150.5 13.5t-119.5 36t-92 53.5t-67.5 65.5t-47 71.5t-30.5 73t-17 68.5t-7.5 58.5t-2 43zM307 502l391 71q-6 68 -17.5 119.5t-32.5 92t-54 62t-78 21.5q-209 0 -209 -366zM330 1112v178l366 -174v-63z" />
<glyph unicode="&#xe9;" horiz-adv-x="989" d="M60.5 456q-2.5 17 0.5 21v1v1v2q0 220 125.5 355t327.5 135q101 0 182.5 -36t130.5 -95.5t75 -131.5t26 -149v-43l-606 -119q-2 1 -3 0.5t-8 -2.5q14 -152 84.5 -237.5t192.5 -81.5q3 2 14.5 -0.5t40.5 3t59.5 14t73 32t80.5 57.5h62q-63 -111 -141.5 -160t-182.5 -49 q-81 0 -150.5 13.5t-119.5 36t-92 53.5t-67.5 65.5t-47 71.5t-30.5 73t-17 68.5t-7.5 58.5t-2 43zM307 502l391 71q-6 68 -17.5 119.5t-32.5 92t-54 62t-78 21.5q-209 0 -209 -366zM330 1053v63l366 174v-178z" />
<glyph unicode="&#xea;" horiz-adv-x="989" d="M60.5 456q-2.5 17 0.5 21v1v1v2q0 220 125.5 355t327.5 135q101 0 182.5 -36t130.5 -95.5t75 -131.5t26 -149v-43l-606 -119q-2 1 -3 0.5t-8 -2.5q14 -152 84.5 -237.5t192.5 -81.5q3 2 14.5 -0.5t40.5 3t59.5 14t73 32t80.5 57.5h62q-63 -111 -141.5 -160t-182.5 -49 q-81 0 -150.5 13.5t-119.5 36t-92 53.5t-67.5 65.5t-47 71.5t-30.5 73t-17 68.5t-7.5 58.5t-2 43zM274 1032v55l244 195l242 -195v-55l-242 78zM307 502l391 71q-6 68 -17.5 119.5t-32.5 92t-54 62t-78 21.5q-209 0 -209 -366z" />
<glyph unicode="&#xeb;" horiz-adv-x="989" d="M60.5 456q-2.5 17 0.5 21v1v1v2q0 220 125.5 355t327.5 135q101 0 182.5 -36t130.5 -95.5t75 -131.5t26 -149v-43l-606 -119q-2 1 -3 0.5t-8 -2.5q14 -152 84.5 -237.5t192.5 -81.5q3 2 14.5 -0.5t40.5 3t59.5 14t73 32t80.5 57.5h62q-63 -111 -141.5 -160t-182.5 -49 q-81 0 -150.5 13.5t-119.5 36t-92 53.5t-67.5 65.5t-47 71.5t-30.5 73t-17 68.5t-7.5 58.5t-2 43zM180 1153q0 47 34 82t81 35q49 0 83 -34.5t34 -82.5q0 -49 -34 -83t-83 -34q-48 0 -81.5 34t-33.5 83zM307 502l391 71q-6 68 -17.5 119.5t-32.5 92t-54 62t-78 21.5 q-209 0 -209 -366zM614 1153q0 47 35 82t82 35t82 -35t35 -82q0 -49 -34.5 -83t-82.5 -34t-82.5 34t-34.5 83z" />
<glyph unicode="&#xec;" horiz-adv-x="606" d="M61 0v39q2 1 6.5 2.5t18 9t27 19t32 34.5t35.5 52v530q-26 46 -56 75.5t-46 35.5l-17 6v39h2q9 1 23.5 2t56 8t78.5 16.5t80 28t70 41.5h55v-782q26 -46 56 -75.5t46 -35.5l17 -6v-39h-484zM76 1112v178l366 -174v-63z" />
<glyph unicode="&#xed;" horiz-adv-x="606" d="M61 0v39q2 1 6.5 2.5t18 9t27 19t32 34.5t35.5 52v530q-26 46 -56 75.5t-46 35.5l-17 6v39h2q9 1 23.5 2t56 8t78.5 16.5t80 28t70 41.5h55v-782q26 -46 56 -75.5t46 -35.5l17 -6v-39h-484zM76 1053v63l366 174v-178z" />
<glyph unicode="&#xee;" horiz-adv-x="645" d="M61 1032v55l244 195l242 -195v-55l-242 78zM100 0v39q2 1 6.5 2.5t18 9t27 19t32 34.5t35.5 52v530q-26 46 -56 75.5t-47 35.5l-16 6v39h2q9 1 23.5 2t56 8t78.5 16.5t80 28t70 41.5h55v-782q26 -46 56 -75.5t47 -35.5l16 -6v-39h-484z" />
<glyph unicode="&#xef;" horiz-adv-x="790" d="M61 1153q0 47 34 82t81 35q49 0 83 -34.5t34 -82.5q0 -49 -33.5 -83t-83.5 -34q-48 0 -81.5 34t-33.5 83zM180 0v39q2 1 6.5 2.5t18 9t27 19t32 34.5t35.5 52v530q-26 46 -56 75.5t-47 35.5l-16 6v39h2q9 1 23.5 2t56 8t78 16.5t79.5 28t70 41.5h56v-782q26 -46 56 -75.5 t47 -35.5l16 -6v-39h-484zM496 1153q0 47 34.5 82t81.5 35t82 -35t35 -82q0 -49 -34.5 -83t-82.5 -34t-82 34t-34 83z" />
<glyph unicode="&#xf0;" horiz-adv-x="1077" d="M61 440q0 220 130.5 347.5t334.5 127.5q83 0 158 -38q-26 70 -76 159l-174 -45v125l103 27q-124 155 -263 231v60q250 -96 424 -250l193 49v-125l-94 -25q113 -133 166 -283t53 -296q0 -262 -123.5 -395.5t-366.5 -133.5q-206 0 -335.5 123.5t-129.5 341.5zM307 440 q0 -150 68 -256t155 -106q59 0 102.5 31t68 86.5t36 122t11.5 147.5q0 103 -20.5 178t-71.5 122.5t-130 47.5q-71 0 -121.5 -53.5t-74 -136t-23.5 -183.5z" />
<glyph unicode="&#xf1;" horiz-adv-x="1284" d="M61 0v39q2 1 6.5 2.5t18 9t27 19t32 34.5t35.5 52v530q-26 46 -56 75.5t-46 35.5l-17 6v39q16 3 43 9t94.5 30.5t116.5 56.5h47l60 -131q7 14 27.5 35.5t60 51.5t106 50.5t144.5 20.5q152 0 248 -97.5t96 -240.5v-471q26 -46 56 -75.5t46 -35.5l17 -6v-39h-482v39 q2 1 6.5 2t17.5 9t26.5 19t31.5 33t35 50v477q0 50 -14.5 99t-51 86.5t-87.5 37.5q-56 0 -109 -24t-88 -58.5t-55 -59t-27 -38.5v-516q26 -46 56 -75.5t46 -35.5l17 -6v-39h-484zM391 1108q46 44 82 64t78 20q35 0 82.5 -25.5t68.5 -25.5q44 0 97 53l47 -68 q-85 -82 -156 -82q-32 0 -76.5 27t-74.5 27q-27 0 -46.5 -12.5t-52.5 -43.5z" />
<glyph unicode="&#xf2;" horiz-adv-x="1101" d="M61 481q0 -107 39 -201.5t105.5 -161t158 -105t193.5 -38.5q128 0 238.5 65t177.5 182t67 259q0 140 -67 253t-177 175t-239 62q-137 0 -250 -62t-179.5 -174.5t-66.5 -253.5zM328 481q0 105 23.5 190t76 141t127.5 56q74 0 124.5 -56t72.5 -141t22 -190q0 -76 -12 -145 t-36.5 -128t-67 -94.5t-97.5 -35.5q-74 0 -128.5 61.5t-79.5 151t-25 190.5zM365 1112v178l366 -174v-63z" />
<glyph unicode="&#xf3;" horiz-adv-x="1101" d="M61 481q0 -107 39 -201.5t105.5 -161t158 -105t193.5 -38.5q128 0 238.5 65t177.5 182t67 259q0 140 -67 253t-177 175t-239 62q-137 0 -250 -62t-179.5 -174.5t-66.5 -253.5zM328 481q0 105 23.5 190t76 141t127.5 56q74 0 124.5 -56t72.5 -141t22 -190q0 -76 -12 -145 t-36.5 -128t-67 -94.5t-97.5 -35.5q-74 0 -128.5 61.5t-79.5 151t-25 190.5zM365 1053v63l366 174v-178z" />
<glyph unicode="&#xf4;" horiz-adv-x="1101" d="M61 481q0 -107 39 -201.5t105.5 -161t158 -105t193.5 -38.5q128 0 238.5 65t177.5 182t67 259q0 140 -67 253t-177 175t-239 62q-137 0 -250 -62t-179.5 -174.5t-66.5 -253.5zM313 1032v55l244 195l242 -195v-55l-242 78zM328 481q0 105 23.5 190t76 141t127.5 56 q74 0 124.5 -56t72.5 -141t22 -190q0 -76 -12 -145t-36.5 -128t-67 -94.5t-97.5 -35.5q-74 0 -128.5 61.5t-79.5 151t-25 190.5z" />
<glyph unicode="&#xf5;" horiz-adv-x="1101" d="M61 481q0 -107 39 -201.5t105.5 -161t158 -105t193.5 -38.5q128 0 238.5 65t177.5 182t67 259q0 140 -67 253t-177 175t-239 62q-137 0 -250 -62t-179.5 -174.5t-66.5 -253.5zM328 481q0 105 23.5 190t76 141t127.5 56q74 0 124.5 -56t72.5 -141t22 -190q0 -76 -12 -145 t-36.5 -128t-67 -94.5t-97.5 -35.5q-74 0 -128.5 61.5t-79.5 151t-25 190.5zM340 1108q46 44 82 64t78 20q35 0 82.5 -25.5t68.5 -25.5q44 0 97 53l47 -68q-85 -82 -156 -82q-32 0 -77 27t-75 27q-27 0 -46 -12t-52 -44z" />
<glyph unicode="&#xf6;" horiz-adv-x="1101" d="M61 481q0 -107 39 -201.5t105.5 -161t158 -105t193.5 -38.5q128 0 238.5 65t177.5 182t67 259q0 140 -67 253t-177 175t-239 62q-137 0 -250 -62t-179.5 -174.5t-66.5 -253.5zM223 1153q0 47 34 82t81 35q49 0 83 -34.5t34 -82.5q0 -49 -33.5 -83t-83.5 -34 q-48 0 -81.5 34t-33.5 83zM328 481q0 105 23.5 190t76 141t127.5 56q74 0 124.5 -56t72.5 -141t22 -190q0 -76 -12 -145t-36.5 -128t-67 -94.5t-97.5 -35.5q-74 0 -128.5 61.5t-79.5 151t-25 190.5zM657 1153q0 47 35 82t82 35t82 -35t35 -82q0 -49 -34.5 -83t-82.5 -34 t-82.5 34t-34.5 83z" />
<glyph unicode="&#xf7;" horiz-adv-x="1148" d="M123 410h876l27 122h-876zM459 106q0 -55 34 -92t78 -37q55 0 91 36.5t36 92.5q0 50 -37 86.5t-90 36.5q-43 0 -77.5 -37t-34.5 -86zM459 846q0 -55 34 -92t78 -37q55 0 91 36.5t36 92.5q0 50 -37 86.5t-90 36.5q-43 0 -77.5 -37t-34.5 -86z" />
<glyph unicode="&#xf8;" horiz-adv-x="1101" d="M61 481q0 141 66.5 253.5t179.5 174.5t250 62q185 0 322 -121l30 31h127v-41l-78 -82q82 -122 82 -277q0 -142 -67 -259t-177.5 -182t-238.5 -65q-146 0 -270 78l-51 -53h-132v43l89 90q-132 145 -132 348zM328 481q0 -92 22 -182l391 406q-59 163 -186 163 q-75 0 -127.5 -56t-76 -141t-23.5 -190zM403 176q65 -98 158 -98q55 0 97.5 35.5t67 94.5t36.5 128t12 145q0 26 -4 80z" />
<glyph unicode="&#xf9;" horiz-adv-x="1228" d="M61 805v39q24 3 61.5 10t121 33t127.5 57h55v-700q0 -70 48 -105t120 -35q39 0 77.5 12t70 32t54 37.5t44 37.5t24.5 23v442q-26 46 -56 75.5t-46 35.5l-17 6v39q14 0 63.5 7t128.5 31.5t120 59.5h53v-786q26 -46 56 -75.5t46 -35.5l17 -6v-39h-320l-41 115 q-12 -13 -35 -31.5t-67.5 -47t-109 -47t-134.5 -18.5q-42 0 -87.5 11t-91 34.5t-82 55.5t-59 79.5t-22.5 102.5v434q-26 46 -56 75.5t-46 35.5zM475 1112v178l367 -174v-63z" />
<glyph unicode="&#xfa;" horiz-adv-x="1290" d="M61 805v39q24 3 61.5 10t121 33t127.5 57h55v-700q0 -70 48 -105t120 -35q39 0 77.5 12t70 32t54 37.5t44 37.5t24.5 23v442q-26 46 -56 75.5t-46 35.5l-17 6v39q14 0 63.5 7t128.5 31.5t120 59.5h53v-786q26 -46 56 -75.5t46 -35.5l17 -6v-39h-320l-41 115 q-12 -13 -35 -31.5t-67.5 -47t-109 -47t-134.5 -18.5q-42 0 -87.5 11t-91 34.5t-82 55.5t-59 79.5t-22.5 102.5v434q-26 46 -56 75.5t-46 35.5zM475 1053v63l367 174v-178z" />
<glyph unicode="&#xfb;" horiz-adv-x="1290" d="M61 805v39q24 3 61.5 10t121 33t127.5 57h55v-700q0 -70 48 -105t120 -35q39 0 77.5 12t70 32t54 37.5t44 37.5t24.5 23v442q-26 46 -56 75.5t-46 35.5l-17 6v39q14 0 63.5 7t128.5 31.5t120 59.5h53v-786q26 -46 56 -75.5t46 -35.5l17 -6v-39h-320l-41 115 q-12 -13 -35 -31.5t-67.5 -47t-109 -47t-134.5 -18.5q-42 0 -87.5 11t-91 34.5t-82 55.5t-59 79.5t-22.5 102.5v434q-26 46 -56 75.5t-46 35.5zM381 1032v55l244 195l241 -195v-55l-241 78z" />
<glyph unicode="&#xfc;" horiz-adv-x="1290" d="M61 805v39q24 3 61.5 10t121 33t127.5 57h55v-700q0 -70 48 -105t120 -35q39 0 77.5 12t70 32t54 37.5t44 37.5t24.5 23v442q-26 46 -56 75.5t-46 35.5l-17 6v39q14 0 63.5 7t128.5 31.5t120 59.5h53v-786q26 -46 56 -75.5t46 -35.5l17 -6v-39h-320l-41 115 q-12 -13 -35 -31.5t-67.5 -47t-109 -47t-134.5 -18.5q-42 0 -87.5 11t-91 34.5t-82 55.5t-59 79.5t-22.5 102.5v434q-26 46 -56 75.5t-46 35.5zM332 1153q0 48 33.5 82.5t80.5 34.5q49 0 83 -34.5t34 -82.5q0 -49 -33.5 -83t-83.5 -34q-47 0 -80.5 34t-33.5 83zM766 1153 q0 47 35 82t82 35t81.5 -35t34.5 -82q0 -49 -34 -83t-82 -34t-82.5 34t-34.5 83z" />
<glyph unicode="&#xfd;" horiz-adv-x="1198" d="M61 901v39h510v-39q-2 -1 -6.5 -2.5t-18 -9t-26.5 -19t-31.5 -34.5t-35.5 -52l237 -473l219 473v2q-26 45 -55 74t-45 35l-16 6v39h344v-39q-2 -1 -6.5 -2.5t-18 -9t-27 -19t-32 -34.5t-35.5 -52l-488 -1110q-36 -82 -96.5 -138.5t-136 -72.5t-154.5 31v55 q95 -31 172.5 18.5t112.5 133.5l137 299l-385 784q-26 46 -56 75.5t-46 35.5zM508 1053v63l366 174v-178z" />
<glyph unicode="&#xfe;" horiz-adv-x="1202" d="M61 -690q2 0 6.5 1.5t18 9t26.5 18.5t32 33t36 50v1856q-26 46 -56 75.5t-46 35.5l-17 6v39h486v-39q-2 -1 -6.5 -2.5t-18 -9t-27 -19t-32 -34.5t-35.5 -52v-360q101 53 229 53q96 0 184.5 -36.5t154.5 -100.5t105.5 -156t39.5 -197q0 -142 -67 -259t-178 -182t-239 -65 q-125 0 -231 56v-604q26 -46 56 -75.5t46 -35.5l17 -6v-39h-484v39zM428 481q0 -101 25 -190.5t80 -151t129 -61.5q55 0 97.5 35t66.5 94.5t36 128.5t12 145q0 105 -22 190t-72.5 141t-124.5 56q-75 0 -127.5 -56t-76 -141t-23.5 -190z" />
<glyph unicode="&#xff;" horiz-adv-x="1198" d="M61 901v39h510v-39q-2 -1 -6.5 -2.5t-18 -9t-26.5 -19t-31.5 -34.5t-35.5 -52l237 -473l219 473v2q-26 45 -55 74t-45 35l-16 6v39h344v-39q-2 -1 -6.5 -2.5t-18 -9t-27 -19t-32 -34.5t-35.5 -52l-488 -1110q-36 -82 -96.5 -138.5t-136 -72.5t-154.5 31v55 q95 -31 172.5 18.5t112.5 133.5l137 299l-385 784q-26 46 -56 75.5t-46 35.5zM354 1153q0 47 34 82t81 35q49 0 83 -34.5t34 -82.5q0 -49 -34 -83t-83 -34q-48 0 -81.5 34t-33.5 83zM788 1153q0 47 35 82t82 35t82 -35t35 -82q0 -49 -34.5 -83t-82.5 -34t-82.5 34t-34.5 83z " />
<glyph unicode="&#x152;" horiz-adv-x="2152" d="M61 709q0 162 53.5 302t147.5 238.5t225.5 154.5t282.5 56q108 0 193 -26h905l117 -228h-52l-116 105h-441q-28 -13 -59 -60v-362q14 -21 28.5 -36t22.5 -19l8 -5h266q48 26 78.5 56t36.5 47l6 16h37v-360h-37q0 2 -1.5 6.5t-9.5 18t-20 27t-35.5 32t-54.5 35.5h-270 q-24 -12 -55 -58v-467q14 -21 28.5 -35.5t22.5 -18.5l8 -5h543l123 127h49l-111 -250h-1009q-98 -29 -201 -29q-151 0 -282.5 56t-225 153t-147.5 234.5t-54 294.5zM348 709q0 -175 49.5 -313.5t146.5 -220t226 -81.5q180 0 281 117v1010q-100 116 -281 116 q-130 0 -226 -80.5t-146 -222t-50 -325.5zM1339 1311h17q-7 2 -17 0z" />
<glyph unicode="&#x153;" horiz-adv-x="1718" d="M61 481q0 141 66.5 253.5t179.5 174.5t250 62q99 0 189.5 -39t158.5 -109q126 148 338 148q101 0 182.5 -36t130.5 -95.5t75 -131.5t26 -149v-43l-606 -119q-2 1 -3 0.5t-8 -2.5q14 -152 84.5 -237.5t192.5 -81.5q3 2 14.5 -0.5t40.5 3t59.5 14t73 32t80.5 57.5h62 q-63 -111 -141.5 -160t-182.5 -49q-280 0 -418 156q-68 -73 -158.5 -113.5t-189.5 -40.5q-102 0 -193.5 38.5t-158 105t-105.5 161t-39 201.5zM328 481q0 -101 25 -190.5t79.5 -151t128.5 -61.5q55 0 97.5 35.5t67 94.5t36.5 128t12 145q0 105 -22 190t-72.5 141t-124.5 56 q-75 0 -127.5 -56t-76 -141t-23.5 -190zM1036 543l4 -41l387 71q-6 68 -17.5 119.5t-32.5 92t-54 62t-78 21.5q-198 0 -209 -325z" />
<glyph unicode="&#x178;" horiz-adv-x="1292" d="M61 1395v39h560v-39q-2 -1 -6.5 -2.5t-18 -9t-27 -19t-32 -34.5t-35.5 -52l233 -467l246 467q-26 46 -56 75.5t-47 35.5l-16 6v39h369v-39q-2 -1 -6.5 -2.5t-18 -9t-27 -19t-32 -34.5t-35.5 -52l-328 -672v-450q26 -46 56 -75.5t46 -35.5l17 -6v-39h-504v39q2 1 6.5 2.5 t18 9t27 19t32 34.5t35.5 52v450l-338 672q-26 46 -56 75.5t-46 35.5zM414 1634q0 48 33.5 82.5t80.5 34.5q49 0 83 -34.5t34 -82.5q0 -49 -33.5 -82.5t-83.5 -33.5q-48 0 -81 33.5t-33 82.5zM848 1634q0 47 35 82t82 35t81.5 -35t34.5 -82q0 -49 -34 -82.5t-82 -33.5 t-82.5 33.5t-34.5 82.5z" />
<glyph unicode="&#x2c6;" horiz-adv-x="280" d="M-102 1225v55l243 195l242 -195v-55l-242 78z" />
<glyph unicode="&#x2dc;" horiz-adv-x="249" d="M-102 1413q46 44 81.5 64t77.5 20q35 0 83 -25.5t69 -25.5q43 0 96 53l47 -67q-85 -82 -155 -82q-32 0 -77 26.5t-75 26.5q-27 0 -46 -12t-52 -43z" />
<glyph unicode="&#x2000;" horiz-adv-x="892" />
<glyph unicode="&#x2001;" horiz-adv-x="1784" />
<glyph unicode="&#x2002;" horiz-adv-x="892" />
<glyph unicode="&#x2003;" horiz-adv-x="1784" />
<glyph unicode="&#x2004;" horiz-adv-x="594" />
<glyph unicode="&#x2005;" horiz-adv-x="446" />
<glyph unicode="&#x2006;" horiz-adv-x="297" />
<glyph unicode="&#x2007;" horiz-adv-x="297" />
<glyph unicode="&#x2008;" horiz-adv-x="223" />
<glyph unicode="&#x2009;" horiz-adv-x="356" />
<glyph unicode="&#x200a;" horiz-adv-x="99" />
<glyph unicode="&#x2010;" horiz-adv-x="907" d="M61 473h758l27 123h-758z" />
<glyph unicode="&#x2011;" horiz-adv-x="907" d="M61 473h758l27 123h-758z" />
<glyph unicode="&#x2012;" horiz-adv-x="907" d="M61 473h758l27 123h-758z" />
<glyph unicode="&#x2013;" horiz-adv-x="1255" d="M0 471h1229l26 123h-1228z" />
<glyph unicode="&#x2014;" horiz-adv-x="1869" d="M0 471h1843l27 123h-1843z" />
<glyph unicode="&#x2018;" horiz-adv-x="436" d="M102 1325q0 37 21 72h-2l176 268v-123l-64 -94q41 -6 71 -40t30 -83q0 -46 -35 -82.5t-76 -36.5q-50 0 -85.5 35.5t-35.5 83.5z" />
<glyph unicode="&#x2019;" horiz-adv-x="436" d="M102 1546q0 46 35 82.5t76 36.5q50 0 85.5 -35.5t35.5 -83.5q0 -36 -21 -71h2l-176 -269v123l64 94q-41 6 -71 40t-30 83z" />
<glyph unicode="&#x201a;" horiz-adv-x="436" d="M102 92q0 46 35 82.5t76 36.5q50 0 85.5 -35.5t35.5 -83.5q0 -37 -21 -72h2l-176 -268v123l64 94q-41 6 -71 40t-30 83z" />
<glyph unicode="&#x201c;" horiz-adv-x="710" d="M102 1325q0 37 21 72h-2l176 268v-123l-64 -94q41 -6 71 -40t30 -83q0 -46 -35 -82.5t-76 -36.5q-50 0 -85.5 35.5t-35.5 83.5zM377 1325q0 39 20 72h-2l176 268v-123l-63 -94q41 -6 70.5 -40t29.5 -83q0 -46 -34.5 -82.5t-75.5 -36.5q-50 0 -85.5 35.5t-35.5 83.5z" />
<glyph unicode="&#x201d;" horiz-adv-x="710" d="M102 1546q0 46 35 82.5t76 36.5q50 0 85.5 -35.5t35.5 -83.5q0 -36 -21 -71h2l-176 -269v123l64 94q-41 6 -71 40t-30 83zM377 1546q0 46 34.5 82.5t75.5 36.5q50 0 85.5 -35.5t35.5 -83.5q0 -38 -20 -71h2l-176 -269v123l63 94q-41 6 -70.5 40t-29.5 83z" />
<glyph unicode="&#x201e;" horiz-adv-x="710" d="M102 92q0 46 35 82.5t76 36.5q50 0 85.5 -35.5t35.5 -83.5q0 -37 -21 -72h2l-176 -268v123l64 94q-41 6 -71 40t-30 83zM377 92q0 46 34.5 82.5t75.5 36.5q50 0 85.5 -35.5t35.5 -83.5q0 -39 -20 -72h2l-176 -268v123l63 94q-41 6 -70.5 40t-29.5 83z" />
<glyph unicode="&#x2022;" horiz-adv-x="759" d="M164 627q0 87 64 152t151 65q89 0 153 -65t64 -152q0 -88 -64 -150.5t-153 -62.5q-88 0 -151.5 62.5t-63.5 150.5z" />
<glyph unicode="&#x2026;" horiz-adv-x="1234" d="M102 117q0 -63 39 -105.5t90 -42.5q61 0 102.5 42t41.5 106q0 56 -42.5 97.5t-101.5 41.5q-50 0 -89.5 -42t-39.5 -97zM477 117q0 -63 39 -105.5t90 -42.5q61 0 102.5 42t41.5 106q0 56 -42.5 97.5t-101.5 41.5q-50 0 -89.5 -42t-39.5 -97zM860 117q0 -63 39 -105.5 t90 -42.5q61 0 102.5 42t41.5 106q0 56 -42.5 97.5t-101.5 41.5q-50 0 -89.5 -42t-39.5 -97z" />
<glyph unicode="&#x202f;" horiz-adv-x="356" />
<glyph unicode="&#x2039;" horiz-adv-x="497" d="M82 481v43l258 297h55l-112 -319l112 -322h-57z" />
<glyph unicode="&#x203a;" horiz-adv-x="497" d="M102 180l113 322l-113 319h56l258 -297v-43l-256 -301h-58z" />
<glyph unicode="&#x205f;" horiz-adv-x="446" />
<glyph unicode="&#x20ac;" horiz-adv-x="1513" d="M61 512l27 123h186q-4 62 -4 94v39h-149l26 123h140q51 254 244.5 413.5t472.5 159.5q104 0 226.5 -32.5t215.5 -90.5l-86 -313h-47q-6 91 -22 146.5t-52 95t-95 55.5t-153 16q-176 -9 -284.5 -126.5t-139.5 -323.5h363l-27 -123h-346v-39q0 -32 4 -94h309l-26 -123h-269 q38 -200 148.5 -308t280.5 -108q138 0 210 31t177 137h61q-47 -86 -100 -144.5t-113.5 -90t-121.5 -44t-138 -12.5q-281 0 -457 145t-229 394h-232z" />
<glyph unicode="&#x2122;" horiz-adv-x="1335" d="M123 1348l47 86h387l47 -86h-20l-47 43h-101q-12 -5 -24 -21v-397q11 -17 22.5 -28.5t17.5 -14.5l5 -2v-13h-185v13q20 6 43 45v397q-4 7 -9.5 12.5t-9.5 7.5l-3 1h-105l-43 -43h-22zM618 1421v13h173l127 -357l131 357h163v-13q-3 0 -7.5 -1.5t-16 -12.5t-19.5 -29v-407 q8 -18 18.5 -29t17.5 -12l7 -2v-15h-184v15q20 2 43 43v401l-141 -403q-12 -7 -23.5 -21t-16.5 -24l-5 -11h-19l-157 459v-401q10 -18 22 -29t19 -12l6 -2v-15h-131v15q19 2 37 43v407q-9 18 -20 29t-18 13z" />
<glyph unicode="&#x25fc;" horiz-adv-x="942" d="M0 0v942h942v-942h-942z" />
</font>
</defs>
</svg>
