<?xml version="1.0" encoding="utf-8"?>
<!-- Generator: Adobe Illustrator 20.0.0, SVG Export Plug-In . SVG Version: 6.00 Build 0)  -->
<svg version="1.1" id="Layer_1" xmlns="http://www.w3.org/2000/svg" xmlns:xlink="http://www.w3.org/1999/xlink" x="0px" y="0px"
	 viewBox="0 0 64 30" style="enable-background:new 0 0 64 30;" xml:space="preserve">
<style type="text/css">
	.st0{fill:#141414;}
	.st1{fill:#FFFFFF;}
</style>
<g>
	
		<image style="overflow:visible;opacity:0.65;" width="70" height="37" xlink:href="1FDD61BC514095C5.png"  transform="matrix(1 0 0 1 0 -3)">
	</image>
	<g>
		<g>
			<polygon class="st0" points="4.7,12.5 24.8,1.4 24.8,8.1 60,8.1 60,16.9 24.8,16.9 24.8,23.6 			"/>
			<path class="st1" d="M24.1,2.6v6.3h35.1v7.3H24.1v6.3l-17.9-10L24.1,2.6 M25.5,0.2l-2.1,1.2L5.5,11.3l-2.2,1.2l2.2,1.2l17.9,9.9
				l2.1,1.2v-2.4v-4.9h33.7h1.4v-1.4V8.8V7.4h-1.4H25.5V2.6V0.2L25.5,0.2z"/>
		</g>
	</g>
</g>
</svg>
