<?xml version="1.0" encoding="utf-8"?>
<!-- Generator: Adobe Illustrator 20.0.0, SVG Export Plug-In . SVG Version: 6.00 Build 0)  -->
<svg version="1.1" id="Layer_1" xmlns="http://www.w3.org/2000/svg" xmlns:xlink="http://www.w3.org/1999/xlink" x="0px" y="0px"
	 viewBox="0 0 35 60" style="enable-background:new 0 0 35 60;" xml:space="preserve">
<style type="text/css">
	.st0{fill:#141414;}
	.st1{fill:#FFFFFF;}
</style>
<g>
	
		<image style="overflow:visible;opacity:0.65;" width="39" height="67" xlink:href="1AC63214D103A464.png"  transform="matrix(1 0 0 1 -3 -3)">
	</image>
	<g>
		<g>
			<polygon class="st0" points="8.2,53.7 8.2,21.5 1.4,21.5 12.6,1.4 23.7,21.5 17,21.5 17,42.8 25.7,42.8 25.7,53.7 			"/>
			<g>
				<path class="st1" d="M12.6,2.9l9.9,17.9h-6.3v22.6H25V53h-8.7H15H9V20.8H2.7L12.6,2.9 M12.6,0l-1.2,2.2l-10,18l-1.2,2.1h2.4h4.9
					V53v1.4h1.4h6h1.3H25h1.4V53v-9.5v-1.4H25h-7.3V22.3h4.9H25l-1.2-2.1l-10-18L12.6,0L12.6,0z"/>
			</g>
		</g>
	</g>
</g>
</svg>
