<?xml version="1.0" encoding="utf-8"?>
<!-- Generator: Adobe Illustrator 20.0.0, SVG Export Plug-In . SVG Version: 6.00 Build 0)  -->
<svg version="1.1" id="Layer_1" xmlns="http://www.w3.org/2000/svg" xmlns:xlink="http://www.w3.org/1999/xlink" x="0px" y="0px"
	 viewBox="0 0 64 30" style="enable-background:new 0 0 64 30;" xml:space="preserve">
<style type="text/css">
	.st0{fill:#141414;}
	.st1{fill:#FFFFFF;}
</style>
<g>
	
		<image style="overflow:visible;opacity:0.65;" width="70" height="37" xlink:href="58E2A35C4057B7E9.png"  transform="matrix(1 0 0 1 0 -3)">
	</image>
	<g>
		<g>
			<polygon class="st0" points="39.1,23.6 39.1,16.9 3.9,16.9 3.9,8.1 39.1,8.1 39.1,1.4 59.2,12.5 			"/>
			<path class="st1" d="M39.8,2.6l17.9,9.9l-17.9,10v-6.3H4.7l0-7.3h35.1V2.6 M38.4,0.2v2.4v4.8H4.7H3.3v1.4v7.3v1.4h1.4h33.7v4.9
				v2.4l2.1-1.2l17.9-9.9l2.2-1.2l-2.2-1.2L40.5,1.4L38.4,0.2L38.4,0.2z"/>
		</g>
	</g>
</g>
</svg>
