<?xml version="1.0" encoding="utf-8"?>
<!-- Generator: Adobe Illustrator 20.0.0, SVG Export Plug-In . SVG Version: 6.00 Build 0)  -->
<svg version="1.1" id="Layer_1" xmlns="http://www.w3.org/2000/svg" xmlns:xlink="http://www.w3.org/1999/xlink" x="0px" y="0px"
	 viewBox="0 0 35 60" style="enable-background:new 0 0 35 60;" xml:space="preserve">
<style type="text/css">
	.st0{fill:#141414;}
	.st1{fill:#FFFFFF;}
</style>
<g>
	
		<image style="overflow:visible;opacity:0.65;" width="39" height="67" xlink:href="337A0AD9A49171D9.png"  transform="matrix(1 0 0 1 -1.9999 -1.9999)">
	</image>
	<g>
		<g>
			<polygon class="st0" points="19.4,1.7 19.4,33.9 26.2,33.9 15,54 3.9,33.9 10.6,33.9 10.6,12.6 1.9,12.6 1.9,1.7 			"/>
			<g>
				<path class="st1" d="M15,52.5L5.1,34.6h6.3V12H2.6V2.4h8.7h1.3h6v32.2h6.3L15,52.5 M15,55.4l1.2-2.2l10-18l1.2-2.1H25h-4.9V2.4
					V1h-1.4h-6h-1.3H2.6H1.2v1.4v9.5v1.4h1.4h7.3v19.8H5H2.6l1.2,2.1l10,18L15,55.4L15,55.4z"/>
			</g>
		</g>
	</g>
</g>
</svg>
